<?xml version="1.0" encoding="utf-8"?>
<!-- Generator: Adobe Illustrator 19.0.0, SVG Export Plug-In . SVG Version: 6.00 Build 0)  -->
<svg version="1.1" id="Layer_1" xmlns="http://www.w3.org/2000/svg" xmlns:xlink="http://www.w3.org/1999/xlink" x="0px" y="0px"
	 viewBox="0 0 455.3 455.3" style="enable-background:new 0 0 455.3 455.3;" xml:space="preserve">
<style type="text/css">
	.st0{clip-path:url(#SVGID_2_);fill:#0084D1;}
	.st1{clip-path:url(#SVGID_2_);fill:#E2EBFF;}
	.st2{clip-path:url(#SVGID_2_);fill:none;stroke:#FFFFFF;stroke-width:12;stroke-miterlimit:10;}
	
		.st3{clip-path:url(#SVGID_2_);fill:none;stroke:#FFFFFF;stroke-width:10;stroke-linecap:round;stroke-linejoin:round;stroke-miterlimit:10;}
</style>
<g>
	<defs>
		<rect id="SVGID_1_" width="455.3" height="455.3"/>
	</defs>
	<clipPath id="SVGID_2_">
		<use xlink:href="#SVGID_1_"  style="overflow:visible;"/>
	</clipPath>
	<path class="st0" d="M376.3,233.9c0,86.2-69.8,156-156,156s-156-69.8-156-156s69.8-156,156-156S376.3,147.7,376.3,233.9"/>
	<path class="st1" d="M227.7,6C168.9,6,112.5,29.4,70.9,70.9C29.4,112.5,6,168.9,6,227.7s23.4,115.2,64.9,156.7
		c41.6,41.6,98,64.9,156.7,64.9s115.2-23.4,156.7-64.9c41.6-41.6,64.9-98,64.9-156.7S426,112.5,384.4,70.9
		C342.8,29.4,286.5,6,227.7,6z"/>
	<path class="st2" d="M227.7,6C168.9,6,112.5,29.4,70.9,70.9C29.4,112.5,6,168.9,6,227.7s23.4,115.2,64.9,156.7
		c41.6,41.6,98,64.9,156.7,64.9s115.2-23.4,156.7-64.9c41.6-41.6,64.9-98,64.9-156.7S426,112.5,384.4,70.9
		C342.8,29.4,286.5,6,227.7,6z"/>
	<path class="st0" d="M273.2,249.7c-13.4,8.1-29,12.8-45.6,12.8s-32.2-4.6-45.6-12.8c-39.2,18-64.4,59.5-64.4,106.3
		c0,3.2,220.1,3.2,220.1,0C337.7,308.9,312.4,267.7,273.2,249.7L273.2,249.7z"/>
	<path class="st3" d="M273.2,249.7c-13.4,8.1-29,12.8-45.6,12.8s-32.2-4.6-45.6-12.8c-39.2,18-64.4,59.5-64.4,106.3
		c0,3.2,220.1,3.2,220.1,0C337.7,308.9,312.4,267.7,273.2,249.7L273.2,249.7z"/>
	<path class="st0" d="M304.6,173.9c0,42.5-34.4,76.9-76.9,76.9c-42.5,0-76.9-34.4-76.9-76.9c0-42.5,34.4-76.9,76.9-76.9
		C270.2,97,304.6,131.4,304.6,173.9"/>
	<path class="st3" d="M304.6,173.9c0,42.5-34.4,76.9-76.9,76.9c-42.5,0-76.9-34.4-76.9-76.9c0-42.5,34.4-76.9,76.9-76.9
		C270.2,97,304.6,131.4,304.6,173.9"/>
</g>
</svg>
