<?xml version="1.0" encoding="utf-8"?>
<!-- Generator: Adobe Illustrator 19.0.0, SVG Export Plug-In . SVG Version: 6.00 Build 0)  -->
<svg version="1.1" id="Layer_1" xmlns="http://www.w3.org/2000/svg" xmlns:xlink="http://www.w3.org/1999/xlink" x="0px" y="0px"
	 viewBox="0 0 455.3 455.3" style="enable-background:new 0 0 455.3 455.3;" xml:space="preserve">
<style type="text/css">
	.st0{clip-path:url(#SVGID_2_);fill:#0084D1;}
	.st1{clip-path:url(#SVGID_2_);fill:#E2EBFF;}
	.st2{clip-path:url(#SVGID_2_);fill:none;stroke:#FFFFFF;stroke-width:12;stroke-miterlimit:10;}
</style>
<g>
	<defs>
		<rect id="SVGID_1_" width="455.3" height="455.3"/>
	</defs>
	<clipPath id="SVGID_2_">
		<use xlink:href="#SVGID_1_"  style="overflow:visible;"/>
	</clipPath>
	<path class="st0" d="M373.7,227.7c0,86.2-69.8,156-156,156s-156-69.8-156-156s69.8-156,156-156S373.7,141.5,373.7,227.7"/>
	<polygon class="st0" points="332.7,261 332.7,194.2 292.5,227.7 	"/>
	<path class="st1" d="M227.7,6C168.9,6,112.5,29.4,70.9,70.9C29.4,112.5,6,168.9,6,227.7s23.4,115.2,64.9,156.7
		c41.6,41.6,98,64.9,156.7,64.9s115.2-23.4,156.7-64.9c41.6-41.6,64.9-98,64.9-156.7S426,112.5,384.4,70.9
		C342.8,29.4,286.5,6,227.7,6z M356,286c0,4.6-2.6,8.7-6.8,10.6c-1.5,0.7-3.2,1.1-4.9,1.1c-2.7,0-5.4-0.9-7.5-2.7L286,252.5v21.8
		c0,9.3-3.7,18.2-10.3,24.7c-6.6,6.6-15.5,10.3-24.8,10.3H134.3c-9.3,0-18.2-3.7-24.8-10.3c-6.6-6.6-10.3-15.5-10.3-24.7V181
		c0-9.3,3.7-18.2,10.3-24.7c6.6-6.6,15.5-10.3,24.8-10.3H251c9.3,0,18.2,3.7,24.8,10.3c6.6,6.6,10.3,15.5,10.3,24.7v21.7l50.9-42.4
		v0c3.5-2.9,8.3-3.5,12.4-1.6c4.1,1.9,6.7,6.1,6.7,10.6V286z"/>
	<path class="st2" d="M227.7,6C168.9,6,112.5,29.4,70.9,70.9C29.4,112.5,6,168.9,6,227.7s23.4,115.2,64.9,156.7
		c41.6,41.6,98,64.9,156.7,64.9s115.2-23.4,156.7-64.9c41.6-41.6,64.9-98,64.9-156.7S426,112.5,384.4,70.9
		C342.8,29.4,286.5,6,227.7,6z M356,286c0,4.6-2.6,8.7-6.8,10.6c-1.5,0.7-3.2,1.1-4.9,1.1c-2.7,0-5.4-0.9-7.5-2.7L286,252.5v21.8
		c0,9.3-3.7,18.2-10.3,24.7c-6.6,6.6-15.5,10.3-24.8,10.3H134.3c-9.3,0-18.2-3.7-24.8-10.3c-6.6-6.6-10.3-15.5-10.3-24.7V181
		c0-9.3,3.7-18.2,10.3-24.7c6.6-6.6,15.5-10.3,24.8-10.3H251c9.3,0,18.2,3.7,24.8,10.3c6.6,6.6,10.3,15.5,10.3,24.7v21.7l50.9-42.4
		v0c3.5-2.9,8.3-3.5,12.4-1.6c4.1,1.9,6.7,6.1,6.7,10.6V286z"/>
	<path class="st0" d="M134.3,169.3H251c6.4,0,11.7,6.4,11.7,11.7v93.3c0,6.4-5.2,11.7-11.7,11.7H134.3c-6.4,0-11.7-6.4-11.7-11.7
		V181C122.7,174.6,127.9,169.3,134.3,169.3z"/>
</g>
</svg>
