<?xml version="1.0" encoding="utf-8"?>
<!-- Generator: Adobe Illustrator 19.0.0, SVG Export Plug-In . SVG Version: 6.00 Build 0)  -->
<svg version="1.1" id="Layer_1" xmlns="http://www.w3.org/2000/svg" xmlns:xlink="http://www.w3.org/1999/xlink" x="0px" y="0px"
	 viewBox="0 0 512 416" style="enable-background:new 0 0 512 416;" xml:space="preserve">
<style type="text/css">
	.st0{clip-path:url(#SVGID_2_);}
</style>
<g>
	<defs>
		<rect id="SVGID_1_" width="512" height="416"/>
	</defs>
	<clipPath id="SVGID_2_">
		<use xlink:href="#SVGID_1_"  style="overflow:visible;"/>
	</clipPath>
	<path fill="#fff" class="st0" d="M512,49.2c-19,8.4-39.3,13.9-60.5,16.6c21.8-13,38.4-33.4,46.2-58c-20.3,12.1-42.7,20.6-66.6,25.4
		C411.9,12.7,384.4,0,354.5,0c-58.1,0-104.9,47.2-104.9,105c0,8.3,0.7,16.3,2.4,23.9C164.7,124.7,87.5,82.8,35.6,19.1
		c-9.1,15.7-14.4,33.7-14.4,53.1c0,36.4,18.7,68.6,46.6,87.2c-16.9-0.3-33.4-5.2-47.4-12.9v1.2c0,51,36.4,93.4,84.1,103.1
		c-8.5,2.3-17.9,3.5-27.5,3.5c-6.7,0-13.5-0.4-19.9-1.8c13.6,41.6,52.2,72.1,98.1,73.1c-35.7,27.9-81.1,44.8-130.1,44.8
		c-8.6,0-16.9-0.4-25.1-1.4c46.5,30,101.6,47.1,161,47.1c193.2,0,298.8-160,298.8-298.7c0-4.6-0.2-9.1-0.4-13.6
		C480.2,89,497.7,70.5,512,49.2"/>
</g>
</svg>
