<?xml version="1.0" encoding="utf-8"?>
<!-- Generator: Adobe Illustrator 19.0.0, SVG Export Plug-In . SVG Version: 6.00 Build 0)  -->
<svg version="1.1" id="Layer_1" xmlns="http://www.w3.org/2000/svg" xmlns:xlink="http://www.w3.org/1999/xlink" x="0px" y="0px"
	 viewBox="0 0 88 88" style="enable-background:new 0 0 88 88;" xml:space="preserve">
<style type="text/css">
	.st0{clip-path:url(#SVGID_2_);}
</style>
<g>
	<defs>
		<rect id="SVGID_1_" width="88" height="88"/>
	</defs>
	<clipPath id="SVGID_2_">
		<use xlink:href="#SVGID_1_"  style="overflow:visible;"/>
	</clipPath>
	<path fill="#fff" class="st0" d="M23,0C10.3,0,0,10.3,0,23v42c0,12.7,10.3,23,23,23h42c12.7,0,23-10.3,23-23V23C88,10.3,77.7,0,65,0H23z M28,8
		h32c11,0,20,9,20,20v32c0,11-9,20-20,20H28C17,80,8,71,8,60V28C8,16.9,17,8,28,8 M28,12c-8.9,0-16,7.1-16,16v32c0,8.9,7.1,16,16,16
		h32c8.9,0,16-7.1,16-16V28c0-8.9-7.1-16-16-16H28z M64,18c2.2,0,4,1.8,4,4c0,2.2-1.8,4-4,4c-2.2,0-4-1.8-4-4C60,19.8,61.8,18,64,18
		 M44,27c9.4,0,17,7.6,17,17s-7.6,17-17,17s-17-7.6-17-17S34.6,27,44,27 M44,31c-7.2,0-13,5.8-13,13s5.8,13,13,13s13-5.8,13-13
		S51.2,31,44,31"/>
</g>
</svg>
