<svg fill="#ffffff" xmlns="http://www.w3.org/2000/svg" viewBox="0 0 3333 1980" shape-rendering="geometricPrecision" text-rendering="geometricPrecision" image-rendering="optimizeQuality" fill-rule="evenodd" clip-rule="evenodd"><path d="M3257 134c23-77 0-134-110-134h-365c-93 0-135 49-159 103 0 0-185 452-448 746-85 85-124 112-170 112-23 0-58-27-58-104V135c0-93-26-134-103-134h-573c-58 0-93 43-93 84 0 88 131 108 145 355v537c0 118-21 139-68 139-124 0-424-454-603-974C617 41 582 0 489 0H124C20 0-1 49-1 103c0 97 124 576 576 1209 301 433 726 667 1112 667 232 0 260-52 260-142v-327c0-104 22-125 95-125 54 0 147 27 363 236 247 247 288 358 427 358h365c104 0 156-52 126-155-33-102-151-251-308-427-85-100-212-209-251-263-54-70-39-100 0-162 0 0 444-626 491-838z"/></svg>