<?xml version="1.0" encoding="utf-8"?>
<!-- Generator: Adobe Illustrator 26.0.2, SVG Export Plug-In . SVG Version: 6.00 Build 0)  -->
<svg version="1.1" id="Layer_1" xmlns="http://www.w3.org/2000/svg" xmlns:xlink="http://www.w3.org/1999/xlink" x="0px" y="0px"
	 viewBox="0 0 90.6 91" style="enable-background:new 0 0 90.6 91;" xml:space="preserve">
<style type="text/css">
	.st0{fill:#0084D1;}
</style>
<path class="st0" d="M45.3,0.2C33,0.2,31.4,0.3,26.6,0.5c-3.8,0.1-7.5,0.8-11,2.1c-3,1.1-5.8,2.9-8,5.2c-2.3,2.3-4.1,5-5.2,8
	c-1.3,3.5-2,7.2-2.1,11C0.1,31.7,0,33.2,0,45.5s0.1,13.8,0.3,18.7c0.1,3.8,0.8,7.5,2.1,11c1.1,3,2.9,5.8,5.2,8c2.3,2.3,5,4.1,8,5.2
	c3.5,1.3,7.2,2,11,2.1c4.8,0.2,6.4,0.3,18.7,0.3s13.8-0.1,18.7-0.3c3.8-0.1,7.5-0.8,11-2.1C81,86,85.9,81.2,88.2,75.1
	c1.3-3.5,2-7.2,2.1-11c0.2-4.8,0.3-6.4,0.3-18.7s-0.1-13.8-0.3-18.7c-0.1-3.8-0.8-7.5-2.1-11c-1.1-3-2.9-5.8-5.2-8
	c-2.3-2.3-5-4.1-8-5.2c-3.5-1.3-7.3-2-11-2.1C59.1,0.3,57.6,0.2,45.3,0.2L45.3,0.2z M41.2,8.4h4.1c12.1,0,13.5,0,18.3,0.3
	c2.9,0,5.7,0.6,8.4,1.6c2,0.7,3.7,1.9,5.2,3.4c1.5,1.5,2.7,3.2,3.4,5.2c1,2.7,1.5,5.5,1.6,8.4c0.2,4.8,0.3,6.2,0.3,18.3
	s0,13.5-0.3,18.3c0,2.9-0.6,5.7-1.6,8.4c-1.5,3.9-4.6,7.1-8.6,8.6c-2.7,1-5.5,1.5-8.4,1.6c-4.8,0.2-6.2,0.3-18.3,0.3
	s-13.5,0-18.3-0.3c-2.9,0-5.7-0.6-8.4-1.6c-2-0.7-3.7-1.9-5.2-3.4c-1.5-1.5-2.7-3.2-3.4-5.2c-1-2.7-1.5-5.5-1.6-8.4
	C8.2,59,8.2,57.6,8.2,45.5s0-13.5,0.3-18.3c0-2.9,0.6-5.7,1.6-8.4c0.7-2,1.9-3.7,3.4-5.2c1.5-1.5,3.2-2.7,5.2-3.4
	c2.7-1,5.5-1.5,8.4-1.6C31.2,8.4,32.8,8.4,41.2,8.4L41.2,8.4z M69.5,15.9c-3,0-5.4,2.4-5.4,5.4c0,3,2.4,5.4,5.4,5.4
	c3,0,5.4-2.4,5.4-5.4c0,0,0,0,0,0C74.9,18.3,72.5,15.9,69.5,15.9C69.5,15.9,69.5,15.9,69.5,15.9z M45.3,22.2
	C32.4,22.2,22,32.7,22,45.5s10.4,23.3,23.3,23.3s23.3-10.4,23.3-23.3l0,0C68.5,32.7,58.1,22.2,45.3,22.2z M45.3,30.4
	c8.3,0,15.1,6.7,15.1,15.1c0,8.3-6.7,15.1-15.1,15.1c-8.3,0-15.1-6.7-15.1-15.1c0,0,0,0,0,0C30.2,37.2,37,30.4,45.3,30.4L45.3,30.4z
	"/>
</svg>
