<?xml version="1.0" encoding="utf-8"?>
<!-- Generator: Adobe Illustrator 26.0.2, SVG Export Plug-In . SVG Version: 6.00 Build 0)  -->
<svg version="1.1" id="Layer_1" xmlns="http://www.w3.org/2000/svg" xmlns:xlink="http://www.w3.org/1999/xlink" x="0px" y="0px"
	 viewBox="0 0 90.6 91" style="enable-background:new 0 0 90.6 91;" xml:space="preserve">
<style type="text/css">
	.st0{fill-rule:evenodd;clip-rule:evenodd;fill:#0084D1;}
</style>
<path class="st0" d="M32.4,29.3h17.9v9.2h0.3c2.5-4.5,8.6-9.2,17.7-9.2c18.9,0,22.4,11.8,22.4,27.1v31.2H71.9V59.9
	c0-6.6-0.1-15.1-9.7-15.1C52.5,44.9,51,52,51,59.5v28.1H32.4L32.4,29.3L32.4,29.3z M19.4,13.1c0,5.4-4.4,9.7-9.7,9.7S0,18.5,0,13.1
	s4.4-9.7,9.7-9.7S19.4,7.8,19.4,13.1z M0,29.3h19.4v58.3H0C0,87.6,0,29.3,0,29.3z"/>
</svg>
