<?xml version="1.0" encoding="utf-8"?>
<!-- Generator: Adobe Illustrator 26.0.2, SVG Export Plug-In . SVG Version: 6.00 Build 0)  -->
<svg version="1.1" id="Layer_1" xmlns="http://www.w3.org/2000/svg" xmlns:xlink="http://www.w3.org/1999/xlink" x="0px" y="0px"
	 viewBox="0 0 90.6 91" style="enable-background:new 0 0 90.6 91;" xml:space="preserve">
<style type="text/css">
	.st0{fill:#0084D1;}
</style>
<path class="st0" d="M79.8,0.2h-69C4.8,0.2,0,5,0,11v69C0,86,4.8,90.8,10.8,90.8h69c5.9,0,10.8-4.8,10.8-10.8V11
	C90.6,5,85.8,0.2,79.8,0.2 M71.2,39.7c-0.5,0-1,0.1-1.5,0.1c-5.5,0-10.5-2.7-13.5-7.3v24.9c0,10.2-8.2,18.4-18.4,18.4
	s-18.4-8.2-18.4-18.4S27.6,39,37.8,39l0,0c0.4,0,0.8,0,1.1,0.1v9.1c-0.4,0-0.7-0.1-1.1-0.1c-5.2,0-9.4,4.2-9.4,9.4
	c0,5.2,4.2,9.4,9.4,9.4c5.2,0,9.8-4.1,9.8-9.3l0.1-42.3h8.7c0.8,7.8,7.1,13.9,14.9,14.4L71.2,39.7"/>
</svg>
