<?xml version="1.0" encoding="utf-8"?>
<!-- Generator: Adobe Illustrator 26.0.2, SVG Export Plug-In . SVG Version: 6.00 Build 0)  -->
<svg version="1.1" id="Layer_1" xmlns="http://www.w3.org/2000/svg" xmlns:xlink="http://www.w3.org/1999/xlink" x="0px" y="0px"
	 viewBox="0 0 90.6 91" style="enable-background:new 0 0 90.6 91;" xml:space="preserve">
<style type="text/css">
	.st0{fill-rule:evenodd;clip-rule:evenodd;fill:#0084D1;}
</style>
<path class="st0" d="M90.6,17.4c-3.3,1.5-6.9,2.5-10.7,2.9c3.8-2.3,6.8-5.9,8.2-10.3c-3.6,2.1-7.6,3.7-11.8,4.5
	c-3.4-3.6-8.2-5.9-13.6-5.9c-10.3,0-18.6,8.3-18.6,18.6c0,1.4,0.2,2.9,0.5,4.2c-15.4-0.8-29.1-8.2-38.3-19.4
	c-1.6,2.8-2.5,6.1-2.5,9.3v0c0,6.4,3.3,12.1,8.3,15.5c-3-0.1-5.9-0.9-8.4-2.3v0.2c0,9,6.4,16.5,14.9,18.2c-1.6,0.4-3.2,0.7-4.9,0.7
	c-1.2,0-2.4-0.1-3.5-0.3c2.4,7.4,9.2,12.8,17.4,12.9c-6.4,5-14.4,8-23.1,8c-1.5,0-3-0.1-4.4-0.3c8.2,5.3,18,8.4,28.5,8.4
	c34.2,0,52.9-28.3,52.9-52.9c0-0.8,0-1.6-0.1-2.4C85,24.4,88.1,21.1,90.6,17.4L90.6,17.4L90.6,17.4L90.6,17.4z"/>
</svg>
