<?xml version="1.0" encoding="utf-8"?>
<!-- Generator: Adobe Illustrator 26.0.2, SVG Export Plug-In . SVG Version: 6.00 Build 0)  -->
<svg version="1.1" id="Layer_1" xmlns="http://www.w3.org/2000/svg" xmlns:xlink="http://www.w3.org/1999/xlink" x="0px" y="0px"
	 viewBox="0 0 90.6 91" style="enable-background:new 0 0 90.6 91;" xml:space="preserve">
<style type="text/css">
	.st0{fill-rule:evenodd;clip-rule:evenodd;fill:#0084D1;}
</style>
<path class="st0" d="M88.6,22.2c0.6-2.1,0-3.6-3-3.6h-9.9c-2.5,0-3.7,1.3-4.3,2.8c0,0-5,12.3-12.2,20.3c-2.3,2.3-3.4,3-4.6,3
	c-0.6,0-1.6-0.7-1.6-2.8V22.3c0-2.5-0.7-3.6-2.8-3.6H34.6c-1.6,0-2.5,1.2-2.5,2.3c0,2.4,3.6,2.9,3.9,9.7v14.6c0,3.2-0.6,3.8-1.8,3.8
	c-3.4,0-11.5-12.3-16.4-26.5c-1-2.7-1.9-3.9-4.4-3.9H3.4c-2.8,0-3.4,1.3-3.4,2.8C0,24,3.4,37.1,15.7,54.3
	C23.8,66,35.4,72.4,45.9,72.4c6.3,0,7.1-1.4,7.1-3.9v-8.9c0-2.8,0.6-3.4,2.6-3.4c1.5,0,4,0.7,9.9,6.4c6.7,6.7,7.8,9.7,11.6,9.7h9.9
	c2.8,0,4.2-1.4,3.4-4.2c-0.9-2.8-4.1-6.8-8.4-11.6c-2.3-2.7-5.8-5.7-6.8-7.2c-1.5-1.9-1.1-2.7,0-4.4C75.2,45,87.2,28,88.6,22.2
	L88.6,22.2z"/>
</svg>
