<?xml version="1.0" encoding="utf-8"?>
<!-- Generator: Adobe Illustrator 26.0.2, SVG Export Plug-In . SVG Version: 6.00 Build 0)  -->
<svg version="1.1" id="Layer_1" xmlns="http://www.w3.org/2000/svg" xmlns:xlink="http://www.w3.org/1999/xlink" x="0px" y="0px"
	 viewBox="0 0 90.6 91" style="enable-background:new 0 0 90.6 91;" xml:space="preserve">
<style type="text/css">
	.st0{fill:#0084D1;}
</style>
<path class="st0" d="M81.2,73.9c5.8-4.2,9.4-10.3,9.4-17.2C90.6,44.2,78.4,34,63.3,34S36,44.2,36,56.7c0,12.6,12.2,22.7,27.3,22.7
	c3.1,0,6.1-0.4,8.9-1.2l0.8-0.1c0.5,0,1,0.2,1.4,0.4l6,3.5l0.5,0.2c0.5,0,0.9-0.4,0.9-0.9l-0.1-0.7L80.5,76l-0.1-0.6
	C80.4,74.8,80.7,74.2,81.2,73.9z M32.7,8.9C14.7,8.9,0,21.1,0,36.2c0,8.2,4.4,15.6,11.3,20.6c0.6,0.4,0.9,1,0.9,1.8l-0.1,0.7
	l-1.5,5.5l-0.2,0.8c0,0.6,0.5,1.1,1.1,1.1l0.6-0.2l7.2-4.1c0.5-0.3,1.1-0.5,1.7-0.5l1,0.1c3.3,1,7,1.5,10.7,1.5l1.8,0
	c-0.7-2.1-1.1-4.4-1.1-6.7c0-13.7,13.4-24.9,29.9-24.9l1.8,0C62.6,18.8,49.1,8.9,32.7,8.9z M54.2,53.1c-2,0-3.6-1.6-3.6-3.6
	c0-2,1.6-3.6,3.6-3.6c2,0,3.6,1.6,3.6,3.6C57.9,51.4,56.2,53.1,54.2,53.1z M72.4,53.1c-2,0-3.6-1.6-3.6-3.6c0-2,1.6-3.6,3.6-3.6
	c2,0,3.6,1.6,3.6,3.6C76,51.4,74.4,53.1,72.4,53.1z M21.8,31.8c-2.4,0-4.4-2-4.4-4.4c0-2.4,2-4.4,4.4-4.4s4.4,2,4.4,4.4
	C26.2,29.8,24.2,31.8,21.8,31.8z M43.7,31.8c-2.4,0-4.4-2-4.4-4.4c0-2.4,2-4.4,4.4-4.4s4.4,2,4.4,4.4C48,29.8,46.1,31.8,43.7,31.8z"
	/>
</svg>
