<?xml version="1.0" encoding="utf-8"?>
<!-- Generator: Adobe Illustrator 26.0.2, SVG Export Plug-In . SVG Version: 6.00 Build 0)  -->
<svg version="1.1" id="Layer_1" xmlns="http://www.w3.org/2000/svg" xmlns:xlink="http://www.w3.org/1999/xlink" x="0px" y="0px"
	 viewBox="0 0 90.6 91" style="enable-background:new 0 0 90.6 91;" xml:space="preserve">
<style type="text/css">
	.st0{fill:#0084D1;}
</style>
<g id="XMLID_468_">
	<path id="XMLID_469_" class="st0" d="M67,52.3c-0.2-0.1-6.8-3.3-8-3.8c-0.5-0.2-1-0.3-1.5-0.3c-0.9,0-1.6,0.4-2.2,1.3
		c-0.7,1-2.7,3.3-3.3,4c-0.1,0.1-0.2,0.2-0.3,0.2c-0.1,0-1.1-0.4-1.4-0.6c-7.1-3.1-12.5-10.5-13.2-11.7c-0.1-0.2-0.1-0.3-0.1-0.3
		c0-0.1,0.3-0.3,0.4-0.5c0.4-0.4,0.7-0.8,1.1-1.3c0.2-0.2,0.4-0.4,0.5-0.6c0.5-0.6,0.8-1.1,1.1-1.7l0.1-0.3c0.7-1.4,0.1-2.5-0.1-2.9
		c-0.2-0.3-2.9-7-3.2-7.8c-0.7-1.7-1.7-2.5-3-2.5c-0.1,0,0,0-0.5,0c-0.6,0-4,0.5-5.5,1.4c-1.6,1-4.3,4.2-4.3,9.8
		c0,5,3.2,9.8,4.6,11.6c0,0,0.1,0.1,0.2,0.3c5.3,7.7,11.8,13.4,18.5,16c6.4,2.6,9.4,2.9,11.1,2.9c0,0,0,0,0,0c0.7,0,1.3-0.1,1.8-0.1
		l0.3,0c2.2-0.2,7.1-2.7,8.2-5.8c0.9-2.4,1.1-5.1,0.5-6C68.6,53,67.9,52.7,67,52.3z"/>
	<path id="XMLID_470_" class="st0" d="M46.1,0.2C21.6,0.2,1.6,20,1.6,44.4c0,7.9,2.1,15.6,6.1,22.3L0.1,89.2c-0.1,0.4,0,0.9,0.3,1.2
		c0.2,0.2,0.5,0.4,0.8,0.4c0.1,0,0.2,0,0.4-0.1L25,83.3c6.4,3.4,13.7,5.3,21.1,5.3c24.5,0,44.5-19.8,44.5-44.2
		C90.6,20,70.6,0.2,46.1,0.2z M46.1,79.3c-6.9,0-13.6-2-19.4-5.8c-0.2-0.1-0.4-0.2-0.6-0.2c-0.1,0-0.2,0-0.4,0.1l-11.8,3.7l3.8-11.2
		c0.1-0.4,0.1-0.8-0.2-1.1c-4.4-6-6.7-13.1-6.7-20.5c0-19.3,15.8-35,35.2-35c19.4,0,35.2,15.7,35.2,35
		C81.3,63.6,65.5,79.3,46.1,79.3z"/>
</g>
</svg>
