<?xml version="1.0" encoding="utf-8"?>
<!-- Generator: Adobe Illustrator 26.0.2, SVG Export Plug-In . SVG Version: 6.00 Build 0)  -->
<svg version="1.1" id="Layer_1" xmlns="http://www.w3.org/2000/svg" xmlns:xlink="http://www.w3.org/1999/xlink" x="0px" y="0px"
	 viewBox="0 0 90.6 91" style="enable-background:new 0 0 90.6 91;" xml:space="preserve">
<style type="text/css">
	.st0{fill-rule:evenodd;clip-rule:evenodd;fill:#0084D1;}
</style>
<path class="st0" d="M89.7,27.4c0,0-0.9-6.2-3.6-9c-3.4-3.6-7.3-3.6-9.1-3.8c-12.7-0.9-31.7-0.9-31.7-0.9h0c0,0-19,0-31.7,0.9
	c-1.8,0.2-5.6,0.2-9.1,3.8c-2.7,2.7-3.6,9-3.6,9S0,34.7,0,42.1v6.9c0,7.3,0.9,14.7,0.9,14.7s0.9,6.2,3.6,9c3.4,3.6,8,3.5,10,3.9
	c7.3,0.7,30.8,0.9,30.8,0.9s19,0,31.7-0.9c1.8-0.2,5.6-0.2,9.1-3.8c2.7-2.7,3.6-9,3.6-9s0.9-7.3,0.9-14.7v-6.9
	C90.6,34.7,89.7,27.4,89.7,27.4L89.7,27.4z M35.9,57.3V31.8l24.5,12.8C60.4,44.6,35.9,57.3,35.9,57.3z"/>
</svg>
