<?xml version="1.0" encoding="utf-8"?>
<!-- Generator: Adobe Illustrator 23.0.3, SVG Export Plug-In . SVG Version: 6.00 Build 0)  -->
<!DOCTYPE svg PUBLIC "-//W3C//DTD SVG 1.1//EN" "http://www.w3.org/Graphics/SVG/1.1/DTD/svg11.dtd" [
	<!ENTITY ns_extend "http://ns.adobe.com/Extensibility/1.0/">
	<!ENTITY ns_ai "http://ns.adobe.com/AdobeIllustrator/10.0/">
	<!ENTITY ns_graphs "http://ns.adobe.com/Graphs/1.0/">
	<!ENTITY ns_vars "http://ns.adobe.com/Variables/1.0/">
	<!ENTITY ns_imrep "http://ns.adobe.com/ImageReplacement/1.0/">
	<!ENTITY ns_sfw "http://ns.adobe.com/SaveForWeb/1.0/">
	<!ENTITY ns_custom "http://ns.adobe.com/GenericCustomNamespace/1.0/">
	<!ENTITY ns_adobe_xpath "http://ns.adobe.com/XPath/1.0/">
]>
<svg version="1.1" id="Layer_1" xmlns:x="&ns_extend;" xmlns:i="&ns_ai;" xmlns:graph="&ns_graphs;"
	 xmlns="http://www.w3.org/2000/svg" xmlns:xlink="http://www.w3.org/1999/xlink" x="0px" y="0px" viewBox="0 0 89.9 89.9"
	 style="enable-background:new 0 0 89.9 89.9;" xml:space="preserve">
<style type="text/css">
	.st0{fill:none;stroke:#80B8DC;stroke-width:3;stroke-miterlimit:10;}
	.st1{fill:#80B8DC;}
</style>
<metadata>
	<sfw  xmlns="&ns_sfw;">
		<slices></slices>
		<sliceSourceBounds  bottomLeftOrigin="true" height="89.9" width="89.9" x="-14.9" y="4.7"></sliceSourceBounds>
	</sfw>
</metadata>
<circle class="st0" cx="45" cy="45" r="43.5"/>
<g>
	<path class="st1" d="M45,24.7c-0.4,1.2-0.8,2.4-1.1,3.6c-1.8,6.2-3.8,12.3-6,18.4c-1.1,3.2-2.6,6.3-4.2,9.4c-1.1,2-2.2,4-3.4,6.2
		c-0.4-0.4-0.6-0.7-0.9-1c-2.4-2.6-4.5-5.4-5.8-8.7c-0.9-2.1-1.3-4.3-1.3-6.5c0-6,0-12.1,0-18.1c0-0.4,0.1-0.5,0.5-0.7
		c7.3-2.4,14.6-4.8,21.9-7.3c0.2-0.1,0.4-0.1,0.6,0c7.3,2.4,14.7,4.8,22,7.3c0.4,0.1,0.5,0.3,0.5,0.7c0,5.9,0,11.9,0,17.8
		c0,3.4-0.9,6.5-2.5,9.5c-1.5,2.7-3.5,5-5.7,7.2c0,0-0.1,0-0.1,0.1c-0.6-1.1-1.3-2.1-1.8-3.2c-1.8-3.4-3.6-6.8-5-10.4
		c-1-2.5-1.8-5.1-2.7-7.7c-1.6-4.7-2.8-9.5-4.1-14.2C45.6,26.2,45.3,25.5,45,24.7C45.1,24.7,45.1,24.7,45,24.7z"/>
	<path class="st1" d="M45,72.8c-0.1-0.1-0.2-0.1-0.3-0.2c-2.2-1.3-4.4-2.7-6.6-4c-0.2-0.1-0.3-0.3-0.2-0.5
		c2.2-6.1,4.4-12.2,6.5-18.2c0.1-0.2,0.3-0.4,0.4-0.6c0.1,0.2,0.3,0.4,0.3,0.6c2.1,6.2,4.1,12.4,6.2,18.6c0.1,0.2,0.1,0.4-0.1,0.5
		c-2,1.2-4,2.4-6.1,3.6C45.1,72.7,45,72.8,45,72.8z"/>
</g>
</svg>
