<?xml version="1.0" encoding="utf-8"?>
<!-- Generator: Adobe Illustrator 23.0.3, SVG Export Plug-In . SVG Version: 6.00 Build 0)  -->
<!DOCTYPE svg PUBLIC "-//W3C//DTD SVG 1.1//EN" "http://www.w3.org/Graphics/SVG/1.1/DTD/svg11.dtd" [
	<!ENTITY ns_extend "http://ns.adobe.com/Extensibility/1.0/">
	<!ENTITY ns_ai "http://ns.adobe.com/AdobeIllustrator/10.0/">
	<!ENTITY ns_graphs "http://ns.adobe.com/Graphs/1.0/">
	<!ENTITY ns_vars "http://ns.adobe.com/Variables/1.0/">
	<!ENTITY ns_imrep "http://ns.adobe.com/ImageReplacement/1.0/">
	<!ENTITY ns_sfw "http://ns.adobe.com/SaveForWeb/1.0/">
	<!ENTITY ns_custom "http://ns.adobe.com/GenericCustomNamespace/1.0/">
	<!ENTITY ns_adobe_xpath "http://ns.adobe.com/XPath/1.0/">
]>
<svg version="1.1" id="Layer_1" xmlns:x="&ns_extend;" xmlns:i="&ns_ai;" xmlns:graph="&ns_graphs;"
	 xmlns="http://www.w3.org/2000/svg" xmlns:xlink="http://www.w3.org/1999/xlink" x="0px" y="0px" viewBox="0 0 87.4 87.4"
	 style="enable-background:new 0 0 87.4 87.4;" xml:space="preserve">
<style type="text/css">
	.st0{fill:#80B8DC;}
	.st1{fill:none;stroke:#81B8DC;stroke-width:3;stroke-miterlimit:10;}
</style>
<metadata>
	<sfw  xmlns="&ns_sfw;">
		<slices></slices>
		<sliceSourceBounds  bottomLeftOrigin="true" height="87.4" width="87.4" x="-12.6" y="6.2"></sliceSourceBounds>
	</sfw>
</metadata>
<title>review-comment-feedback</title>
<path class="st0" d="M37.9,39.9h-5.6l0,0c-0.1,0-0.1,0-0.2,0H32c-0.1,0-0.1,0-0.1,0.1c-0.1,0-0.1,0-0.1,0.1c-0.1,0-0.1,0.1-0.1,0.1
	c-0.1,0-0.1,0.1-0.1,0.1l-0.1,0.1c-0.1,0-0.1,0.1-0.1,0.1l0,0l-0.1,0.1c0,0.1-0.1,0.1-0.1,0.1S31,40.7,31,40.7s-0.1,0.1-0.1,0.1
	s0,0.1-0.1,0.1c0,0.1,0,0.1,0,0.1s0,0.1,0,0.1v0.1l0,0c0,0.1,0,0.1,0,0.1c0,0.1,0,0.1,0,0.1c0,0.1,0,0.1,0.1,0.1
	c0,0.1,0,0.1,0.1,0.1c0,0.1,0.1,0.1,0.1,0.1s0.1,0.1,0.1,0.1l0.1,0.1c0,0.1,0.1,0.1,0.1,0.1l0,0l11.5,10.8c0.3,0.3,0.7,0.4,1,0.4
	c0.4,0,0.7-0.1,1-0.4l11.5-10.8c0.6-0.6,0.6-1.5,0.1-2.1c-0.3-0.4-0.7-0.5-1.2-0.4h-0.1h-5.6v-2.2c0-0.8-0.7-1.5-1.5-1.5
	c-0.8,0-1.5,0.7-1.5,1.5v3.6c0,0.8,0.7,1.5,1.5,1.5h3.5l-7.7,7.3L36,43h3.3c0.8,0,1.5-0.7,1.5-1.5v-3.6c0-0.8-0.7-1.5-1.5-1.5
	c-0.8,0-1.5,0.7-1.5,1.5L37.9,39.9L37.9,39.9z"/>
<path class="st0" d="M37.9,33.2c0,0.8,0.7,1.5,1.5,1.5c0.8,0,1.5-0.7,1.5-1.5v-2.4c0-0.8-0.7-1.5-1.5-1.5c-0.8,0-1.5,0.7-1.5,1.5
	V33.2z"/>
<path class="st0" d="M46.5,33.2c0,0.8,0.7,1.5,1.5,1.5c0.8,0,1.5-0.7,1.5-1.5v-2.4c0-0.8-0.7-1.5-1.5-1.5c-0.8,0-1.5,0.7-1.5,1.5
	V33.2z"/>
<path class="st0" d="M37.9,25.4c0,0.8,0.7,1.5,1.5,1.5c0.8,0,1.5-0.7,1.5-1.5v-1c0-0.8-0.7-1.5-1.5-1.5c-0.8,0-1.5,0.7-1.5,1.5V25.4
	z"/>
<path class="st0" d="M46.5,25.4c0,0.8,0.7,1.5,1.5,1.5c0.8,0,1.5-0.7,1.5-1.5v-1c0-0.8-0.7-1.5-1.5-1.5c-0.8,0-1.5,0.7-1.5,1.5V25.4
	z"/>
<path class="st0" d="M39.4,18.9c0.8,0,1.5-0.7,1.5-1.5v-0.1c0-0.8-0.7-1.5-1.5-1.5c-0.8,0-1.5,0.7-1.5,1.5v0.1
	C37.9,18.3,38.6,18.9,39.4,18.9z"/>
<path class="st0" d="M48,18.9c0.8,0,1.5-0.7,1.5-1.5v-0.1c0-0.8-0.7-1.5-1.5-1.5c-0.8,0-1.5,0.7-1.5,1.5v0.1
	C46.5,18.3,47.2,18.9,48,18.9z"/>
<path class="st0" d="M72.1,54.2V43.6c0-7-6.9-13.2-17.4-15.8c-0.8-0.2-1.6,0.3-1.8,1.1c-0.2,0.8,0.3,1.6,1.1,1.8
	c9.2,2.2,15.2,7.3,15.2,12.9c0,7.6-11.5,14.1-25.2,14.1s-25.2-6.4-25.2-14.1c0-5.4,5.8-10.5,14.8-12.8c0.8-0.2,1.3-1,1-1.8
	c-0.2-0.8-1-1.3-1.8-1c-10.4,2.7-17.1,8.8-17.1,15.6v10.6c0,9.5,12.4,17.1,28.2,17.1S72.1,63.7,72.1,54.2z M69.2,51.3v2.9
	c0,2.2-0.9,4.2-2.6,6v-6.4C67.5,53,68.4,52.2,69.2,51.3z M24.1,55.8c1,0.6,2.2,1.2,3.4,1.7v7.2c-1.3-0.6-2.4-1.3-3.4-2V55.8z
	 M30.5,58.6c1.3,0.4,2.7,0.7,4.1,1v7.5c-1.4-0.3-2.8-0.7-4.1-1.2V58.6z M37.6,60.2c1.6,0.2,3.2,0.4,4.8,0.4v7.6
	c-1.6-0.1-3.3-0.2-4.8-0.4V60.2z M45.4,60.6c1.6-0.1,3.2-0.1,4.7-0.4v7.6c-1.5,0.2-3.1,0.4-4.7,0.4V60.6z M53.1,59.7
	c1.4-0.3,2.8-0.7,4.1-1V66c-1.3,0.4-2.7,0.8-4.1,1.2C53.1,67.2,53.1,59.7,53.1,59.7z M60.2,57.6c1.2-0.5,2.4-1,3.4-1.7v7
	c-1,0.7-2.2,1.3-3.4,1.9V57.6z M18.7,54.2v-2.9c0.7,0.9,1.6,1.7,2.5,2.5v6.4C19.6,58.3,18.7,56.3,18.7,54.2z"/>
<circle class="st1" cx="43.7" cy="43.7" r="42.2"/>
</svg>
