<?xml version="1.0" encoding="utf-8"?>
<!-- Generator: Adobe Illustrator 23.0.3, SVG Export Plug-In . SVG Version: 6.00 Build 0)  -->
<!DOCTYPE svg PUBLIC "-//W3C//DTD SVG 1.1//EN" "http://www.w3.org/Graphics/SVG/1.1/DTD/svg11.dtd" [
	<!ENTITY ns_extend "http://ns.adobe.com/Extensibility/1.0/">
	<!ENTITY ns_ai "http://ns.adobe.com/AdobeIllustrator/10.0/">
	<!ENTITY ns_graphs "http://ns.adobe.com/Graphs/1.0/">
	<!ENTITY ns_vars "http://ns.adobe.com/Variables/1.0/">
	<!ENTITY ns_imrep "http://ns.adobe.com/ImageReplacement/1.0/">
	<!ENTITY ns_sfw "http://ns.adobe.com/SaveForWeb/1.0/">
	<!ENTITY ns_custom "http://ns.adobe.com/GenericCustomNamespace/1.0/">
	<!ENTITY ns_adobe_xpath "http://ns.adobe.com/XPath/1.0/">
]>
<svg version="1.1" id="Layer_1" xmlns:x="&ns_extend;" xmlns:i="&ns_ai;" xmlns:graph="&ns_graphs;"
	 xmlns="http://www.w3.org/2000/svg" xmlns:xlink="http://www.w3.org/1999/xlink" x="0px" y="0px" viewBox="0 0 89.9 89.9"
	 style="enable-background:new 0 0 89.9 89.9;" xml:space="preserve">
<style type="text/css">
	.st0{fill:none;stroke:#80B8DC;stroke-width:3;stroke-miterlimit:10;}
	.st1{fill:#80B8DC;stroke:#80B8DC;stroke-width:0.75;stroke-miterlimit:10;}
</style>
<metadata>
	<sfw  xmlns="&ns_sfw;">
		<slices></slices>
		<sliceSourceBounds  bottomLeftOrigin="true" height="89.9" width="89.9" x="-14.9" y="4.7"></sliceSourceBounds>
	</sfw>
</metadata>
<circle class="st0" cx="45" cy="45" r="43.5"/>
<path class="st1" d="M65.8,55.7c-12.4-3.1-14-7.3-14.3-8.3c0.8-0.5,1.7-1.2,2.4-2c4.8-5.4,3.8-14.9,3.8-15.2
	C57.2,20,49.7,17.4,45.4,17.7c-4.3-0.2-11.8,2.3-12.3,12.5c-0.1,0.4-1,9.9,3.8,15.3c0.8,0.9,1.8,1.7,2.8,2.2
	c-0.4,1.3-2.6,5.1-14.2,8.1c-3.7,0.9-5.6,4.6-5.2,9.9c0,0.4,0,3.8,0.6,5.4c0.2,0.3,0.4,0.5,0.8,0.5c0.1,0,0.2,0,0.3-0.1
	c0.4-0.2,0.7-0.7,0.5-1.1c-0.4-1.1-0.5-3.8-0.5-4.8c-0.2-2.6,0.1-7.2,4-8.2c11.8-3,14.7-7,15.4-9c1.3,0.4,2.6,0.7,4.1,0.7h0.1l0,0
	h0.2c1.6,0,3-0.3,4.4-0.8c0.6,1.9,3.3,6.2,15.4,9.2c3.9,1,4.1,5.6,4,8.3c0,0.9-0.1,3.7-0.5,4.8c-0.2,0.4,0,0.9,0.5,1.1
	c0.1,0,0.2,0.1,0.3,0.1c0.3,0,0.7-0.2,0.8-0.5C71,69.5,71,66,71,65.8C71.5,60.2,69.5,56.6,65.8,55.7z M45.5,47.3L45.5,47.3
	C45.4,47.3,45.4,47.3,45.5,47.3c-0.1,0-0.1,0-0.2,0c-3,0-5.4-1-7.2-3c-4.3-4.8-3.4-13.8-3.4-14c0.5-10.3,8.5-10.9,10.4-10.9
	c0.1,0,0.3,0,0.3,0c1,0,10.1-0.1,10.6,11c0,0.1,0.9,9.1-3.4,13.9C51,46.2,48.6,47.3,45.5,47.3z M54.9,61.2L42.5,73.6
	c-0.2,0.2-0.4,0.3-0.6,0.3s-0.4-0.1-0.6-0.3L36,68.4c-0.3-0.3-0.3-0.8,0-1.2c0.3-0.3,0.8-0.3,1.2,0l4.7,4.6L53.7,60
	c0.3-0.3,0.8-0.3,1.2,0C55.2,60.4,55.2,60.9,54.9,61.2z"/>
</svg>
