<?xml version="1.0" encoding="utf-8"?>
<!-- Generator: Adobe Illustrator 23.0.3, SVG Export Plug-In . SVG Version: 6.00 Build 0)  -->
<!DOCTYPE svg PUBLIC "-//W3C//DTD SVG 1.1//EN" "http://www.w3.org/Graphics/SVG/1.1/DTD/svg11.dtd" [
	<!ENTITY ns_extend "http://ns.adobe.com/Extensibility/1.0/">
	<!ENTITY ns_ai "http://ns.adobe.com/AdobeIllustrator/10.0/">
	<!ENTITY ns_graphs "http://ns.adobe.com/Graphs/1.0/">
	<!ENTITY ns_vars "http://ns.adobe.com/Variables/1.0/">
	<!ENTITY ns_imrep "http://ns.adobe.com/ImageReplacement/1.0/">
	<!ENTITY ns_sfw "http://ns.adobe.com/SaveForWeb/1.0/">
	<!ENTITY ns_custom "http://ns.adobe.com/GenericCustomNamespace/1.0/">
	<!ENTITY ns_adobe_xpath "http://ns.adobe.com/XPath/1.0/">
]>
<svg version="1.1" id="Layer_1" xmlns:x="&ns_extend;" xmlns:i="&ns_ai;" xmlns:graph="&ns_graphs;"
	 xmlns="http://www.w3.org/2000/svg" xmlns:xlink="http://www.w3.org/1999/xlink" x="0px" y="0px" viewBox="0 0 87.4 87.4"
	 style="enable-background:new 0 0 87.4 87.4;" xml:space="preserve">
<style type="text/css">
	.st0{fill:none;stroke:#81B8DC;stroke-width:3;stroke-miterlimit:10;}
	.st1{fill:#80B8DC;}
</style>
<metadata>
	<sfw  xmlns="&ns_sfw;">
		<slices></slices>
		<sliceSourceBounds  bottomLeftOrigin="true" height="87.4" width="87.4" x="-12.6" y="6.2"></sliceSourceBounds>
	</sfw>
</metadata>
<title>review-comment-feedback</title>
<circle class="st0" cx="43.7" cy="43.7" r="42.2"/>
<g>
	<path class="st1" d="M64.9,48.1C64.8,48.1,64.8,48.2,64.9,48.1c-0.2,0.4-0.3,0.7-0.5,1c0,0.1-0.1,0.1-0.1,0.1c-0.1,0-0.2,0-0.3,0
		c-1.2,0-2.4,0-3.7,0c-7.2,0-14.4,0-21.6,0c-7.3,0-14.5,0-21.8,0c-0.1,0-0.1,0-0.2,0c0,0-0.1,0-0.1-0.1c0,0,0,0,0-0.1
		c0-0.3,0-0.6,0-0.9c0,0,0,0,0-0.1c0,0,0.1-0.1,0.1-0.1c0,0,0.1,0,0.1,0c0.1,0,0.1,0,0.2,0c7.8,0,15.6,0,23.4,0c0.1,0,0.2,0,0.3,0
		c0.1,0,0.1,0,0.1,0.1c0,0.1,0,0.2,0,0.4c0,0,0,0,0,0c0,0,0,0,0.1,0c0,0,0,0,0-0.1c0.1-0.1,0.2-0.3,0.3-0.4c0.2-0.1,0.4,0,0.5,0
		c2.7,0,5.5,0,8.3,0c4.8,0,9.7,0,14.5,0c0.1,0,0.2,0,0.3,0C64.8,48.1,64.8,48.1,64.9,48.1z"/>
	<path class="st1" d="M38.3,35.9c1.7,0,3.4,0,5.1,0c4,0,8,0,12.1,0c0.1,0,0.2,0,0.3,0c0,0,0.1,0,0.1,0.1c0,0,0,0,0,0.1
		c0.2,0.3,0.3,0.6,0.5,0.9c0,0.1,0,0.1-0.1,0.1c0,0-0.1,0-0.1,0c-0.1,0-0.2,0-0.3,0c-3.7,0-7.3,0-11,0c-0.1,0-0.3,0-0.4,0
		c-0.1,0-0.1,0-0.1,0s-0.1,0-0.2,0c-7.6,0-15.3,0-22.9,0c-0.1,0-0.2,0-0.3,0c0,0-0.1-0.1-0.1-0.1s0,0,0-0.1c0-0.3,0-0.6,0-0.9
		c0,0,0,0,0-0.1c0,0,0-0.1,0.1-0.1c0,0,0.1,0,0.1,0c0.1,0,0.2,0,0.3,0C26.9,35.9,32.6,35.9,38.3,35.9z"/>
	<path class="st1" d="M55,34.5C55,34.6,54.9,34.6,55,34.5c-0.2,0-0.2,0-0.3,0c-3.6,0-7.2,0-10.8,0c-2.6,0-5.2,0-7.8,0
		c-0.1,0-0.2,0-0.3,0s-0.2,0-0.3,0c-3.6,0-7.2,0-10.8,0c-1.2,0-2.3,0-3.4,0c-0.1,0-0.2,0-0.3,0c0,0-0.1,0-0.1-0.1c0,0,0,0,0,0
		c0-0.3,0-0.6,0-1c0,0,0,0,0-0.1c0,0,0,0,0.1,0c0,0,0.1,0,0.1,0c0.1,0,0.2,0,0.3,0c5.6,0,11.1,0,16.7,0c3.1,0,6.1,0,9.2,0
		c2.3,0,4.6,0,6.9,0c0.1,0,0.2,0,0.3,0c0.1,0,0.1,0,0.1,0.1C54.7,33.8,54.8,34.2,55,34.5C55,34.5,55,34.5,55,34.5z"/>
	<path class="st1" d="M37.3,32.1c-5.3,0-10.7,0-16,0c-0.5,0-0.4,0.1-0.4-0.4c0-0.2,0-0.4,0-0.7c0-0.1,0-0.1,0.1-0.1c0,0,0.1,0,0.1,0
		c0.1,0,0.2,0,0.3,0c6.6,0,13.2,0,19.8,0c3.9,0,7.8,0,11.6,0c0.1,0,0.2,0,0.3,0c0,0,0.1,0,0.1,0.1c0.1,0.1,0.1,0.3,0.2,0.4
		c0.1,0.2,0.2,0.4,0.3,0.6c0,0,0,0.1-0.1,0.1c-0.1,0-0.2,0-0.3,0c-2.1,0-4.2,0-6.3,0c-1.6,0-3.2,0-4.9,0
		C40.5,32.2,38.9,32.1,37.3,32.1z"/>
	<path class="st1" d="M36.6,29.6c-5.1,0-10.2,0-15.3,0c-0.1,0-0.2,0-0.3,0c-0.1,0-0.1,0-0.1-0.1c0-0.3,0-0.6,0-0.9c0,0,0,0,0-0.1
		s0,0,0,0c0,0,0,0,0.1,0c0.1,0,0.2,0,0.3,0c10,0,20.1,0,30.1,0c0.1,0,0.2,0,0.3,0c0.1,0,0.1,0,0.2,0.1c0.1,0.1,0.1,0.2,0.2,0.3
		c0.1,0.2,0.2,0.4,0.4,0.6c0,0,0,0.1-0.1,0.1c0,0-0.1,0-0.1,0c-0.1,0-0.2,0-0.3,0c-2.7,0-5.4,0-8.1,0C41.5,29.6,39.1,29.6,36.6,29.6
		z"/>
	<path class="st1" d="M31.2,55.4c4.1,0,8.1,0,12.2,0c0.1,0,0.2,0,0.4,0c0.1,0,0.1,0,0.2,0c1.4,0,2.7,0,4.1,0c0.1,0,0.1,0,0.2,0
		c0,0,0.1,0.1,0,0.1c-0.1,0.1-0.1,0.1-0.1,0.2c-0.2,0.2-0.4,0.4-0.6,0.7c0,0,0,0,0,0.1c-0.2,0.3-0.2,0.2-0.5,0.2c-2.1,0-4.2,0-6.4,0
		c-0.1,0-0.2,0-0.4,0c-0.1,0-0.2,0-0.3,0c-2.6,0-5.3,0-7.9,0c-2.1,0-4.2,0-6.4,0c-0.1,0-0.3,0-0.5,0c-0.1,0-0.2,0-0.3,0
		c-1.9,0-3.9,0-5.9,0c-0.1,0-0.2,0-0.3,0c0,0-0.1,0-0.1-0.1c0-0.1,0-0.3,0-0.4c0-0.1,0-0.3,0-0.5c0-0.1,0-0.1,0.1-0.1s0.2,0,0.3,0
		C23.1,55.4,27.2,55.4,31.2,55.4C31.2,55.4,31.2,55.4,31.2,55.4z"/>
	<path class="st1" d="M35.5,53c4.7,0,9.5,0,14.2,0c0.1,0,0.2,0,0.3,0c0,0,0.1,0,0,0.1c0,0,0,0.1,0,0.1c-0.2,0.3-0.4,0.6-0.6,0.9
		c0,0,0,0,0,0.1c0,0-0.1,0.1-0.1,0.1c0,0-0.1,0-0.1,0c-0.1,0-0.1,0-0.2,0c-9.2,0-18.4,0-27.6,0c-0.1,0-0.2,0-0.3,0
		c-0.1,0-0.1-0.1-0.1-0.1c0-0.3,0-0.6,0-0.9c0,0,0-0.1,0-0.1c0,0,0,0,0.1,0c0,0,0.1,0,0.1,0c0.1,0,0.2,0,0.3,0
		C26,53,30.8,53,35.5,53z"/>
	<path class="st1" d="M54.7,43.2c4.1,0,8.2,0,12.3,0c0.1,0,0.2,0,0.3,0c0,0,0.1,0.1,0,0.1c-0.1,0.1-0.1,0.3-0.2,0.4
		c-0.1,0.2-0.2,0.4-0.4,0.6c0,0.1-0.1,0.1-0.1,0.1c-0.1,0-0.1,0-0.2,0c-8,0-16,0-24,0c0,0-0.1,0-0.1,0c-0.3,0-0.2,0-0.3-0.2
		c0,0,0,0,0,0c0-0.3-0.1-0.5-0.1-0.8c0,0,0,0,0-0.1c0,0,0,0,0-0.1c0,0,0.1,0,0.1,0c0.1,0,0.2,0,0.3,0C46.5,43.2,50.6,43.2,54.7,43.2
		L54.7,43.2z"/>
	<path class="st1" d="M54.8,40.8c4.5,0,9,0,13.5,0c0.1,0,0.2,0,0.3,0c0,0,0,0,0,0c0,0,0,0,0,0c-0.2,0.3-0.4,0.6-0.5,0.9
		c0,0.1-0.1,0.1-0.1,0.1c-0.1,0-0.2,0-0.3,0c-3,0-5.9,0-8.8,0c-3.7,0-7.3,0-10.9,0c-2.1,0-4.1,0-6.2,0c0,0-0.1,0-0.1,0
		c-0.1,0-0.2,0-0.2-0.1c-0.1-0.3-0.2-0.5-0.4-0.8c0,0,0-0.1-0.1-0.1c0,0,0,0,0-0.1c0,0,0.1,0,0.1,0c0.1,0,0.2,0,0.3,0
		c3.3,0,6.7,0,10,0C52.6,40.8,53.7,40.8,54.8,40.8L54.8,40.8z"/>
	<path class="st1" d="M33.4,57.9c4,0,8.1,0,12.1,0c0.1,0,0.2,0,0.3,0c0,0,0,0,0,0c0,0,0,0,0,0c0,0-0.1,0.1-0.1,0.1
		c-0.4,0.3-0.8,0.6-1.2,0.9c-0.1,0-0.1,0.1-0.2,0.1c-0.1,0-0.2,0-0.3,0c-7.6,0-15.2,0-22.8,0c-0.4,0-0.4,0.1-0.4-0.4
		c0-0.2,0-0.4,0-0.5c0,0,0-0.1,0-0.1c0-0.1,0.1-0.1,0.1-0.1c0.1,0,0.2,0,0.3,0c4,0,7.9,0,11.9,0C33.2,57.9,33.3,57.9,33.4,57.9z"/>
	<path class="st1" d="M53.7,46.8c-3.8,0-7.7,0-11.5,0c-0.1,0-0.2,0-0.3,0c-0.1,0-0.1,0-0.1-0.1c0-0.1,0-0.1,0.1-0.2
		c0.1-0.2,0.1-0.4,0.1-0.6c0-0.1,0-0.1,0-0.1c0-0.1,0.1-0.1,0.2-0.1c0.1,0,0.2,0,0.3,0c3.1,0,6.3,0,9.4,0c0.1,0,0.3,0,0.5,0
		c0.1,0,0.2,0,0.3,0c3.9,0,7.9,0,11.8,0c0.5,0,0.9,0,1.4,0c0.1,0,0.1,0,0.2,0c0,0,0,0,0,0c0,0,0,0,0,0.1c-0.1,0.3-0.3,0.6-0.4,0.9
		c0,0.1-0.1,0.1-0.2,0.1c-0.1,0-0.2,0-0.3,0C61.4,46.8,57.5,46.8,53.7,46.8L53.7,46.8z"/>
	<path class="st1" d="M24,40.7c3.5,0,6.9,0,10.4,0c0.1,0,0.2,0,0.3,0c0.1,0,0.1,0.1,0.1,0.1c0,0.1,0,0.3,0,0.5c0,0.1,0,0.2,0,0.4
		c0,0,0,0.1,0,0.1c0,0-0.1,0.1-0.1,0.1s-0.1,0-0.1,0c-0.1,0-0.2,0-0.3,0c-6.8,0-13.7,0-20.5,0c-0.4,0-0.4,0-0.4,0
		c-0.1-0.1,0-0.3,0-0.4c0-0.2,0-0.3,0-0.5c0,0,0-0.1,0-0.1c0,0,0-0.1,0.1-0.1c0.1,0,0.2,0,0.3,0c1.2,0,2.3,0,3.5,0
		C19.4,40.7,21.7,40.7,24,40.7z"/>
	<path class="st1" d="M25.7,51.7c-3.3,0-6.6,0-10,0c-0.4,0-0.4,0.1-0.4-0.4c0-0.2,0-0.4,0-0.6c0,0,0-0.1,0-0.1c0,0,0,0,0,0
		c0,0,0,0,0.1,0c0.1,0,0.2,0,0.3,0c6.6,0,13.3,0,20,0c0.1,0,0.2,0,0.3,0c0,0,0.1,0.1,0.1,0.1c0,0,0,0,0,0c0,0.3,0,0.6,0,1
		c0,0,0,0.1-0.1,0.1c0,0-0.1,0-0.1,0c-0.1,0-0.2,0-0.3,0C32.3,51.7,29,51.7,25.7,51.7z"/>
	<path class="st1" d="M30.2,44.4c-3,0-6,0-9,0c-0.1,0-0.2,0-0.3,0c0,0-0.1,0-0.1-0.1c0-0.3,0-0.7,0-1c0-0.1,0.1-0.1,0.1-0.1
		c0,0,0.1,0,0.1,0c0.1,0,0.1,0,0.2,0c6,0,12,0,18.1,0c0.1,0,0.2,0,0.3,0c0,0,0.1,0,0.1,0.1c0,0,0,0,0,0.1c0,0.3,0,0.6,0,0.9
		c0,0,0,0,0,0.1c0,0,0,0-0.1,0c-0.1,0-0.2,0-0.3,0C36.3,44.4,33.2,44.4,30.2,44.4z"/>
	<path class="st1" d="M27.8,45.7c3,0,5.9,0,8.9,0c0.1,0,0.2,0,0.3,0c0,0,0.1,0,0.1,0.1c0,0.3,0,0.6,0,1c0,0.1-0.1,0.1-0.1,0.1
		c0,0-0.1,0-0.1,0c-0.1,0-0.1,0-0.2,0c-5.9,0-11.8,0-17.7,0c-0.1,0-0.2,0-0.3,0c-0.1,0-0.1-0.1-0.1-0.1c0-0.2,0-0.5,0-0.8
		c0-0.1,0-0.1,0-0.2c0,0,0-0.1,0.1-0.1c0.1,0,0.2,0,0.3,0c1.9,0,3.9,0,5.8,0C25.8,45.7,26.8,45.7,27.8,45.7z"/>
	<path class="st1" d="M47.9,38.3c3,0,5.9,0,8.9,0c0.1,0,0.2,0,0.3,0c0.1,0,0.1,0,0.1,0.1c0.2,0.3,0.3,0.7,0.5,1c0,0,0,0,0,0.1
		s0,0,0,0c-0.1,0-0.1,0-0.2,0c-0.5,0-1,0-1.5,0c-5.2,0-10.4,0-15.6,0c-0.1,0-0.2,0-0.3,0c-0.1,0-0.1,0-0.1-0.1
		c-0.1-0.1-0.3-0.2-0.4-0.4c-0.3-0.2-0.5-0.4-0.8-0.7c0,0,0,0,0-0.1c0,0,0,0,0.1,0c0.1,0,0.2,0,0.3,0c1.4,0,2.8,0,4.2,0
		C44.7,38.3,46.3,38.3,47.9,38.3z"/>
	<path class="st1" d="M41.4,60.4c-0.1,0-0.2,0.1-0.2,0.1c-0.5,0.1-1.1,0.3-1.6,0.4c-0.6,0.1-1.2,0.3-1.8,0.5c-0.1,0-0.1,0-0.2,0
		c-0.1,0-0.1,0-0.2,0c-5.4,0-10.7,0-16.1,0c-0.1,0-0.2,0-0.3,0c-0.1,0-0.1,0-0.1-0.1c0-0.3,0-0.6,0-0.9c0-0.1,0.1-0.1,0.1-0.1
		c0,0,0.1,0,0.1,0c0.1,0,0.1,0,0.2,0c6.6,0,13.3,0,19.9,0C41.2,60.4,41.3,60.4,41.4,60.4z"/>
	<path class="st1" d="M28.7,38.3c2.5,0,5,0,7.5,0c0.1,0,0.2,0,0.3,0c0,0,0.1,0.1,0.1,0.1c0,0.4,0,0.7,0,1c0,0,0,0.1-0.1,0.1
		c0,0-0.1,0-0.1,0c-0.1,0-0.1,0-0.2,0c-5,0-10,0-14.9,0c-0.1,0-0.2,0-0.3,0c0,0-0.1,0-0.1-0.1c0-0.4,0-0.7,0-1c0,0,0,0,0,0
		c0,0,0,0,0-0.1c0,0,0,0,0.1,0c0.1,0,0.2,0,0.3,0C23.7,38.3,26.2,38.3,28.7,38.3z"/>
	<path class="st1" d="M37,51.7C37,51.7,37,51.6,37,51.7c0.3-0.1,0.5-0.2,0.7-0.3c0.3-0.1,0.6-0.3,0.9-0.4c0.2-0.1,0.4-0.2,0.6-0.4
		c0.1-0.1,0.1-0.1,0.2-0.1s0.1,0,0.2,0c3.7,0,7.3,0,11,0c0.2,0,0.4,0,0.5,0c0,0,0.1,0,0.1,0c0,0,0.1,0.1,0,0.1c0,0,0,0.1,0,0.1
		c-0.1,0.3-0.3,0.6-0.4,0.9c0,0,0,0,0,0.1c0,0-0.1,0.1-0.1,0.1c-0.1,0-0.2,0-0.3,0c-1.1,0-2.2,0-3.2,0c-3.2,0-6.5,0-9.7,0
		c-0.1,0-0.2,0-0.3,0C37,51.7,37,51.7,37,51.7z"/>
	<path class="st1" d="M64.9,37.1c-1.8,0-3.6,0-5.4,0c-0.1,0-0.2,0-0.3,0c0,0-0.1-0.1-0.1-0.1c0-0.1,0.1-0.1,0.1-0.2
		c0.2-0.3,0.3-0.6,0.5-0.9c0-0.1,0.1-0.1,0.2-0.1c0.1,0,0.1,0,0.2,0c3.6,0,7.3,0,10.9,0c0.1,0,0.2,0,0.3,0c0,0,0,0,0,0.1
		c0,0,0,0,0,0.1c-0.2,0.4-0.4,0.7-0.5,1.1c0,0,0,0,0,0c0,0-0.1,0.1-0.1,0.1c-0.1,0-0.2,0-0.3,0C68.5,37.1,66.7,37.1,64.9,37.1z"/>
	<path class="st1" d="M57.8,50.5c1.8,0,3.6,0,5.4,0c0.1,0,0.2,0,0.3,0c0,0,0,0,0,0.1c0,0,0,0,0,0c-0.2,0.4-0.4,0.7-0.5,1.1
		c0,0-0.1,0.1-0.1,0.1c0,0-0.1,0-0.1,0c-0.1,0-0.1,0-0.2,0c-3.2,0-6.4,0-9.6,0c-0.1,0-0.1,0-0.2,0c-0.1,0-0.1,0-0.2-0.1
		c-0.2-0.4-0.4-0.7-0.5-1.1c0-0.1,0-0.1,0.1-0.1c0,0,0.1,0,0.1,0c0.1,0,0.1,0,0.2,0C54.2,50.5,56,50.5,57.8,50.5z"/>
	<path class="st1" d="M63.6,39.5c-1.8,0-3.6,0-5.4,0c-0.1,0-0.2,0-0.3,0c0,0,0,0,0,0c0,0,0,0,0,0c0.2-0.3,0.3-0.6,0.5-1
		c0,0,0-0.1,0.1-0.1c0,0,0.1,0,0.1,0c0.1,0,0.2,0,0.3,0c1,0,2,0,3,0c2.6,0,5.2,0,7.9,0c0.1,0,0.2,0,0.3,0c0,0,0,0,0,0
		c0,0,0,0.1,0,0.1c-0.2,0.3-0.3,0.6-0.5,1c0,0.1-0.1,0.1-0.1,0.1s-0.2,0-0.3,0C67.2,39.5,65.4,39.5,63.6,39.5z"/>
	<path class="st1" d="M68.1,31c1.8,0,3.6,0,5.4,0c0.1,0,0.2,0,0.3,0c0,0,0,0,0,0c0,0,0,0,0,0.1c-0.2,0.3-0.3,0.6-0.5,0.9
		c0,0,0,0,0,0.1c-0.1,0.1-0.1,0.1-0.2,0.1c-0.1,0-0.1,0-0.2,0c-3.6,0-7.1,0-10.7,0c-0.1,0-0.2,0-0.3,0c-0.1,0-0.1-0.1-0.1-0.1
		c0.2-0.3,0.3-0.6,0.5-1c0-0.1,0.1-0.1,0.2-0.1c0.1,0,0.2,0,0.3,0C64.5,31,66.3,31,68.1,31z"/>
	<path class="st1" d="M66.2,34.6c-1.8,0-3.6,0-5.4,0c-0.1,0-0.2,0-0.3,0c0,0-0.1,0,0-0.1c0.2-0.3,0.4-0.6,0.6-1
		c0-0.1,0.1-0.1,0.2-0.1c0.1,0,0.1,0,0.2,0c3.6,0,7.2,0,10.8,0c0.1,0,0.2,0,0.3,0c0,0,0,0,0,0.1c0,0,0,0,0,0.1
		c-0.1,0.3-0.3,0.6-0.4,0.9c0,0,0,0,0,0.1c0,0-0.1,0-0.1,0c-0.1,0-0.2,0-0.3,0C69.8,34.6,68,34.6,66.2,34.6z"/>
	<path class="st1" d="M68.9,29.6c-1.8,0-3.6,0-5.4,0c-0.1,0-0.2,0-0.3,0c0,0-0.1-0.1,0-0.1c0,0,0-0.1,0-0.1c0.1-0.3,0.3-0.5,0.4-0.8
		c0,0,0-0.1,0.1-0.1c0,0,0.1-0.1,0.1-0.1c0.1,0,0.2,0,0.3,0c1.7,0,3.3,0,4.9,0c1.9,0,3.7,0,5.6,0c0.1,0,0.1,0,0.1,0
		c0.4,0,0.3,0,0.2,0.3c-0.1,0.2-0.2,0.4-0.4,0.7c0,0,0,0.1-0.1,0.1s-0.1,0.1-0.1,0.1c-0.1,0-0.2,0-0.3,0c-1.1,0-2.2,0-3.4,0
		C70.2,29.6,69.5,29.6,68.9,29.6z"/>
	<path class="st1" d="M57.8,53c1.4,0,2.7,0,4.1,0c0.1,0,0.2,0,0.3,0c0.1,0,0.1,0,0.1,0.1c-0.1,0.3-0.3,0.6-0.4,0.9
		c0,0.1-0.1,0.1-0.1,0.2c0,0-0.1,0-0.1,0.1c0,0,0,0-0.1,0c-0.1,0-0.1,0-0.2,0c-2.4,0-4.7,0-7.1,0c-0.4,0-0.3,0-0.5-0.3
		c-0.1-0.2-0.3-0.5-0.4-0.7c0-0.1,0-0.1-0.1-0.1c0,0,0,0,0-0.1c0,0,0,0,0.1,0c0.1,0,0.2,0,0.3,0C55.1,53,56.5,53,57.8,53z"/>
	<path class="st1" d="M57.8,55.4c0.9,0,1.9,0,2.9,0c0.1,0,0.1,0,0.2,0s0.1,0.1,0.1,0.1c0,0.1-0.1,0.1-0.1,0.2
		c-0.1,0.2-0.3,0.5-0.4,0.7c0,0,0,0.1-0.1,0.1c0,0,0,0-0.1,0c-0.1,0-0.1,0-0.2,0c-1.5,0-3.1,0-4.6,0c-0.1,0-0.1,0-0.1,0
		c0,0-0.1,0-0.1-0.1c0,0,0-0.1-0.1-0.1c-0.2-0.3-0.4-0.6-0.6-1c0,0,0-0.1,0-0.1l0,0c0,0,0,0,0.1,0c0.1,0,0.2,0,0.3,0
		C55.9,55.4,56.9,55.4,57.8,55.4z"/>
	<path class="st1" d="M57.9,57.9c0.6,0,1.1,0,1.7,0c0.1,0,0.1,0,0.2,0c0,0,0,0,0,0.1c0,0,0,0.1,0,0.1c-0.1,0.3-0.3,0.6-0.5,0.9
		c0,0,0,0.1-0.1,0.1c0,0-0.1,0-0.1,0.1c0,0-0.1,0-0.1,0c-0.7,0-1.5,0-2.2,0c0,0-0.1,0-0.1,0c0,0-0.1,0-0.1-0.1
		c-0.1-0.1-0.1-0.2-0.1-0.2c-0.1-0.3-0.3-0.5-0.4-0.8c0,0,0-0.1-0.1-0.1c0,0,0,0,0,0c0.1,0,0.1,0,0.2,0
		C56.8,57.9,57.3,57.9,57.9,57.9z"/>
	<path class="st1" d="M57.8,60.3c0.2,0,0.4,0,0.6,0c0,0,0.1,0.1,0,0.1c0,0,0,0.1-0.1,0.1c-0.1,0.1-0.1,0.2-0.1,0.3
		c-0.1,0.2-0.2,0.5-0.4,0.7c0,0.1-0.1,0.1-0.1,0c-0.2-0.4-0.4-0.7-0.6-1.1c0,0,0-0.1,0.1-0.1c0,0,0.1,0,0.1,0
		C57.5,60.3,57.7,60.3,57.8,60.3L57.8,60.3z"/>
</g>
</svg>
