<?xml version="1.0" encoding="utf-8"?>
<!-- Generator: Adobe Illustrator 23.0.3, SVG Export Plug-In . SVG Version: 6.00 Build 0)  -->
<!DOCTYPE svg PUBLIC "-//W3C//DTD SVG 1.1//EN" "http://www.w3.org/Graphics/SVG/1.1/DTD/svg11.dtd" [
	<!ENTITY ns_extend "http://ns.adobe.com/Extensibility/1.0/">
	<!ENTITY ns_ai "http://ns.adobe.com/AdobeIllustrator/10.0/">
	<!ENTITY ns_graphs "http://ns.adobe.com/Graphs/1.0/">
	<!ENTITY ns_vars "http://ns.adobe.com/Variables/1.0/">
	<!ENTITY ns_imrep "http://ns.adobe.com/ImageReplacement/1.0/">
	<!ENTITY ns_sfw "http://ns.adobe.com/SaveForWeb/1.0/">
	<!ENTITY ns_custom "http://ns.adobe.com/GenericCustomNamespace/1.0/">
	<!ENTITY ns_adobe_xpath "http://ns.adobe.com/XPath/1.0/">
]>
<svg version="1.1" id="Layer_1" xmlns:x="&ns_extend;" xmlns:i="&ns_ai;" xmlns:graph="&ns_graphs;"
	 xmlns="http://www.w3.org/2000/svg" xmlns:xlink="http://www.w3.org/1999/xlink" x="0px" y="0px" viewBox="0 0 87.4 87.4"
	 style="enable-background:new 0 0 87.4 87.4;" xml:space="preserve">
<style type="text/css">
	.st0{fill:none;stroke:#81B8DC;stroke-width:3;stroke-miterlimit:10;}
	.st1{fill:#81B8DC;}
</style>
<metadata>
	<sfw  xmlns="&ns_sfw;">
		<slices></slices>
		<sliceSourceBounds  bottomLeftOrigin="true" height="87.4" width="87.4" x="-12.6" y="6.2"></sliceSourceBounds>
	</sfw>
</metadata>
<title>review-comment-feedback</title>
<circle class="st0" cx="43.7" cy="43.7" r="42.2"/>
<path class="st1" d="M43.6,41.5c-2.4-3.3-7.8-5.1-10.4-1c-2.6,4.2,1.7,8.6,4.4,11.4c0.9,0.9,3.4,2.5,3.9,3.7c0.4,1-0.2,3-0.4,4.1
	c-0.4,3.3-1.7,9.3-6.3,8.7c-3.5-0.4-5-6.1-6.1-9c-1.1-3-2-6.1-3.3-9c-1.2-2.7-3-5-4-7.8c-1.7-5-1.5-11.1,1.1-15.8
	c2.2-4,6.8-6.1,11.2-5.9c4.5,0.1,8.1,2.5,12.6,1.5c3.4-0.7,6.7-2.1,10.2-1.4c4.7,1,8.4,4.7,9.6,9.3c1.3,5,0.6,10.7-1.7,15.3
	c-1.3,2.6-2.7,4.9-3.8,7.7c-1.1,2.8-2.1,5.7-3.3,8.5c-0.9,2.2-2.3,6.2-5,6.5c-5,0.5-5.5-5.5-6-8.8c-0.2-1.2-1-3.2-0.6-4.3
	c0.5-1.5,3.1-3.2,4.2-4.3c2.6-2.6,5.9-6,4.1-10c-1.2-2.6-4.9-3.6-7.5-2.3C45.4,39.2,44.5,40.5,43.6,41.5z"/>
</svg>
