<?xml version="1.0" encoding="utf-8"?>
<!-- Generator: Adobe Illustrator 23.0.3, SVG Export Plug-In . SVG Version: 6.00 Build 0)  -->
<!DOCTYPE svg PUBLIC "-//W3C//DTD SVG 1.1//EN" "http://www.w3.org/Graphics/SVG/1.1/DTD/svg11.dtd" [
	<!ENTITY ns_extend "http://ns.adobe.com/Extensibility/1.0/">
	<!ENTITY ns_ai "http://ns.adobe.com/AdobeIllustrator/10.0/">
	<!ENTITY ns_graphs "http://ns.adobe.com/Graphs/1.0/">
	<!ENTITY ns_vars "http://ns.adobe.com/Variables/1.0/">
	<!ENTITY ns_imrep "http://ns.adobe.com/ImageReplacement/1.0/">
	<!ENTITY ns_sfw "http://ns.adobe.com/SaveForWeb/1.0/">
	<!ENTITY ns_custom "http://ns.adobe.com/GenericCustomNamespace/1.0/">
	<!ENTITY ns_adobe_xpath "http://ns.adobe.com/XPath/1.0/">
]>
<svg version="1.1" id="Layer_1" xmlns:x="&ns_extend;" xmlns:i="&ns_ai;" xmlns:graph="&ns_graphs;"
	 xmlns="http://www.w3.org/2000/svg" xmlns:xlink="http://www.w3.org/1999/xlink" x="0px" y="0px" viewBox="0 0 87.4 87.4"
	 style="enable-background:new 0 0 87.4 87.4;" xml:space="preserve">
<style type="text/css">
	.st0{fill:none;stroke:#81B8DC;stroke-width:3;stroke-miterlimit:10;}
	.st1{fill:#80B8DC;}
</style>
<metadata>
	<sfw  xmlns="&ns_sfw;">
		<slices></slices>
		<sliceSourceBounds  bottomLeftOrigin="true" height="87.4" width="87.4" x="-12.6" y="6.2"></sliceSourceBounds>
	</sfw>
</metadata>
<title>review-comment-feedback</title>
<circle class="st0" cx="43.7" cy="43.7" r="42.2"/>
<g>
	<path class="st1" d="M60.6,46.3c-2.1,0-4.1,0.6-5.8,1.6c-1.7-0.7-3.3-1.2-4.5-1.5C50.1,46.3,50,46.2,50,46c0-0.1,0.1-0.3,0.2-0.4
		c2.7-1.7,7.1-6.2,7.1-17.4c0-3.6-1.2-7.2-3.3-9.9c-1.8-2.3-5.2-5.1-11-5.1c-5.9,0-9.3,2.8-11.1,5.1c-2,2.7-3.2,6.3-3.2,9.9
		c0,11.2,4.5,15.7,7.1,17.4c0.1,0.1,0.2,0.4,0.2,0.6c0,0.1-0.1,0.2-0.3,0.2c-2.6,0.6-7.4,2.5-11.3,5.1c-5.3,3.5-8.1,7.2-8.1,10.9
		c0,5.5,10.2,6.6,26.6,6.6c4.3,0,9.7-0.1,14.4-0.5c1.1,0.3,2.1,0.5,3.2,0.5c6.3,0,11.3-5.1,11.3-11.3C71.9,51.4,66.8,46.3,60.6,46.3
		z M43,65.9c-5.3,0-11.9-0.1-16.9-0.8c-4.9-0.7-6.6-1.9-6.6-2.7c0-2.5,2.4-5.5,6.6-8.3c3.7-2.4,8-4.2,10.3-4.7
		c1.7-0.4,2.9-1.9,2.7-3.6c-0.1-0.9-0.6-2.1-1.6-2.7c-2.1-1.4-5.7-5.1-5.7-14.9c-0.1-4.1,2.3-11.9,11.2-11.9c8.2,0,11.2,7.1,11.2,12
		c0,9.7-3.6,13.4-5.7,14.9c-0.9,0.6-1.6,1.8-1.6,3c0,1.6,1.1,3,2.7,3.4c0.7,0.1,1.5,0.4,2.4,0.7c-1.7,2-2.9,4.6-2.9,7.5
		c0,3.2,1.3,6,3.4,8.1C49.3,65.9,45.8,65.9,43,65.9z M60.6,65.9c-4.5,0-8.2-3.7-8.2-8.2s3.7-8.2,8.2-8.2s8.2,3.7,8.2,8.2
		S65.1,65.9,60.6,65.9z"/>
	<path class="st1" d="M64.3,56h-2.1v-2.1c0-0.9-0.7-1.5-1.5-1.5c-0.9,0-1.5,0.7-1.5,1.5V56h-2.1c-0.9,0-1.5,0.7-1.5,1.5
		s0.7,1.5,1.5,1.5h2.1v2.2c0,0.9,0.7,1.5,1.5,1.5c0.9,0,1.5-0.7,1.5-1.5v-2.1h2.1c0.9,0,1.5-0.7,1.5-1.5S65.2,56,64.3,56z"/>
</g>
</svg>
