<?xml version="1.0" encoding="utf-8"?>
<!-- Generator: Adobe Illustrator 23.0.3, SVG Export Plug-In . SVG Version: 6.00 Build 0)  -->
<!DOCTYPE svg PUBLIC "-//W3C//DTD SVG 1.1//EN" "http://www.w3.org/Graphics/SVG/1.1/DTD/svg11.dtd" [
	<!ENTITY ns_extend "http://ns.adobe.com/Extensibility/1.0/">
	<!ENTITY ns_ai "http://ns.adobe.com/AdobeIllustrator/10.0/">
	<!ENTITY ns_graphs "http://ns.adobe.com/Graphs/1.0/">
	<!ENTITY ns_vars "http://ns.adobe.com/Variables/1.0/">
	<!ENTITY ns_imrep "http://ns.adobe.com/ImageReplacement/1.0/">
	<!ENTITY ns_sfw "http://ns.adobe.com/SaveForWeb/1.0/">
	<!ENTITY ns_custom "http://ns.adobe.com/GenericCustomNamespace/1.0/">
	<!ENTITY ns_adobe_xpath "http://ns.adobe.com/XPath/1.0/">
]>
<svg version="1.1" id="Layer_1" xmlns:x="&ns_extend;" xmlns:i="&ns_ai;" xmlns:graph="&ns_graphs;"
	 xmlns="http://www.w3.org/2000/svg" xmlns:xlink="http://www.w3.org/1999/xlink" x="0px" y="0px" viewBox="0 0 89.9 89.9"
	 style="enable-background:new 0 0 89.9 89.9;" xml:space="preserve">
<style type="text/css">
	.st0{fill:none;stroke:#80B8DC;stroke-width:3;stroke-miterlimit:10;}
	.st1{fill:#80B8DC;}
</style>
<metadata>
	<sfw  xmlns="&ns_sfw;">
		<slices></slices>
		<sliceSourceBounds  bottomLeftOrigin="true" height="90" width="90" x="0" y="-0.1"></sliceSourceBounds>
	</sfw>
</metadata>
<circle class="st0" cx="45" cy="45" r="43.5"/>
<path class="st1" d="M70.6,67V38.8c0-0.2,0-0.3-0.1-0.5l0-0.1c0-0.1-0.1-0.1-0.1-0.2L70.3,38l-0.1-0.1l0,0l-6.5-5.4v-7.8
	c0-0.7-0.5-1.2-1.2-1.2h-9.7l-6.7-5.5c-0.5-0.4-1.1-0.4-1.6,0l-6.7,5.5h-9.7c-0.7,0-1.2,0.5-1.2,1.2v7.8l-6.5,5.4l0,0L20.3,38
	L20.2,38c0,0.1-0.1,0.1-0.1,0.2l0,0.1C20,38.4,20,38.6,20,38.8V67c0,0.7,0.5,1.2,1.2,1.2h48.2C70.1,68.2,70.6,67.7,70.6,67
	C70.6,67,70.6,67,70.6,67z M67.4,38.7l-3.7,2.8v-5.9L67.4,38.7z M45.3,20.4l3.7,3h-7.3L45.3,20.4z M61.2,25.9v17.4L45.3,55.2
	L29.4,43.3V25.9H61.2z M26.9,35.6v5.9l-3.7-2.8L26.9,35.6z M22.4,65.8V41.2l4.8,3.6c0.1,0.2,0.3,0.3,0.5,0.4l16.8,12.5
	c0.4,0.3,1,0.3,1.5,0l16.9-12.6c0.2-0.1,0.4-0.2,0.5-0.4l4.8-3.5v24.6L22.4,65.8z"/>
<polygon class="st1" points="43.1,45 45.5,45 45.5,40.6 49.9,40.6 49.9,38.2 45.5,38.2 45.5,33.8 43.1,33.8 43.1,38.2 38.7,38.2 
	38.7,40.6 43.1,40.6 "/>
</svg>
