<?xml version="1.0" encoding="utf-8"?>
<!-- Generator: Adobe Illustrator 23.0.3, SVG Export Plug-In . SVG Version: 6.00 Build 0)  -->
<!DOCTYPE svg PUBLIC "-//W3C//DTD SVG 1.1//EN" "http://www.w3.org/Graphics/SVG/1.1/DTD/svg11.dtd" [
	<!ENTITY ns_extend "http://ns.adobe.com/Extensibility/1.0/">
	<!ENTITY ns_ai "http://ns.adobe.com/AdobeIllustrator/10.0/">
	<!ENTITY ns_graphs "http://ns.adobe.com/Graphs/1.0/">
	<!ENTITY ns_vars "http://ns.adobe.com/Variables/1.0/">
	<!ENTITY ns_imrep "http://ns.adobe.com/ImageReplacement/1.0/">
	<!ENTITY ns_sfw "http://ns.adobe.com/SaveForWeb/1.0/">
	<!ENTITY ns_custom "http://ns.adobe.com/GenericCustomNamespace/1.0/">
	<!ENTITY ns_adobe_xpath "http://ns.adobe.com/XPath/1.0/">
]>
<svg version="1.1" id="Layer_1" xmlns:x="&ns_extend;" xmlns:i="&ns_ai;" xmlns:graph="&ns_graphs;"
	 xmlns="http://www.w3.org/2000/svg" xmlns:xlink="http://www.w3.org/1999/xlink" x="0px" y="0px" viewBox="0 0 87.4 87.4"
	 style="enable-background:new 0 0 87.4 87.4;" xml:space="preserve">
<style type="text/css">
	.st0{fill:none;stroke:#81B8DC;stroke-width:3;stroke-miterlimit:10;}
	.st1{fill:#80B8DC;}
</style>
<metadata>
	<sfw  xmlns="&ns_sfw;">
		<slices></slices>
		<sliceSourceBounds  bottomLeftOrigin="true" height="87.4" width="87.4" x="-12.6" y="6.2"></sliceSourceBounds>
	</sfw>
</metadata>
<title>review-comment-feedback</title>
<circle class="st0" cx="43.7" cy="43.7" r="42.2"/>
<g>
	<polygon class="st1" points="45.3,17.9 45.3,24.4 56.5,30.9 61.3,27.2 	"/>
	<polygon class="st1" points="42,17.9 42,24.4 27.6,32.9 21.9,29.5 	"/>
	<polygon class="st1" points="20.2,32.4 25.8,35.7 25.8,52.1 20.2,55.4 	"/>
	<polygon class="st1" points="21.5,58.3 27.1,55.2 41.9,63.7 41.9,70.4 	"/>
	<polygon class="st1" points="45.3,70.4 45.3,63.8 60.3,55.1 65.9,58.4 	"/>
	<polygon class="st1" points="67.1,35.1 67.1,55.3 61.5,52 61.5,41.2 	"/>
	<polygon class="st1" points="38.7,39.8 33.5,45 43.9,55.7 75.3,20.7 44.1,45.1 	"/>
</g>
</svg>
