<?xml version="1.0" encoding="utf-8"?>
<!-- Generator: Adobe Illustrator 23.0.3, SVG Export Plug-In . SVG Version: 6.00 Build 0)  -->
<!DOCTYPE svg PUBLIC "-//W3C//DTD SVG 1.1//EN" "http://www.w3.org/Graphics/SVG/1.1/DTD/svg11.dtd" [
	<!ENTITY ns_extend "http://ns.adobe.com/Extensibility/1.0/">
	<!ENTITY ns_ai "http://ns.adobe.com/AdobeIllustrator/10.0/">
	<!ENTITY ns_graphs "http://ns.adobe.com/Graphs/1.0/">
	<!ENTITY ns_vars "http://ns.adobe.com/Variables/1.0/">
	<!ENTITY ns_imrep "http://ns.adobe.com/ImageReplacement/1.0/">
	<!ENTITY ns_sfw "http://ns.adobe.com/SaveForWeb/1.0/">
	<!ENTITY ns_custom "http://ns.adobe.com/GenericCustomNamespace/1.0/">
	<!ENTITY ns_adobe_xpath "http://ns.adobe.com/XPath/1.0/">
]>
<svg version="1.1" id="Layer_1" xmlns:x="&ns_extend;" xmlns:i="&ns_ai;" xmlns:graph="&ns_graphs;"
	 xmlns="http://www.w3.org/2000/svg" xmlns:xlink="http://www.w3.org/1999/xlink" x="0px" y="0px" viewBox="0 0 89.9 89.9"
	 style="enable-background:new 0 0 89.9 89.9;" xml:space="preserve">
<style type="text/css">
	.st0{fill:none;stroke:#80B8DC;stroke-width:3;stroke-miterlimit:10;}
	.st1{fill:none;stroke:#80B8DC;stroke-width:2;stroke-miterlimit:10;}
	.st2{fill:none;stroke:#80B8DC;stroke-width:2;stroke-linecap:round;stroke-miterlimit:10;}
</style>
<metadata>
	<sfw  xmlns="&ns_sfw;">
		<slices></slices>
		<sliceSourceBounds  bottomLeftOrigin="true" height="90" width="90" x="0" y="-0.1"></sliceSourceBounds>
	</sfw>
</metadata>
<circle class="st0" cx="45" cy="45" r="43.5"/>
<g>
	<g>
		<circle class="st1" cx="45.4" cy="45" r="14.6"/>
		<polyline class="st2" points="36.2,50.2 42.1,44.3 46.8,48.9 54.7,41 		"/>
		<polyline class="st2" points="49.4,41 54.7,41 54.7,46.3 		"/>
	</g>
	<path class="st1" d="M73.4,45c0,7.6-3.1,14.5-8,19.5c-5.1,5.2-12.1,8.4-19.9,8.4s-14.9-3.2-19.9-8.4c-5-5-8-11.9-8-19.5
		c0-7.6,3.1-14.5,8-19.5c5.1-5.2,12.1-8.4,19.9-8.4s14.9,3.2,19.9,8.4C70.3,30.4,73.4,37.3,73.4,45z"/>
	<path class="st1" d="M37.6,32.7c-4.6-1.4-8.8-3.9-12.1-7.3"/>
	<path class="st1" d="M65.3,25.4c-3.3,3.4-7.4,5.9-12.1,7.3"/>
	<path class="st1" d="M53.3,57.2c4.6,1.4,8.8,3.9,12.1,7.3"/>
	<path class="st1" d="M25.5,64.5c3.3-3.4,7.4-5.9,12.1-7.3"/>
	<ellipse class="st1" cx="45.4" cy="45" rx="14.9" ry="27.9"/>
	<line class="st1" x1="45.4" y1="59.5" x2="45.4" y2="72.9"/>
	<line class="st1" x1="45.4" y1="17" x2="45.4" y2="30.4"/>
	<line class="st1" x1="73.4" y1="45" x2="60" y2="45"/>
	<line class="st1" x1="30.9" y1="45" x2="17.5" y2="45"/>
</g>
</svg>
