<?xml version="1.0" encoding="utf-8"?>
<!-- Generator: Adobe Illustrator 23.0.3, SVG Export Plug-In . SVG Version: 6.00 Build 0)  -->
<!DOCTYPE svg PUBLIC "-//W3C//DTD SVG 1.1//EN" "http://www.w3.org/Graphics/SVG/1.1/DTD/svg11.dtd" [
	<!ENTITY ns_extend "http://ns.adobe.com/Extensibility/1.0/">
	<!ENTITY ns_ai "http://ns.adobe.com/AdobeIllustrator/10.0/">
	<!ENTITY ns_graphs "http://ns.adobe.com/Graphs/1.0/">
	<!ENTITY ns_vars "http://ns.adobe.com/Variables/1.0/">
	<!ENTITY ns_imrep "http://ns.adobe.com/ImageReplacement/1.0/">
	<!ENTITY ns_sfw "http://ns.adobe.com/SaveForWeb/1.0/">
	<!ENTITY ns_custom "http://ns.adobe.com/GenericCustomNamespace/1.0/">
	<!ENTITY ns_adobe_xpath "http://ns.adobe.com/XPath/1.0/">
]>
<svg version="1.1" id="Layer_1" xmlns:x="&ns_extend;" xmlns:i="&ns_ai;" xmlns:graph="&ns_graphs;"
	 xmlns="http://www.w3.org/2000/svg" xmlns:xlink="http://www.w3.org/1999/xlink" x="0px" y="0px" viewBox="0 0 89.9 89.9"
	 style="enable-background:new 0 0 89.9 89.9;" xml:space="preserve">
<style type="text/css">
	.st0{fill:none;stroke:#80B8DC;stroke-width:3;stroke-miterlimit:10;}
	.st1{fill-rule:evenodd;clip-rule:evenodd;fill:#80B8DC;}
</style>
<metadata>
	<sfw  xmlns="&ns_sfw;">
		<slices></slices>
		<sliceSourceBounds  bottomLeftOrigin="true" height="89.9" width="89.9" x="-14.9" y="4.7"></sliceSourceBounds>
	</sfw>
</metadata>
<circle class="st0" cx="45" cy="45" r="43.5"/>
<g>
	<path class="st1" d="M64.3,30.1h-3.2v31.6H29.6v3.2h34.8V30.1L64.3,30.1z M66.6,35.5v31.6H35v3.2h34.8V35.5H66.6L66.6,35.5z
		 M22.2,59h36.3V22.6H22.2V59z M30.9,49.8c1-4.3,4.8-7.6,9.5-7.6s8.5,3.3,9.5,7.6H30.9L30.9,49.8z M36.8,36c0-2,1.6-3.6,3.6-3.6
		S44,34,44,36c0,2-1.6,3.6-3.6,3.6S36.8,38,36.8,36L36.8,36z M55.3,49.8h-2.9c-0.7-4.3-3.7-7.8-7.7-9.3c1.2-1.1,1.9-2.7,1.9-4.4
		c0-3.4-2.8-6.2-6.2-6.2c-3.4,0-6.2,2.8-6.2,6.2c0,1.7,0.7,3.3,1.9,4.4c-4,1.5-7,5-7.7,9.3h-3v-24h30V49.8L55.3,49.8z"/>
</g>
</svg>
