<?xml version="1.0" encoding="utf-8"?>
<!-- Generator: Adobe Illustrator 23.0.3, SVG Export Plug-In . SVG Version: 6.00 Build 0)  -->
<!DOCTYPE svg PUBLIC "-//W3C//DTD SVG 1.1//EN" "http://www.w3.org/Graphics/SVG/1.1/DTD/svg11.dtd" [
	<!ENTITY ns_extend "http://ns.adobe.com/Extensibility/1.0/">
	<!ENTITY ns_ai "http://ns.adobe.com/AdobeIllustrator/10.0/">
	<!ENTITY ns_graphs "http://ns.adobe.com/Graphs/1.0/">
	<!ENTITY ns_vars "http://ns.adobe.com/Variables/1.0/">
	<!ENTITY ns_imrep "http://ns.adobe.com/ImageReplacement/1.0/">
	<!ENTITY ns_sfw "http://ns.adobe.com/SaveForWeb/1.0/">
	<!ENTITY ns_custom "http://ns.adobe.com/GenericCustomNamespace/1.0/">
	<!ENTITY ns_adobe_xpath "http://ns.adobe.com/XPath/1.0/">
]>
<svg version="1.1" id="Layer_1" xmlns:x="&ns_extend;" xmlns:i="&ns_ai;" xmlns:graph="&ns_graphs;"
	 xmlns="http://www.w3.org/2000/svg" xmlns:xlink="http://www.w3.org/1999/xlink" x="0px" y="0px" viewBox="0 0 89.9 89.9"
	 style="enable-background:new 0 0 89.9 89.9;" xml:space="preserve">
<style type="text/css">
	.st0{fill:none;stroke:#80B8DC;stroke-width:3;stroke-miterlimit:10;}
	.st1{fill:#80B8DC;}
</style>
<metadata>
	<sfw  xmlns="&ns_sfw;">
		<slices></slices>
		<sliceSourceBounds  bottomLeftOrigin="true" height="89.9" width="89.9" x="-14.9" y="4.7"></sliceSourceBounds>
	</sfw>
</metadata>
<circle class="st0" cx="45" cy="45" r="43.5"/>
<path class="st1" d="M53.3,69.2H37.8c-0.5,0-0.9-0.4-0.9-0.9V53.6c0-4.8,3.9-8.7,8.7-8.7s8.7,3.9,8.7,8.7v14.7
	C54.2,68.8,53.8,69.2,53.3,69.2z M38.6,67.5h13.8V53.6c0-3.8-3.1-6.9-6.9-6.9s-6.9,3.1-6.9,6.9V67.5z"/>
<path class="st1" d="M45.6,41.5c-6.7,0-12.1-5.4-12.1-12.1s5.4-12.1,12.1-12.1s12.1,5.4,12.1,12.1C57.7,36.1,52.2,41.5,45.6,41.5z
	 M45.6,19c-5.7,0-10.4,4.6-10.4,10.4s4.6,10.4,10.4,10.4s10.4-4.6,10.4-10.4C55.9,23.7,51.3,19,45.6,19z"/>
<path class="st1" d="M70.7,69.2H20.5c-0.5,0-0.9-0.4-0.9-0.9V35.5c0-0.3,0.2-0.7,0.5-0.8L34,28.6c0.4-0.2,0.9,0,1.1,0.4
	c0,0.1,0.1,0.2,0.1,0.3c0,5.7,4.6,10.4,10.4,10.4s10.4-4.6,10.4-10.4c0-0.5,0.4-0.9,0.9-0.9c0.1,0,0.2,0,0.3,0.1L71,34.7
	c0.3,0.1,0.5,0.4,0.5,0.8v32.9C71.5,68.8,71.1,69.2,70.7,69.2z M21.3,67.5h48.5V36l-12.2-5.3c-0.7,6.7-6.7,11.5-13.3,10.8
	c-5.7-0.6-10.1-5.1-10.8-10.8L21.3,36V67.5z"/>
<path class="st1" d="M48.5,36.3h-1c-1,0-1.8-0.7-1.8-1.6v-2.5c0,0-0.1,0-0.1,0l0,0c0,0-0.1,0-0.1,0l0,2.5c0,0.9-0.9,1.7-1.8,1.6h-1
	c-1.3,0.1-2.4-0.7-2.7-1.9L38.7,28c-0.2-1,0-2.1,0.5-3l0.7-1.3c0.4-0.8,1.3-1.2,2.2-1.2h1c0.8,0,1.6,0.4,2.1,1
	c0.1,0.1,0.3,0.2,0.4,0.2h0.1c0.2,0,0.3-0.1,0.4-0.2c0.5-0.7,1.2-1.1,2.1-1h1c0.9,0,1.7,0.5,2.2,1.2l0.7,1.3l0,0
	c0.4,0.7,0.5,1.4,0.5,2.2c0,0.3,0,0.5-0.1,0.8l-1.1,6.3C50.9,35.6,49.8,36.4,48.5,36.3z M47.4,34.6C47.5,34.6,47.5,34.6,47.4,34.6
	l1.1,0c0.5,0,0.9-0.2,1.1-0.6l1.1-6.3c0-0.2,0-0.3,0-0.5c0-0.5-0.1-0.9-0.3-1.4l-0.7-1.3c-0.1-0.2-0.4-0.3-0.6-0.3h-1
	c-0.2,0-0.5,0.1-0.6,0.3c-0.4,0.6-1.1,1-1.9,1h-0.1c-0.8,0-1.5-0.4-1.9-1c-0.1-0.2-0.4-0.3-0.6-0.3h-1c-0.2,0-0.5,0.1-0.6,0.3
	l-0.7,1.3c-0.2,0.4-0.3,0.9-0.3,1.4c0,0.2,0,0.3,0,0.5l1.1,6.3c0.2,0.4,0.6,0.6,1.1,0.6h1c0,0,0,0,0.1,0v-2.4c0-0.9,0.8-1.7,1.7-1.7
	c0.6,0,1.1,0.1,1.5,0.5c0.3,0.3,0.5,0.7,0.5,1.2L47.4,34.6z"/>
</svg>
