<?xml version="1.0" encoding="utf-8"?>
<!-- Generator: Adobe Illustrator 23.0.3, SVG Export Plug-In . SVG Version: 6.00 Build 0)  -->
<!DOCTYPE svg PUBLIC "-//W3C//DTD SVG 1.1//EN" "http://www.w3.org/Graphics/SVG/1.1/DTD/svg11.dtd" [
	<!ENTITY ns_extend "http://ns.adobe.com/Extensibility/1.0/">
	<!ENTITY ns_ai "http://ns.adobe.com/AdobeIllustrator/10.0/">
	<!ENTITY ns_graphs "http://ns.adobe.com/Graphs/1.0/">
	<!ENTITY ns_vars "http://ns.adobe.com/Variables/1.0/">
	<!ENTITY ns_imrep "http://ns.adobe.com/ImageReplacement/1.0/">
	<!ENTITY ns_sfw "http://ns.adobe.com/SaveForWeb/1.0/">
	<!ENTITY ns_custom "http://ns.adobe.com/GenericCustomNamespace/1.0/">
	<!ENTITY ns_adobe_xpath "http://ns.adobe.com/XPath/1.0/">
]>
<svg version="1.1" id="Layer_1" xmlns:x="&ns_extend;" xmlns:i="&ns_ai;" xmlns:graph="&ns_graphs;"
	 xmlns="http://www.w3.org/2000/svg" xmlns:xlink="http://www.w3.org/1999/xlink" x="0px" y="0px" viewBox="0 0 89.9 89.9"
	 style="enable-background:new 0 0 89.9 89.9;" xml:space="preserve">
<style type="text/css">
	.st0{fill:none;stroke:#80B8DC;stroke-width:3;stroke-miterlimit:10;}
	.st1{fill:#80B8DC;}
	.st2{fill:none;stroke:#80B8DC;stroke-width:0.75;stroke-miterlimit:10;}
</style>
<metadata>
	<sfw  xmlns="&ns_sfw;">
		<slices></slices>
		<sliceSourceBounds  bottomLeftOrigin="true" height="89.9" width="89.9" x="-14.9" y="4.7"></sliceSourceBounds>
	</sfw>
</metadata>
<circle class="st0" cx="45" cy="45" r="43.5"/>
<path class="st1" d="M29.6,30.5V22c0-1,0.8-1.8,1.8-1.8H38c0,0.2,0,0.5,0.1,0.7l0.8,1.8c0.3,0.7,0.9,1.1,1.6,1.1h8.3
	c0.7,0,1.4-0.4,1.6-1.1l0.8-1.8c0.1-0.2,0.1-0.5,0.1-0.7h6.7c1,0,1.8,0.8,1.8,1.8v8.5c0.3,0.2,0.6,0.5,0.9,0.8
	c0.3,0.3,0.6,0.7,0.9,1V22c0-2-1.6-3.6-3.6-3.6H31.4c-2,0-3.6,1.6-3.6,3.6v10.4c0.3-0.4,0.5-0.7,0.9-1C28.9,31,29.2,30.8,29.6,30.5z
	 M49.6,20.2L48.8,22h-8.3l-0.8-1.8H49.6z"/>
<path class="st1" d="M27.8,71.8c0,2,1.6,3.6,3.6,3.6h26.7c2,0,3.6-1.6,3.6-3.6v-9.5c-0.3,0.4-0.5,0.7-0.9,1
	c-0.3,0.3-0.6,0.5-0.9,0.8v5c0,0.5-0.5,0.9-1,0.9H30.6c-0.5,0-1-0.4-1-0.9v-5c-0.3-0.2-0.6-0.5-0.9-0.8c-0.3-0.3-0.6-0.7-0.9-1V71.8
	z M29.6,71.6c0.3,0.1,0.7,0.2,1,0.2h28.3c0.3,0,0.7-0.1,1-0.2v0.2c0,1-0.8,1.8-1.8,1.8H31.4c-1,0-1.8-0.8-1.8-1.8V71.6z"/>
<path class="st1" d="M29.1,52.7c2.9,0,5.3-2.4,5.3-5.3S32.1,42,29.1,42s-5.3,2.4-5.3,5.3C23.8,50.3,26.2,52.7,29.1,52.7z M29.1,42.7
	c2.5,0,4.6,2.1,4.6,4.6c0,2.5-2.1,4.6-4.6,4.6s-4.6-2.1-4.6-4.6C24.5,44.8,26.6,42.7,29.1,42.7z"/>
<path class="st1" d="M54.9,47.4c0,2.9,2.4,5.3,5.3,5.3c2.9,0,5.3-2.4,5.3-5.3S63.2,42,60.3,42C57.3,42,54.9,44.4,54.9,47.4z
	 M64.8,47.4c0,2.5-2,4.5-4.5,4.5c-2.5,0-4.5-2-4.5-4.5c0-2.5,2-4.5,4.5-4.5C62.8,42.9,64.8,44.9,64.8,47.4z"/>
<path class="st1" d="M50,31.8c0-2.9-2.4-5.3-5.3-5.3c-2.9,0-5.3,2.4-5.3,5.3s2.4,5.3,5.3,5.3C47.7,37.1,50,34.7,50,31.8z M40.1,31.8
	c0-2.6,2.1-4.7,4.7-4.7c2.6,0,4.7,2.1,4.7,4.7s-2.1,4.7-4.7,4.7C42.1,36.4,40.1,34.3,40.1,31.8z"/>
<path class="st1" d="M39.4,62.9c0,2.9,2.4,5.3,5.3,5.3c2.9,0,5.3-2.4,5.3-5.3s-2.4-5.3-5.3-5.3C41.8,57.6,39.4,60,39.4,62.9z
	 M49.3,62.9c0,2.5-2.1,4.6-4.6,4.6c-2.5,0-4.6-2.1-4.6-4.6c0-2.5,2.1-4.6,4.6-4.6C47.2,58.3,49.3,60.4,49.3,62.9z"/>
<path class="st1" d="M37.5,32.6c-2.1-2.1-5.5-2.1-7.6,0s-2.1,5.5,0,7.6s5.5,2.1,7.6,0c1-1,1.6-2.4,1.6-3.8
	C39,34.9,38.5,33.6,37.5,32.6z M37,39.6c-1.8,1.8-4.7,1.8-6.5,0s-1.8-4.7,0-6.5c1.8-1.8,4.7-1.8,6.5,0c0,0,0,0,0,0
	C38.8,34.9,38.8,37.8,37,39.6C37,39.6,37,39.6,37,39.6z"/>
<path class="st1" d="M51.9,62.1c2.1,2.1,5.5,2.1,7.6,0c2.1-2.1,2.1-5.5,0-7.6c-2.1-2.1-5.5-2.1-7.6,0C49.9,56.6,49.8,60,51.9,62.1
	C51.9,62.1,51.9,62.1,51.9,62.1z M52.5,55.2c1.8-1.8,4.6-1.8,6.4,0c1.8,1.8,1.8,4.6,0,6.4c-1.8,1.8-4.6,1.8-6.4,0
	C50.8,59.8,50.8,57,52.5,55.2C52.5,55.2,52.5,55.2,52.5,55.2z"/>
<path class="st1" d="M59.5,40.1c2.1-2.1,2.1-5.5,0-7.6s-5.5-2.1-7.6,0c-2.1,2.1-2.1,5.5,0,7.6c1,1,2.4,1.6,3.8,1.6
	C57.1,41.7,58.5,41.1,59.5,40.1z M52.4,39.7c-1.8-1.8-1.8-4.8,0-6.7c1.8-1.8,4.8-1.8,6.7,0c1.8,1.8,1.8,4.8,0,6.7
	C58.2,40.5,57,41,55.7,41C54.5,41,53.3,40.5,52.4,39.7z"/>
<path class="st1" d="M29.9,54.6c-2.1,2.1-2.1,5.5,0,7.6c2.1,2.1,5.5,2.1,7.6,0c2.1-2.1,2.1-5.5,0-7.6c-1-1-2.4-1.6-3.8-1.6
	C32.3,53,30.9,53.6,29.9,54.6z M36.9,61.6c-1.8,1.8-4.7,1.8-6.4,0c-1.8-1.8-1.8-4.7,0-6.4c1.8-1.8,4.7-1.8,6.4,0
	C38.7,56.9,38.7,59.8,36.9,61.6C36.9,61.6,36.9,61.6,36.9,61.6z"/>
<path class="st1" d="M44.7,54.9c4.2,0,7.6-3.4,7.6-7.6s-3.4-7.6-7.6-7.6s-7.6,3.4-7.6,7.6C37.1,51.5,40.5,54.9,44.7,54.9z M44.7,41
	c3.5,0,6.3,2.8,6.3,6.3s-2.8,6.3-6.3,6.3c-3.5,0-6.3-2.8-6.3-6.3S41.2,41,44.7,41z"/>
<line class="st2" x1="44.6" y1="36.7" x2="44.6" y2="40.9"/>
<line class="st2" x1="44.6" y1="54.1" x2="44.6" y2="57.9"/>
<line class="st2" x1="51.1" y1="47.2" x2="55.1" y2="47.2"/>
<line class="st2" x1="49.4" y1="42.6" x2="52.2" y2="39.9"/>
<line class="st2" x1="37.2" y1="54.9" x2="40.1" y2="51.9"/>
<line class="st2" x1="36.9" y1="39.9" x2="39.5" y2="42.5"/>
<line class="st2" x1="49.1" y1="52.1" x2="52" y2="55"/>
<line class="st2" x1="34.1" y1="47.2" x2="38.3" y2="47.2"/>
<circle class="st2" cx="44.7" cy="46.3" r="3.2"/>
<path class="st2" d="M50.2,51.7c-0.5,0.9-2.5,2.5-5.5,2.5s-4.9-1.6-5.4-2.5c-0.6-1,2.4-2.1,5.5-2.1S50.7,50.7,50.2,51.7z"/>
</svg>
