<?xml version="1.0" encoding="utf-8"?>
<!-- Generator: Adobe Illustrator 23.0.3, SVG Export Plug-In . SVG Version: 6.00 Build 0)  -->
<!DOCTYPE svg PUBLIC "-//W3C//DTD SVG 1.1//EN" "http://www.w3.org/Graphics/SVG/1.1/DTD/svg11.dtd" [
	<!ENTITY ns_extend "http://ns.adobe.com/Extensibility/1.0/">
	<!ENTITY ns_ai "http://ns.adobe.com/AdobeIllustrator/10.0/">
	<!ENTITY ns_graphs "http://ns.adobe.com/Graphs/1.0/">
	<!ENTITY ns_vars "http://ns.adobe.com/Variables/1.0/">
	<!ENTITY ns_imrep "http://ns.adobe.com/ImageReplacement/1.0/">
	<!ENTITY ns_sfw "http://ns.adobe.com/SaveForWeb/1.0/">
	<!ENTITY ns_custom "http://ns.adobe.com/GenericCustomNamespace/1.0/">
	<!ENTITY ns_adobe_xpath "http://ns.adobe.com/XPath/1.0/">
]>
<svg version="1.1" id="Layer_1" xmlns:x="&ns_extend;" xmlns:i="&ns_ai;" xmlns:graph="&ns_graphs;"
	 xmlns="http://www.w3.org/2000/svg" xmlns:xlink="http://www.w3.org/1999/xlink" x="0px" y="0px" viewBox="0 0 89.9 89.9"
	 style="enable-background:new 0 0 89.9 89.9;" xml:space="preserve">
<style type="text/css">
	.st0{fill:none;stroke:#80B8DC;stroke-width:3;stroke-miterlimit:10;}
	.st1{fill:#80B8DC;}
</style>
<metadata>
	<sfw  xmlns="&ns_sfw;">
		<slices></slices>
		<sliceSourceBounds  bottomLeftOrigin="true" height="89.9" width="89.9" x="-14.9" y="4.7"></sliceSourceBounds>
	</sfw>
</metadata>
<circle class="st0" cx="45" cy="45" r="43.5"/>
<g>
	<path class="st1" d="M20.6,66.5v1.8h1.8h14.5h1.8h14.5h1.8h14.5h1.8v-1.8h-1.8V46.6H54.9v19.9h-1.8V41.5l1.9,0.6l8.4,2.8L71,33.5
		l-1.5-1l-6.8,10.3l-9.6-3.2v-5.7H38.6v13.8l-1.8,2.4V21.3H22.4v32.9l-0.4-0.3L21,55.5l1.4,0.8v10.1H20.6z M56.7,48.4h10.8v18.1
		H56.7V48.4z M40.4,48.4l6.7-8.9l4.2,1.4v25.5H40.4V48.4z M40.4,35.7h10.8V39l-4.8-1.6l-6,8V35.7z M36.8,53.2l1.8-2.4v15.7h-1.8
		V53.2z M24.2,57.4l6.6,3.9l4.3-5.7v10.8H24.2V57.4z M24.2,23.1H35v29.5l-4.7,6.3l-6.1-3.7V23.1z"/>
</g>
</svg>
