<?xml version="1.0" encoding="utf-8"?>
<!-- Generator: Adobe Illustrator 23.0.3, SVG Export Plug-In . SVG Version: 6.00 Build 0)  -->
<!DOCTYPE svg PUBLIC "-//W3C//DTD SVG 1.1//EN" "http://www.w3.org/Graphics/SVG/1.1/DTD/svg11.dtd" [
	<!ENTITY ns_extend "http://ns.adobe.com/Extensibility/1.0/">
	<!ENTITY ns_ai "http://ns.adobe.com/AdobeIllustrator/10.0/">
	<!ENTITY ns_graphs "http://ns.adobe.com/Graphs/1.0/">
	<!ENTITY ns_vars "http://ns.adobe.com/Variables/1.0/">
	<!ENTITY ns_imrep "http://ns.adobe.com/ImageReplacement/1.0/">
	<!ENTITY ns_sfw "http://ns.adobe.com/SaveForWeb/1.0/">
	<!ENTITY ns_custom "http://ns.adobe.com/GenericCustomNamespace/1.0/">
	<!ENTITY ns_adobe_xpath "http://ns.adobe.com/XPath/1.0/">
]>
<svg version="1.1" id="Layer_1" xmlns:x="&ns_extend;" xmlns:i="&ns_ai;" xmlns:graph="&ns_graphs;"
	 xmlns="http://www.w3.org/2000/svg" xmlns:xlink="http://www.w3.org/1999/xlink" x="0px" y="0px" viewBox="0 0 87.4 87.4"
	 style="enable-background:new 0 0 87.4 87.4;" xml:space="preserve">
<style type="text/css">
	.st0{fill:none;stroke:#81B8DC;stroke-width:3;stroke-miterlimit:10;}
	.st1{fill:#80B8DC;}
</style>
<metadata>
	<sfw  xmlns="&ns_sfw;">
		<slices></slices>
		<sliceSourceBounds  bottomLeftOrigin="true" height="87.4" width="87.4" x="-12.6" y="6.2"></sliceSourceBounds>
	</sfw>
</metadata>
<title>review-comment-feedback</title>
<circle class="st0" cx="43.7" cy="43.7" r="42.2"/>
<g>
	<g>
		<path class="st1" d="M69,24.6h-49c-1.6,0-2.9,1.3-2.9,2.9v30.8c0,1.6,1.3,2.9,2.9,2.9h5.8v7.7c0,0.4,0.2,0.7,0.6,0.8
			c0.1,0.1,0.2,0.1,0.4,0.1c0.3,0,0.5-0.1,0.7-0.3l8.4-8.4H69c1.6,0,2.8-1.3,2.8-2.9V27.5C71.8,25.9,70.5,24.6,69,24.6L69,24.6z
			 M70,58.3c0,0.6-0.5,1-0.9,1l0,0H35.3c-0.3,0-0.5,0.1-0.7,0.3l-7.1,7v-6.4c0-0.6-0.4-0.9-0.9-0.9h-6.7c-0.6,0-1-0.5-1-1V27.4
			c0-0.5,0.5-0.9,1-0.9h49c0.6,0,1,0.5,1,0.9l0,0C70,27.4,70,58.3,70,58.3z"/>
		<path class="st1" d="M33.6,45.5l-2.7-0.4l-1.2-2.4c-0.4-0.8-1.4-1.1-2.1-0.7c-0.3,0.2-0.6,0.4-0.7,0.7l-1.2,2.4l-2.7,0.4
			c-0.9,0.1-1.5,0.9-1.4,1.8c0,0.4,0.2,0.7,0.5,1l2,2L23.5,53c-0.1,0.8,0.5,1.7,1.3,1.9c0.1,0,0.2,0,0.3,0c0.3,0,0.6-0.1,0.7-0.2
			l2.4-1.3l2.4,1.3c0.7,0.4,1.8,0.1,2.1-0.7c0.2-0.3,0.2-0.7,0.2-1l-0.5-2.7l2-2c0.7-0.6,0.7-1.6,0.1-2.2
			C34.4,45.8,34,45.6,33.6,45.5L33.6,45.5z M31.2,49c-0.4,0.4-0.6,0.9-0.5,1.4l0.4,2.3l-2.1-1c-0.3-0.1-0.5-0.2-0.7-0.2
			s-0.6,0.1-0.7,0.2l-2.1,1.1l0.4-2.3c0.1-0.6-0.1-1-0.5-1.4l-1.7-1.7L26,47c0.6-0.1,1-0.5,1.2-0.9l1-2.1l1,2.1
			c0.2,0.5,0.7,0.8,1.2,0.9l2.3,0.4L31.2,49z"/>
		<path class="st1" d="M49.2,45.5l-2.7-0.4l-1.2-2.4c-0.4-0.8-1.4-1.1-2.1-0.7c-0.3,0.2-0.6,0.4-0.7,0.7l-1.2,2.5l-2.8,0.3
			c-0.9,0.1-1.5,0.8-1.5,1.8c0,0.4,0.2,0.7,0.6,1l2,2L38.9,53c-0.2,0.8,0.5,1.7,1.3,1.9c0.4,0.1,0.7,0,1-0.2l2.4-1.3l2.4,1.3
			c0.3,0.1,0.5,0.2,0.7,0.2c0.4,0,0.7-0.1,0.9-0.3c0.5-0.4,0.7-0.9,0.7-1.6L48,50.3l2-2c0.7-0.7,0.7-1.7,0.1-2.3
			C49.9,45.8,49.6,45.6,49.2,45.5L49.2,45.5z M46.8,49c-0.4,0.4-0.6,0.9-0.5,1.4l0.4,2.3l-2.1-1c-0.3-0.1-0.5-0.2-0.7-0.2
			c-0.3,0-0.6,0.1-0.7,0.2l-2.1,1.1l0.4-2.3c0.1-0.6-0.1-1-0.5-1.4l-1.7-1.7l2.3-0.4c0.6-0.1,1-0.5,1.2-0.9l1.1-2.1l1,2.1
			c0.3,0.5,0.7,0.8,1.2,0.8l2.3,0.4L46.8,49z"/>
		<path class="st1" d="M64.8,45.5l-2.7-0.4l-1.2-2.4c-0.4-0.8-1.4-1.1-2.1-0.7c-0.3,0.2-0.6,0.4-0.7,0.7l-1.2,2.4L54,45.5
			c-0.9,0.1-1.5,0.8-1.5,1.8c0,0.4,0.2,0.7,0.6,1l2,2L54.6,53c-0.1,0.8,0.5,1.7,1.3,1.9c0.1,0,0.2,0,0.3,0c0.3,0,0.6-0.1,0.7-0.2
			l2.4-1.3l2.4,1.3c0.7,0.4,1.8,0.1,2.1-0.7c0.2-0.3,0.2-0.7,0.2-1l-0.5-2.7l2-2c0.7-0.6,0.7-1.6,0.1-2.2
			C65.5,45.8,65.1,45.6,64.8,45.5L64.8,45.5z M62.3,49c-0.4,0.4-0.6,0.9-0.5,1.4l0.4,2.3l-2.1-1c-0.5-0.3-1-0.3-1.5,0l-2.1,1.1
			l0.4-2.3c0.1-0.6-0.1-1-0.5-1.4l-1.7-1.7l2.3-0.4c0.6-0.1,1-0.5,1.2-0.9l1-2.1l1,2.1c0.2,0.5,0.7,0.8,1.2,0.9l2.3,0.4L62.3,49z"/>
		<rect x="20.6" y="29.7" class="st1" width="14.9" height="1.9"/>
		<rect x="20.6" y="33.4" class="st1" width="47.6" height="1.9"/>
		<rect x="20.6" y="37.1" class="st1" width="30.8" height="1.9"/>
	</g>
</g>
</svg>
