<?xml version="1.0" encoding="utf-8"?>
<!-- Generator: Adobe Illustrator 23.0.3, SVG Export Plug-In . SVG Version: 6.00 Build 0)  -->
<!DOCTYPE svg PUBLIC "-//W3C//DTD SVG 1.1//EN" "http://www.w3.org/Graphics/SVG/1.1/DTD/svg11.dtd" [
	<!ENTITY ns_extend "http://ns.adobe.com/Extensibility/1.0/">
	<!ENTITY ns_ai "http://ns.adobe.com/AdobeIllustrator/10.0/">
	<!ENTITY ns_graphs "http://ns.adobe.com/Graphs/1.0/">
	<!ENTITY ns_vars "http://ns.adobe.com/Variables/1.0/">
	<!ENTITY ns_imrep "http://ns.adobe.com/ImageReplacement/1.0/">
	<!ENTITY ns_sfw "http://ns.adobe.com/SaveForWeb/1.0/">
	<!ENTITY ns_custom "http://ns.adobe.com/GenericCustomNamespace/1.0/">
	<!ENTITY ns_adobe_xpath "http://ns.adobe.com/XPath/1.0/">
]>
<svg version="1.1" id="Layer_1" xmlns:x="&ns_extend;" xmlns:i="&ns_ai;" xmlns:graph="&ns_graphs;"
	 xmlns="http://www.w3.org/2000/svg" xmlns:xlink="http://www.w3.org/1999/xlink" x="0px" y="0px" viewBox="0 0 89.9 89.9"
	 style="enable-background:new 0 0 89.9 89.9;" xml:space="preserve">
<style type="text/css">
	.st0{fill:none;stroke:#80B8DC;stroke-width:3;stroke-miterlimit:10;}
	.st1{fill:#80B8DC;}
</style>
<metadata>
	<sfw  xmlns="&ns_sfw;">
		<slices></slices>
		<sliceSourceBounds  bottomLeftOrigin="true" height="89.9" width="89.9" x="-14.9" y="4.7"></sliceSourceBounds>
	</sfw>
</metadata>
<circle class="st0" cx="45" cy="45" r="43.5"/>
<path class="st1" d="M70,57.1l-4.3,0l0-4.4c0-1-0.8-1.8-1.8-1.9c-0.5,0-0.9,0.2-1.3,0.5c-0.3,0.3-0.5,0.8-0.5,1.3l0,4.4l-4.4,0
	c-0.5,0-1,0.2-1.3,0.5c-0.3,0.3-0.5,0.8-0.5,1.3c0,1,0.8,1.8,1.8,1.8l4.4,0l0,4.3c0,1,0.8,1.8,1.8,1.8h0c0.5,0,0.9-0.2,1.3-0.5
	c0.3-0.4,0.5-0.8,0.5-1.3l0-4.3l4.3,0c0.5,0,1-0.2,1.3-0.5c0.3-0.3,0.5-0.8,0.5-1.3C71.8,57.9,71,57.1,70,57.1z M52.8,60.2H32.7
	c0-0.6,0-1.1,0.1-1.6c0.1-0.9,0.3-1.8,0.6-2.6c0.5-1.3,1.1-2.5,2-3.6c0.6-0.7,1.2-1.4,1.9-2c2.2-1.8,5-2.9,8.1-2.9
	c3.1,0,5.9,1.1,8.1,2.9c0.7,0.6,1.4,1.3,1.9,2c0.4,0.5,0.8,1.1,1.1,1.7c0.4-0.1,0.8-0.1,1.1-0.1l1.3,0l0-0.8c-0.6-1.1-1.3-2.1-2.1-3
	c1.7-2,4.2-3.3,7-3.3c4.7,0,8.6,3.5,9.1,8.1c1,0.7,1.7,1.7,1.9,2.9c0.5-0.5,0.7-1.1,0.7-1.8c0-4.7-2.7-8.7-6.7-10.6
	c1.7-1.5,2.8-3.6,2.8-6.1c0-4.4-3.6-7.9-7.9-7.9c-4.4,0-7.9,3.6-7.9,7.9c0,2.4,1.1,4.6,2.8,6.1c-1.5,0.7-2.7,1.7-3.8,2.9
	c-1.3-1.1-2.9-1.9-4.5-2.5c3-1.7,5-5,5-8.6c0-5.5-4.5-10-10-10s-10,4.5-10,10c0,3.7,2,6.9,5,8.6c-1.7,0.6-3.2,1.4-4.5,2.5
	c-1-1.2-2.3-2.2-3.8-2.9c1.7-1.5,2.8-3.6,2.8-6.1c0-4.4-3.6-7.9-7.9-7.9S19,34.9,19,39.3c0,2.4,1.1,4.6,2.8,6.1
	c-3.9,1.9-6.7,5.9-6.7,10.6c0,1.4,1.2,2.6,2.6,2.6h12.4c-0.1,0.5-0.1,1.1-0.1,1.6c0,1.4,1.2,2.6,2.6,2.6h21.9
	C53.7,62.2,53.1,61.2,52.8,60.2z M58.4,39.3c0-2.9,2.4-5.3,5.3-5.3c2.9,0,5.3,2.4,5.3,5.3c0,2.9-2.4,5.3-5.3,5.3
	C60.8,44.6,58.4,42.2,58.4,39.3z M38,37.1c0-4.1,3.3-7.4,7.4-7.4c4.1,0,7.4,3.3,7.4,7.4c0,4.1-3.3,7.4-7.4,7.4
	C41.3,44.5,38,41.2,38,37.1z M21.6,39.3c0-2.9,2.4-5.3,5.3-5.3c2.9,0,5.3,2.4,5.3,5.3c0,2.9-2.4,5.3-5.3,5.3
	C24,44.6,21.6,42.2,21.6,39.3z M30.7,56H17.8c0-5.1,4.1-9.2,9.2-9.2c2.8,0,5.3,1.3,7,3.3C32.4,51.7,31.3,53.8,30.7,56z"/>
</svg>
