<?xml version="1.0" encoding="utf-8"?>
<!-- Generator: Adobe Illustrator 23.0.3, SVG Export Plug-In . SVG Version: 6.00 Build 0)  -->
<!DOCTYPE svg PUBLIC "-//W3C//DTD SVG 1.1//EN" "http://www.w3.org/Graphics/SVG/1.1/DTD/svg11.dtd" [
	<!ENTITY ns_extend "http://ns.adobe.com/Extensibility/1.0/">
	<!ENTITY ns_ai "http://ns.adobe.com/AdobeIllustrator/10.0/">
	<!ENTITY ns_graphs "http://ns.adobe.com/Graphs/1.0/">
	<!ENTITY ns_vars "http://ns.adobe.com/Variables/1.0/">
	<!ENTITY ns_imrep "http://ns.adobe.com/ImageReplacement/1.0/">
	<!ENTITY ns_sfw "http://ns.adobe.com/SaveForWeb/1.0/">
	<!ENTITY ns_custom "http://ns.adobe.com/GenericCustomNamespace/1.0/">
	<!ENTITY ns_adobe_xpath "http://ns.adobe.com/XPath/1.0/">
]>
<svg version="1.1" id="Layer_1" xmlns:x="&ns_extend;" xmlns:i="&ns_ai;" xmlns:graph="&ns_graphs;"
	 xmlns="http://www.w3.org/2000/svg" xmlns:xlink="http://www.w3.org/1999/xlink" x="0px" y="0px" viewBox="0 0 87.4 87.4"
	 style="enable-background:new 0 0 87.4 87.4;" xml:space="preserve">
<style type="text/css">
	.st0{fill:none;stroke:#81B8DC;stroke-width:3;stroke-miterlimit:10;}
	.st1{fill:#80B8DC;}
</style>
<metadata>
	<sfw  xmlns="&ns_sfw;">
		<slices></slices>
		<sliceSourceBounds  bottomLeftOrigin="true" height="87.4" width="87.4" x="-12.6" y="6.2"></sliceSourceBounds>
	</sfw>
</metadata>
<title>review-comment-feedback</title>
<circle class="st0" cx="43.7" cy="43.7" r="42.2"/>
<path class="st1" d="M61.2,19.1c2.7,0,4.7,1,6.2,2.5c1.4,1.6,2,3.4,2,5.5l0,0c0,0,0,0,0,0.2v34.8c0,4.4-3.6,8.2-8.2,8.2H26.5
	c-4.4,0-8.2-3.6-8.2-8.2V41.7V27.3c0-1.9,0.6-4,2-5.5c1.5-1.6,3.7-2.8,6.3-2.8L61.2,19.1L61.2,19.1z M61.2,21.5H26.6
	c-2,0-3.6,0.6-4.6,1.8s-1.3,2.5-1.3,3.9l0,0v7.9c1-1,2.2-1.7,3.6-2v-1.2c0-1.6,0.6-3,1.4-4.1c0.8-1.2,2-1.9,3.6-1.9h29.2
	c1.4,0,2.8,0.6,3.6,1.8c0.8,1.1,1.4,2.5,1.4,4.1v0.4c1-0.3,1.7-0.8,2.2-1.4c1-1.1,1.6-2.5,1.6-3.9s-0.6-2.8-1.6-3.9
	C64.6,22.2,63.2,21.5,61.2,21.5z M67,32.8c-1.4,1.4-3.4,2.2-5.9,2.2H26.6c-2.4,0-3.6,0.8-4.6,1.9c-1,1.2-1.4,2.8-1.4,4.6v0.8
	c0.2,0.2,0.4,0.3,0.8,0.3s1.1,0,1.9,0H37c2.7,0,4.7,1.1,6.1,2.7c1.4,1.6,2,3.6,2,5.5s-0.6,4-2,5.5c-1.4,1.6-3.4,2.7-6.1,2.7H23.3
	c-0.6,0-1.6,0-2.4-0.3c-0.2,0-0.2,0-0.3-0.2v3.2c0,3.2,2.7,5.8,5.8,5.8h34.8c3.2,0,5.8-2.7,5.8-5.8L67,32.8L67,32.8z M36.9,47.3
	c-1.9,0-3.6,1.7-3.6,3.6c0,1.9,1.7,3.6,3.6,3.6c1.9,0,3.6-1.7,3.6-3.6C40.4,48.9,38.8,47.3,36.9,47.3z"/>
</svg>
