<?xml version="1.0" encoding="utf-8"?>
<!-- Generator: Adobe Illustrator 23.0.3, SVG Export Plug-In . SVG Version: 6.00 Build 0)  -->
<!DOCTYPE svg PUBLIC "-//W3C//DTD SVG 1.1//EN" "http://www.w3.org/Graphics/SVG/1.1/DTD/svg11.dtd" [
	<!ENTITY ns_extend "http://ns.adobe.com/Extensibility/1.0/">
	<!ENTITY ns_ai "http://ns.adobe.com/AdobeIllustrator/10.0/">
	<!ENTITY ns_graphs "http://ns.adobe.com/Graphs/1.0/">
	<!ENTITY ns_vars "http://ns.adobe.com/Variables/1.0/">
	<!ENTITY ns_imrep "http://ns.adobe.com/ImageReplacement/1.0/">
	<!ENTITY ns_sfw "http://ns.adobe.com/SaveForWeb/1.0/">
	<!ENTITY ns_custom "http://ns.adobe.com/GenericCustomNamespace/1.0/">
	<!ENTITY ns_adobe_xpath "http://ns.adobe.com/XPath/1.0/">
]>
<svg version="1.1" id="Layer_1" xmlns:x="&ns_extend;" xmlns:i="&ns_ai;" xmlns:graph="&ns_graphs;"
	 xmlns="http://www.w3.org/2000/svg" xmlns:xlink="http://www.w3.org/1999/xlink" x="0px" y="0px" viewBox="0 0 89.9 89.9"
	 style="enable-background:new 0 0 89.9 89.9;" xml:space="preserve">
<style type="text/css">
	.st0{fill:none;stroke:#80B8DC;stroke-width:3;stroke-miterlimit:10;}
	.st1{fill:#80B8DC;}
</style>
<metadata>
	<sfw  xmlns="&ns_sfw;">
		<slices></slices>
		<sliceSourceBounds  bottomLeftOrigin="true" height="89.9" width="89.9" x="-14.9" y="4.7"></sliceSourceBounds>
	</sfw>
</metadata>
<circle class="st0" cx="45" cy="45" r="43.5"/>
<g>
	<g>
		<path class="st1" d="M68.2,27.3H22c-1.5,0-2.7,1.2-2.7,2.7v28.9c0,1.5,1.2,2.7,2.7,2.7h5.5v7.3c0,0.4,0.2,0.7,0.5,0.8
			c0.1,0,0.2,0.1,0.3,0.1c0.2,0,0.5-0.1,0.6-0.3l7.9-7.9h31.3c1.5,0,2.7-1.2,2.7-2.7V30C70.9,28.5,69.7,27.3,68.2,27.3
			C68.2,27.3,68.2,27.3,68.2,27.3z M69.1,58.9c0,0.5-0.4,0.9-0.9,0.9c0,0,0,0,0,0H36.5c-0.2,0-0.5,0.1-0.6,0.3l-6.6,6.6v-6
			c0-0.5-0.4-0.9-0.9-0.9H22c-0.5,0-0.9-0.4-0.9-0.9V30c0-0.5,0.4-0.9,0.9-0.9h46.2c0.5,0,0.9,0.4,0.9,0.9c0,0,0,0,0,0V58.9z"/>
		<path class="st1" d="M34.9,47l-2.6-0.4l-1.1-2.3c-0.4-0.8-1.3-1.1-2-0.7c-0.3,0.1-0.6,0.4-0.7,0.7l-1.1,2.3L24.8,47
			c-0.8,0.1-1.4,0.8-1.4,1.7c0,0.4,0.2,0.7,0.5,0.9l1.9,1.8L25.4,54c-0.1,0.8,0.4,1.6,1.3,1.7c0.1,0,0.2,0,0.2,0
			c0.2,0,0.5-0.1,0.7-0.2l2.3-1.2l2.3,1.2c0.7,0.4,1.7,0.1,2-0.6c0.2-0.3,0.2-0.6,0.2-0.9l-0.4-2.6l1.8-1.8c0.6-0.6,0.7-1.5,0.1-2.1
			C35.6,47.2,35.3,47,34.9,47L34.9,47z M32.6,50.2c-0.4,0.3-0.5,0.8-0.4,1.3l0.4,2.2l-2-1c-0.2-0.1-0.5-0.2-0.7-0.2
			c-0.2,0-0.5,0.1-0.7,0.2l-2,1.1l0.4-2.2c0.1-0.5-0.1-1-0.4-1.3l-1.6-1.6l2.2-0.3c0.5-0.1,0.9-0.4,1.1-0.9l1-2l1,2
			c0.2,0.5,0.6,0.8,1.1,0.9l2.2,0.3L32.6,50.2z"/>
		<path class="st1" d="M49.6,47L47,46.6l-1.1-2.3c-0.4-0.8-1.3-1.1-2-0.7c-0.3,0.1-0.6,0.4-0.7,0.7L42,46.7L39.4,47
			c-0.8,0.1-1.4,0.8-1.4,1.7c0,0.4,0.2,0.7,0.5,1l1.9,1.8L40,54c-0.1,0.8,0.4,1.6,1.2,1.8c0.3,0.1,0.7,0,1-0.2l2.3-1.2l2.3,1.2
			c0.2,0.1,0.5,0.2,0.7,0.2c0.3,0,0.6-0.1,0.9-0.3c0.5-0.3,0.7-0.9,0.6-1.5l-0.4-2.6l1.9-1.8c0.6-0.6,0.6-1.5,0.1-2.2
			C50.3,47.2,49.9,47,49.6,47L49.6,47z M47.3,50.2c-0.4,0.4-0.5,0.9-0.4,1.4l0.4,2.2l-2-1c-0.2-0.1-0.5-0.2-0.7-0.2
			c-0.2,0-0.5,0.1-0.7,0.2l-2,1l0.4-2.2c0.1-0.5-0.1-1-0.4-1.3l-1.6-1.5l2.2-0.3c0.5-0.1,0.9-0.4,1.1-0.9l1-2l1,2
			c0.2,0.4,0.7,0.8,1.1,0.8l2.2,0.3L47.3,50.2z"/>
		<path class="st1" d="M64.3,47l-2.6-0.4l-1.1-2.3c-0.4-0.8-1.3-1.1-2-0.7c-0.3,0.1-0.6,0.4-0.7,0.7l-1.1,2.3L54.1,47
			c-0.8,0.1-1.4,0.8-1.4,1.7c0,0.4,0.2,0.7,0.5,1l1.9,1.8L54.7,54c-0.1,0.8,0.4,1.6,1.3,1.7c0.1,0,0.2,0,0.2,0
			c0.2,0,0.5-0.1,0.7-0.2l2.3-1.2l2.3,1.2c0.7,0.4,1.7,0.1,2-0.6c0.2-0.3,0.2-0.6,0.2-0.9l-0.4-2.6l1.9-1.8c0.6-0.6,0.7-1.5,0.1-2.1
			C65,47.2,64.6,47,64.3,47L64.3,47z M61.9,50.2c-0.4,0.3-0.5,0.8-0.4,1.3l0.4,2.2l-2-1c-0.4-0.2-1-0.2-1.4,0l-2,1l0.4-2.2
			c0.1-0.5-0.1-1-0.4-1.3l-1.6-1.6l2.2-0.3c0.5-0.1,0.9-0.4,1.1-0.9l1-2l1,2c0.2,0.5,0.6,0.8,1.1,0.9l2.2,0.3L61.9,50.2z"/>
		<rect x="22.6" y="32.1" class="st1" width="14" height="1.8"/>
		<rect x="22.6" y="35.6" class="st1" width="44.7" height="1.8"/>
		<rect x="22.6" y="39.1" class="st1" width="28.9" height="1.8"/>
	</g>
</g>
</svg>
