<?xml version="1.0" encoding="utf-8"?>
<!-- Generator: Adobe Illustrator 23.0.3, SVG Export Plug-In . SVG Version: 6.00 Build 0)  -->
<!DOCTYPE svg PUBLIC "-//W3C//DTD SVG 1.1//EN" "http://www.w3.org/Graphics/SVG/1.1/DTD/svg11.dtd" [
	<!ENTITY ns_extend "http://ns.adobe.com/Extensibility/1.0/">
	<!ENTITY ns_ai "http://ns.adobe.com/AdobeIllustrator/10.0/">
	<!ENTITY ns_graphs "http://ns.adobe.com/Graphs/1.0/">
	<!ENTITY ns_vars "http://ns.adobe.com/Variables/1.0/">
	<!ENTITY ns_imrep "http://ns.adobe.com/ImageReplacement/1.0/">
	<!ENTITY ns_sfw "http://ns.adobe.com/SaveForWeb/1.0/">
	<!ENTITY ns_custom "http://ns.adobe.com/GenericCustomNamespace/1.0/">
	<!ENTITY ns_adobe_xpath "http://ns.adobe.com/XPath/1.0/">
]>
<svg version="1.1" id="Layer_1" xmlns:x="&ns_extend;" xmlns:i="&ns_ai;" xmlns:graph="&ns_graphs;"
	 xmlns="http://www.w3.org/2000/svg" xmlns:xlink="http://www.w3.org/1999/xlink" x="0px" y="0px" viewBox="0 0 89.9 89.9"
	 style="enable-background:new 0 0 89.9 89.9;" xml:space="preserve">
<style type="text/css">
	.st0{fill:none;stroke:#80B8DC;stroke-width:3;stroke-miterlimit:10;}
	.st1{fill:#80B8DC;}
</style>
<metadata>
	<sfw  xmlns="&ns_sfw;">
		<slices></slices>
		<sliceSourceBounds  bottomLeftOrigin="true" height="89.9" width="89.9" x="-14.9" y="4.7"></sliceSourceBounds>
	</sfw>
</metadata>
<circle class="st0" cx="45" cy="45" r="43.5"/>
<g>
	<path class="st1" d="M40.5,38.9h-2.2c-0.7,0-1.2,0.6-1.2,1.2c0,0.7,0.6,1.2,1.2,1.2h2.2c0.7,0,1.2-0.6,1.2-1.2
		C41.7,39.5,41.2,38.9,40.5,38.9z"/>
	<path class="st1" d="M31.9,38.9h-2.2c-0.7,0-1.2,0.6-1.2,1.2c0,0.7,0.6,1.2,1.2,1.2h2.2c0.7,0,1.2-0.6,1.2-1.2
		C33.1,39.5,32.6,38.9,31.9,38.9z"/>
	<path class="st1" d="M46.9,41.4h2.2c0.7,0,1.2-0.6,1.2-1.2c0-0.7-0.6-1.2-1.2-1.2h-2.2c-0.7,0-1.2,0.6-1.2,1.2
		C45.7,40.8,46.3,41.4,46.9,41.4z"/>
	<path class="st1" d="M55.5,41.4h2.2c0.7,0,1.2-0.6,1.2-1.2c0-0.7-0.6-1.2-1.2-1.2h-2.2c-0.7,0-1.2,0.6-1.2,1.2
		C54.3,40.8,54.9,41.4,55.5,41.4z"/>
	<path class="st1" d="M40.5,46.1h-2.2c-0.7,0-1.2,0.6-1.2,1.2c0,0.7,0.6,1.2,1.2,1.2h2.2c0.7,0,1.2-0.6,1.2-1.2
		C41.7,46.7,41.2,46.1,40.5,46.1z"/>
	<path class="st1" d="M31.9,46.1h-2.2c-0.7,0-1.2,0.6-1.2,1.2c0,0.7,0.6,1.2,1.2,1.2h2.2c0.7,0,1.2-0.6,1.2-1.2
		C33.1,46.7,32.6,46.1,31.9,46.1z"/>
	<path class="st1" d="M40.5,53.2h-2.2c-0.7,0-1.2,0.6-1.2,1.2s0.6,1.2,1.2,1.2h2.2c0.7,0,1.2-0.6,1.2-1.2S41.2,53.2,40.5,53.2z"/>
	<path class="st1" d="M31.9,53.2h-2.2c-0.7,0-1.2,0.6-1.2,1.2s0.6,1.2,1.2,1.2h2.2c0.7,0,1.2-0.6,1.2-1.2S32.6,53.2,31.9,53.2z"/>
	<path class="st1" d="M67.3,46.7V33.4c0-3.4-2.8-6.1-6.1-6.1h-0.4v-2.5c0-0.7-0.6-1.2-1.2-1.2s-1.2,0.6-1.2,1.2v2.4h-5.4v-2.4
		c0-0.7-0.6-1.2-1.2-1.2s-1.2,0.6-1.2,1.2v2.4H45v-2.4c0-0.7-0.6-1.2-1.2-1.2c-0.7,0-1.2,0.6-1.2,1.2v2.4h-5.5v-2.4
		c0-0.7-0.6-1.2-1.2-1.2c-0.7,0-1.2,0.6-1.2,1.2v2.4h-5.4v-2.4c0-0.7-0.6-1.2-1.2-1.2s-1.2,0.6-1.2,1.2v2.4h-0.4
		c-3.4,0-6.1,2.8-6.1,6.1v24.8c0,3.4,2.8,6.1,6.1,6.1h18.3c3.2,7.6,11.9,11.1,19.5,7.9c7.6-3.2,11.1-11.9,7.9-19.5
		C71,50.4,69.4,48.3,67.3,46.7z M26.3,61.9c-2,0-3.7-1.7-3.7-3.7V33.4c0-2,1.7-3.7,3.7-3.7h0.4v1.8c0,0.7,0.6,1.2,1.2,1.2
		s1.2-0.6,1.2-1.2v-1.8h5.4v1.8c0,0.7,0.6,1.2,1.2,1.2c0.7,0,1.2-0.6,1.2-1.2v-1.8h5.4v1.8c0,0.7,0.6,1.2,1.2,1.2s1.2-0.6,1.2-1.2
		v-1.8h5.5v1.8c0,0.7,0.6,1.2,1.2,1.2s1.2-0.6,1.2-1.2v-1.8h5.4v1.8c0,0.7,0.6,1.2,1.2,1.2s1.2-0.6,1.2-1.2v-1.8h0.4
		c2,0,3.7,1.7,3.7,3.7v11.7c-4.8-2.4-10.6-1.9-15,1.2c-0.2-0.2-0.5-0.2-0.7-0.2h-2.2c-0.7,0-1.2,0.6-1.2,1.2c0,0.7,0.6,1.2,1.2,1.2
		h0.4c-3.3,3.6-4.6,8.6-3.6,13.3H26.3z M58.3,71c-6.9,0-12.4-5.6-12.4-12.5c0-6.9,5.6-12.4,12.5-12.4c6.8,0,12.3,5.5,12.4,12.4
		C70.8,65.5,65.2,71,58.3,71z"/>
	<path class="st1" d="M63.3,58.5h-4.5v-6.3c0-0.7-0.6-1.2-1.2-1.2c-0.7,0-1.2,0.6-1.2,1.2v7.6c0,0.7,0.6,1.2,1.2,1.2h5.8
		c0.7,0,1.2-0.6,1.2-1.2C64.6,59,64.1,58.5,63.3,58.5L63.3,58.5z"/>
</g>
</svg>
