<?xml version="1.0" encoding="utf-8"?>
<!-- Generator: Adobe Illustrator 19.0.0, SVG Export Plug-In . SVG Version: 6.00 Build 0)  -->
<svg version="1.1" id="Layer_1" xmlns="http://www.w3.org/2000/svg" xmlns:xlink="http://www.w3.org/1999/xlink" x="0px" y="0px"
	 viewBox="0 0 94.9 68.1" style="enable-background:new 0 0 94.9 68.1;" xml:space="preserve">
<style type="text/css">
	.st0{clip-path:url(#SVGID_2_);fill:#777777;}
	.st1{clip-path:url(#SVGID_2_);fill:#FFFFFF;}
</style>
<g>
	<defs>
		<rect id="SVGID_1_" y="0" width="94.9" height="68.1"/>
	</defs>
	<clipPath id="SVGID_2_">
		<use xlink:href="#SVGID_1_"  style="overflow:visible;"/>
	</clipPath>
	<path class="st0" d="M47.6,23.6c-8.2,0-14.9,6.7-14.9,14.9s6.7,14.8,14.9,14.8s14.8-6.7,14.8-14.8C62.4,30.2,55.8,23.6,47.6,23.6"
		/>
	<path class="st0" d="M85.3,10.4H65.4l-3.8-7.6C60.7,1.1,59,0,57,0H38c-1.9,0-3.7,1.1-4.5,2.8l-3.8,7.6h-9.6V9.2
		c0-1.4-1.1-2.5-2.5-2.5h-5.2c-1.4,0-2.5,1.1-2.5,2.5v1.2H9.8c-5.4,0-9.8,4.4-9.8,9.8v38.1c0,5.4,4.4,9.8,9.8,9.8h75.3
		c5.4,0,9.8-4.4,9.8-9.8v-38C95.1,14.8,90.7,10.4,85.3,10.4 M47.6,58.2c-10.9,0-19.8-8.9-19.8-19.8c0-10.9,8.9-19.8,19.8-19.8
		s19.8,8.9,19.8,19.8C67.4,49.3,58.5,58.2,47.6,58.2"/>
	<path class="st1" d="M84.4,25.3c0,2.5-2,4.6-4.6,4.6s-4.6-2-4.6-4.6c0-2.5,2-4.6,4.6-4.6S84.4,22.8,84.4,25.3"/>
</g>
</svg>
