<?xml version="1.0" encoding="utf-8"?>
<!-- Generator: Adobe Illustrator 19.0.0, SVG Export Plug-In . SVG Version: 6.00 Build 0)  -->
<svg version="1.1" id="Layer_1" xmlns="http://www.w3.org/2000/svg" xmlns:xlink="http://www.w3.org/1999/xlink" x="0px" y="0px"
	 viewBox="0 0 2051 1996.6" style="enable-background:new 0 0 2051 1996.6;" xml:space="preserve">
<style type="text/css">
	.st0{clip-path:url(#SVGID_2_);fill:#010101;}
	.st1{clip-path:url(#SVGID_2_);fill:#FFFFFF;}
	.st2{clip-path:url(#SVGID_2_);}
	.st3{clip-path:url(#SVGID_2_);fill:none;stroke:#FFFFFF;stroke-width:18;stroke-miterlimit:10;}
	.st4{clip-path:url(#SVGID_2_);fill:none;stroke:#FFFFFF;stroke-width:27;stroke-miterlimit:10;}
</style>
<g>
	<defs>
		<rect id="SVGID_1_" y="0" width="2051" height="1996.6"/>
	</defs>
	<clipPath id="SVGID_2_">
		<use xlink:href="#SVGID_1_"  style="overflow:visible;"/>
	</clipPath>
	<path class="st0" d="M1842.6,1077.3c-4.1,510.5-419,921.3-927.4,919.3c-252.2-2-478-103.7-642.7-268.5
		C101.7,1557.3-2.1,1323.4,0,1065.1c4.1-510.5,419-923.4,927.4-919.3S1844.6,564.8,1842.6,1077.3"/>
	<path class="st1" d="M479.9,1384.4l-203.4,347.8c0,0,83.4,113.9,319.3,205.4l118-319.3l79.3-213.6l81.4-235.9l28.5-77.3l4.1-8.1
		c0,0,2-2,2-4.1l2-2h2h2l2,2l4.1,6.1l8.1,22.4l16.3,44.7l54.9,168.8l48.8,150.5l75.3,229.8l59,160.7l30.5,89.5
		c0,0,187.1-50.8,345.8-209.5L1444,1567.4l-75.3-128.1l-75.3-148.5l-63-130.2l-48.8-118l-40.7-118l-38.7-113.7l-40.7-130.2
		l-40.7-136.3l-36.6-134.2l-40.7-150.5l-22.4-73.2l-44.7,142.4l-61,199.3l-48.8,152.5l-56.9,168.8l-48.8,138.3L608,1122l-59,128.1
		L479.9,1384.4z"/>
	<path class="st2" d="M1239,21.3h78.4c33.9,0,61.4,27.5,61.4,61.4v483.8c0,3.5,2.8,6.3,6.3,6.3h326.7c3.5,0,6.3,2.8,6.3,6.3v146.8
		c0,3.5-2.8,6.3-6.3,6.3H1229c-28.3,0-51.2-22.9-51.2-51.2V82.6C1177.6,48.7,1205.1,21.3,1239,21.3"/>
	<path class="st3" d="M1239,21.3h78.4c33.9,0,61.4,27.5,61.4,61.4v483.8c0,3.5,2.8,6.3,6.3,6.3h326.7c3.5,0,6.3,2.8,6.3,6.3v146.8
		c0,3.5-2.8,6.3-6.3,6.3H1229c-28.3,0-51.2-22.9-51.2-51.2V82.6C1177.6,48.7,1205.1,21.3,1239,21.3z"/>
	<path class="st1" d="M1711.6,744.4h-482.8c-35,0-63.4-28.5-63.4-63.4V82.6c0-40.6,33-73.6,73.6-73.6h78.4c40.6,0,73.6,33,73.6,73.6
		v477.8h320.7c10.2,0,18.5,8.3,18.5,18.5v147C1730.2,736.1,1721.8,744.4,1711.6,744.4 M1239,33.5c-27.1,0-49.1,22-49.1,49.1v598.3
		c0,21.5,17.5,38.9,38.9,38.9h476.8V585H1385c-10.2,0-18.5-8.3-18.5-18.5V82.6c0-27.1-22-49.1-49.1-49.1H1239z"/>
	<path class="st3" d="M1711.6,744.4h-482.8c-35,0-63.4-28.5-63.4-63.4V82.6c0-40.6,33-73.6,73.6-73.6h78.4c40.6,0,73.6,33,73.6,73.6
		v477.8h320.7c10.2,0,18.5,8.3,18.5,18.5v147C1730.2,736.1,1721.8,744.4,1711.6,744.4z M1239,33.5c-27.1,0-49.1,22-49.1,49.1v598.3
		c0,21.5,17.5,38.9,38.9,38.9h476.8V585H1385c-10.2,0-18.5-8.3-18.5-18.5V82.6c0-27.1-22-49.1-49.1-49.1H1239z"/>
	<path class="st2" d="M2029.7,833.9L2029.7,833.9c0,44-35.7,79.7-79.7,79.7h-427.5c-25.5,0-46.3-20.7-46.3-46.3v-53.2
		c0-16.9,7-33,19.3-44.6l246.7-230.7c56.9-52.8,65-85.3,65-114.8c0-45.7-30.5-73.1-91.4-73.1c-34.5,0-66.8,10.4-92.9,30.8
		c-25.4,19.9-59.7,23.9-87.9,8.2l-4.2-2.3c-53.1-29.6-57.7-105.2-7.7-139.6c54.4-37.5,125.3-59.5,211-59.5
		c163.5,0,276.2,84.3,276.2,216.3c0,69.1-19.3,132-120.9,225.5l-134.1,123.9H1950C1994.1,754.1,2029.7,789.8,2029.7,833.9"/>
	<path class="st4" d="M2029.7,833.9L2029.7,833.9c0,44-35.7,79.7-79.7,79.7h-427.5c-25.5,0-46.3-20.7-46.3-46.3v-53.2
		c0-16.9,7-33,19.3-44.6l246.7-230.7c56.9-52.8,65-85.3,65-114.8c0-45.7-30.5-73.1-91.4-73.1c-34.5,0-66.8,10.4-92.9,30.8
		c-25.4,19.9-59.7,23.9-87.9,8.2l-4.2-2.3c-53.1-29.6-57.7-105.2-7.7-139.6c54.4-37.5,125.3-59.5,211-59.5
		c163.5,0,276.2,84.3,276.2,216.3c0,69.1-19.3,132-120.9,225.5l-134.1,123.9H1950C1994.1,754.1,2029.7,789.8,2029.7,833.9z"/>
	<path class="st1" d="M1950,925.8h-427.5c-32.3,0-58.5-26.3-58.5-58.5v-53.2c0-20.2,8.5-39.7,23.2-53.5L1734,529.9
		c56.4-52.4,61.1-82.1,61.1-105.8c0-40.4-26.6-60.8-79.1-60.8c-32.3,0-61.8,9.8-85.3,28.2c-29.8,23.4-69.6,27-101.4,9.2l-4.2-2.3
		c-29-16.2-47.3-45.7-48.8-79c-1.5-32.6,13.5-63.1,40.2-81.5c59.4-40.9,132.7-61.7,217.9-61.7c172.6,0,288.5,91.9,288.5,228.6
		c0,73.9-20.9,138.9-124.8,234.5l-111,102.6H1950c50.7,0,92,41.3,92,92C2042,884.6,2000.7,925.8,1950,925.8 M1715.9,338.7
		c65.9,0,103.7,31.1,103.7,85.4c0,35.9-11.7,70.6-68.9,123.7L1504,778.5c-9.8,9.2-15.5,22.2-15.5,35.6v53.2c0,18.7,15.3,34,34,34
		H1950c37.2,0,67.5-30.3,67.5-67.4c0-37.2-30.3-67.5-67.5-67.5h-225.8l157.1-145.2c97.4-89.6,116.9-149.2,116.9-216.4
		c0-124-103.6-204-264-204c-80.1,0-148.8,19.3-204,57.3c-19.7,13.5-30.7,36-29.6,60.1c1.2,24.7,14.7,46.7,36.3,58.7l4.2,2.3
		c23.2,12.9,52.4,10.1,74.3-7.1C1643.4,350.3,1678.1,338.7,1715.9,338.7"/>
	<path class="st3" d="M1950,925.8h-427.5c-32.3,0-58.5-26.3-58.5-58.5v-53.2c0-20.2,8.5-39.7,23.2-53.5L1734,529.9
		c56.4-52.4,61.1-82.1,61.1-105.8c0-40.4-26.6-60.8-79.1-60.8c-32.3,0-61.8,9.8-85.3,28.2c-29.8,23.4-69.6,27-101.4,9.2l-4.2-2.3
		c-29-16.2-47.3-45.7-48.8-79c-1.5-32.6,13.5-63.1,40.2-81.5c59.4-40.9,132.7-61.7,217.9-61.7c172.6,0,288.5,91.9,288.5,228.6
		c0,73.9-20.9,138.9-124.8,234.5l-111,102.6H1950c50.7,0,92,41.3,92,92C2042,884.6,2000.7,925.8,1950,925.8z M1715.9,338.7
		c65.9,0,103.7,31.1,103.7,85.4c0,35.9-11.7,70.6-68.9,123.7L1504,778.5c-9.8,9.2-15.5,22.2-15.5,35.6v53.2c0,18.7,15.3,34,34,34
		H1950c37.2,0,67.5-30.3,67.5-67.4c0-37.2-30.3-67.5-67.5-67.5h-225.8l157.1-145.2c97.4-89.6,116.9-149.2,116.9-216.4
		c0-124-103.6-204-264-204c-80.1,0-148.8,19.3-204,57.3c-19.7,13.5-30.7,36-29.6,60.1c1.2,24.7,14.7,46.7,36.3,58.7l4.2,2.3
		c23.2,12.9,52.4,10.1,74.3-7.1C1643.4,350.3,1678.1,338.7,1715.9,338.7z"/>
</g>
</svg>
