<?xml version="1.0" encoding="utf-8"?>
<!-- Generator: Adobe Illustrator 19.0.0, SVG Export Plug-In . SVG Version: 6.00 Build 0)  -->
<svg version="1.1" id="Layer_1" xmlns="http://www.w3.org/2000/svg" xmlns:xlink="http://www.w3.org/1999/xlink" x="0px" y="0px"
	 viewBox="0 0 90.6 91" style="enable-background:new 0 0 90.6 91;" xml:space="preserve">
<style type="text/css">
	.st0{clip-path:url(#SVGID_2_);fill:#0084D1;}
</style>
<g>
	<defs>
		<rect id="SVGID_1_" y="0" width="90.6" height="91"/>
	</defs>
	<clipPath id="SVGID_2_">
		<use xlink:href="#SVGID_1_"  style="overflow:visible;"/>
	</clipPath>
	<path class="st0" d="M55.3,76.5l-3.7-11.3l-2.4-7.4l-2.7-8.3l-0.8-2.2l-0.4-1.1l-0.2-0.3L45,45.8h-0.1h-0.1l-0.1,0.1
		c0,0.1-0.1,0.2-0.1,0.2l-0.2,0.4L43,50.3l-4,11.6l-3.9,10.5l-5.8,15.7C34.2,89.9,39.5,91,45,91c5.1,0,10-0.8,14.6-2.4l-1.4-4.2
		L55.3,76.5z"/>
	<path class="st0" d="M27.7,87.4c0,0-0.1,0-0.1-0.1C27.6,87.4,27.7,87.4,27.7,87.4"/>
	<path class="st0" d="M90.6,45.8c0.1-25.2-20-45.6-45-45.8C20.6-0.2,0.2,20.1,0,45.2c-0.1,12.7,5,24.2,13.4,32.6
		c0.1,0.1,0.1,0.1,0.2,0.2l10-17.1l3.4-6.6l2.9-6.3l2.6-6.6l2.4-6.8l2.8-8.3l2.4-7.5l3-9.8l2.2-7l1.1,3.6l2,7.4l1.8,6.6l2,6.7l2,6.4
		l1.9,5.6l2,5.8l2.4,5.8l3.1,6.4l3.7,7.3l3.7,6.3l5.6,8.4C85.1,70.1,90.5,58.6,90.6,45.8"/>
	<path class="st0" d="M29.3,88.1L29.3,88.1c-0.5-0.2-1.1-0.4-1.6-0.7C28.2,87.7,28.7,87.9,29.3,88.1"/>
</g>
</svg>
