<?xml version="1.0" encoding="utf-8"?>
<!-- Generator: Adobe Illustrator 19.0.0, SVG Export Plug-In . SVG Version: 6.00 Build 0)  -->
<svg version="1.1" id="Layer_1" xmlns="http://www.w3.org/2000/svg" xmlns:xlink="http://www.w3.org/1999/xlink" x="0px" y="0px"
	 viewBox="0 0 532.1 468.7" style="enable-background:new 0 0 532.1 468.7;" xml:space="preserve">
<style type="text/css">
	.st0{clip-path:url(#SVGID_2_);fill:#C9231E;}
</style>
<g>
	<defs>
		<rect id="SVGID_1_" width="532.1" height="468.7"/>
	</defs>
	<clipPath id="SVGID_2_">
		<use xlink:href="#SVGID_1_"  style="overflow:visible;"/>
	</clipPath>
	<path class="st0" d="M522,360.1L327.7,34.7C314.8,12.9,291.8,0,266.1,0c-25.8,0-48.7,12.9-61.6,34.7L10.2,360.1
		c-13.4,22.4-13.4,49.3-0.6,72.2c12.9,23,36.4,36.4,62.2,36.4h388.6c26.3,0,49.3-13.4,62.2-36.4C535.4,409.4,535.4,382.5,522,360.1
		L522,360.1z M266.1,392.6c-16.8,0-30.2-13.4-30.2-30.2c0-16.8,13.4-30.2,30.2-30.2c16.8,0,30.2,13.4,30.2,30.2
		S282.9,392.6,266.1,392.6 M298.6,162.4l-10.6,124.9c-1.1,11.8-11.8,20.7-23.5,19.6c-10.6-1.1-19-9.5-19.6-19.6l-10.6-124.9
		c-1.7-17.9,11.8-33.6,29.7-35.3c17.9-1.7,33.6,11.8,35.3,29.7C298.6,158.5,298.6,160.7,298.6,162.4L298.6,162.4z"/>
</g>
</svg>
