<?xml version="1.0" encoding="utf-8"?>
<!-- Generator: Adobe Illustrator 19.0.0, SVG Export Plug-In . SVG Version: 6.00 Build 0)  -->
<svg version="1.1" id="Layer_1" xmlns="http://www.w3.org/2000/svg" xmlns:xlink="http://www.w3.org/1999/xlink" x="0px" y="0px"
	 viewBox="0 0 470.3 470.3" style="enable-background:new 0 0 470.3 470.3;" xml:space="preserve">
<style type="text/css">
	.st0{clip-path:url(#SVGID_2_);fill:#14CAB8;}
</style>
<g>
	<defs>
		<rect id="SVGID_1_" width="470.3" height="470.3"/>
	</defs>
	<clipPath id="SVGID_2_">
		<use xlink:href="#SVGID_1_"  style="overflow:visible;"/>
	</clipPath>
	<path class="st0" d="M213.5,0.9C153.9,6.5,98.6,34.5,59,79.4c-39.6,44.9-60.7,103.2-58.8,163C2,302.2,26.6,359.1,68.9,401.4
		c42.3,42.3,99.2,66.9,159.1,68.8c59.8,1.8,118.1-19.2,163-58.8c44.9-39.6,72.9-94.9,78.4-154.5c4.1-46-5.4-92.2-27.3-132.8
		c-21.9-40.6-55.2-74-95.9-95.9C305.6,6.3,259.5-3.2,213.5,0.9L213.5,0.9z M361.5,182.3L222.1,320.2c-4.2,4.1-9.8,6.4-15.6,6.4
		s-11.4-2.3-15.6-6.4l-82.2-78.5c-5.8-5.6-8.2-13.8-6.2-21.6c1.9-7.8,7.8-14,15.5-16.2c7.7-2.2,16-0.2,21.8,5.4l66.3,63.6
		l124.1-122.6c5.7-5.4,13.9-7.4,21.4-5.2c7.6,2.1,13.5,8.1,15.5,15.7c2.1,7.6,0,15.7-5.5,21.4L361.5,182.3z"/>
</g>
</svg>
