<?xml version="1.0" encoding="utf-8"?>
<!-- Generator: Adobe Illustrator 19.0.0, SVG Export Plug-In . SVG Version: 6.00 Build 0)  -->
<svg version="1.1" id="Layer_1" xmlns="http://www.w3.org/2000/svg" xmlns:xlink="http://www.w3.org/1999/xlink" x="0px" y="0px"
	 viewBox="0 0 514.6 280" style="enable-background:new 0 0 514.6 280;" xml:space="preserve">
<style type="text/css">
	.st0{clip-path:url(#SVGID_2_);fill:#0084D2;}
</style>
<g>
	<defs>
		<rect id="SVGID_1_" width="514.6" height="280"/>
	</defs>
	<clipPath id="SVGID_2_">
		<use xlink:href="#SVGID_1_"  style="overflow:visible;"/>
	</clipPath>
	<path class="st0" d="M510.1,126.9c0,0-107-126.9-252.7-126.9C111.6,0,4.6,126.9,4.6,126.9c-6.1,7.2-6.1,19.1,0,26.3
		c0,0,107,126.9,252.7,126.9S510,153.1,510,153.1C516.2,145.9,516.2,134.1,510.1,126.9L510.1,126.9z M257.3,247.8
		c-59.5,0-107.8-48.2-107.8-107.8S197.8,32.2,257.3,32.2S365.1,80.5,365.1,140S316.8,247.8,257.3,247.8"/>
	<path class="st0" d="M319.4,139.2c0,34.3-27.8,62.1-62.1,62.1c-34.3,0-62.1-27.8-62.1-62.1s27.8-62.1,62.1-62.1
		C291.6,77.1,319.4,104.9,319.4,139.2"/>
</g>
</svg>
