<?xml version="1.0" ?><!DOCTYPE svg  PUBLIC '-//W3C//DTD SVG 1.0//EN'  'http://www.w3.org/TR/2001/REC-SVG-20010904/DTD/svg10.dtd'><svg fill="#9e9e9e" enable-background="new 0 0 24 24" id="Layer_1" version="1.0" viewBox="0 0 24 24" xml:space="preserve" xmlns="http://www.w3.org/2000/svg" xmlns:xlink="http://www.w3.org/1999/xlink"><g><g><path d="M9,4c2.8,0,5,2.2,5,5s-2.2,5-5,5s-5-2.2-5-5S6.2,4,9,4 M9,2C5.1,2,2,5.1,2,9c0,3.9,3.1,7,7,7s7-3.1,7-7C16,5.1,12.9,2,9,2    L9,2z"/></g></g><g><polygon points="22,20.3 20.3,22 14,15.7 14,14 15.7,14  "/><rect height="3.6" transform="matrix(0.7071 -0.7071 0.7071 0.7071 -5.9741 14.4227)" width="1.2" x="13.8" y="12.6"/></g></svg>