<?xml version="1.0" encoding="utf-8"?>
<!-- Generator: Adobe Illustrator 19.0.0, SVG Export Plug-In . SVG Version: 6.00 Build 0)  -->
<svg version="1.1" id="Layer_1" xmlns="http://www.w3.org/2000/svg" xmlns:xlink="http://www.w3.org/1999/xlink" x="0px" y="0px"
	 viewBox="0 0 538.5 525" style="enable-background:new 0 0 538.5 525;" xml:space="preserve">
<style type="text/css">
	.st0{clip-path:url(#SVGID_2_);fill:#0084D1;}
	.st1{clip-path:url(#SVGID_2_);fill:#082040;}
</style>
<g>
	<defs>
		<rect id="SVGID_1_" width="538.5" height="525"/>
	</defs>
	<clipPath id="SVGID_2_">
		<use xlink:href="#SVGID_1_"  style="overflow:visible;"/>
	</clipPath>
	<path class="st0" d="M172.3,366.2v-43.1c0-5.9-4.8-10.8-10.8-10.8h-43.1c-5.9,0-10.8,4.8-10.8,10.8v43.1c0,6,4.8,10.8,10.8,10.8
		h43.1C167.5,376.9,172.3,372.2,172.3,366.2"/>
	<path class="st0" d="M280,280v-43.1c0-5.9-4.8-10.8-10.8-10.8h-43.1c-5.9,0-10.8,4.8-10.8,10.8V280c0,6,4.8,10.8,10.8,10.8h43.1
		C275.2,290.8,280,286,280,280"/>
	<path class="st0" d="M172.3,193.8v-43.1c0-5.9-4.8-10.8-10.8-10.8h-43.1c-5.9,0-10.8,4.8-10.8,10.8v43.1c0,6,4.8,10.8,10.8,10.8
		h43.1C167.5,204.6,172.3,199.9,172.3,193.8"/>
	<path class="st0" d="M280,193.8v-43.1c0-5.9-4.8-10.8-10.8-10.8h-43.1c-5.9,0-10.8,4.8-10.8,10.8v43.1c0,6,4.8,10.8,10.8,10.8h43.1
		C275.2,204.6,280,199.9,280,193.8"/>
	<path class="st0" d="M172.3,280v-43.1c0-5.9-4.8-10.8-10.8-10.8h-43.1c-5.9,0-10.8,4.8-10.8,10.8V280c0,6,4.8,10.8,10.8,10.8h43.1
		C167.5,290.8,172.3,286,172.3,280"/>
	<path class="st0" d="M387.7,278.4V43.1c0-23.7-19.3-43.1-43.1-43.1L43.1,0C19.3,0,0,19.4,0,43.1v430.8c0,23.8,19.3,43.1,43.1,43.1
		h293.7c-25.7-21.2-43.5-51.6-48.5-86.1H53.9V86.2h280v221.3C349.2,294,367.5,284,387.7,278.4 M161.5,452.4h64.6
		c5.9,0,10.8,4.8,10.8,10.8c0,6-4.8,10.8-10.8,10.8h-64.6c-5.9,0-10.8-4.8-10.8-10.8C150.8,457.2,155.6,452.4,161.5,452.4
		 M204.6,64.7h-21.5c-5.9,0-10.8-4.8-10.8-10.8c0-5.9,4.8-10.8,10.8-10.8h21.5c5.9,0,10.8,4.8,10.8,10.8
		C215.4,59.9,210.6,64.7,204.6,64.7"/>
	<path class="st0" d="M280,366.2v-43.1c0-5.9-4.8-10.8-10.8-10.8h-43.1c-5.9,0-10.8,4.8-10.8,10.8v43.1c0,6,4.8,10.8,10.8,10.8h43.1
		C275.2,376.9,280,372.2,280,366.2"/>
	<path class="st0" d="M449.5,488.4l-9.3-28.5l-6.1-18.7l-6.8-20.9l-2-5.5l-1-2.8l-0.5-0.8l-0.3-0.3h-0.3H423l-0.3,0.3
		c0,0.3-0.3,0.5-0.3,0.5l-0.5,1l-3.5,9.6l-10.1,29.3l-9.8,26.5l-14.6,39.6c12.4,4.5,25.7,7.3,39.6,7.3c12.9,0,25.2-2,36.8-6.1
		l-3.5-10.6L449.5,488.4z"/>
	<path class="st1" d="M379.8,515.9c0,0-0.3,0-0.3-0.3C379.6,515.9,379.8,515.9,379.8,515.9"/>
	<path class="st0" d="M538.5,411c0.3-63.6-50.5-115.1-113.5-115.6c-63.1-0.5-114.5,50.7-115,114c-0.3,32,12.6,61.1,33.8,82.3
		c0.3,0.3,0.3,0.3,0.5,0.5l25.2-43.1l8.6-16.7l7.3-15.9l6.6-16.7l6.1-17.2l7.1-20.9l6.1-18.9l7.6-24.7l5.6-17.7l2.8,9.1l5,18.7
		l4.5,16.7l5,16.9l5,16.1l4.8,14.1l5,14.6l6.1,14.6l7.8,16.1l9.3,18.4l9.3,15.9l14.1,21.2C524.7,472.3,538.3,443.2,538.5,411"/>
</g>
</svg>
