<?xml version="1.0" encoding="utf-8"?>
<!-- Generator: Adobe Illustrator 19.0.0, SVG Export Plug-In . SVG Version: 6.00 Build 0)  -->
<svg version="1.1" id="Layer_1" xmlns="http://www.w3.org/2000/svg" xmlns:xlink="http://www.w3.org/1999/xlink" x="0px" y="0px"
	 viewBox="0 0 472.9 380.7" style="enable-background:new 0 0 472.9 380.7;" xml:space="preserve">
<style type="text/css">
	.st0{clip-path:url(#SVGID_2_);fill:#000325;}
</style>
<g>
	<defs>
		<rect id="SVGID_1_" width="472.9" height="380.7"/>
	</defs>
	<clipPath id="SVGID_2_">
		<use xlink:href="#SVGID_1_"  style="overflow:visible;"/>
	</clipPath>
	<path class="st0" d="M243.2,34.9h-29c-1.5,0-3,0.4-4.3,1.1L40.9,131.5c-2.8,1.5-4.5,4.5-4.5,7.6v10.3H8.7c-4.8,0-8.8,3.9-8.8,8.8
		v76.6c0,2.3,0.9,4.5,2.6,6.2c1.6,1.6,3.9,2.6,6.2,2.6h27.6v11.7v0c0,3.2,1.7,6.1,4.5,7.6L204,354.6c1.3,0.7,2.8,1.1,4.3,1.1h35
		c2.3,0,4.5-0.9,6.2-2.6c1.6-1.6,2.6-3.9,2.6-6.2V43.7c0-2.3-0.9-4.6-2.6-6.2C247.7,35.8,245.5,34.9,243.2,34.9L243.2,34.9z
		 M17.5,166.9h18.9V226H17.5V166.9z M234.4,338.2h-23.9L53.9,250.1v-106l162.9-91.7h17.5L234.4,338.2z"/>
	<path class="st0" d="M346.6,187.2c-1.4-37-23.2-69-54.2-79.5h0c-4.6-1.5-9.6,0.9-11.1,5.5c-1.5,4.6,0.9,9.6,5.5,11.1
		c24.1,8.1,41.1,33.7,42.3,63.6c1,14.5-2.7,29-10.4,41.3c-7.7,12.3-19.1,22-32.5,27.5c-3.8,1.6-6,5.7-5.1,9.8c0.8,4.1,4.4,7,8.6,7
		c1.2,0,2.4-0.3,3.5-0.7c16.7-7,30.7-19,40.3-34.3C343,223.1,347.6,205.2,346.6,187.2L346.6,187.2z"/>
	<path class="st0" d="M337.4,53.8c-2-1.7-4.6-2.4-7.1-1.9c-2.5,0.4-4.8,2-6.1,4.2c-1.3,2.2-1.6,4.9-0.7,7.3c0.9,2.4,2.7,4.4,5.1,5.3
		c39.4,24.1,62.8,70,62.8,121.6S367.7,287.8,328,312c-3.3,2.1-4.9,6.1-3.8,9.8c1.1,3.8,4.5,6.4,8.4,6.4c1.6,0,3.2-0.5,4.6-1.3
		c44.6-27.3,71.2-78.7,71.2-136.5C408.3,132.6,382,81.1,337.4,53.8L337.4,53.8z"/>
	<path class="st0" d="M377.4,0.7c-4.4-1.9-9.6,0.1-11.6,4.6c-1.9,4.4,0.1,9.6,4.6,11.6c51.6,22.5,85,90.6,85,173.5
		s-33.3,151-85,173.5c-3.8,1.6-6,5.8-5.1,9.8c0.9,4.1,4.5,7,8.6,7c1.2,0,2.4-0.3,3.5-0.7c58-25.4,95.5-99.8,95.5-189.6
		S435.4,26.1,377.4,0.7L377.4,0.7z"/>
</g>
</svg>
