<?xml version="1.0" encoding="utf-8"?>
<!-- Generator: Adobe Illustrator 23.1.0, SVG Export Plug-In . SVG Version: 6.00 Build 0)  -->
<!DOCTYPE svg PUBLIC "-//W3C//DTD SVG 1.1//EN" "http://www.w3.org/Graphics/SVG/1.1/DTD/svg11.dtd" [
	<!ENTITY ns_extend "http://ns.adobe.com/Extensibility/1.0/">
	<!ENTITY ns_ai "http://ns.adobe.com/AdobeIllustrator/10.0/">
	<!ENTITY ns_graphs "http://ns.adobe.com/Graphs/1.0/">
	<!ENTITY ns_vars "http://ns.adobe.com/Variables/1.0/">
	<!ENTITY ns_imrep "http://ns.adobe.com/ImageReplacement/1.0/">
	<!ENTITY ns_sfw "http://ns.adobe.com/SaveForWeb/1.0/">
	<!ENTITY ns_custom "http://ns.adobe.com/GenericCustomNamespace/1.0/">
	<!ENTITY ns_adobe_xpath "http://ns.adobe.com/XPath/1.0/">
]>
<svg version="1.1" id="Isolation_Mode" xmlns:x="&ns_extend;" xmlns:i="&ns_ai;" xmlns:graph="&ns_graphs;"
	 xmlns="http://www.w3.org/2000/svg" xmlns:xlink="http://www.w3.org/1999/xlink" x="0px" y="0px" viewBox="0 0 300.8 265"
	 style="enable-background:new 0 0 300.8 265;" xml:space="preserve">
<style type="text/css">
	.st0{fill:url(#SVGID_1_);}
</style>
<metadata>
	<sfw  xmlns="&ns_sfw;">
		<slices></slices>
		<sliceSourceBounds  bottomLeftOrigin="true" height="265" width="300.8" x="-100.4" y="-57.5"></sliceSourceBounds>
	</sfw>
</metadata>
<linearGradient id="SVGID_1_" gradientUnits="userSpaceOnUse" x1="0" y1="132.4816" x2="300.8152" y2="132.4816">
	<stop  offset="0" style="stop-color:#1EB8EA"/>
	<stop  offset="1" style="stop-color:#94E0D7"/>
</linearGradient>
<path class="st0" d="M295.1,203.5L185.2,19.6C177.9,7.3,165,0,150.4,0s-27.5,7.3-34.8,19.6L5.7,203.5c-7.6,12.7-7.6,27.9-0.3,40.8
	S26,265,40.6,265h219.7c14.9,0,27.9-7.6,35.1-20.6S302.7,216.2,295.1,203.5z M150.4,221.9c-9.5,0-17.1-7.6-17.1-17.1
	s7.6-17.1,17.1-17.1s17.1,7.6,17.1,17.1S159.9,221.9,150.4,221.9z M168.8,91.8l-6,70.6c-0.6,6.6-6.6,11.7-13.3,11.1
	c-6-0.6-10.8-5.4-11.1-11.1l-6-70.6c-0.9-10.1,6.6-19,16.8-19.9s19,6.6,19.9,16.8C168.8,89.6,168.8,90.9,168.8,91.8z"/>
</svg>
