<?xml version="1.0" encoding="utf-8"?>
<!-- Generator: Adobe Illustrator 19.0.0, SVG Export Plug-In . SVG Version: 6.00 Build 0)  -->
<svg version="1.1" id="Layer_1" xmlns="http://www.w3.org/2000/svg" xmlns:xlink="http://www.w3.org/1999/xlink" x="0px" y="0px"
	 viewBox="0 0 604.1 578.5" style="enable-background:new 0 0 604.1 578.5;" xml:space="preserve">
<style type="text/css">
	.st0{clip-path:url(#SVGID_2_);}
	.st1{clip-path:url(#SVGID_2_);fill:none;stroke:#FFFFFF;stroke-width:23;stroke-miterlimit:10;}
	.st2{clip-path:url(#SVGID_2_);fill:#0084D1;}
</style>
<g>
	<defs>
		<rect id="SVGID_1_" width="604.1" height="578.5"/>
	</defs>
	<clipPath id="SVGID_2_">
		<use xlink:href="#SVGID_1_"  style="overflow:visible;"/>
	</clipPath>
	<path class="st0" d="M464.2,32.1c6.8,0,12.3,5.6,12.3,12.3"/>
	<path class="st0" d="M139.6,32.1c6.8,0,12.3,5.6,12.3,12.3"/>
	<path class="st0" d="M307.2,11.5"/>
	<path class="st1" d="M307.2,11.5"/>
	<path class="st0" d="M307.2,11.5"/>
	<path class="st2" d="M344.8,329c8.9,0,17.4-1.3,26.4-1.3h79.1h92.6h30.9c4.8,0,10.4,1.7,14.9,0.6c9.9-2.3,16.8-12.9,15.3-22.8
		C594,239.8,568.5,175,508,153.9c23.5-14.7,39-40.6,39-70.5C547,38,510,1,464.2,1c-45.8,0-82.8,37-82.8,82.8
		c0,29.9,15.5,55.7,39,70.5c-60.5,20.7-86,85.6-95.5,151.7C322.9,318.3,332.4,329,344.8,329 M412.4,83.8c0-28.7,23.1-51.8,51.8-51.8
		c6.8,0,12.3,5.6,12.3,12.3c0,6.8-5.6,12.3-12.3,12.3c-14.7,0-27.1,11.9-27.1,27.1c0,6.8-5.6,12.3-12.3,12.3
		C418,96.1,412.4,90.6,412.4,83.8L412.4,83.8z"/>
	<path class="st2" d="M20.2,329c8.9,0,17.4-1.3,26.4-1.3h79.1h92.6h30.9c4.8,0,10.4,1.7,14.9,0.6c9.9-2.3,16.8-12.9,15.3-22.8
		c-10-65.7-35.4-130.6-95.9-151.7c23.5-14.7,39-40.6,39-70.5c0-45.4-37-82.4-82.8-82.4C93.8,1,56.8,38,56.8,83.8
		c0,29.9,15.5,55.7,39,70.5C35.3,175,9.8,239.8,0.3,305.9C-1.7,318.3,7.8,329,20.2,329 M87.8,83.8c0-28.7,23.1-51.8,51.7-51.8
		c6.8,0,12.3,5.6,12.3,12.3c0,6.8-5.6,12.3-12.3,12.3c-14.7,0-27.1,11.9-27.1,27.1c0,6.8-5.6,12.3-12.3,12.3
		C93.4,96.1,87.8,90.6,87.8,83.8L87.8,83.8z"/>
	<path class="st0" d="M139.2,472.9h41.4c0-29.7,24.1-53.8,53.8-53.8h19v-19c0-29.7,24.1-53.8,53.8-53.8c29.7,0,53.8,24.1,53.8,53.8
		v19l19,0c29.7,0,53.8,24.1,53.8,53.8l41.4,0c17.4,0,30.8-15.7,28.6-33c-14-92.4-49.8-183.7-135-213.4c33-20.7,54.9-57.1,54.9-99.1
		c0-63.8-52.1-115.9-116.5-115.9S190.8,63.6,190.8,128c0,42,21.8,78.4,54.9,99.1c-85.1,29.1-121,120.4-134.4,213.4
		C108.4,457.8,121.9,472.9,139.2,472.9L139.2,472.9z M234.4,128c0-40.3,32.5-72.8,72.8-72.8c9.5,0,17.4,7.8,17.4,17.4
		s-7.8,17.4-17.4,17.4c-20.7,0-38.1,16.8-38.1,38.1c0,9.5-7.8,17.4-17.4,17.4C242.3,145.3,234.4,137.5,234.4,128L234.4,128z
		 M328.5,400.1v51.5H380c11.8,0,21.3,9.5,21.3,21.3s-9.5,21.3-21.3,21.3h-51.5v51.5c0,11.8-9.5,21.3-21.3,21.3
		c-11.8,0-21.3-9.5-21.3-21.3v-51.5h-51.5c-11.8,0-21.3-9.5-21.3-21.3s9.5-21.3,21.3-21.3H286v-51.5c0-11.8,9.5-21.3,21.3-21.3
		C319,379.4,328.5,388.9,328.5,400.1"/>
	<path class="st1" d="M139.2,472.9h41.4c0-29.7,24.1-53.8,53.8-53.8h19v-19c0-29.7,24.1-53.8,53.8-53.8c29.7,0,53.8,24.1,53.8,53.8
		v19l19,0c29.7,0,53.8,24.1,53.8,53.8l41.4,0c17.4,0,30.8-15.7,28.6-33c-14-92.4-49.8-183.7-135-213.4c33-20.7,54.9-57.1,54.9-99.1
		c0-63.8-52.1-115.9-116.5-115.9S190.8,63.6,190.8,128c0,42,21.8,78.4,54.9,99.1c-85.1,29.1-121,120.4-134.4,213.4
		C108.4,457.8,121.9,472.9,139.2,472.9L139.2,472.9z M234.4,128c0-40.3,32.5-72.8,72.8-72.8c9.5,0,17.4,7.8,17.4,17.4
		s-7.8,17.4-17.4,17.4c-20.7,0-38.1,16.8-38.1,38.1c0,9.5-7.8,17.4-17.4,17.4C242.3,145.3,234.4,137.5,234.4,128L234.4,128z
		 M328.5,400.1v51.5H380c11.8,0,21.3,9.5,21.3,21.3s-9.5,21.3-21.3,21.3h-51.5v51.5c0,11.8-9.5,21.3-21.3,21.3
		c-11.8,0-21.3-9.5-21.3-21.3v-51.5h-51.5c-11.8,0-21.3-9.5-21.3-21.3s9.5-21.3,21.3-21.3H286v-51.5c0-11.8,9.5-21.3,21.3-21.3
		C319,379.4,328.5,388.9,328.5,400.1z"/>
	<path class="st2" d="M139.2,472.9h41.4c0-29.7,24.1-53.8,53.8-53.8h19v-19c0-29.7,24.1-53.8,53.8-53.8c29.7,0,53.8,24.1,53.8,53.8
		v19l19,0c29.7,0,53.8,24.1,53.8,53.8l41.4,0c17.4,0,30.8-15.7,28.6-33c-14-92.4-49.8-183.7-135-213.4c33-20.7,54.9-57.1,54.9-99.1
		c0-63.8-52.1-115.9-116.5-115.9S190.8,63.6,190.8,128c0,42,21.8,78.4,54.9,99.1c-85.1,29.1-121,120.4-134.4,213.4
		C108.4,457.8,121.9,472.9,139.2,472.9L139.2,472.9z M234.4,128c0-40.3,32.5-72.8,72.8-72.8c9.5,0,17.4,7.8,17.4,17.4
		c0,9.5-7.8,17.4-17.4,17.4c-20.7,0-38.1,16.8-38.1,38.1c0,9.5-7.8,17.4-17.4,17.4C242.3,145.3,234.4,137.5,234.4,128L234.4,128z"/>
	<path class="st2" d="M328.5,400.1v51.5H380c11.8,0,21.3,9.5,21.3,21.3s-9.5,21.3-21.3,21.3h-51.5v51.5c0,11.8-9.5,21.3-21.3,21.3
		c-11.8,0-21.3-9.5-21.3-21.3v-51.5h-51.5c-11.8,0-21.3-9.5-21.3-21.3s9.5-21.3,21.3-21.3H286v-51.5c0-11.8,9.5-21.3,21.3-21.3
		C319,379.4,328.5,388.9,328.5,400.1"/>
</g>
</svg>
