<?xml version="1.0" encoding="utf-8"?>
<!-- Generator: Adobe Illustrator 19.0.0, SVG Export Plug-In . SVG Version: 6.00 Build 0)  -->
<svg version="1.1" id="Layer_1" xmlns="http://www.w3.org/2000/svg" xmlns:xlink="http://www.w3.org/1999/xlink" x="0px" y="0px"
	 viewBox="0 0 246.3 240.8" style="enable-background:new 0 0 246.3 240.8;" xml:space="preserve">
<style type="text/css">
	.st0{clip-path:url(#SVGID_2_);}
</style>
<g>
	<defs>
		<rect id="SVGID_1_" width="246.3" height="240.8"/>
	</defs>
	<clipPath id="SVGID_2_">
		<use xlink:href="#SVGID_1_"  style="overflow:visible;"/>
	</clipPath>
	<path class="st0" d="M167.3,134c-2,3.3-1.4,8.2,1.3,10.9l72.7,67.2c6.6,6.6,6.6,17.2,0,23.8c-6.6,6.6-17.2,6.6-23.8,0l-72.7-67.2
		c-2.7-2.7-7.6-3.3-10.9-1.3c0,0-1.2,0.9-5.1,2.8c-11.8,5.8-25.1,9-39.2,9C40.1,179.2,0,139.1,0,89.6C0,40.1,40.1,0,89.6,0
		c49.5,0,89.6,40.1,89.6,89.6c0,14.1-3.3,27.5-9.1,39.3C168.2,132.8,167.3,134,167.3,134z M89.6,160.9c39.4,0,71.3-31.9,71.3-71.3
		c0-39.4-31.9-71.3-71.3-71.3c-39.4,0-71.3,31.9-71.3,71.3C18.3,129,50.2,160.9,89.6,160.9"/>
</g>
</svg>
