<?xml version="1.0" encoding="utf-8"?>
<!-- Generator: Adobe Illustrator 19.0.0, SVG Export Plug-In . SVG Version: 6.00 Build 0)  -->
<svg version="1.1" id="Layer_1" xmlns="http://www.w3.org/2000/svg" xmlns:xlink="http://www.w3.org/1999/xlink" x="0px" y="0px"
	 viewBox="0 0 436 461" style="enable-background:new 0 0 436 461;" xml:space="preserve">
<style type="text/css">
	.st0{clip-path:url(#SVGID_2_);fill:#0084D1;}
	.st1{clip-path:url(#SVGID_2_);fill:#D91F26;}
</style>
<g>
	<defs>
		<rect id="SVGID_1_" width="436" height="461"/>
	</defs>
	<clipPath id="SVGID_2_">
		<use xlink:href="#SVGID_1_"  style="overflow:visible;"/>
	</clipPath>
	<path class="st0" d="M93.3,332.1L93.3,332.1c-26.3-62.7-70-173.3-70-203.6v0c0-18.6,7.4-36.4,20.5-49.5
		c12.1-12.1,28.1-19.3,45-20.3c5.6-8.1,12-15.6,19.2-22.5C82.6,32.1,56.5,38.7,36,54.7c-22.7,17.7-36,45-36,73.8
		c0,46.7,74.2,218.5,82.6,238c1.8,4.3,6.1,7.1,10.7,7.1c4.7,0,8.9-2.8,10.7-7.1c0,0,9.8-22.5,22.4-53.4c-4.8-9.1-9.5-18.3-14-27.3
		C105.2,303.6,98.5,319.7,93.3,332.1"/>
	<path class="st0" d="M408.6,62.5c-17.5-17.5-41.2-27.3-66-27.3h0c-4.3,0-8.5,0.4-12.7,1c7.2,6.9,13.6,14.5,19.3,22.7
		c16.2,1.5,31.4,8.6,43,20.2c13.1,13.1,20.5,30.9,20.5,49.5c0,30.3-43.8,140.9-70,203.6l0,0c-5-11.9-11.3-27.3-18.1-44.2
		c-4.5,9.1-9.3,18.2-14.1,27.3c12.1,29.7,21.4,51,21.5,51.3v0c1.8,4.3,6.1,7.1,10.7,7.1c4.7,0,8.9-2.8,10.7-7.1
		c8.4-19.5,82.6-191.3,82.6-238C436,103.8,426.2,80,408.6,62.5"/>
	<polygon class="st1" points="219,461 219,461 219,461 	"/>
	<path class="st0" d="M311.4,272.6c25.8-50.2,47.6-101.7,47.6-132.4c0.1-29.3-9.2-57.9-26.4-81.7c0,0-11.9-14.8-18.4-20.6
		C288.4,13.5,254.2,0,218.8,0c-35.5,0-69.6,13.5-95.4,37.9c-8.9,7.7-18.1,20.7-18.1,20.7C88.1,82.3,78.9,110.9,79,140.2
		c0,30.2,21.1,80.7,46.7,130.2c1.7,3.2,14.1,27.2,14.1,27.2c32.6,60.3,66.7,113.2,69.4,117.3c2.1,3.3,5.8,5.3,9.8,5.3s7.7-2,9.8-5.3
		c2.7-4.1,36.1-55.6,68.4-115.1C297.2,299.7,309,277.3,311.4,272.6 M219,386.8C219,386.8,219,386.8,219,386.8L219,386.8
		C219,386.8,219,386.8,219,386.8c-39.9-63.4-116.7-195.9-116.7-246.6c0-41.7,22.2-80.2,58.3-101c36.1-20.8,80.6-20.8,116.7,0
		c36.1,20.8,58.3,59.4,58.3,101C335.6,190.9,258.9,323.5,219,386.8"/>
	<path class="st0" d="M219,70.2c-18.6,0-36.4,7.4-49.5,20.5c-13.1,13.1-20.5,30.9-20.5,49.5s7.4,36.4,20.5,49.5
		c13.1,13.1,30.9,20.5,49.5,20.5s36.4-7.4,49.5-20.5c13.1-13.1,20.5-30.9,20.5-49.5s-7.4-36.4-20.5-49.5
		C255.4,77.6,237.5,70.2,219,70.2 M252,173.2c-8.8,8.8-20.6,13.7-33,13.7s-24.2-4.9-33-13.7c-8.8-8.8-13.7-20.6-13.7-33
		s4.9-24.2,13.7-33c8.8-8.8,20.6-13.7,33-13.7s24.2,4.9,33,13.7c8.7,8.8,13.7,20.6,13.7,33S260.7,164.4,252,173.2"/>
	<polygon class="st1" points="219,386.8 219,386.8 219,386.8 	"/>
</g>
</svg>
