<?xml version="1.0" encoding="utf-8"?>
<!-- Generator: Adobe Illustrator 19.0.0, SVG Export Plug-In . SVG Version: 6.00 Build 0)  -->
<svg version="1.1" id="Layer_1" xmlns="http://www.w3.org/2000/svg" xmlns:xlink="http://www.w3.org/1999/xlink" x="0px" y="0px"
	 viewBox="0 0 506.2 532" style="enable-background:new 0 0 506.2 532;" xml:space="preserve">
<style type="text/css">
	.st0{clip-path:url(#SVGID_2_);fill:#0084D1;}
</style>
<g>
	<defs>
		<rect id="SVGID_1_" width="506.2" height="532"/>
	</defs>
	<clipPath id="SVGID_2_">
		<use xlink:href="#SVGID_1_"  style="overflow:visible;"/>
	</clipPath>
	<path class="st0" d="M442.4,32.5h-38.6V20.2c0-11.2-9-20.2-20.2-20.2c-11.2,0-20.2,9-20.2,20.2V33h-89.6V20.2
		c0-11.2-9-20.2-20.2-20.2c-11.2,0-20.2,9-20.2,20.2V33h-90.2V20.2c0-11.2-9-20.2-20.2-20.2S103,9,103,20.2V33H64.4
		C29.1,33,0,62.2,0,97.4v370.2C0,502.9,29.1,532,64.4,532h377.4c35.3,0,64.4-29.1,64.4-64.4V96.9C506.8,61.6,478.2,32.5,442.4,32.5
		L442.4,32.5z M65,72.8h38.6v12.9c0,11.2,9,20.2,20.2,20.2s20.2-9,20.2-20.2V72.8h90.2v12.9c0,11.2,9,20.2,20.2,20.2
		c11.2,0,20.2-9,20.2-20.2V72.8h90.2v12.9c0,11.2,9,20.2,20.2,20.2s20.2-9,20.2-20.2V72.8h38.6c13.4,0,24.6,11.2,24.6,24.6v38.1
		H40.3V97.4C40.3,83.4,51.5,72.8,65,72.8L65,72.8z M442.4,492.2H65c-13.4,0-24.6-11.2-24.6-24.6V175.3h426.2v292.3
		C467,481,455.8,492.2,442.4,492.2L442.4,492.2z"/>
	<path class="st0" d="M152.9,215.6h-48.7c-9,0-16.2,7.3-16.2,16.2l0,17.4c0,9,7.3,16.2,16.2,16.2l48.7,0c9,0,16.2-7.3,16.2-16.2
		v-17.4C169.1,222.9,161.8,215.6,152.9,215.6z"/>
	<path class="st0" d="M402.6,215.6h-48.2c-9,0-16.2,7.3-16.2,16.2l0,17.4c0,9,7.3,16.2,16.2,16.2h48.7c9,0,16.2-7.3,16.2-16.2v-17.4
		C419.4,222.9,412.2,215.6,402.6,215.6z"/>
	<path class="st0" d="M277.8,215.6H229c-9,0-16.2,7.3-16.2,16.2v17.4c0,9,7.3,16.2,16.2,16.2h48.7c9,0,16.2-7.3,16.2-16.2v-17.4
		C294,222.9,286.7,215.6,277.8,215.6z"/>
	<path class="st0" d="M152.9,309.7h-48.7c-9,0-16.2,7.3-16.2,16.2v17.4c0,9,7.3,16.2,16.2,16.2l48.7,0c9,0,16.2-7.3,16.2-16.2v-17.4
		C169.1,317,161.8,309.7,152.9,309.7z"/>
	<path class="st0" d="M402.6,309.7h-48.2c-9,0-16.2,7.3-16.2,16.2v17.4c0,9,7.3,16.2,16.2,16.2h48.7c9,0,16.2-7.3,16.2-16.2v-17.4
		C419.4,317,412.2,309.7,402.6,309.7z"/>
	<path class="st0" d="M277.8,309.7H229c-9,0-16.2,7.3-16.2,16.2v17.4c0,9,7.3,16.2,16.2,16.2h48.7c9,0,16.2-7.3,16.2-16.2v-17.4
		C294,317,286.7,309.7,277.8,309.7"/>
	<path class="st0" d="M152.9,404.3h-48.7c-9,0-16.2,7.3-16.2,16.2v17.4c0,9,7.3,16.2,16.2,16.2l48.7,0c9,0,16.2-7.3,16.2-16.2v-17.4
		C169.1,411.6,161.8,404.3,152.9,404.3z"/>
	<path class="st0" d="M402.6,404.3h-48.2c-9,0-16.2,7.3-16.2,16.2v17.4c0,9,7.3,16.2,16.2,16.2h48.7c9,0,16.2-7.3,16.2-16.2v-17.4
		C419.4,411.6,412.2,404.3,402.6,404.3z"/>
	<path class="st0" d="M277.8,404.3H229c-9,0-16.2,7.3-16.2,16.2v17.4c0,9,7.3,16.2,16.2,16.2h48.7c9,0,16.2-7.3,16.2-16.2v-17.4
		C294,411.6,286.7,404.3,277.8,404.3"/>
</g>
</svg>
