<?xml version="1.0" encoding="utf-8"?>
<!-- Generator: Adobe Illustrator 19.0.0, SVG Export Plug-In . SVG Version: 6.00 Build 0)  -->
<svg version="1.1" id="Layer_1" xmlns="http://www.w3.org/2000/svg" xmlns:xlink="http://www.w3.org/1999/xlink" x="0px" y="0px"
	 viewBox="0 0 490 315" style="enable-background:new 0 0 490 315;" xml:space="preserve">
<style type="text/css">
	.st0{clip-path:url(#SVGID_2_);fill:#FFFFFF;}
</style>
<g>
	<defs>
		<rect id="SVGID_1_" width="490" height="315"/>
	</defs>
	<clipPath id="SVGID_2_">
		<use xlink:href="#SVGID_1_"  style="overflow:visible;"/>
	</clipPath>
	<path class="st0" d="M467.4,59.9c-14.2-9.8-32.2-12.1-48.3-6L350,79.7V52.5c0-13.9-5.5-27.3-15.4-37.1C324.8,5.5,311.4,0,297.5,0
		h-245C38.6,0,25.2,5.5,15.4,15.4C5.5,25.2,0,38.6,0,52.5v210c0,13.9,5.5,27.3,15.4,37.1c9.8,9.8,23.2,15.4,37.1,15.4h245
		c13.9,0,27.3-5.5,37.1-15.4c9.8-9.8,15.4-23.2,15.4-37.1v-27.2l69.1,25.9c16.1,6,34.2,3.8,48.3-6c14.1-9.8,22.6-25.9,22.6-43.1V103
		C490,85.8,481.6,69.7,467.4,59.9L467.4,59.9z M315,262.5c0,4.6-1.8,9.1-5.1,12.4s-7.7,5.1-12.4,5.1h-245c-4.6,0-9.1-1.8-12.4-5.1
		s-5.1-7.7-5.1-12.4v-210c0-4.6,1.8-9.1,5.1-12.4S47.9,35,52.5,35h245c4.6,0,9.1,1.8,12.4,5.1s5.1,7.7,5.1,12.4V262.5z M455,212
		c0,5.7-2.8,11.1-7.5,14.4c-4.7,3.3-10.7,4-16.1,2L350,197.9v-80.7l81.4-30.5c5.4-2,11.4-1.3,16.1,2c4.7,3.3,7.5,8.6,7.5,14.4V212z"
		/>
</g>
</svg>
