<?xml version="1.0" encoding="utf-8"?>
<!-- Generator: Adobe Illustrator 19.0.0, SVG Export Plug-In . SVG Version: 6.00 Build 0)  -->
<svg version="1.1" id="Layer_1" xmlns="http://www.w3.org/2000/svg" xmlns:xlink="http://www.w3.org/1999/xlink" x="0px" y="0px"
	 viewBox="0 0 715 818.9" style="enable-background:new 0 0 715 818.9;" xml:space="preserve">
<style type="text/css">
	.st0{clip-path:url(#SVGID_2_);}
</style>
<g>
	<defs>
		<rect id="SVGID_1_" width="715" height="818.9"/>
	</defs>
	<clipPath id="SVGID_2_">
		<use xlink:href="#SVGID_1_"  style="overflow:visible;"/>
	</clipPath>
	<path class="st0" fill="#888888" d="M325.3,685.9c-4.9-0.3-9,3.6-9,8.5v30.4c0,4.6,3.4,8.6,8,8.8c5,0.3,9.1-3.6,9.1-8.5v-30.5
		C333.3,690.2,329.8,686.2,325.3,685.9 M396.9,685.9c-4.9-0.3-9,3.6-9,8.5v30.4c0,4.6,3.4,8.6,8,8.8c5,0.3,9-3.6,9-8.5v-30.5
		C404.9,690.2,401.5,686.2,396.9,685.9 M149.2,818.9h422.4v-25.4H149.2V818.9z M512.3,653.9c1-5,0.9-15.3-5-15.3c-4,0-6.6,1-8.1,1.9
		c-0.7,0.4-1.5,0.6-2.2,0.6s-1.5-0.2-2.2-0.6c-1.5-0.9-4.1-1.9-8.1-1.9c-5.9,0-6.1,10.3-5,15.3c0.8,4.1,3.5,6,4.3,8.4
		c1.7,5.3-1.9,3.8,0.2,12.2c2.1,8.4,2.7,10.8,6.2,1.2c2.6-7.2,4.3-8,4.7-8.1h0c0.4,0.1,2.1,1,4.7,8.1c3.5,9.6,4.1,7.2,6.2-1.2
		c2.1-8.3-1.5-6.9,0.2-12.2C508.8,659.9,511.5,658,512.3,653.9 M512.3,653.9c1-5,0.9-15.3-5-15.3c-4,0-6.6,1-8.1,1.9
		c-0.7,0.4-1.5,0.6-2.2,0.6s-1.5-0.2-2.2-0.6c-1.5-0.9-4.1-1.9-8.1-1.9c-5.9,0-6.1,10.3-5,15.3c0.8,4.1,3.5,6,4.3,8.4
		c1.7,5.3-1.9,3.8,0.2,12.2c2.1,8.4,2.7,10.8,6.2,1.2c2.6-7.2,4.3-8,4.7-8.1h0c0.4,0.1,2.1,1,4.7,8.1c3.5,9.6,4.1,7.2,6.2-1.2
		c2.1-8.3-1.5-6.9,0.2-12.2C508.8,659.9,511.5,658,512.3,653.9 M512.3,653.9c1-5,0.9-15.3-5-15.3c-4,0-6.6,1-8.1,1.9
		c-0.7,0.4-1.5,0.6-2.2,0.6s-1.5-0.2-2.2-0.6c-1.5-0.9-4.1-1.9-8.1-1.9c-5.9,0-6.1,10.3-5,15.3c0.8,4.1,3.5,6,4.3,8.4
		c1.7,5.3-1.9,3.8,0.2,12.2c2.1,8.4,2.7,10.8,6.2,1.2c2.6-7.2,4.3-8,4.7-8.1h0c0.4,0.1,2.1,1,4.7,8.1c3.5,9.6,4.1,7.2,6.2-1.2
		c2.1-8.3-1.5-6.9,0.2-12.2C508.8,659.9,511.5,658,512.3,653.9 M512.3,653.9c1-5,0.9-15.3-5-15.3c-4,0-6.6,1-8.1,1.9
		c-0.7,0.4-1.5,0.6-2.2,0.6s-1.5-0.2-2.2-0.6c-1.5-0.9-4.1-1.9-8.1-1.9c-5.9,0-6.1,10.3-5,15.3c0.8,4.1,3.5,6,4.3,8.4
		c1.7,5.3-1.9,3.8,0.2,12.2c2.1,8.4,2.7,10.8,6.2,1.2c2.6-7.2,4.3-8,4.7-8.1h0c0.4,0.1,2.1,1,4.7,8.1c3.5,9.6,4.1,7.2,6.2-1.2
		c2.1-8.3-1.5-6.9,0.2-12.2C508.8,659.9,511.5,658,512.3,653.9 M560,277.9H162.7c0,0,0,0,0,0v499.5c0,0,0,0,0,0h107c0,0,0,0,0,0
		V621.1c0,0,0,0,0,0H352c0,0,0.1,0,0.1,0v156.4c0,0,0,0,0,0h17c0,0,0,0,0,0V621.1c0,0,0,0,0.1,0h82.2c0,0,0,0,0,0v156.4c0,0,0,0,0,0
		H560c0,0,0,0,0,0L560,277.9C560,277.9,560,277.9,560,277.9 M525.9,689.3C525.9,689.3,525.9,689.3,525.9,689.3l-58,0c0,0,0,0,0,0
		v-57.9c0,0,0,0,0,0h57.9c0,0,0,0,0,0V689.3z M282.4,476.5C282.4,476.5,282.3,476.5,282.4,476.5l-58,0c0,0,0,0,0,0v-57.9
		c0,0,0,0,0,0h57.9c0,0,0,0,0,0V476.5z M390.4,476.5C390.4,476.5,390.4,476.5,390.4,476.5l-58,0c0,0-0.1,0-0.1,0v-57.9
		c0,0,0,0,0.1,0h57.9c0,0,0,0,0,0V476.5z M504.2,476.5C504.2,476.5,504.2,476.5,504.2,476.5l-58,0c0,0,0,0,0,0v-57.9c0,0,0,0,0,0
		h57.9c0,0,0,0,0,0V476.5z M507.3,638.7c-4,0-6.6,1-8.1,1.9c-0.7,0.4-1.5,0.6-2.2,0.6s-1.5-0.2-2.2-0.6c-1.5-0.9-4.1-1.9-8.1-1.9
		c-5.9,0-6.1,10.3-5,15.3c0.8,4.1,3.5,6,4.3,8.4c1.7,5.3-1.9,3.8,0.2,12.2c2.1,8.4,2.7,10.8,6.2,1.2c2.6-7.2,4.3-8,4.7-8.1h0
		c0.4,0.1,2.1,1,4.7,8.1c3.5,9.6,4.1,7.2,6.2-1.2c2.1-8.3-1.5-6.9,0.2-12.2c0.8-2.4,3.4-4.3,4.3-8.4
		C513.3,649,513.2,638.7,507.3,638.7 M512.3,653.9c1-5,0.9-15.3-5-15.3c-4,0-6.6,1-8.1,1.9c-0.7,0.4-1.5,0.6-2.2,0.6
		s-1.5-0.2-2.2-0.6c-1.5-0.9-4.1-1.9-8.1-1.9c-5.9,0-6.1,10.3-5,15.3c0.8,4.1,3.5,6,4.3,8.4c1.7,5.3-1.9,3.8,0.2,12.2
		c2.1,8.4,2.7,10.8,6.2,1.2c2.6-7.2,4.3-8,4.7-8.1h0c0.4,0.1,2.1,1,4.7,8.1c3.5,9.6,4.1,7.2,6.2-1.2c2.1-8.3-1.5-6.9,0.2-12.2
		C508.8,659.9,511.5,658,512.3,653.9 M512.3,653.9c1-5,0.9-15.3-5-15.3c-4,0-6.6,1-8.1,1.9c-0.7,0.4-1.5,0.6-2.2,0.6
		s-1.5-0.2-2.2-0.6c-1.5-0.9-4.1-1.9-8.1-1.9c-5.9,0-6.1,10.3-5,15.3c0.8,4.1,3.5,6,4.3,8.4c1.7,5.3-1.9,3.8,0.2,12.2
		c2.1,8.4,2.7,10.8,6.2,1.2c2.6-7.2,4.3-8,4.7-8.1h0c0.4,0.1,2.1,1,4.7,8.1c3.5,9.6,4.1,7.2,6.2-1.2c2.1-8.3-1.5-6.9,0.2-12.2
		C508.8,659.9,511.5,658,512.3,653.9 M560.1,0H162.7c0,0-0.1,0-0.1,0v193.6c0,0,0,0,0.1,0h397.4c0,0,0,0,0,0L560.1,0
		C560.1,0,560.1,0,560.1,0 M411.9,76c-2.7,13.4-11.4,19.6-14,27.5c-5.6,17.3,6.2,12.6-0.7,40c-6.9,27.5-8.9,35.5-20.3,3.9
		c-8.5-23.7-14.2-26.4-15.4-26.7h0c-1.2,0.3-6.9,3-15.4,26.7c-11.4,31.6-13.6,23.6-20.4-3.9c-6.9-27.4,4.9-22.7-0.7-40
		c-2.6-7.9-11.3-14.1-14-27.5c-3.3-16.4-2.9-50.2,16.6-50.2c13.1,0,21.5,3.3,26.5,6.2c2.3,1.3,4.9,1.9,7.4,1.9c2.5,0,5-0.6,7.4-1.9
		c5.1-2.9,13.4-6.2,26.6-6.2C414.8,25.8,415.2,59.7,411.9,76 M568.6,213.7H154.2c-1.8,0-3.6-0.6-4.9-1.6v46.1h422.3v-45
		C570.6,213.6,569.7,213.7,568.6,213.7"/>
	<path fill="#888888" class="st0" d="M9.4,410.9L9.4,410.9c-5.3,0.5-9.4,5-9.4,10.4v62.8h136v-73.2l-125.6,0C10.1,410.9,9.7,410.9,9.4,410.9
		L9.4,410.9z"/>
	<path fill="#888888" class="st0" d="M10.4,505v303.3l0,0c0,2.8,1.1,5.5,3.1,7.4c2,2,4.7,3.1,7.4,3.1H136V505H10.4z M94.1,662H52.3V557.3h41.8V662z
		"/>
	<path fill="#888888" class="st0" d="M705.6,410.9c-0.3,0-0.7,0-1,0l-125.6,0v73.2h136v-62.8C715,416,710.9,411.5,705.6,410.9L705.6,410.9
		L705.6,410.9z"/>
	<path fill="#888888" class="st0" d="M579,505v313.8h115.1c2.8,0,5.5-1.1,7.4-3.1c2-2,3.1-4.7,3.1-7.4l0,0V505H579z M620.9,557.3h41.8V662h-41.8
		V557.3z"/>
</g>
</svg>
