<?xml version="1.0" encoding="utf-8"?>
<!-- Generator: Adobe Illustrator 19.0.0, SVG Export Plug-In . SVG Version: 6.00 Build 0)  -->
<svg version="1.1" id="Layer_1" xmlns="http://www.w3.org/2000/svg" xmlns:xlink="http://www.w3.org/1999/xlink" x="0px" y="0px"
	 viewBox="0 0 531.8 485" style="enable-background:new 0 0 531.8 485;" xml:space="preserve">
<style type="text/css">
	.st0{clip-path:url(#SVGID_2_);}
</style>
<g>
	<defs>
		<rect id="SVGID_1_" width="531.8" height="485"/>
	</defs>
	<clipPath id="SVGID_2_">
		<use xlink:href="#SVGID_1_"  style="overflow:visible;"/>
	</clipPath>
	<path fill="#ff8383" class="st0" d="M242.5,130.5c-11.8,0-21.8,9.5-21.8,21.8l0.6,90.2c0,5.6,2.2,11.2,6.2,15.1l54.3,54.3
		c4.5,4.5,9.5,6.2,15.1,6.2c5.6,0,11.2-2.2,15.1-6.2c8.4-8.4,8.4-22.4,0-30.8L263.8,233v-81.2C264.3,140,254.8,130.5,242.5,130.5z"
		/>
	<path fill="#ff8383" class="st0" d="M529.8,227.9c-2.8-5-7.8-7.8-13.4-7.8h-31.9C473.2,96.9,369,0,242.5,0C108.6,0,0,108.6,0,242.5
		S108.6,485,242.5,485c65,0,125.4-25.2,170.8-70.6c3.4-2.8,5.6-7.3,6.7-11.8c1.7-7.3-0.6-14.6-6.2-19.6l-32.5-32.5
		c-8.4-8.4-22.4-8.4-30.8,0c-8.4,8.4-8.4,22.4,0,30.8l16.2,16.2c-29.7,24.1-65,38.6-103,42.6v-23c0-11.8-9.5-21.8-21.8-21.8
		c-12.3,0-20.7,10.1-20.7,22.4v23c-38.6-4.5-73.9-19.6-103-42.6l16.2-16.2c8.4-8.4,8.4-22.4,0-30.8c-8.4-8.4-22.4-8.4-30.8,0
		l-16.2,16.2c-23-29.1-38.6-64.4-42.6-103h23c11.8,0,21.8-9.5,21.8-21.8c0-12.3-9.5-21.8-21.8-21.8h-23c3.9-38.6,19.6-73.9,42.6-103
		l16.2,16.2c4.5,4.5,9.5,6.2,15.1,6.2c5.6,0,11.2-2.2,15.1-6.2c8.4-8.4,8.4-22.4,0-30.8l-16.2-16.2c29.1-23,64.4-38.6,103-42.6v23
		c0,11.8,9.5,21.8,21.8,21.8c12.3,0,21.8-9.5,21.8-21.8v-23c38.6,3.9,73.9,19.6,103,42.6L351.1,103c-8.4,8.4-8.4,22.4,0,30.8
		c4.5,4.5,9.5,6.2,15.1,6.2c5.6,0,11.2-2.2,15.1-6.2l16.2-16.2c23,28.6,38.6,63.8,42.6,102.5h-29.7c-5.6,0-10.6,2.8-13.4,7.8
		c-2.8,5-2.8,10.6,0,15.7l52.6,91.8c2.8,5,7.8,7.8,13.4,7.8c5.6,0,10.6-2.8,13.4-7.8l52.6-91.8C532.6,239.1,532.6,233,529.8,227.9
		L529.8,227.9z"/>
</g>
</svg>
