<?xml version="1.0" encoding="utf-8"?>
<!-- Generator: Adobe Illustrator 19.0.0, SVG Export Plug-In . SVG Version: 6.00 Build 0)  -->
<svg version="1.1" id="Layer_1" xmlns="http://www.w3.org/2000/svg" xmlns:xlink="http://www.w3.org/1999/xlink" x="0px" y="0px"
	 viewBox="0 0 238.2 238.2" style="enable-background:new 0 0 238.2 238.2;" xml:space="preserve">
<style type="text/css">
	.st0{clip-path:url(#SVGID_2_);fill:#386EB8;}
</style>
<g>
	<defs>
		<rect id="SVGID_1_" width="238.2" height="238.2"/>
	</defs>
	<clipPath id="SVGID_2_">
		<use xlink:href="#SVGID_1_"  style="overflow:visible;"/>
	</clipPath>
	<path class="st0" d="M8.2,8.2c10.9-10.9,28.7-10.9,39.6,0l71.3,71.3l71.3-71.3C201.3-2.7,219-2.7,230,8.2
		c10.9,10.9,10.9,28.7,0,39.6l-71.3,71.3l71.3,71.3c10.9,10.9,10.9,28.7,0,39.6s-28.7,10.9-39.6,0l-71.3-71.3l-71.3,71.3
		c-10.9,10.9-28.7,10.9-39.6,0c-10.9-10.9-10.9-28.7,0-39.6l71.3-71.3L8.2,47.8C-2.7,36.9-2.7,19.1,8.2,8.2L8.2,8.2z"/>
</g>
</svg>
