<?xml version="1.0" encoding="utf-8"?>
<!-- Generator: Adobe Illustrator 23.1.0, SVG Export Plug-In . SVG Version: 6.00 Build 0)  -->
<!DOCTYPE svg PUBLIC "-//W3C//DTD SVG 1.1//EN" "http://www.w3.org/Graphics/SVG/1.1/DTD/svg11.dtd" [
	<!ENTITY ns_extend "http://ns.adobe.com/Extensibility/1.0/">
	<!ENTITY ns_ai "http://ns.adobe.com/AdobeIllustrator/10.0/">
	<!ENTITY ns_graphs "http://ns.adobe.com/Graphs/1.0/">
	<!ENTITY ns_vars "http://ns.adobe.com/Variables/1.0/">
	<!ENTITY ns_imrep "http://ns.adobe.com/ImageReplacement/1.0/">
	<!ENTITY ns_sfw "http://ns.adobe.com/SaveForWeb/1.0/">
	<!ENTITY ns_custom "http://ns.adobe.com/GenericCustomNamespace/1.0/">
	<!ENTITY ns_adobe_xpath "http://ns.adobe.com/XPath/1.0/">
]>
<svg version="1.1" id="Layer_1" xmlns:x="&ns_extend;" xmlns:i="&ns_ai;" xmlns:graph="&ns_graphs;"
	 xmlns="http://www.w3.org/2000/svg" xmlns:xlink="http://www.w3.org/1999/xlink" x="0px" y="0px" viewBox="0 0 1920 133"
	 style="enable-background:new 0 0 1920 133;" xml:space="preserve">
<style type="text/css">
	.st0{fill:#FFFFFF;}
</style>
<metadata>
	<sfw  xmlns="&ns_sfw;">
		<slices></slices>
		<sliceSourceBounds  bottomLeftOrigin="true" height="133" width="1920" x="-448" y="787.6"></sliceSourceBounds>
	</sfw>
</metadata>
<g>
	<path class="st0" d="M0,0c18.1,11.5,35.9,23.6,54.3,34.5c202.2,119,455.7,81.4,666.4,12.8C921.4-18,1073,0,1257.3,40.2
		c131.1,28.6,262.4,65.5,395.2,82.8c26.8,3.5,56,5.8,83.9,8.2c1.6,0.1,3.1,1.2,4.6,1.8c-580.3,0-1160.7,0-1741,0C0,88.7,0,44.3,0,0z
		"/>
	<path class="st0" d="M1725.8,133c-8.2-4,122.9-1.6,124.3-1.8c17.2-1.4,34.4-2.7,51.7-4.1c6.1-0.5,12.2-1.4,18.3-2.1
		c0,2.7,0,5.3,0,8C1895.3,133,1750.5,133,1725.8,133z"/>
</g>
</svg>
