<?xml version="1.0" encoding="utf-8"?>
<!-- Generator: Adobe Illustrator 19.0.0, SVG Export Plug-In . SVG Version: 6.00 Build 0)  -->
<svg version="1.1" id="Layer_1" xmlns="http://www.w3.org/2000/svg" xmlns:xlink="http://www.w3.org/1999/xlink" x="0px" y="0px"
	 viewBox="0 0 420 495.9" style="enable-background:new 0 0 420 495.9;" xml:space="preserve">
<style type="text/css">
	.st0{clip-path:url(#SVGID_2_);}
</style>
<g>
	<defs>
		<rect id="SVGID_1_" width="420" height="495.9"/>
	</defs>
	<clipPath id="SVGID_2_">
		<use xlink:href="#SVGID_1_"  style="overflow:visible;"/>
	</clipPath>
	<path class="st0" fill="#0084d1" d="M190.4,0L190.4,0c-0.3,0-0.6,0-0.9,0c-4-0.1-8.1-0.1-12.6,0.2C140.3,3,108.6,11.1,89.5,33.8
		c-17.4,20.6-21.9,51.8-11.6,95.7c-0.7-0.1-1.8-0.2-2-0.2c-0.7-0.1-1.4-0.1-2.1,0c-2.2,0.2-4.5,1.2-5.8,2.4
		c-1.8,1.7-2.5,3.3-2.9,4.5c-0.9,2.5-0.9,4.3-0.9,6.4c0,4.1,0.5,8.8,1.4,13.9c1.9,10.2,5,21.5,10.5,29.8c3.6,6,7.9,10.4,13,12.7
		c2.1,1,4.3,1.4,6.4,1.7c6.5,23.6,21.9,45.6,39.2,64c1.5,1.6,3,3.3,4.5,4.8c1.8,1.9,3.7,3.6,5.6,5.3c0.3,0.3,0.6,0.6,0.9,0.9
		c4.3,4,8.6,7.8,12.9,11.3l-7,16.4h-73C35.3,303.4,0,338.6,0,382.1v87.5c0,4.8,3.9,8.7,8.7,8.7H44l-0.3,8.5
		c-0.1,2.4,0.8,4.7,2.5,6.4c1.7,1.7,3.9,2.6,6.3,2.6h314.9c2.3,0,4.6-0.9,6.2-2.5c1.6-1.6,2.6-3.9,2.6-6.2v-8.8h35v0
		c4.8,0,8.7-3.9,8.7-8.7v-87.5c0-43.5-35.3-78.8-78.7-78.8h-73l-7.5-17.6c4.4-3.6,8.9-7.6,13.3-11.8c0.1-0.1,0.1-0.1,0.2-0.2
		c0.1-0.1,0.2-0.2,0.3-0.3c2.1-2,4.2-3.9,6.2-6c1.5-1.5,2.9-3.1,4.3-4.6c14.8-15.7,28.2-33.7,36-52.6c8.6-2.9,17.6-6.6,23.2-14.9
		c5.7-8.4,8.6-20,9.9-30.7c0.6-5.4,0.8-10.4-0.2-15.2c-0.5-2.4-1.3-4.9-3.2-7.4c-1.8-2.3-5.3-4.1-8.8-4.5c-0.5,0-1.3-0.5-1.7-0.5
		c-1.1,0.1-1.8,0.2-2.4,0.4c1.6-27,2.3-58.8,0-84.8c-1.4-15.4-3.5-28.5-8.2-38.4c-2.3-4.9-5.4-9.5-10.7-12.1
		c-5.3-2.6-12.2-1.7-17.3,1.2l0,0c-0.3,0.2-0.6,0.4-0.9,0.6c-16.9,13-28.5,19-36.3,21c-7.8,2-11.6,0.9-17.1-1.9
		C236.8,17.4,221.7,1.4,190.4,0L190.4,0z M287.1,78c1.7,9,3.9,18.4,8,31.3c0,0.1,0.1,0.3,0.1,0.4c5.2,16.2,11.1,33.3,15.4,46.2v0
		l0.3,21.4c0,12.6-5.5,27.1-14.1,41.4c-2.7-11.6-13.2-20.4-25.5-20.4l-122.5,0c-12.8,0-23.6,9.4-25.8,21.6
		c-8.1-14.3-13.3-29-13.3-42.7v-19.7c0-9.7,0.3-22.8,1.6-33.1c0.2-1.7,0.5-3.1,0.7-4.6c0.3-1.6,0.6-3.1,0.9-4.4
		c0.1-0.4,0.2-0.8,0.3-1.1c0.3-1.1,0.6-2.1,0.9-2.8c0.2-0.4,0.4-0.9,0.5-1c4.2-1,16.6-3.6,33.6-6.8c17.9-3.4,40.2-7.6,62-11.6
		C249.5,84.7,280.5,79.1,287.1,78L287.1,78z M166.3,137.1c-7.3,0-12.9,3.1-16.9,5.8c-4,2.7-6.8,5.5-6.8,5.5l12.3,12.4
		c0,0,1.6-1.6,4.1-3.3c2.5-1.7,5.8-2.9,7.2-2.9s4.6,1.2,7.2,2.9c2.5,1.7,4.1,3.3,4.1,3.3l12.3-12.4c0,0-2.8-2.8-6.8-5.5
		C179.1,140.2,173.6,137.1,166.3,137.1L166.3,137.1z M253.7,137.1c-1.8,0-3.5,0.2-5.1,0.5c-4.8,1-8.7,3.3-11.7,5.3
		c-4,2.7-6.8,5.5-6.8,5.5l12.3,12.4c0,0,1.6-1.6,4.1-3.3c2.5-1.7,5.7-2.9,7.2-2.9s4.6,1.2,7.2,2.9c2.5,1.7,4.1,3.3,4.1,3.3
		l12.4-12.4c0,0-2.8-2.8-6.8-5.5C266.6,140.2,261,137.1,253.7,137.1L253.7,137.1z M82.2,147.8c0.6,0.1,0.5,0.1,1.2,0.2
		c3.9,0.9,6.8,2.4,8.8,3.6v25.7c0,0.4,0,0.9,0.1,1.3c-0.5-0.6-0.7-0.4-1.2-1.3h0c-0.1-0.2-0.2-0.3-0.3-0.5
		c-2.5-3.7-6.2-14.5-7.8-23.3C82.4,151.1,82.4,149.7,82.2,147.8L82.2,147.8z M336.8,157c0,1.8,0.3,3.2,0,5.6c-1,8.5-4.5,19.2-7,22.9
		c-0.2,0.3-1.4,0.8-2.2,1.2c0.4-3.1,0.7-6.3,0.7-9.4v-16.2c2.5-1.1,4.9-2.3,7.2-3.5C336.1,157.4,336.4,157.2,336.8,157L336.8,157z
		 M246.3,296.5l6.3,14.7L210,375.1l-42.6-63.9l5.8-13.7c1.3,0.8,2.6,1.8,3.9,2.6c0.2,0.1,0.3,0.2,0.5,0.3c0.6,0.4,1.1,0.6,1.7,1
		c2.8,1.7,5.6,3.2,8.2,4.6c0.3,0.2,0.7,0.3,1,0.5c2.9,1.4,5.7,2.6,8.4,3.6c0,0,0.1,0,0.1,0c4.4,1.5,8.7,2.5,13,2.4
		c3.4-0.1,6.8-0.9,10.3-2c0,0,0.1,0,0.1,0c3.3-1.1,6.8-2.6,10.3-4.4c0.4-0.2,0.7-0.4,1.1-0.6c2.6-1.4,5.4-3,8.2-4.8
		c0.6-0.4,1.2-0.7,1.8-1.1c0.4-0.2,0.7-0.4,1.1-0.6C244,298.2,245.2,297.3,246.3,296.5L246.3,296.5z M271.2,417.1h61.2v17.5h-61.2
		V417.1z"/>
</g>
</svg>
