<?xml version="1.0" encoding="utf-8"?>
<!-- Generator: Adobe Illustrator 19.0.0, SVG Export Plug-In . SVG Version: 6.00 Build 0)  -->
<svg version="1.1" id="Layer_1" xmlns="http://www.w3.org/2000/svg" xmlns:xlink="http://www.w3.org/1999/xlink" x="0px" y="0px"
	 viewBox="0 0 474.5 566.2" style="enable-background:new 0 0 474.5 566.2;" xml:space="preserve">
<style type="text/css">
	.st0{clip-path:url(#SVGID_2_);fill:#0564C6;}
</style>
<g>
	<defs>
		<rect id="SVGID_1_" width="474.5" height="566.2"/>
	</defs>
	<clipPath id="SVGID_2_">
		<use xlink:href="#SVGID_1_"  style="overflow:visible;"/>
	</clipPath>
	<path class="st0" d="M67.4,561.6c-34.7,0-62.9-28.2-62.9-62.9V290.6c0-33.3,23.7-67.1,54-77.1l43.1-14.2
		c3.6-28,15.7-53.8,34.9-74.8c19.3-21.1,44.2-35.4,72-41.4c22.6-47.8,71.1-78.6,124.1-78.6c75.7,0,137.3,61.6,137.3,137.3
		c0,34.5-12.6,67-35.7,92.4c21.3,10.5,35.2,32.4,35.2,56.4v208.1c0,34.7-28.2,62.9-62.9,62.9H67.4z M315.6,361.1
		c-8.8,0-15.9,7.1-15.9,15.9v35.4c0,8.8,7.1,15.9,15.9,15.9h112.2c8.8,0,15.9-7.1,15.9-15.9V377c0-8.8-7.1-15.9-15.9-15.9H315.6z
		 M126.9,229.2c0.6,0.7,1,1.6,1.1,2.6c0.5,5.5,1.5,10.9,2.8,16.1c12.5,49.2,56.7,83.6,107.5,83.6c50.8,0,95.1-34.4,107.5-83.6
		c2.3-8.9,3.4-18,3.4-27.3c0-0.4,0-0.8,0-1.2c0-0.1,0-0.3,0-0.3c0-0.6,0-1.2,0-1.8c0-61.5-50-111.5-111.5-111.5
		c-3.4,0-6.8,0.2-10.1,0.5c-57.8,5.2-101.4,52.9-101.4,111.1c0,3.7,0.2,7.2,0.5,10.5L126.9,229.2z M100.9,227.7c0-0.3,0-0.6-0.1-1
		l-2.9,1H100.9z M403.8,227.7c25.7-21.3,40.4-52.5,40.4-85.9c0-61.5-50-111.5-111.5-111.5c-37.4,0-72.3,18.9-92.9,49.7
		c74.8,1.1,135.3,62.3,135.3,137.3c0,3.3-0.1,6.6-0.4,10.4H403.8z"/>
	<path class="st0" d="M332.7,9c73.3,0,132.8,59.5,132.8,132.8c0,35.3-14,69-39,93.9c22.9,8.4,38.4,30.3,38.4,54.9v208.1
		c0,32.1-26.3,58.4-58.4,58.4H67.4C35.3,557.2,9,530.9,9,498.8V290.6c0-30.4,22.1-63.3,50.9-72.8l45.9-15.1
		c6.3-57.5,49.4-104.4,105.9-115.7C233.3,39.6,280.6,9,332.7,9 M231.7,84.7c2-0.1,4.1-0.1,6.1-0.1c73.3,0,132.8,59.5,132.8,132.8
		c0,5-0.4,9.9-0.9,14.9h35.7c27.5-22.1,43.3-55.1,43.3-90.4c0-64.1-51.9-116-116-116C290.8,25.8,252.4,48.2,231.7,84.7 M122.7,232.2
		h0.8c0.6,5.7,1.6,11.4,2.9,16.8H67.4c-22.9,0-41.6,18.7-41.6,41.6v208.1c0,22.9,18.7,41.6,41.6,41.6h339.2
		c22.9,0,41.6-18.7,41.6-41.6v-49.2H291.9c-4.6,0-8.4-3.8-8.4-8.4v-93c0-4.6,3.8-8.4,8.4-8.4h-4.2c-4.6,0-8.4,3.8-8.4,8.4
		c0-4.6,3.8-8.4,8.4-8.4h4.2l70.6,0h85.8v-49.2c0-22.9-18.7-41.6-41.6-41.6h-56.3c2.3-9.1,3.5-18.6,3.5-28.4c0-0.5,0-0.9,0-1.4
		c0,0,0,0,0-0.1c0-0.6,0-1.2,0-1.8c0-64.1-51.9-116-116-116c-3.5,0-7.1,0.2-10.5,0.5c-59.1,5.3-105.5,55-105.5,115.5
		c0,3.9,0.2,7.5,0.5,10.9L122.7,232.2 M69.8,232.2h36l-0.3-2.4c-0.3-3.1-0.5-6.2-0.6-9.2L69.8,232.2 M315.6,432.8h112.2
		c11.3,0,20.4-9.1,20.4-20.4V377c0-11.3-9.1-20.4-20.4-20.4H315.6c-11.3,0-20.4,9.1-20.4,20.4v35.4
		C295.2,423.7,304.3,432.8,315.6,432.8 M406.6,249c22.9,0,41.6,18.7,41.6,41.6v49.2h-85.8l-70.6,0h-4.2c-4.6,0-8.4,3.8-8.4,8.4v93
		c0,4.6,3.8,8.4,8.4,8.4h4.2h156.4v49.2c0,22.8-18.7,41.6-41.6,41.6H67.4c-22.9,0-41.6-18.7-41.6-41.6V290.6
		c0-22.9,18.7-41.6,41.6-41.6h59.1c12.7,50,58,87,111.9,87s99.2-37,111.9-87H406.6 M350.3,249c-12.6,50-57.9,87-111.9,87
		s-99.2-37-111.9-87c12.7,50,58,87,111.9,87S337.6,299,350.3,249 M279.3,348.2v93c0,4.6,3.8,8.4,8.4,8.4h4.2h-4.2
		c-4.6,0-8.4-3.8-8.4-8.4V348.2 M332.7,0c-54,0-103.5,30.9-127.2,79.2c-27.8,6.5-52.7,21-72.2,42.3c-19.2,21-31.5,46.6-35.7,74.5
		l-40.5,13.3c-15.7,5.1-30.2,16.5-40.9,32C5.8,256.4,0,273.9,0,290.6v208.1c0,37.2,30.2,67.4,67.4,67.4h339.2
		c37.2,0,67.4-30.2,67.4-67.4V290.6c0-23.8-12.7-45.6-32.6-57.7c9.3-11,16.8-23.4,22.4-36.8c7.2-17.3,10.8-35.6,10.8-54.3
		c0-37.9-14.8-73.5-41.5-100.3C406.2,14.8,370.6,0,332.7,0 M248.4,75.9c20.1-25.7,51.2-41.1,84.3-41.1c59,0,107,48,107,107
		c0,31.5-13.6,61-37.5,81.4h-22.7c0.1-2,0.1-4,0.1-5.9C379.6,142.7,321.7,81.3,248.4,75.9 M131.2,227.3c-0.3-3.1-0.4-6.5-0.4-10
		c0-55.8,41.8-101.6,97.3-106.6c3.2-0.3,6.5-0.4,9.7-0.4c59,0,107,48,107,107c0,0.6,0,1.1,0,1.7c0,0.1,0,0.1,0,0.2
		c0,0.1,0,0.3,0,0.4c0,0.3,0,0.7,0,1c0,8.9-1.1,17.7-3.2,26.2c0,0,0,0,0,0c0,0,0,0,0,0C329.6,294,287.2,327,238.4,327
		c-48.8,0-91.2-33-103.2-80.2c0,0,0,0,0,0c-1.3-5-2.2-10.2-2.7-15.5c-0.1-1.4-0.6-2.7-1.3-3.8L131.2,227.3z M291.9,348.8
		L291.9,348.8L291.9,348.8z M315.6,423.8c-6.3,0-11.4-5.1-11.4-11.4V377c0-6.3,5.1-11.4,11.4-11.4h112.2c6.3,0,11.4,5.1,11.4,11.4
		v35.4c0,6.3-5.1,11.4-11.4,11.4H315.6z"/>
	<path class="st0" d="M193.3,246.7l-20.6,34.8c0,0,8.2,11.4,32,20.6l11.7-32l7.8-21.3l8.2-23.8l2.9-7.8l0.4-0.7c0,0,0-0.4,0.4-0.4
		l0.4-0.4h0.4h0.4h0.4l0.4,0.7l0.7,2.1l1.4,4.6l5.7,17l5,14.9l7.5,23.1l5.7,16.4l3.2,8.9c0,0,18.8-5.3,34.5-21l-11.4-17l-7.5-12.8
		l-7.5-14.9l-6.4-13.1l-5-11.7l-4.3-11.7l-3.9-11.4l-3.9-13.5l-3.9-13.9l-3.5-13.5l-3.9-14.9l-2.9-7.5l-4.3,14.2l-6,19.9l-4.9,15.2
		l-5.7,17l-5,13.9l-5.7,13.5l-6,12.8L193.3,246.7z"/>
	<path class="st0" d="M409.5,375c-10.9,0-19.7,8.8-19.7,19.7s8.8,19.7,19.7,19.7c10.9,0,19.7-8.8,19.7-19.7S420.4,375,409.5,375"/>
</g>
</svg>
