<?xml version="1.0" encoding="utf-8"?>
<!-- Generator: Adobe Illustrator 19.0.0, SVG Export Plug-In . SVG Version: 6.00 Build 0)  -->
<svg version="1.1" id="Layer_1" xmlns="http://www.w3.org/2000/svg" xmlns:xlink="http://www.w3.org/1999/xlink" x="0px" y="0px"
	 viewBox="0 0 152.3 145.1" style="enable-background:new 0 0 152.3 145.1;" xml:space="preserve">
<style type="text/css">
	.st0{fill:#0564C6;}
</style>
<polygon class="st0" points="69.4,0 69.4,18 100.4,35.9 113.8,25.8 "/>
<polygon class="st0" points="60.3,0 4.5,32.2 20.5,41.5 60.3,18 "/>
<polygon class="st0" points="0,103.8 15.4,94.7 15.4,49.2 0,40.1 "/>
<polygon class="st0" points="3.5,111.9 60.2,145.1 60.2,126.7 18.9,103.1 "/>
<polygon class="st0" points="69.5,127 69.5,145.1 126.6,112.1 110.8,102.9 "/>
<polygon class="st0" points="129.7,47.4 129.7,103.5 114.2,94.4 114.2,64.5 "/>
<polygon class="st0" points="66,75.4 51.3,60.6 36.9,75.1 65.6,104.6 152.3,7.9 "/>
</svg>
