<?xml version="1.0" encoding="utf-8"?>
<!-- Generator: Adobe Illustrator 19.0.0, SVG Export Plug-In . SVG Version: 6.00 Build 0)  -->
<svg version="1.1" id="Layer_1" xmlns="http://www.w3.org/2000/svg" xmlns:xlink="http://www.w3.org/1999/xlink" x="0px" y="0px"
	 viewBox="0 0 404.2 491" style="enable-background:new 0 0 404.2 491;" xml:space="preserve">
<style type="text/css">
	.st0{clip-path:url(#SVGID_2_);fill:#0564C6;}
</style>
<g>
	<defs>
		<rect id="SVGID_1_" width="404.2" height="491"/>
	</defs>
	<clipPath id="SVGID_2_">
		<use xlink:href="#SVGID_1_"  style="overflow:visible;"/>
	</clipPath>
	<path class="st0" d="M290.2,321.6c22.8,0.6,26.6,88.8,53.8,88.8c17.2,0,28.3-22.2,30.5-79.4c2.2-57.2,39.4-69.9,27.2-136.5
		c-12.2-66.6-91-27.4-111.5-27.4c-20.5,0-99.3-39.2-111.5,27.4c-12.2,66.6,25,79.4,27.2,136.5c2.2,57.2,13.3,79.4,30.5,79.4
		C263.6,410.4,267.5,322.1,290.2,321.6"/>
	<path class="st0" d="M302,125.5c0,4-0.2,8-0.6,12c-4.2,1.1-9,2.3-11.2,2.6c-2.6-0.4-8.8-1.9-13.4-3.1c-25.4-6.5-63.8-16.3-93.8,3
		c-16.3,10.5-26.7,27.2-30.8,49.7c-4.5,24.4-3.3,43.3,0.3,59.1C94.6,237.5,51,186.6,51,125.5C51,56.2,107.2,0,176.5,0
		S302,56.2,302,125.5"/>
	<path class="st0" d="M353,436.5v33.8c0,11.4-9.3,20.7-20.8,20.7H20.8C9.3,491,0,481.7,0,470.2v-96.5c0-55.6,33.9-109.5,82.1-133.4
		c21.8,18,48.9,29.8,78.5,33c1.7,4.2,3.6,8.2,5.3,12.1c6.6,14.7,12.3,27.4,13.1,46.6c1.2,31.2,5,54.2,11.6,70.3
		c12.5,30.5,34.1,35,45.9,35c11.8,0,28.5-5.1,41.2-29.4c5.1-9.7,8.9-20.9,12.6-32.1c3.6,11.2,7.5,22.4,12.6,32.1
		c12.8,24.3,29.5,29.4,41.2,29.4C346.6,437.3,349.7,437.1,353,436.5"/>
</g>
</svg>
