<?xml version="1.0" encoding="utf-8"?>
<!-- Generator: Adobe Illustrator 19.0.0, SVG Export Plug-In . SVG Version: 6.00 Build 0)  -->
<svg version="1.1" id="Layer_1" xmlns="http://www.w3.org/2000/svg" xmlns:xlink="http://www.w3.org/1999/xlink" x="0px" y="0px"
	 viewBox="0 0 500.2 545.5" style="enable-background:new 0 0 500.2 545.5;" xml:space="preserve">
<style type="text/css">
	.st0{clip-path:url(#SVGID_2_);fill:#0564C6;}
</style>
<g>
	<defs>
		<rect id="SVGID_1_" width="500.2" height="545.5"/>
	</defs>
	<clipPath id="SVGID_2_">
		<use xlink:href="#SVGID_1_"  style="overflow:visible;"/>
	</clipPath>
	<path class="st0" d="M488.9,194.9h-36.4c-5.6-23-13.4-42.6-26.9-61.6l30.8-30.8c1.7-1.7,3.9-5.6,3.9-7.8c0-3.9-1.7-5.6-3.9-7.8
		l-40.3-40.3c-3.9-3.9-11.8-3.9-17.4,0L368,77.3c-17.4-11.8-36.4-19-56-25.2l0-40.3C312,6.2,306.4,0,300.2,0l-57.7,0
		c-5.6,0-11.8,5.6-11.8,11.8v38.6c-21.3,3.9-40.3,13.4-57.7,23l-33-33c-3.9-3.9-11.8-3.9-17.4,0L82.4,80.6c-1.7,1.7-3.9,5.6-3.9,7.8
		c0,1.7,1.7,5.6,3.9,7.8l33,33c-11.8,19-21.3,40.3-26.9,63.8h-37c-5.6,0-11.8,5.6-11.8,11.8v57.7c0,5.6,5.6,11.8,11.8,11.8H88
		c3.4,19.6,12.3,37.5,20.7,53.8l29.7-35.8c-7.8-17.9-12.3-38.1-12.3-58.8c0-80.1,65-145,145-145s145,65,145,145s-65,145-145,145
		c-14,0-28-2.2-40.9-5.6l-28,33.6c9,3.4,18.5,6.2,28,8.4v33c0,5.6,5.6,11.8,11.8,11.8h57.7c5.6,0,11.8-5.6,11.8-11.8v-34.7
		c23-5.6,42.6-13.4,61.6-26.9l25.2,25.2c1.7,1.7,5.6,3.9,7.8,3.9s5.6-1.7,7.8-3.9l40.3-40.3c1.7-1.7,3.9-5.6,3.9-7.8
		c0-3.9-1.7-5.6-3.9-7.8L429,330.4c11.8-17.4,19-36.4,23-57.7h36.4c5.6,0,11.8-5.6,11.8-11.8l0-58.2
		C500.7,201,496.8,194.9,488.9,194.9L488.9,194.9z"/>
	<path class="st0" d="M384.8,221.2c-1.7-18.5-7.8-36.4-19-52.1l-70,82.9l-45.9-38.1l70-82.3c-16.2-6.7-33.6-9.5-51-8.4
		c-58.8,5-103,57.1-98,115.9c1.1,11.8,3.9,23.5,9,34.7l0.6,1.1L10.1,476c-7.3,8.4-10.6,19.6-10.1,30.8c1.1,11.2,6.2,21.3,14.6,28.6
		c8.4,7.3,19.6,10.6,30.8,10.1c11.2-1.1,21.3-6.2,28.6-14.6l168-198.8l1.7,0.6c14,4.5,28.6,6.2,43.1,5
		C345.6,332.6,389.8,280.6,384.8,221.2L384.8,221.2z M44.3,515.8c-8.4,0.6-15.1-5.6-15.7-13.4c-0.6-8.4,5.6-15.1,13.4-15.7
		c8.4-0.6,15.1,5.6,15.7,13.4C58.3,507.9,52.7,515.2,44.3,515.8z"/>
</g>
</svg>
