<?xml version="1.0" encoding="utf-8"?>
<!-- Generator: Adobe Illustrator 19.0.0, SVG Export Plug-In . SVG Version: 6.00 Build 0)  -->
<svg version="1.1" id="Layer_1" xmlns="http://www.w3.org/2000/svg" xmlns:xlink="http://www.w3.org/1999/xlink" x="0px" y="0px"
	 viewBox="0 0 536.7 420" style="enable-background:new 0 0 536.7 420;" xml:space="preserve">
<style type="text/css">
	.st0{clip-path:url(#SVGID_2_);}
</style>
<g>
	<defs>
		<rect id="SVGID_1_" width="536.7" height="420"/>
	</defs>
	<clipPath id="SVGID_2_">
		<use xlink:href="#SVGID_1_"  style="overflow:visible;"/>
	</clipPath>
	<path class="st0" d="M536.7,70c0-6.2-2.5-12.1-6.8-16.5s-10.3-6.8-16.5-6.8h-245c-8.3,0-16,4.4-20.2,11.7c-4.2,7.2-4.2,16.1,0,23.3
		c4.2,7.2,11.9,11.7,20.2,11.7h245c6.2,0,12.1-2.5,16.5-6.8S536.7,76.2,536.7,70"/>
	<path class="st0" d="M23.3,93.3h62.4c7.4,20.9,24.3,37.1,45.5,43.6c21.2,6.5,44.3,2.5,62.1-10.7c17.8-13.2,28.4-34.1,28.4-56.3
		c0-22.2-10.5-43.1-28.4-56.3C175.5,0.5,152.5-3.4,131.3,3.1C110,9.6,93.1,25.7,85.8,46.7H23.3c-8.3,0-16,4.4-20.2,11.7
		s-4.2,16.1,0,23.3S15,93.3,23.3,93.3L23.3,93.3z M151.7,46.7L151.7,46.7c6.2,0,12.1,2.5,16.5,6.8S175,63.8,175,70
		c0,6.2-2.5,12.1-6.8,16.5s-10.3,6.8-16.5,6.8c-6.2,0-12.1-2.5-16.5-6.8c-4.4-4.4-6.8-10.3-6.8-16.5c0-6.2,2.5-12.1,6.8-16.5
		C139.5,49.1,145.5,46.7,151.7,46.7L151.7,46.7z"/>
	<path class="st0" d="M513.3,186.7h-85.7c-7.4-20.9-24.3-37.1-45.5-43.6c-21.2-6.5-44.3-2.5-62.1,10.7
		c-17.8,13.2-28.4,34.1-28.4,56.3s10.5,43.1,28.4,56.3c17.8,13.2,40.9,17.2,62.1,10.7c21.2-6.5,38.1-22.7,45.5-43.6h85.7
		c8.3,0,16-4.4,20.2-11.7c4.2-7.2,4.2-16.1,0-23.3C529.4,191.1,521.7,186.7,513.3,186.7L513.3,186.7z M361.7,233.3
		c-6.2,0-12.1-2.5-16.5-6.8c-4.4-4.4-6.8-10.3-6.8-16.5c0-6.2,2.5-12.1,6.8-16.5c4.4-4.4,10.3-6.8,16.5-6.8c6.2,0,12.1,2.5,16.5,6.8
		s6.8,10.3,6.8,16.5c0,6.2-2.5,12.1-6.8,16.5S367.9,233.3,361.7,233.3"/>
	<path class="st0" d="M245,186.7H23.3c-8.3,0-16,4.4-20.2,11.7c-4.2,7.2-4.2,16.1,0,23.3c4.2,7.2,11.9,11.7,20.2,11.7H245
		c8.3,0,16-4.4,20.2-11.7c4.2-7.2,4.2-16.1,0-23.3C261,191.1,253.3,186.7,245,186.7"/>
	<path class="st0" d="M513.3,326.7H315c-8.3,0-16,4.4-20.2,11.7s-4.2,16.1,0,23.3s11.9,11.7,20.2,11.7h198.3c8.3,0,16-4.4,20.2-11.7
		s4.2-16.1,0-23.3S521.7,326.7,513.3,326.7"/>
	<path class="st0" d="M198.3,280c-14.5,0-28.6,4.5-40.4,12.9c-11.8,8.4-20.7,20.2-25.6,33.8H23.3c-8.3,0-16,4.4-20.2,11.7
		s-4.2,16.1,0,23.3s11.9,11.7,20.2,11.7h109.1c5.7,16.2,17.2,29.8,32.3,38c15.1,8.3,32.7,10.7,49.4,6.8
		c16.8-3.9,31.5-13.8,41.4-27.8c9.9-14.1,14.3-31.3,12.4-48.3c-2-17.1-10.1-32.9-23-44.3C232.1,286.3,215.5,280,198.3,280z
		 M198.3,373.3c-6.2,0-12.1-2.5-16.5-6.8S175,356.2,175,350c0-6.2,2.5-12.1,6.8-16.5s10.3-6.8,16.5-6.8c6.2,0,12.1,2.5,16.5,6.8
		s6.8,10.3,6.8,16.5c0,6.2-2.5,12.1-6.8,16.5S204.5,373.3,198.3,373.3"/>
</g>
</svg>
