<?xml version="1.0" encoding="utf-8"?>
<!-- Generator: Adobe Illustrator 23.0.3, SVG Export Plug-In . SVG Version: 6.00 Build 0)  -->
<!DOCTYPE svg PUBLIC "-//W3C//DTD SVG 1.1//EN" "http://www.w3.org/Graphics/SVG/1.1/DTD/svg11.dtd" [
	<!ENTITY ns_extend "http://ns.adobe.com/Extensibility/1.0/">
	<!ENTITY ns_ai "http://ns.adobe.com/AdobeIllustrator/10.0/">
	<!ENTITY ns_graphs "http://ns.adobe.com/Graphs/1.0/">
	<!ENTITY ns_vars "http://ns.adobe.com/Variables/1.0/">
	<!ENTITY ns_imrep "http://ns.adobe.com/ImageReplacement/1.0/">
	<!ENTITY ns_sfw "http://ns.adobe.com/SaveForWeb/1.0/">
	<!ENTITY ns_custom "http://ns.adobe.com/GenericCustomNamespace/1.0/">
	<!ENTITY ns_adobe_xpath "http://ns.adobe.com/XPath/1.0/">
]>
<svg version="1.1" id="Layer_1" xmlns:x="&ns_extend;" xmlns:i="&ns_ai;" xmlns:graph="&ns_graphs;"
	 xmlns="http://www.w3.org/2000/svg" xmlns:xlink="http://www.w3.org/1999/xlink" x="0px" y="0px" viewBox="0 0 1918 314.5"
	 style="enable-background:new 0 0 1918 314.5;" xml:space="preserve">
<style type="text/css">
	.st0{fill:#11B2E6;}
</style>
<metadata>
	<sfw  xmlns="&ns_sfw;">
		<slices></slices>
		<sliceSourceBounds  bottomLeftOrigin="true" height="314.5" width="1918" x="1" y="-994"></sliceSourceBounds>
	</sfw>
</metadata>
<g>
	<path class="st0" d="M0.1,251.1c0-82.3,0-164.6-0.1-247C0,0.7,0.7,0,4.1,0c636.6,0.1,1273.2,0.1,1909.8,0c3.4,0,4.1,0.7,4.1,4.1
		c-0.1,103.3-0.1,206.6-0.1,310c-2.2,0-4.3-0.1-6.5,0c-72,2-143.5-3.1-214.6-14.1c-61.7-9.6-122.7-22.8-183.4-37.3
		c-81.7-19.5-162.8-41.4-244.8-60c-78.3-17.8-157.1-32.7-237.3-38.9c-59.8-4.6-119.5-3.5-179.1,3.6c-52.8,6.3-104.8,16.9-156.4,29.3
		c-63.1,15.3-125.5,33.1-188.4,48.9c-86.8,21.8-174.4,37.6-264.1,40c-49.6,1.3-98.9-1.6-147.8-10.3C63.1,269.6,31.3,261.6,0.1,251.1
		z"/>
</g>
</svg>
