<?xml version="1.0" encoding="utf-8"?>
<!-- Generator: Adobe Illustrator 19.0.0, SVG Export Plug-In . SVG Version: 6.00 Build 0)  -->
<svg version="1.1" id="Layer_1" xmlns="http://www.w3.org/2000/svg" xmlns:xlink="http://www.w3.org/1999/xlink" x="0px" y="0px"
	 viewBox="0 0 533.6 533.6" style="enable-background:new 0 0 533.6 533.6;" xml:space="preserve">
<style type="text/css">
	.st0{clip-path:url(#SVGID_2_);}
</style>
<g>
	<defs>
		<rect id="SVGID_1_" width="533.6" height="533.6"/>
	</defs>
	<clipPath id="SVGID_2_">
		<use xlink:href="#SVGID_1_"  style="overflow:visible;"/>
	</clipPath>
	<path fill="#bbbbbb" class="st0" d="M266.8,0c-46.8,0-92.8,12.3-133.4,35.7c-40.6,23.4-74.2,57.1-97.6,97.6C12.3,173.9,0,219.9,0,266.8
		s12.3,92.8,35.7,133.4c23.4,40.6,57.1,74.2,97.6,97.6c40.6,23.4,86.6,35.7,133.4,35.7s92.8-12.3,133.4-35.7
		c40.6-23.4,74.2-57.1,97.6-97.6c23.4-40.6,35.7-86.6,35.7-133.4s-12.3-92.8-35.7-133.4c-23.4-40.6-57.1-74.2-97.6-97.6
		C359.6,12.3,313.6,0,266.8,0z M266.8,93.7c9.2,0,18.1,3.7,24.6,10.2c6.5,6.5,10.2,15.4,10.2,24.6s-3.7,18.1-10.2,24.6
		c-6.5,6.5-15.4,10.2-24.6,10.2c-9.2,0-18.1-3.7-24.6-10.2c-6.5-6.5-10.2-15.4-10.2-24.6s3.7-18.1,10.2-24.6
		C248.7,97.4,257.5,93.7,266.8,93.7 M266.8,207c18.3,0,33.1,14.8,33.1,33.1v166.7c0,18.3-14.8,33.1-33.1,33.1
		c-18.3,0-33.1-14.8-33.1-33.1V240.1C233.7,221.7,248.5,207,266.8,207"/>
</g>
</svg>
