<?xml version="1.0" encoding="utf-8"?>
<!-- Generator: Adobe Illustrator 19.0.0, SVG Export Plug-In . SVG Version: 6.00 Build 0)  -->
<svg version="1.1" id="Layer_1" xmlns="http://www.w3.org/2000/svg" xmlns:xlink="http://www.w3.org/1999/xlink" x="0px" y="0px"
	 viewBox="0 0 530.6 530.6" style="enable-background:new 0 0 530.6 530.6;" xml:space="preserve">
<style type="text/css">
	.st0{clip-path:url(#SVGID_2_);fill:#FFFFFF;}
</style>
<g>
	<defs>
		<rect id="SVGID_1_" width="530.6" height="530.6"/>
	</defs>
	<clipPath id="SVGID_2_">
		<use xlink:href="#SVGID_1_"  style="overflow:visible;"/>
	</clipPath>
	<path class="st0" d="M77.7,77.7c-103.6,103.6-103.6,271.6,0,375.2s271.6,103.6,375.2,0s103.6-271.6,0-375.2S181.3-25.9,77.7,77.7z
		 M275.9,111.3c22.4,0,40.3,18.5,40.3,40.9c0,22.4-18.5,40.9-40.3,40.9c-22.4,0-40.9-18.5-40.9-41.4
		C235.1,129.2,253.5,111.3,275.9,111.3L275.9,111.3z M333.6,385.1c-1.1,3.4-3.4,7.3-5.6,9.5c-14.6,15.1-32.5,24.1-53.8,24.1
		c-10.1,0-19.6,0-29.7-1.7c-16.2-2.2-37-22.4-34.2-43.7c2.2-14.6,4.5-29.1,6.7-43.7c4.5-25.2,9-51,13.4-76.2c0-1.7,0.6-3.4,0.6-5
		c0-10.6-3.4-14.6-14-15.7c-4.5-0.6-9-1.1-13.4-2.2c-5-1.7-7.8-6.2-7.3-10.1c0.6-4.5,3.4-7.3,9-8.4c2.8-0.6,6.2-0.6,9.5-0.6h37.5
		h39.8c9.5,0,15.1,4.5,15.1,14c0,7.8-1.1,15.7-2.8,23.5c-5,29.1-10.6,57.7-15.7,86.8c-1.7,9.5-3.9,19-5,28.6c-0.6,4.5,0,9.5,1.1,14
		c1.7,6.2,6.2,9.5,12.3,9c5-0.6,10.1-2.2,15.1-4.5c3.9-1.7,7.3-4.5,11.2-5.6C330.3,375.1,335.3,379,333.6,385.1L333.6,385.1z"/>
</g>
</svg>
