<?xml version="1.0" encoding="utf-8"?>
<!-- Generator: Adobe Illustrator 19.0.0, SVG Export Plug-In . SVG Version: 6.00 Build 0)  -->
<svg version="1.1" id="Layer_1" xmlns="http://www.w3.org/2000/svg" xmlns:xlink="http://www.w3.org/1999/xlink" x="0px" y="0px"
	 viewBox="0 0 480.3 480.3" style="enable-background:new 0 0 480.3 480.3;" xml:space="preserve">
<style type="text/css">
	.st0{clip-path:url(#SVGID_2_);fill:none;stroke:#000000;stroke-width:22.4;stroke-miterlimit:56;}
	.st1{clip-path:url(#SVGID_2_);}
</style>
<g>
	<defs>
		<rect id="SVGID_1_" width="480.3" height="480.3"/>
	</defs>
	<clipPath id="SVGID_2_">
		<use xlink:href="#SVGID_1_"  style="overflow:visible;"/>
	</clipPath>
	<path fill="#332255" class="st0" d="M469.1,240.1c0,126.4-102.5,228.9-228.9,228.9S11.2,366.6,11.2,240.1S113.7,11.2,240.1,11.2
		S469.1,113.7,469.1,240.1"/>
	<path fill="#332255" class="st1" d="M261.6,133.7l23.4,47.2c3.3,6.7,9.8,11.3,17.2,12.2l43.7,5.6l0,0c5.7,0.8,11,3.7,14.6,8.3
		c3.6,4.5,5.3,10.3,4.8,16.1c-0.5,5.8-3.3,11.1-7.7,14.9l-34,28.8c-3.1,2.6-5.4,6-6.7,9.8c-1.3,3.8-1.6,7.9-0.8,11.9l10.6,51.3l0,0
		c1.1,5.7,0,11.5-3.1,16.4c-3.1,4.9-8,8.3-13.6,9.7c-5.6,1.3-11.5,0.5-16.5-2.4l-42.1-24.5c-3.4-2-7.4-3.1-11.4-3.1
		c-4,0-7.9,1.1-11.4,3.1l-41.8,24.5c-5,3-11,3.9-16.6,2.5s-10.6-4.9-13.7-9.8c-3.1-4.9-4.2-10.9-3-16.6l10.6-51.3
		c0.8-4,0.6-8.1-0.8-11.9c-1.3-3.8-3.6-7.2-6.7-9.8L123,238c-4.4-3.8-7.2-9.1-7.7-14.9c-0.5-5.8,1.2-11.6,4.8-16.1
		c3.6-4.5,8.9-7.5,14.7-8.2l48.9-5.6c7.9-0.9,14.7-6,17.9-13.3l19.4-44.8l0,0c2.3-5.2,6.4-9.4,11.6-11.6c5.2-2.3,11.1-2.4,16.4-0.5
		C254.5,124.8,259,128.7,261.6,133.7L261.6,133.7z"/>
</g>
</svg>
