<?xml version="1.0" encoding="utf-8"?>
<!-- Generator: Adobe Illustrator 19.0.0, SVG Export Plug-In . SVG Version: 6.00 Build 0)  -->
<svg version="1.1" id="Layer_1" xmlns="http://www.w3.org/2000/svg" xmlns:xlink="http://www.w3.org/1999/xlink" x="0px" y="0px"
	 viewBox="0 0 505.7 477.7" style="enable-background:new 0 0 505.7 477.7;" xml:space="preserve">
<style type="text/css">
	.st0{clip-path:url(#SVGID_2_);}
</style>
<g>
	<defs>
		<rect id="SVGID_1_" width="505.7" height="477.7"/>
	</defs>
	<clipPath id="SVGID_2_">
		<use xlink:href="#SVGID_1_"  style="overflow:visible;"/>
	</clipPath>
	<path fill="#332255" class="st0" d="M462.5,175.2h-14.4c-8,0-14.4,6.4-14.4,14.4c0,8,6.4,14.4,14.4,14.4h14.4c8,0,14.4,6.5,14.4,14.4v144
		c0,8-6.5,14.4-14.4,14.4h-14.4c-8,0-14.4,6.4-14.4,14.4v37.2l-47.4-47.4c-2.7-2.7-6.3-4.2-10.2-4.2h-144c-7.9,0-14.4-6.5-14.4-14.4
		c0-8-6.4-14.4-14.4-14.4c-8,0-14.4,6.4-14.4,14.4c0,23.8,19.4,43.2,43.2,43.2h138.1l67.8,67.8c2.8,2.8,6.4,4.2,10.2,4.2
		c1.9,0,3.7-0.3,5.5-1.1c5.4-2.2,8.9-7.5,8.9-13.3v-57.6c23.8,0,43.2-19.4,43.2-43.2v-144C505.7,194.6,486.3,175.2,462.5,175.2
		L462.5,175.2z"/>
	<path fill="#332255" class="st0" d="M367.5,332.5c28.9,0,52.5-23.6,52.5-52.5V52.5C420,23.6,396.4,0,367.5,0h-315C23.6,0,0,23.6,0,52.5V280
		c0,28.9,23.6,52.5,52.5,52.5v70c0,7.1,4.3,13.5,10.8,16.2c2.2,0.9,4.4,1.3,6.7,1.3c4.6,0,9-1.8,12.4-5.1l82.4-82.4L367.5,332.5z
		 M141.6,308.3L80.9,369v-47.7c0-10.2-8.2-18.4-18.4-18.4H44c-10.2,0-18.4-8.3-18.4-18.4V44.7c0-10.2,8.3-18.4,18.4-18.4H376
		c10.2,0,18.4,8.3,18.4,18.4v239.7c0,10.2-8.3,18.4-18.4,18.4H154.7C149.8,302.9,145.1,304.8,141.6,308.3z"/>
	<path fill="#332255" class="st0" d="M295.4,130.4l-48.1-7l-21.5-43.6c-5.9-12-25.5-12-31.4,0l-21.5,43.6l-48.2,7c-6.6,1-12.1,5.6-14.1,11.9
		c-2.1,6.3-0.4,13.3,4.4,17.9l34.8,33.9l-8.2,47.9c-1.1,6.6,1.6,13.2,6.9,17.1c5.4,3.9,12.6,4.4,18.4,1.3l43.1-22.6l43,22.6
		c2.6,1.3,5.4,2,8.1,2c0.1,0,0.3,0,0.4,0c9.7,0,17.5-7.8,17.5-17.5c0-2.2-0.4-4.4-1.2-6.3l-7.6-44.5l34.8-33.9
		c4.8-4.7,6.5-11.6,4.4-17.9C307.4,136,301.9,131.3,295.4,130.4L295.4,130.4z"/>
</g>
</svg>
