<?xml version="1.0" encoding="utf-8"?>
<!-- Generator: Adobe Illustrator 19.0.0, SVG Export Plug-In . SVG Version: 6.00 Build 0)  -->
<svg version="1.1" id="Layer_1" xmlns="http://www.w3.org/2000/svg" xmlns:xlink="http://www.w3.org/1999/xlink" x="0px" y="0px"
	 viewBox="0 0 504 470.4" style="enable-background:new 0 0 504 470.4;" xml:space="preserve">
<style type="text/css">
	.st0{clip-path:url(#SVGID_2_);}
</style>
<g>
	<defs>
		<rect id="SVGID_1_" width="504" height="470.4"/>
	</defs>
	<clipPath id="SVGID_2_">
		<use xlink:href="#SVGID_1_"  style="overflow:visible;"/>
	</clipPath>
	<path class="st0" d="M0,420c0-13.4,5.3-26.2,14.8-35.6c9.5-9.4,22.3-14.8,35.6-14.8c13.4,0,26.2,5.3,35.6,14.8
		c9.4,9.5,14.8,22.3,14.8,35.6c0,13.4-5.3,26.2-14.8,35.6c-9.5,9.5-22.3,14.8-35.6,14.8c-13.4,0-26.2-5.3-35.6-14.8
		C5.3,446.2,0,433.4,0,420z M50.4,100.8c13.4,0,26.2-5.3,35.6-14.8c9.4-9.5,14.8-22.3,14.8-35.6c0-13.4-5.3-26.2-14.8-35.6
		C76.6,5.3,63.8,0,50.4,0C37,0,24.2,5.3,14.8,14.8C5.3,24.2,0,37,0,50.4S5.3,76.6,14.8,86C24.2,95.5,37,100.8,50.4,100.8z
		 M50.4,285.6L50.4,285.6c13.4,0,26.2-5.3,35.6-14.8c9.4-9.4,14.8-22.3,14.8-35.6S95.5,209,86,199.6c-9.5-9.5-22.3-14.8-35.6-14.8
		c-13.4,0-26.2,5.3-35.6,14.8C5.3,209,0,221.8,0,235.2s5.3,26.2,14.8,35.6C24.2,280.3,37,285.6,50.4,285.6L50.4,285.6z M218.4,84
		h252c12,0,23.1-6.4,29.1-16.8c6-10.4,6-23.2,0-33.6c-6-10.4-17.1-16.8-29.1-16.8h-252c-12,0-23.1,6.4-29.1,16.8
		c-6,10.4-6,23.2,0,33.6C195.3,77.6,206.4,84,218.4,84 M218.4,268.8h252c12,0,23.1-6.4,29.1-16.8c6-10.4,6-23.2,0-33.6
		c-6-10.4-17.1-16.8-29.1-16.8h-252c-12,0-23.1,6.4-29.1,16.8c-6,10.4-6,23.2,0,33.6C195.3,262.4,206.4,268.8,218.4,268.8
		 M218.4,453.6l252,0c12,0,23.1-6.4,29.1-16.8c6-10.4,6-23.2,0-33.6c-6-10.4-17.1-16.8-29.1-16.8h-252c-12,0-23.1,6.4-29.1,16.8
		c-6,10.4-6,23.2,0,33.6C195.3,447.2,206.4,453.6,218.4,453.6L218.4,453.6z"/>
</g>
</svg>
