<?xml version="1.0" encoding="utf-8"?>
<!-- Generator: Adobe Illustrator 26.0.2, SVG Export Plug-In . SVG Version: 6.00 Build 0)  -->
<svg version="1.1" id="Layer_1" xmlns="http://www.w3.org/2000/svg" xmlns:xlink="http://www.w3.org/1999/xlink" x="0px" y="0px"
	 viewBox="0 0 611 300" style="enable-background:new 0 0 611 300;" xml:space="preserve">
<style type="text/css">
	.st0{fill:#77CBED;}
	.st1{fill:#4BB8E3;}
	.st2{fill:#0096C8;}
	.st3{fill:#1C77BD;}
	.st4{fill:#205DB0;}
	.st5{fill:#152D73;}
	.st6{fill:url(#SVGID_1_);}
	.st7{fill:url(#SVGID_00000093880916802918618110000004595511393745108389_);}
	.st8{fill:url(#SVGID_00000145033533531339202130000016531878592431680678_);}
	.st9{fill:url(#SVGID_00000006693338401985958410000007133497710821803179_);}
	.st10{fill:url(#SVGID_00000041274184985937238990000008246836746270433175_);}
	.st11{fill:url(#SVGID_00000059287919296651596930000003790211158905914776_);}
	.st12{fill:url(#SVGID_00000110434494743202295040000001229293373442245055_);}
	.st13{fill:url(#SVGID_00000098900425133602015730000011868515882682048405_);}
	.st14{fill:url(#SVGID_00000067916748095024155120000003321333996348422284_);}
	.st15{fill:url(#SVGID_00000167359072199812482700000011517404434090679690_);}
	.st16{fill:url(#SVGID_00000095298105203708552140000008437373953922490281_);}
	.st17{fill:url(#SVGID_00000091697242712241959060000014152408893147870386_);}
	.st18{fill:url(#SVGID_00000026867963759486093770000008420146309468128129_);}
	.st19{fill:url(#SVGID_00000009582328292301681950000010714511917271618959_);}
	.st20{fill:url(#SVGID_00000111175948788222726740000008110366330258042273_);}
	.st21{fill:#010101;}
</style>
<polygon class="st0" points="124.9,68.9 124.9,86.9 155.9,104.8 169.3,94.7 "/>
<polygon class="st1" points="115.8,68.9 115.8,86.9 76,110.4 60,101.1 "/>
<polygon class="st2" points="55.5,109 70.9,118.1 70.9,163.6 55.5,172.7 "/>
<polygon class="st3" points="59,180.8 74.4,172 115.7,195.6 115.7,214 "/>
<polygon class="st4" points="125,214 125,195.9 166.3,171.8 182.1,181 "/>
<polygon class="st5" points="185.2,116.3 185.2,172.4 169.7,163.3 169.7,133.4 "/>
<polygon points="106.8,129.5 92.4,144 121.1,173.5 207.8,76.8 121.5,144.3 "/>
<g>
	
		<linearGradient id="SVGID_1_" gradientUnits="userSpaceOnUse" x1="220.1" y1="679.2498" x2="220.1" y2="711.8498" gradientTransform="matrix(1 0 0 1 0 -541.9998)">
		<stop  offset="0" style="stop-color:#0071C9"/>
		<stop  offset="1" style="stop-color:#003B75"/>
	</linearGradient>
	<path class="st6" d="M232.3,142.8h-9v27h-6.4v-27h-9v-5.6h24.4V142.8z"/>
	
		<linearGradient id="SVGID_00000157992643707379891340000003745278229696541589_" gradientUnits="userSpaceOnUse" x1="241.15" y1="687.6498" x2="241.15" y2="711.8499" gradientTransform="matrix(1 0 0 1 0 -541.9998)">
		<stop  offset="0" style="stop-color:#0071C9"/>
		<stop  offset="1" style="stop-color:#003B75"/>
	</linearGradient>
	<path style="fill:url(#SVGID_00000157992643707379891340000003745278229696541589_);" d="M249.6,148.6l-3.1,5
		c-0.6-0.6-1.2-1.2-1.9-1.7s-1.4-0.7-2.1-0.7c-0.4,0-0.8,0.1-1.2,0.3s-0.9,0.5-1.3,0.9c-0.4,0.4-0.7,0.9-1,1.6
		c-0.3,0.7-0.4,1.5-0.4,2.5v13.3h-5.9v-23.6h5.9v2.5c0.7-1,1.5-1.8,2.3-2.3c0.9-0.5,1.8-0.8,2.9-0.8c1,0,2,0.3,3,0.8
		C247.8,147,248.7,147.7,249.6,148.6z"/>
	
		<linearGradient id="SVGID_00000064317889304722522030000017793823844721804726_" gradientUnits="userSpaceOnUse" x1="261.85" y1="688.2499" x2="261.85" y2="712.4082" gradientTransform="matrix(1 0 0 1 0 -541.9998)">
		<stop  offset="0" style="stop-color:#0071C9"/>
		<stop  offset="1" style="stop-color:#003B75"/>
	</linearGradient>
	<path style="fill:url(#SVGID_00000064317889304722522030000017793823844721804726_);" d="M272.5,169.8h-5.9V168
		c-0.4,0.4-0.8,0.7-1.3,1s-1,0.5-1.6,0.7s-1.1,0.4-1.7,0.5s-1.1,0.2-1.7,0.2c-1.2,0-2.3-0.2-3.4-0.6c-1.1-0.4-2.1-1-2.9-1.8
		c-0.8-0.8-1.5-1.8-2-3.1s-0.8-2.7-0.8-4.4v-14.3h5.9v14c0,0.8,0.1,1.6,0.4,2.2c0.3,0.6,0.6,1.2,1,1.6c0.4,0.4,0.9,0.7,1.5,0.9
		s1.1,0.3,1.7,0.3c1.9,0,3.6-0.7,4.9-2v-17.1h5.9V169.8z"/>
	
		<linearGradient id="SVGID_00000144323754407165760030000012301818050819717815_" gradientUnits="userSpaceOnUse" x1="285.7" y1="687.6378" x2="285.7" y2="712.4899" gradientTransform="matrix(1 0 0 1 0 -541.9998)">
		<stop  offset="0" style="stop-color:#0071C9"/>
		<stop  offset="1" style="stop-color:#003B75"/>
	</linearGradient>
	<path style="fill:url(#SVGID_00000144323754407165760030000012301818050819717815_);" d="M294.7,163.2c0,1.2-0.3,2.2-0.8,3.1
		c-0.5,0.9-1.3,1.7-2.1,2.3c-0.9,0.6-1.9,1.1-2.9,1.4c-1.1,0.3-2.2,0.5-3.2,0.5c-1.8,0-3.5-0.3-5-1s-2.8-1.7-4-3.2l3.6-3.6
		c0.7,0.9,1.5,1.6,2.4,2.1s1.9,0.8,3,0.8c0.9,0,1.7-0.2,2.3-0.5c0.6-0.3,0.9-0.8,0.9-1.5s-0.4-1.3-1.3-1.8s-2.1-0.9-3.7-1.4
		c-0.9-0.3-1.8-0.6-2.7-1c-0.9-0.4-1.6-0.9-2.3-1.6c-0.7-0.6-1.2-1.3-1.6-2.1s-0.6-1.7-0.6-2.7c0-1.1,0.3-2.2,0.8-3.1
		c0.5-0.9,1.2-1.7,2.1-2.3s1.8-1.1,2.9-1.4c1.1-0.3,2.2-0.5,3.3-0.5c3.6,0,6.5,1.4,8.8,4.1l-3.5,3.6c-0.7-0.8-1.5-1.5-2.3-2
		c-0.9-0.5-1.8-0.7-2.9-0.7c-0.4,0-0.7,0-1.1,0.1s-0.8,0.2-1.1,0.4c-0.3,0.2-0.6,0.4-0.8,0.7c-0.2,0.3-0.3,0.6-0.3,1
		c0,0.6,0.4,1.2,1.2,1.6c0.8,0.5,2,0.9,3.6,1.4c1,0.3,2,0.7,2.9,1.1c0.9,0.5,1.7,1,2.4,1.6c0.7,0.6,1.2,1.3,1.6,2.1
		C294.5,161.3,294.7,162.2,294.7,163.2z"/>
	
		<linearGradient id="SVGID_00000055667724369912930350000002878755987084770201_" gradientUnits="userSpaceOnUse" x1="304" y1="681.3125" x2="304" y2="712.449" gradientTransform="matrix(1 0 0 1 0 -541.9998)">
		<stop  offset="0" style="stop-color:#0071C9"/>
		<stop  offset="1" style="stop-color:#003B75"/>
	</linearGradient>
	<path style="fill:url(#SVGID_00000055667724369912930350000002878755987084770201_);" d="M311.5,169.3c-0.6,0.4-1.3,0.7-2.1,0.9
		c-0.8,0.2-1.6,0.3-2.4,0.3c-1.4,0-2.6-0.2-3.5-0.5c-1-0.3-1.7-0.9-2.3-1.6c-0.6-0.7-1-1.6-1.2-2.7c-0.3-1.1-0.4-2.4-0.4-3.8v-10.3
		h-3.1v-2.7c1.9-0.8,3.4-2,4.6-3.5c1.2-1.6,2-3.6,2.4-6h1.9v6.9h6v5.3h-6v10.7c0,0.6,0.1,1.1,0.2,1.5s0.3,0.7,0.6,0.9
		c0.2,0.2,0.5,0.4,0.8,0.4c0.3,0.1,0.6,0.1,1,0.1c0.5,0,1-0.1,1.7-0.2c0.7-0.2,1.2-0.4,1.7-0.8L311.5,169.3L311.5,169.3z"/>
	
		<linearGradient id="SVGID_00000099636914426216390010000005948910460187634607_" gradientUnits="userSpaceOnUse" x1="326.6" y1="687.6378" x2="326.6" y2="712.4378" gradientTransform="matrix(1 0 0 1 0 -541.9998)">
		<stop  offset="0" style="stop-color:#0071C9"/>
		<stop  offset="1" style="stop-color:#003B75"/>
	</linearGradient>
	<path style="fill:url(#SVGID_00000099636914426216390010000005948910460187634607_);" d="M339.3,158c0,0.4,0,0.8-0.1,1.2
		s-0.1,0.8-0.1,1.3h-18.9c0.2,0.7,0.5,1.3,0.9,1.9c0.4,0.6,0.9,1.1,1.4,1.6c0.6,0.4,1.2,0.8,1.9,1.1c0.7,0.3,1.5,0.4,2.4,0.4
		c1.1,0,2.1-0.2,3.2-0.6c1.1-0.4,1.9-0.9,2.7-1.5l3.7,3.7c-1.6,1.2-3.2,2.1-4.8,2.6c-1.6,0.5-3.2,0.8-5,0.8s-3.4-0.3-5-1
		c-1.5-0.7-2.9-1.5-4-2.7c-1.1-1.1-2-2.4-2.7-3.9s-1-3.1-1-4.8s0.3-3.3,1-4.8s1.6-2.8,2.7-3.9c1.1-1.1,2.5-2,4-2.7s3.2-1,4.9-1
		c1.7,0,3.3,0.3,4.8,0.9c1.5,0.6,2.9,1.5,4,2.6c1.2,1.1,2.1,2.4,2.8,3.9C339,154.5,339.3,156.1,339.3,158z M333.2,155.7
		c-0.5-1.5-1.3-2.7-2.5-3.6c-1.2-0.9-2.5-1.4-4-1.4s-2.8,0.5-4,1.4s-2,2.1-2.4,3.6H333.2z"/>
	
		<linearGradient id="SVGID_00000137840570827944473060000001496792575122475917_" gradientUnits="userSpaceOnUse" x1="353.55" y1="677.9663" x2="353.55" y2="712.4082" gradientTransform="matrix(1 0 0 1 0 -541.9998)">
		<stop  offset="0" style="stop-color:#0071C9"/>
		<stop  offset="1" style="stop-color:#003B75"/>
	</linearGradient>
	<path style="fill:url(#SVGID_00000137840570827944473060000001496792575122475917_);" d="M364.9,169.8h-6v-1.2
		c-0.8,0.6-1.6,1.1-2.5,1.4c-0.9,0.3-1.9,0.4-2.9,0.4c-1.7,0-3.2-0.3-4.6-1s-2.6-1.6-3.6-2.7c-1-1.1-1.8-2.4-2.3-3.9
		c-0.6-1.5-0.8-3.1-0.8-4.7c0-1.8,0.3-3.4,1-4.9c0.6-1.5,1.5-2.8,2.6-3.9c1.1-1.1,2.3-2,3.6-2.6c1.4-0.6,2.8-1,4.2-1
		c1,0,2,0.1,2.9,0.4c1,0.3,1.8,0.7,2.4,1.1V136h6L364.9,169.8L364.9,169.8z M359,163.5v-11.3c-0.3-0.2-0.6-0.4-0.9-0.6
		c-0.4-0.2-0.7-0.3-1.1-0.4c-0.4-0.1-0.8-0.2-1.1-0.3c-0.4-0.1-0.7-0.1-1-0.1c-1,0-1.9,0.2-2.7,0.5c-0.8,0.3-1.5,0.8-2.1,1.5
		c-0.6,0.6-1.1,1.4-1.4,2.3c-0.3,0.9-0.5,1.9-0.5,3s0.2,2,0.5,2.9s0.8,1.6,1.4,2.3c0.6,0.6,1.3,1.1,2.1,1.5c0.8,0.4,1.7,0.5,2.6,0.5
		C356.2,165.2,357.6,164.6,359,163.5z"/>
</g>
<g>
	
		<linearGradient id="SVGID_00000163043714034974072280000003146622416338363034_" gradientUnits="userSpaceOnUse" x1="393.85" y1="679.1906" x2="393.85" y2="711.8369" gradientTransform="matrix(1 0 0 1 0 -541.9998)">
		<stop  offset="0" style="stop-color:#5BA1C2"/>
		<stop  offset="1" style="stop-color:#104777"/>
	</linearGradient>
	<path style="fill:url(#SVGID_00000163043714034974072280000003146622416338363034_);" d="M406.1,169.8h-7l-2.3-7.4
		c-0.2-0.8-0.5-1.6-0.9-2.2c-0.4-0.7-0.8-1.3-1.3-1.8s-1.1-0.9-1.9-1.1c-0.7-0.3-1.6-0.4-2.5-0.4h-2.4v13h-6.2v-32.6h12.9
		c1.4,0,2.7,0.2,3.9,0.7c1.2,0.5,2.2,1.1,3.1,2c0.9,0.8,1.5,1.8,2,3c0.5,1.1,0.7,2.4,0.7,3.7c0,1-0.1,1.9-0.4,2.8
		c-0.3,0.9-0.7,1.7-1.3,2.5c-0.5,0.8-1.2,1.4-1.9,2c-0.7,0.6-1.6,1-2.5,1.3c1,0.4,1.9,0.9,2.5,1.7c0.6,0.7,1.2,1.6,1.5,2.6
		c0.2,0.5,0.4,0.9,0.5,1.4c0.2,0.5,0.3,0.9,0.5,1.4s0.4,1,0.6,1.6s0.4,1.2,0.7,1.9c0.3,0.9,0.6,1.7,0.8,2.3
		C405.6,168.7,405.8,169.3,406.1,169.8z M397.9,147c0-0.8-0.1-1.5-0.4-2.1s-0.7-1.2-1.2-1.6c-0.5-0.5-1.1-0.8-1.7-1.1
		c-0.7-0.3-1.4-0.4-2.1-0.4h-4.6V152h4.6c0.8,0,1.5-0.1,2.1-0.3c0.7-0.2,1.2-0.6,1.7-1s0.9-1,1.2-1.6
		C397.8,148.4,397.9,147.7,397.9,147z"/>
	
		<linearGradient id="SVGID_00000065783698683327585420000003071651058875456140_" gradientUnits="userSpaceOnUse" x1="420.9" y1="687.6378" x2="420.9" y2="712.4378" gradientTransform="matrix(1 0 0 1 0 -541.9998)">
		<stop  offset="0" style="stop-color:#5BA1C2"/>
		<stop  offset="1" style="stop-color:#104777"/>
	</linearGradient>
	<path style="fill:url(#SVGID_00000065783698683327585420000003071651058875456140_);" d="M433.6,158c0,0.4,0,0.8-0.1,1.2
		s-0.1,0.8-0.1,1.3h-18.9c0.2,0.7,0.5,1.3,0.9,1.9c0.4,0.6,0.9,1.1,1.4,1.6c0.6,0.4,1.2,0.8,1.9,1.1c0.7,0.3,1.5,0.4,2.4,0.4
		c1.1,0,2.1-0.2,3.2-0.6c1.1-0.4,1.9-0.9,2.7-1.5l3.7,3.7c-1.6,1.2-3.2,2.1-4.8,2.6c-1.6,0.5-3.2,0.8-5,0.8s-3.4-0.3-5-1
		c-1.5-0.7-2.9-1.5-4-2.7c-1.1-1.1-2-2.4-2.7-3.9s-1-3.1-1-4.8s0.3-3.3,1-4.8s1.6-2.8,2.7-3.9c1.1-1.1,2.5-2,4-2.7s3.2-1,4.9-1
		c1.7,0,3.3,0.3,4.8,0.9c1.5,0.6,2.9,1.5,4,2.6c1.2,1.1,2.1,2.4,2.8,3.9C433.3,154.5,433.6,156.1,433.6,158z M427.4,155.7
		c-0.5-1.5-1.3-2.7-2.5-3.6c-1.2-0.9-2.5-1.4-4-1.4s-2.8,0.5-4,1.4s-2,2.1-2.4,3.6H427.4z"/>
	
		<linearGradient id="SVGID_00000136383374890315280380000002862338455308919476_" gradientUnits="userSpaceOnUse" x1="447.2" y1="688.2498" x2="447.2" y2="711.8776" gradientTransform="matrix(1 0 0 1 0 -541.9998)">
		<stop  offset="0" style="stop-color:#5BA1C2"/>
		<stop  offset="1" style="stop-color:#104777"/>
	</linearGradient>
	<path style="fill:url(#SVGID_00000136383374890315280380000002862338455308919476_);" d="M459,146.2l-8.9,23.6h-5.8l-8.9-23.6h6.4
		l5.3,15.8l5.3-15.8H459z"/>
	
		<linearGradient id="SVGID_00000168817690065110057490000001236559956150480816_" gradientUnits="userSpaceOnUse" x1="464.75" y1="678.0071" x2="464.75" y2="711.8071" gradientTransform="matrix(1 0 0 1 0 -541.9998)">
		<stop  offset="0" style="stop-color:#5BA1C2"/>
		<stop  offset="1" style="stop-color:#104777"/>
	</linearGradient>
	<path style="fill:url(#SVGID_00000168817690065110057490000001236559956150480816_);" d="M467.8,142.1h-6.1V136h6.1V142.1z
		 M467.7,169.8h-6v-23.6h6V169.8z"/>
	
		<linearGradient id="SVGID_00000013908134617117471440000004959627353622827136_" gradientUnits="userSpaceOnUse" x1="484.7" y1="687.6378" x2="484.7" y2="712.4378" gradientTransform="matrix(1 0 0 1 0 -541.9998)">
		<stop  offset="0" style="stop-color:#5BA1C2"/>
		<stop  offset="1" style="stop-color:#104777"/>
	</linearGradient>
	<path style="fill:url(#SVGID_00000013908134617117471440000004959627353622827136_);" d="M497.4,158c0,0.4,0,0.8-0.1,1.2
		s-0.1,0.8-0.1,1.3h-18.9c0.2,0.7,0.5,1.3,0.9,1.9c0.4,0.6,0.9,1.1,1.4,1.6c0.6,0.4,1.2,0.8,1.9,1.1c0.7,0.3,1.5,0.4,2.4,0.4
		c1.1,0,2.1-0.2,3.2-0.6c1.1-0.4,1.9-0.9,2.7-1.5l3.7,3.7c-1.6,1.2-3.2,2.1-4.8,2.6c-1.6,0.5-3.2,0.8-5,0.8s-3.4-0.3-5-1
		c-1.5-0.7-2.9-1.5-4-2.7c-1.1-1.1-2-2.4-2.7-3.9s-1-3.1-1-4.8s0.3-3.3,1-4.8s1.6-2.8,2.7-3.9c1.1-1.1,2.5-2,4-2.7s3.2-1,4.9-1
		c1.7,0,3.3,0.3,4.8,0.9c1.5,0.6,2.9,1.5,4,2.6c1.2,1.1,2.1,2.4,2.8,3.9C497.1,154.5,497.4,156.1,497.4,158z M491.3,155.7
		c-0.5-1.5-1.3-2.7-2.5-3.6c-1.2-0.9-2.5-1.4-4-1.4s-2.8,0.5-4,1.4s-2,2.1-2.4,3.6H491.3z"/>
	
		<linearGradient id="SVGID_00000048501981335195819390000012770833384855794566_" gradientUnits="userSpaceOnUse" x1="516.95" y1="688.2091" x2="516.95" y2="711.8777" gradientTransform="matrix(1 0 0 1 0 -541.9998)">
		<stop  offset="0" style="stop-color:#5BA1C2"/>
		<stop  offset="1" style="stop-color:#104777"/>
	</linearGradient>
	<path style="fill:url(#SVGID_00000048501981335195819390000012770833384855794566_);" d="M534.7,146.2l-7.9,23.7h-5.1l-4.7-14.1
		l-4.7,14.1h-5.1l-8-23.7h6.2l4.4,14.8l4.4-14.8h5.2l4.5,14.8l4.4-14.8H534.7z"/>
	
		<linearGradient id="SVGID_00000063595659963800412770000007197892908088891838_" gradientUnits="userSpaceOnUse" x1="545.7" y1="687.6378" x2="545.7" y2="712.4899" gradientTransform="matrix(1 0 0 1 0 -541.9998)">
		<stop  offset="0" style="stop-color:#5BA1C2"/>
		<stop  offset="1" style="stop-color:#104777"/>
	</linearGradient>
	<path style="fill:url(#SVGID_00000063595659963800412770000007197892908088891838_);" d="M554.7,163.2c0,1.2-0.3,2.2-0.8,3.1
		c-0.5,0.9-1.3,1.7-2.1,2.3s-1.9,1.1-2.9,1.4c-1.1,0.3-2.2,0.5-3.2,0.5c-1.8,0-3.5-0.3-5-1s-2.8-1.7-4-3.2l3.6-3.6
		c0.7,0.9,1.5,1.6,2.4,2.1s1.9,0.8,3,0.8c0.9,0,1.7-0.2,2.3-0.5s0.9-0.8,0.9-1.5s-0.4-1.3-1.3-1.8c-0.9-0.5-2.1-0.9-3.7-1.4
		c-0.9-0.3-1.8-0.6-2.7-1s-1.6-0.9-2.3-1.6c-0.7-0.6-1.2-1.3-1.6-2.1c-0.4-0.8-0.6-1.7-0.6-2.7c0-1.1,0.3-2.2,0.8-3.1
		c0.5-0.9,1.2-1.7,2.1-2.3s1.8-1.1,2.9-1.4c1.1-0.3,2.2-0.5,3.3-0.5c3.6,0,6.5,1.4,8.8,4.1l-3.5,3.6c-0.7-0.8-1.5-1.5-2.3-2
		c-0.9-0.5-1.8-0.7-2.9-0.7c-0.4,0-0.7,0-1.1,0.1c-0.4,0.1-0.8,0.2-1.1,0.4s-0.6,0.4-0.8,0.7s-0.3,0.6-0.3,1c0,0.6,0.4,1.2,1.2,1.6
		c0.8,0.5,2,0.9,3.6,1.4c1,0.3,2,0.7,2.9,1.1c0.9,0.5,1.7,1,2.4,1.6s1.2,1.3,1.6,2.1C554.5,161.3,554.7,162.2,554.7,163.2z"/>
</g>
<linearGradient id="SVGID_00000035490425056153252060000017895815066537760703_" gradientUnits="userSpaceOnUse" x1="381.6" y1="646.7143" x2="554.3" y2="646.7143" gradientTransform="matrix(1 0 0 1 0 -541.9998)">
	<stop  offset="0" style="stop-color:#000000"/>
	<stop  offset="1" style="stop-color:#FFFFFF"/>
</linearGradient>
<rect x="381.6" y="103.6" style="fill:url(#SVGID_00000035490425056153252060000017895815066537760703_);" width="172.7" height="2.2"/>
<g>
	<g>
		<path class="st21" d="M225.6,102.1c-0.5-1.2-1.2-2.3-2-3.1c-1-1-1.9-1.6-3.2-2c-1.2-0.5-2.6-0.7-4.2-0.7h-7.3
			c-0.2,0-0.4,0.1-0.4,0.4v7.1c0,0.2,0.1,0.4,0.4,0.4h3.6c0.2,0,0.4-0.1,0.4-0.4v-3.8c0-0.2,0.1-0.4,0.4-0.4h3.2
			c1,0,1.8,0.1,2.5,0.5c0.7,0.2,1.4,0.7,1.9,1.3c0.5,0.6,1,1.2,1.2,2.2c0.2,0.8,0.4,1.8,0.4,2.9s-0.1,2-0.4,2.9
			c-0.2,0.8-0.7,1.6-1.2,2.2c-0.5,0.6-1.1,1.1-1.9,1.3c-0.7,0.2-1.6,0.5-2.5,0.5h-3.2c-0.2,0-0.4-0.1-0.4-0.4v-3.8
			c0-0.2-0.1-0.4-0.4-0.4h-3.6c-0.2,0-0.4,0.1-0.4,0.4v6.8c0,0.2,0.1,0.4,0.4,0.4h7.3c1.6,0,2.9-0.2,4.2-0.7c1.2-0.5,2.4-1.2,3.2-2
			c1-1,1.6-1.9,2-3.1c0.5-1.2,0.7-2.5,0.7-4.1C226.3,104.6,226.1,103.2,225.6,102.1z"/>
		<path class="st21" d="M233.7,99.3h7.9c0.2,0,0.4-0.1,0.4-0.4v-2.5c0-0.2-0.1-0.4-0.4-0.4h-12.1c-0.2,0-0.4,0.1-0.4,0.4v19.3
			c0,0.2,0.1,0.4,0.4,0.4h12.1c0.2,0,0.4-0.1,0.4-0.4v-2.5c0-0.2-0.1-0.4-0.4-0.4h-7.9c-0.2,0-0.4-0.1-0.4-0.4v-4.5
			c0-0.2,0.1-0.4,0.4-0.4h6c0.2,0,0.4-0.1,0.4-0.4v-2.5c0-0.2-0.1-0.4-0.4-0.4h-6c-0.2,0-0.4-0.1-0.4-0.4v-4.5
			C233.5,99.4,233.6,99.3,233.7,99.3z"/>
		<path class="st21" d="M261.8,96.2h-3c-0.2,0-0.4,0.1-0.4,0.4v11c0,0.2,0,0.6,0,1s0.1,0.7,0.1,1.1l-10-12.8
			c-0.1-0.1-0.2-0.2-0.2-0.4c-0.1-0.1-0.2-0.1-0.2-0.2c-0.1-0.1-0.2-0.1-0.4-0.1c-0.1,0-0.2,0-0.4,0h-1.9c-0.2,0-0.4,0.1-0.4,0.4
			v19.1c0,0.2,0.1,0.4,0.4,0.4h3c0.2,0,0.4-0.1,0.4-0.4v-11.1c0-0.2,0-0.6,0-0.8c0-0.4,0-0.6-0.1-1l9.9,12.6
			c0.2,0.2,0.4,0.4,0.6,0.6c0.2,0.1,0.5,0.1,0.8,0.1h1.8c0.2,0,0.4-0.1,0.4-0.4V96.4C262.2,96.3,261.9,96.2,261.8,96.2z"/>
		<path class="st21" d="M280.1,96.2h-15.1c-0.2,0-0.4,0.1-0.4,0.4v2.6c0,0.2,0.1,0.4,0.4,0.4h5.1c0.2,0,0.4,0.1,0.4,0.4v15.9
			c0,0.2,0.1,0.4,0.4,0.4h3.5c0.2,0,0.4-0.1,0.4-0.4v-16c0-0.2,0.1-0.4,0.4-0.4h5.1c0.2,0,0.4-0.1,0.4-0.4v-2.8
			C280.5,96.3,280.2,96.2,280.1,96.2z"/>
		<path class="st21" d="M298.2,115.6l-7.5-19.3c-0.1-0.1-0.1-0.2-0.2-0.2h-3.7c-0.1,0-0.2,0.1-0.2,0.2l-7.5,19.3
			c-0.1,0.2,0.1,0.4,0.2,0.4h2.8c0.4,0,0.6-0.1,0.8-0.2c0.2-0.2,0.4-0.4,0.5-0.6l1.2-3.6c0.1-0.1,0.1-0.2,0.2-0.2h7.5
			c0.1,0,0.2,0.1,0.2,0.2l1.2,3.6c0.1,0.2,0.2,0.5,0.5,0.6c0.2,0.1,0.5,0.2,1,0.2h2.8C298.1,116,298.3,115.8,298.2,115.6z
			 M291,108.5h-5c-0.2,0-0.4-0.2-0.2-0.4l2-5.6c0.1-0.4,0.2-0.7,0.4-1.1c0-0.1,0.1-0.2,0.1-0.4c0.1-0.2,0.5-0.2,0.6,0
			c0,0.1,0.1,0.2,0.1,0.2c0.1,0.4,0.2,0.8,0.4,1.1l2,5.7C291.4,108.3,291.2,108.5,291,108.5z"/>
		<path class="st21" d="M315.2,112.9l-1.4-1.6c-0.1-0.1-0.4-0.2-0.6-0.2c-0.1,0-0.2,0-0.4,0.1c-0.1,0.1-0.2,0.1-0.4,0.2
			c-0.2,0.2-0.6,0.5-1,0.6c-0.2,0.2-0.6,0.4-1,0.4c-0.4,0.1-0.7,0.2-1.1,0.2c-0.4,0.1-0.8,0.1-1.2,0.1c-0.7,0-1.6-0.1-2.3-0.4
			s-1.3-0.7-1.8-1.3c-0.5-0.6-1-1.3-1.2-2.2c-0.2-0.8-0.4-1.8-0.4-2.9s0.1-2,0.4-2.9c0.2-0.8,0.7-1.6,1.2-2c0.5-0.6,1.1-1.1,1.8-1.3
			c0.7-0.2,1.4-0.5,2.3-0.5c0.7,0,1.4,0.1,1.9,0.2c0.5,0.1,1,0.4,1.2,0.6c0.4,0.2,0.6,0.4,0.8,0.5c0.2,0.1,0.4,0.2,0.7,0.2
			c0.2,0,0.4-0.1,0.5-0.1c0.1-0.1,0.2-0.2,0.4-0.4l1.2-1.7c0.1-0.1,0.1-0.4-0.1-0.4c-0.4-0.4-0.7-0.6-1.1-1c-0.5-0.4-1-0.6-1.6-0.8
			c-0.6-0.2-1.2-0.4-1.8-0.6c-0.6-0.1-1.3-0.2-2-0.2c-1,0-1.9,0.1-2.8,0.4c-0.8,0.2-1.7,0.6-2.4,1s-1.4,1-1.9,1.6
			c-0.6,0.6-1.1,1.2-1.4,2c-0.4,0.7-0.7,1.6-1,2.5c-0.2,1-0.4,1.8-0.4,2.9c0,1.4,0.2,2.9,0.7,4.1s1.1,2.3,1.9,3.2
			c0.8,1,1.9,1.6,3.1,2.2c1.2,0.5,2.5,0.7,4.1,0.7c1.7,0,3.1-0.2,4.2-0.7c1.1-0.5,2-1.2,2.9-2C315.3,113.2,315.3,113.1,315.2,112.9z
			"/>
		<path class="st21" d="M335.7,102.1c-0.5-1.2-1.2-2.3-2-3.2c-0.8-1-1.9-1.6-3.2-2.2c-1.2-0.5-2.6-0.7-4.2-0.7
			c-1.6,0-2.9,0.2-4.2,0.7c-1.3,0.5-2.4,1.2-3.2,2.2c-0.8,1-1.6,2-2,3.2c-0.5,1.2-0.7,2.5-0.7,4.1c0,1.4,0.2,2.8,0.7,4.1
			c0.5,1.2,1.2,2.3,2,3.2c1,1,1.9,1.6,3.2,2.2c1.2,0.5,2.6,0.7,4.2,0.7c1.6,0,2.9-0.2,4.2-0.7c1.2-0.5,2.4-1.2,3.2-2.2
			c1-1,1.6-2,2-3.2c0.5-1.2,0.7-2.5,0.7-4.1S336.2,103.2,335.7,102.1z M331.9,108.9c-0.2,0.8-0.7,1.6-1.2,2
			c-0.5,0.6-1.2,1.1-1.9,1.3c-0.7,0.2-1.6,0.5-2.5,0.5s-1.8-0.1-2.5-0.5c-0.7-0.2-1.4-0.7-1.9-1.3c-0.5-0.6-1-1.2-1.2-2
			c-0.2-0.8-0.4-1.8-0.4-2.9c0-1.1,0.1-2,0.4-2.9c0.2-0.8,0.7-1.6,1.2-2c0.5-0.6,1.2-1.1,1.9-1.3c0.7-0.2,1.6-0.5,2.5-0.5
			s1.7,0.1,2.5,0.5c0.7,0.2,1.4,0.7,1.9,1.3s1,1.3,1.2,2c0.2,0.8,0.4,1.7,0.4,2.9C332.3,107.1,332.1,108,331.9,108.9z"/>
		<path class="st21" d="M343.3,96.2h-3.6c-0.2,0-0.4,0.1-0.4,0.4v19.3c0,0.2,0.1,0.4,0.4,0.4h3.6c0.2,0,0.4-0.1,0.4-0.4V96.4
			C343.6,96.3,343.5,96.2,343.3,96.2z"/>
		<path class="st21" d="M364.5,96.2h-3c-0.2,0-0.4,0.1-0.4,0.4v11c0,0.2,0,0.6,0,1s0.1,0.7,0.1,1.1l-10-12.8
			c-0.1-0.1-0.2-0.2-0.2-0.4c-0.1-0.1-0.2-0.1-0.2-0.2c-0.1-0.1-0.2-0.1-0.4-0.1c-0.1,0-0.2,0-0.4,0h-1.9c-0.2,0-0.4,0.1-0.4,0.4
			v19.1c0,0.2,0.1,0.4,0.4,0.4h3c0.2,0,0.4-0.1,0.4-0.4v-11.1c0-0.2,0-0.6,0-0.8c0-0.4,0-0.6-0.1-1l9.9,12.6
			c0.2,0.2,0.4,0.4,0.6,0.6c0.2,0.1,0.5,0.1,0.8,0.1h1.8c0.2,0,0.4-0.1,0.4-0.4V96.4C364.8,96.3,364.7,96.2,364.5,96.2z"/>
	</g>
</g>
</svg>
