<?xml version="1.0" encoding="utf-8"?>
<!-- Generator: Adobe Illustrator 19.0.0, SVG Export Plug-In . SVG Version: 6.00 Build 0)  -->
<svg version="1.1" id="Layer_1" xmlns="http://www.w3.org/2000/svg" xmlns:xlink="http://www.w3.org/1999/xlink" x="0px" y="0px"
	 viewBox="0 0 542.5 483.6" style="enable-background:new 0 0 542.5 483.6;" xml:space="preserve">
<style type="text/css">
	.st0{clip-path:url(#SVGID_2_);}
</style>
<g>
	<defs>
		<rect id="SVGID_1_" width="542.5" height="483.6"/>
	</defs>
	<clipPath id="SVGID_2_">
		<use xlink:href="#SVGID_1_"  style="overflow:visible;"/>
	</clipPath>
	<path class="st0" d="M288.4,54.2c-17.7,0-32.1,14.4-32.1,32c0,17.8,14.4,32.1,32.1,32.1c17.7,0,32-14.4,32-32.1
		C320.4,68.5,306.1,54.2,288.4,54.2"/>
	<path class="st0" d="M542.4,120.3c-0.1-0.7-0.1-1.3-0.3-2c0-0.4-0.2-1-0.4-1.4c-0.1-0.6-0.3-1.2-0.5-1.8c-0.2-0.4-0.4-0.9-0.6-1.3
		c-0.3-0.6-0.6-1.1-1-1.8c-0.2-0.4-0.4-0.7-0.7-1.1c-0.4-0.5-0.9-1.1-1.4-1.7c-0.3-0.3-0.5-0.4-0.8-0.7c-0.5-0.5-1.1-1.1-1.7-1.5
		c-0.3-0.2-0.6-0.4-0.9-0.5c-0.7-0.4-1.3-0.8-2.1-1.1c-0.4-0.2-0.7-0.3-1-0.4c-0.5-0.2-1-0.4-1.6-0.5L375.8,63.6
		c-3.2-8.6-8-17-14.2-24.9C342.9,14.8,314.9,0,288.4,0c-26.5,0-54.5,14.8-73.2,38.7c-15.1,19.3-21.5,41.5-18.4,61.9l-10.1,2.7
		L22,59.6c-5.3-1.4-10.8-0.3-15.1,3C2.5,65.9,0,71.1,0,76.5v344.7c0,0.4,0.1,0.8,0.1,1.1c0.1,0.6,0.1,1.2,0.2,1.8
		c0.2,0.6,0.3,1.1,0.4,1.8c0.2,0.4,0.3,1,0.4,1.4c0.3,0.6,0.5,1.2,0.9,1.8c0.2,0.4,0.3,0.8,0.6,1.1c0.4,0.6,0.8,1.1,1.2,1.8
		c0.3,0.3,0.5,0.6,0.8,1c0.5,0.5,1.1,1,1.6,1.4c0.3,0.3,0.6,0.6,1,0.8c0.5,0.5,1.2,0.9,1.9,1.2c0.3,0.2,0.6,0.4,0.9,0.5
		c0.8,0.4,1.6,0.6,2.4,0.9c0.2,0.1,0.4,0.2,0.6,0.3l0.9,0.3l0.1,0L182.2,483c3,0.8,6,0.8,9,0l91.7-24.4l73-19.3L520.5,483h0.4
		c1.3,0.4,2.6,0.5,4,0.5h0.2c1.8,0,3.4-0.4,5-0.8c0.4-0.1,0.6-0.2,0.9-0.3c1.6-0.6,3.1-1.4,4.4-2.3c0.2-0.3,0.4-0.4,0.6-0.6
		c1.3-1.1,2.5-2.2,3.4-3.6c0.1-0.1,0.1-0.1,0.2-0.2c1-1.4,1.7-3.1,2.2-4.8c0-0.2,0.2-0.3,0.2-0.4c0.1-0.2,0.1-0.4,0.1-0.4
		c0.2-0.6,0.2-1.2,0.3-1.8c0.1-0.6,0.2-1.2,0.2-1.8c0.1-0.2,0.1-0.4,0.1-0.5V121.4C542.5,121,542.4,120.7,542.4,120.3L542.4,120.3z
		 M169.1,443.3L35,407.7V99.2l134.1,35.6V443.3z M338.4,407.7l-67.7,18l-66.5,17.6V134.8l4.2-1.1c20.4,42.9,60.4,99.8,65.8,107.4
		c3.2,4.6,8.6,7.4,14.3,7.4c5.7,0,11-2.7,14.3-7.4c3.3-4.6,19.2-27.2,35.7-53.8L338.4,407.7z M345,98c-1,3.9-2.7,8.8-5.1,14.2
		c-0.1,0.3-0.3,0.5-0.4,0.8c-11,24.9-34.1,61.6-51.2,87.1c-20.9-31.3-51-79.4-56.6-102.1c-2.9-11.5,1.1-25.2,10.9-37.7
		c12-15.4,29.9-25.3,45.7-25.3s33.7,9.9,45.7,25.3C343.9,72.8,347.9,86.5,345,98L345,98z M507.5,443.3l-134.1-35.6V122.9
		c2.4-6,4.5-11.6,5.7-16.5c0.4-1.8,0.6-3.6,1-5.3l127.5,33.9L507.5,443.3z"/>
</g>
</svg>
