<?xml version="1.0" encoding="utf-8"?>
<!-- Generator: Adobe Illustrator 19.0.0, SVG Export Plug-In . SVG Version: 6.00 Build 0)  -->
<svg version="1.1" id="Layer_1" xmlns="http://www.w3.org/2000/svg" xmlns:xlink="http://www.w3.org/1999/xlink" x="0px" y="0px"
	 viewBox="0 0 947.3 951.5" style="enable-background:new 0 0 947.3 951.5;" xml:space="preserve">
<style type="text/css">
	.st0{clip-path:url(#SVGID_2_);fill:#FFFFFF;}
	.st1{clip-path:url(#SVGID_2_);fill:#082040;}
</style>
<g>
	<defs>
		<rect id="SVGID_1_" width="947.3" height="951.5"/>
	</defs>
	<clipPath id="SVGID_2_">
		<use xlink:href="#SVGID_1_"  style="overflow:visible;"/>
	</clipPath>
	<path class="st0" d="M578.2,799.9l-38.7-118.2l-25.1-77.4l-28.2-86.8l-8.4-23l-4.2-11.5l-2.1-3.1l-1-1h-1h-1l-1,1c0,1-1,2.1-1,2.1
		l-2.1,4.2L449.6,526l-41.8,121.3L367,757l-60.6,164.2c51.2,18.8,106.7,30.3,164.2,30.3c53.3,0,104.6-8.4,152.7-25.1l-14.6-43.9
		L578.2,799.9z"/>
	<path class="st1" d="M289.6,913.9c0,0-1,0-1-1C288.6,913.9,289.6,913.9,289.6,913.9"/>
	<path class="st0" d="M947.3,478.9C948.4,215.4,738.2,2.1,476.8,0S2.1,210.2,0,472.6c-1,132.8,52.3,253,140.1,340.9c1,1,1,1,2.1,2.1
		l104.6-178.8l35.6-69l30.3-65.9l27.2-69l25.1-71.1l29.3-86.8l25.1-78.4l31.4-102.5l23-73.2l11.5,37.6l20.9,77.4l18.8,69l20.9,70.1
		l20.9,66.9l19.9,58.6l20.9,60.6l25.1,60.6l32.4,66.9l38.7,76.3l38.7,65.9l58.6,87.8C889.8,733,946.3,612.7,947.3,478.9"/>
	<path class="st0" d="M306.4,921.2L306.4,921.2c-5.2-2.1-11.5-4.2-16.7-7.3C294.9,917,300.1,919.1,306.4,921.2"/>
</g>
</svg>
