<?xml version="1.0" encoding="utf-8"?>
<!-- Generator: Adobe Illustrator 19.0.0, SVG Export Plug-In . SVG Version: 6.00 Build 0)  -->
<svg version="1.1" id="Layer_1" xmlns="http://www.w3.org/2000/svg" xmlns:xlink="http://www.w3.org/1999/xlink" x="0px" y="0px"
	 viewBox="0 0 611 300" style="enable-background:new 0 0 611 300;" xml:space="preserve">
<style type="text/css">
	.st{fill:#ffffff;}
</style>
<polygon class="st" points="124.9,68.9 124.9,86.9 155.9,104.8 169.3,94.7 "/>
<polygon class="st" points="115.8,68.9 115.8,86.9 76,110.4 60,101.1 "/>
<polygon class="st" points="55.5,109 70.9,118.1 70.9,163.6 55.5,172.7 "/>
<polygon class="st" points="59,180.8 74.4,172 115.7,195.6 115.7,214 "/>
<polygon class="st" points="125,214 125,195.9 166.3,171.8 182.1,181 "/>
<polygon class="st" points="185.2,116.3 185.2,172.4 169.7,163.3 169.7,133.4 "/>
<polygon class="st" points="106.8,129.5 92.4,144 121.1,173.5 207.8,76.8 121.5,144.3 "/>
</svg>
