<?xml version="1.0" encoding="utf-8"?>
<!-- Generator: Adobe Illustrator 23.1.0, SVG Export Plug-In . SVG Version: 6.00 Build 0)  -->
<!DOCTYPE svg PUBLIC "-//W3C//DTD SVG 1.1//EN" "http://www.w3.org/Graphics/SVG/1.1/DTD/svg11.dtd" [
	<!ENTITY ns_extend "http://ns.adobe.com/Extensibility/1.0/">
	<!ENTITY ns_ai "http://ns.adobe.com/AdobeIllustrator/10.0/">
	<!ENTITY ns_graphs "http://ns.adobe.com/Graphs/1.0/">
	<!ENTITY ns_vars "http://ns.adobe.com/Variables/1.0/">
	<!ENTITY ns_imrep "http://ns.adobe.com/ImageReplacement/1.0/">
	<!ENTITY ns_sfw "http://ns.adobe.com/SaveForWeb/1.0/">
	<!ENTITY ns_custom "http://ns.adobe.com/GenericCustomNamespace/1.0/">
	<!ENTITY ns_adobe_xpath "http://ns.adobe.com/XPath/1.0/">
]>
<svg version="1.1" id="Isolation_Mode" xmlns:x="&ns_extend;" xmlns:i="&ns_ai;" xmlns:graph="&ns_graphs;"
	 xmlns="http://www.w3.org/2000/svg" xmlns:xlink="http://www.w3.org/1999/xlink" x="0px" y="0px" viewBox="0 0 265 265"
	 style="enable-background:new 0 0 265 265;" xml:space="preserve">
<style type="text/css">
	.st0{fill:url(#SVGID_1_);}
</style>
<metadata>
	<sfw  xmlns="&ns_sfw;">
		<slices></slices>
		<sliceSourceBounds  bottomLeftOrigin="true" height="265" width="265" x="0" y="0"></sliceSourceBounds>
	</sfw>
</metadata>
<g>
	<linearGradient id="SVGID_1_" gradientUnits="userSpaceOnUse" x1="0" y1="132.5" x2="265" y2="132.5">
		<stop  offset="0" style="stop-color:#1EB8EA"/>
		<stop  offset="1" style="stop-color:#94E0D7"/>
	</linearGradient>
	<path class="st0" d="M132.5,0C59.3,0,0,59.3,0,132.5C0,205.7,59.3,265,132.5,265c73.2,0,132.5-59.3,132.5-132.5
		C265,59.3,205.7,0,132.5,0z M195.1,96.6l-66.6,86.2c-2.1,2.7-5.2,4.2-8.4,4.5c-4.1,0.6-8.4-1-11-4.5l-39.3-51.5
		c-3.9-5.2-2.9-12.6,2.2-16.5l0,0c5.2-3.9,12.6-2.9,16.5,2.2l30.3,39.8l57.6-74.6c4-5.1,11.4-6.1,16.5-2.1
		C198.1,84,199.1,91.5,195.1,96.6z"/>
</g>
</svg>
