<?xml version="1.0" encoding="utf-8"?>
<!-- Generator: Adobe Illustrator 23.1.0, SVG Export Plug-In . SVG Version: 6.00 Build 0)  -->
<!DOCTYPE svg PUBLIC "-//W3C//DTD SVG 1.1//EN" "http://www.w3.org/Graphics/SVG/1.1/DTD/svg11.dtd" [
	<!ENTITY ns_extend "http://ns.adobe.com/Extensibility/1.0/">
	<!ENTITY ns_ai "http://ns.adobe.com/AdobeIllustrator/10.0/">
	<!ENTITY ns_graphs "http://ns.adobe.com/Graphs/1.0/">
	<!ENTITY ns_vars "http://ns.adobe.com/Variables/1.0/">
	<!ENTITY ns_imrep "http://ns.adobe.com/ImageReplacement/1.0/">
	<!ENTITY ns_sfw "http://ns.adobe.com/SaveForWeb/1.0/">
	<!ENTITY ns_custom "http://ns.adobe.com/GenericCustomNamespace/1.0/">
	<!ENTITY ns_adobe_xpath "http://ns.adobe.com/XPath/1.0/">
]>
<svg version="1.1" id="Layer_1" xmlns:x="&ns_extend;" xmlns:i="&ns_ai;" xmlns:graph="&ns_graphs;"
	 xmlns="http://www.w3.org/2000/svg" xmlns:xlink="http://www.w3.org/1999/xlink" x="0px" y="0px" viewBox="0 0 473.6 478.3"
	 style="enable-background:new 0 0 473.6 478.3;" xml:space="preserve">
<style type="text/css">
	.st0{fill:#2DCEC3;}
	.st1{fill:#FFFFFF;}
</style>
<metadata>
	<sfw  xmlns="&ns_sfw;">
		<slices></slices>
		<sliceSourceBounds  bottomLeftOrigin="true" height="388.9" width="385.1" x="691.6" y="-663.9"></sliceSourceBounds>
		<optimizationSettings>
			<targetSettings  fileFormat="PNG24Format" targetSettingsID="0">
				<PNG24Format  filtered="false" interlaced="false" matteColor="#000000" noMatteColor="true" transparency="true">
					</PNG24Format>
			</targetSettings>
		</optimizationSettings>
	</sfw>
</metadata>
<g>
	<g>
		<path class="st0" d="M58.8,146c-24.2-24.4-15.5-62.3,5.7-83.8C76.4,50.3,93,44.7,109.9,44.7h141.8h99.9c3.2,0.1,7.7,0,11,0
			c16.7,0,33.5,5.4,44.3,15.1c5.2,4.7,9.5,10.2,13.2,16.1c8.1,13,9.4,27.6,9.4,43.9c0,3.2,0,6.2,0,9.4l0,241.3
			c0,16.8-6,33.4-18.1,45c-21.8,20.8-60,26.3-83.7,2.4L58.8,146z"/>
	</g>
</g>
<path class="st1" d="M274.7,113.9l-9.1,28c-1.9,5.9-7.5,10-13.7,10h-29.4c-14,0-19.8,17.9-8.5,26.1l23.8,17.3
	c5,3.7,7.2,10.2,5.2,16.1l-9.1,28c-4.3,13.3,10.9,24.3,22.2,16.1l23.8-17.3c5-3.7,11.9-3.7,16.9,0l23.8,17.3
	c11.3,8.2,26.5-2.8,22.2-16.1l-9.1-28c-1.9-5.9,0.2-12.4,5.2-16.1l23.8-17.3c11.3-8.2,5.5-26.1-8.5-26.1h-29.4
	c-6.2,0-11.8-4-13.7-10l-9.1-28C297.8,100.6,279,100.6,274.7,113.9z"/>
</svg>
