<?xml version="1.0" encoding="utf-8"?>
<!-- Generator: Adobe Illustrator 19.0.0, SVG Export Plug-In . SVG Version: 6.00 Build 0)  -->
<svg version="1.1" id="Layer_1" xmlns="http://www.w3.org/2000/svg" xmlns:xlink="http://www.w3.org/1999/xlink" x="0px" y="0px"
	 viewBox="0 0 100 125" style="enable-background:new 0 0 100 125;" xml:space="preserve">
<style type="text/css">
	.st0{fill:#707070;}
</style>
<path class="st0" d="M24.8,59.8l22.4,29.6c1.2,1.5,3.4,1.8,4.9,0.7c0.3-0.2,0.5-0.4,0.7-0.7l22.4-29.6c10.5-13.9,7.8-33.7-6.1-44.2
	s-33.7-7.8-44.2,6.1C16.3,33,16.3,48.5,24.8,59.8L24.8,59.8z M50,24.1c9,0,16.3,7.3,16.3,16.2S59,56.6,50,56.6s-16.3-7.3-16.3-16.2
	C33.8,31.3,41,24.1,50,24.1z"/>
</svg>
