<?xml version="1.0" encoding="utf-8"?>
<!-- Generator: Adobe Illustrator 19.0.0, SVG Export Plug-In . SVG Version: 6.00 Build 0)  -->
<svg version="1.1" id="Layer_1" xmlns="http://www.w3.org/2000/svg" xmlns:xlink="http://www.w3.org/1999/xlink" x="0px" y="0px"
	 viewBox="0 0 186.7 280" style="enable-background:new 0 0 186.7 280;" xml:space="preserve">
<style type="text/css">
	.st0{clip-path:url(#SVGID_2_);}
</style>
<g>
	<defs>
		<rect id="SVGID_1_" width="186.7" height="280"/>
	</defs>
	<clipPath id="SVGID_2_">
		<use xlink:href="#SVGID_1_"  style="overflow:visible;"/>
	</clipPath>
	<path fill="#14cab8" class="st0" d="M1.1,104.2c1.5,12.3,5.2,23.8,11,34.2C37.3,199.1,93.3,280,93.3,280s56.1-80.9,81.2-141.6
		c5.8-10.4,9.5-21.9,11-34.2c0.7-3.9,1.1-7.6,1.1-10.9C186.7,41.8,144.9,0,93.3,0S0,41.8,0,93.3C0,96.6,0.4,100.3,1.1,104.2
		L1.1,104.2z M93.3,46.7c25.8,0,46.7,20.9,46.7,46.7S119.1,140,93.3,140s-46.7-20.9-46.7-46.7S67.6,46.7,93.3,46.7"/>
</g>
</svg>
