<?xml version="1.0" encoding="utf-8"?>
<!-- Generator: Adobe Illustrator 19.0.0, SVG Export Plug-In . SVG Version: 6.00 Build 0)  -->
<svg version="1.1" id="Layer_1" xmlns="http://www.w3.org/2000/svg" xmlns:xlink="http://www.w3.org/1999/xlink" x="0px" y="0px"
	 viewBox="0 0 525 525" style="enable-background:new 0 0 525 525;" xml:space="preserve">
<style type="text/css">
	.st0{clip-path:url(#SVGID_2_);fill:#0084D1;}
</style>
<g>
	<defs>
		<rect id="SVGID_1_" width="525" height="525"/>
	</defs>
	<clipPath id="SVGID_2_">
		<use xlink:href="#SVGID_1_"  style="overflow:visible;"/>
	</clipPath>
	<path class="st0" d="M141.1,343.9L105.7,397c-4.1,6.1,0.3,14.2,7.6,14.2c5.1,0,9.2,4.1,9.2,9.2v95.4c0,5.1,4.1,9.2,9.2,9.2h34.2
		c5.1,0,9.2-4.1,9.2-9.2v-95.4c0-5.1,4.1-9.2,9.2-9.2c7.3,0,11.7-8.1,7.6-14.2l-35.4-53.1C152.7,338.5,144.8,338.5,141.1,343.9"/>
	<path class="st0" d="M254.9,195.2l-35.4,53.1c-4.1,6.1,0.3,14.2,7.6,14.2c5.1,0,9.2,4.1,9.2,9.2v244.2c0,5.1,4.1,9.2,9.2,9.2h34.2
		c5.1,0,9.2-4.1,9.2-9.2V271.7c0-5.1,4.1-9.2,9.2-9.2c7.3,0,11.7-8.1,7.6-14.2l-35.4-53.1C266.5,189.7,258.5,189.7,254.9,195.2"/>
	<path class="st0" d="M368.6,300.2l-35.4,53.1c-4.1,6.1,0.3,14.2,7.6,14.2c5.1,0,9.2,4.1,9.2,9.2v139.2c0,5.1,4.1,9.2,9.2,9.2h34.2
		c5.1,0,9.2-4.1,9.2-9.2V376.7c0-5.1,4.1-9.2,9.2-9.2c7.3,0,11.7-8.1,7.6-14.2l-35.4-53.1C380.2,294.7,372.3,294.7,368.6,300.2"/>
	<rect x="192.5" y="437.5" class="st0" width="26.3" height="17.5"/>
	<rect x="306.3" y="437.5" class="st0" width="26.3" height="17.5"/>
	<path class="st0" d="M498.7,0H26.3C11.8,0,0,11.8,0,26.3v420c0,4.8,3.9,8.8,8.8,8.8h87.5c4.8,0,8.8-3.9,8.8-8.8
		c0-4.8-3.9-8.8-8.8-8.8h-70c-4.8,0-8.8-3.9-8.8-8.8V122.5c0-4.8,3.9-8.8,8.8-8.8h472.5c4.8,0,8.8,3.9,8.8,8.8v306.3
		c0,4.8-3.9,8.8-8.8,8.8h-70c-4.8,0-8.8,3.9-8.8,8.8c0,4.8,3.9,8.8,8.8,8.8h87.5c4.8,0,8.8-3.9,8.8-8.8v-420
		C525,11.8,513.2,0,498.7,0 M450.6,17.5c7,0,13.1,6.1,13.1,13.1s-6.1,13.1-13.1,13.1s-13.1-6.1-13.1-13.1S443.6,17.5,450.6,17.5
		 M411.2,96.3h-385c-4.8,0-8.8-3.9-8.8-8.8V70c0-4.8,3.9-8.8,8.8-8.8h385c4.8,0,8.8,3.9,8.8,8.8v17.5
		C420,92.3,416.1,96.3,411.2,96.3 M406.9,43.8c-7,0-13.1-6.1-13.1-13.1s6.1-13.1,13.1-13.1S420,23.6,420,30.6S413.9,43.8,406.9,43.8
		 M498.7,96.3h-52.5c-4.8,0-8.8-3.9-8.8-8.8V70c0-4.8,3.9-8.8,8.8-8.8h52.5c4.8,0,8.8,3.9,8.8,8.8v17.5
		C507.5,92.3,503.6,96.3,498.7,96.3 M494.4,43.8c-7,0-13.1-6.1-13.1-13.1s6.1-13.1,13.1-13.1s13.1,6.1,13.1,13.1
		S501.4,43.8,494.4,43.8"/>
	<path class="st0" d="M384.6,128.9c-36.5,0-66,29.6-66,66c0,36.5,29.6,66,66,66c36.5,0,66-29.6,66-66
		C450.6,158.5,421.1,128.9,384.6,128.9 M384.6,241.5c-25.7,0-46.6-20.8-46.6-46.6c0-25.7,20.9-46.6,46.6-46.6
		c25.7,0,46.6,20.8,46.6,46.6C431.2,220.7,410.3,241.5,384.6,241.5"/>
	<path class="st0" d="M489.6,353.5l-3.8,2.4c-5.6,3.5-13,1.8-16.6-3.7L408,255.3c-3.5-5.6-1.8-13,3.7-16.6l3.8-2.4
		c5.6-3.5,13-1.8,16.6,3.7l61.3,96.9C496.8,342.5,495.1,350,489.6,353.5"/>
</g>
</svg>
