<?xml version="1.0" encoding="utf-8"?>
<!-- Generator: Adobe Illustrator 19.0.0, SVG Export Plug-In . SVG Version: 6.00 Build 0)  -->
<svg version="1.1" id="Layer_1" xmlns="http://www.w3.org/2000/svg" xmlns:xlink="http://www.w3.org/1999/xlink" x="0px" y="0px"
	 viewBox="0 0 559.3 491.8" style="enable-background:new 0 0 559.3 491.8;" xml:space="preserve">
<style type="text/css">
	.st0{clip-path:url(#SVGID_2_);fill:#888888;}
</style>
<g>
	<defs>
		<rect id="SVGID_1_" width="559.3" height="491.8"/>
	</defs>
	<clipPath id="SVGID_2_">
		<use xlink:href="#SVGID_1_"  style="overflow:visible;"/>
	</clipPath>
	<path class="st0" d="M43.2,491.6c-1.6,0.7-3.3-1-2.5-2.6L97,375.6l-0.9-0.6c-7.8-5.6-15.2-10.8-22.5-16.8
		c-28-23.3-50.5-51.6-63.2-85.9c-13.1-35.5-13.8-74.6-2.2-110.6c10.6-32.8,30.9-61.6,56.4-84.7c1-0.9,1.9-1.7,2.9-2.6
		c45.8-40.2,101.7-63.7,171-72c38.4-4.6,77.3-2.8,115.1,5.3C408.6,19.4,453.7,41.1,491.1,74c34.4,30.3,55.4,64.5,64.2,104.6
		c2.1,9.6,3.6,19.3,3.9,29.1c0.3,9.9-0.3,19.8-1.8,29.7c-2.3,15.8-6.9,31.3-13.5,45.9c-4.4,9.8-9.8,19.2-15.8,28.1
		c-25.4,37.3-61.7,66.5-107.9,86.6c-44,19.3-91.5,29.2-139.5,29.1c-28.4-0.1-56.7-3.3-84.4-9.5c-0.5-0.1-1.1,0-1.6,0.2
		c-27.7,13.6-55.8,27.6-83,41.2l-33.4,16.6c-1.3,0.6-2.5,1.2-4,1.8l-2.7,1.2L43.2,491.6z M26.3,221.5c1.2,21.9,7.5,43.4,18.3,63.1
		c11.4,20.7,27.4,38.4,45.6,53.4c6.5,5.4,13.5,10.4,20.9,15.6c3.3,2.3,6.7,4.7,10.1,7.2l7.6,5.5c0.7,0.5,1,1.5,0.6,2.4l-31.9,64.3
		c-0.8,1.6,0.9,3.4,2.5,2.5c27.3-13.6,55.5-27.6,83.3-41.3l0.3-0.1c5.5-2.6,11.7-3.4,17.7-2.2l0.4,0.1
		c73.5,16.2,143.5,10.2,208.2-18c42.2-18.4,73.9-43.8,96.8-77.4c10.7-15.7,18.7-33.1,22.9-51.6c2.1-9.4,3.5-18.9,3.9-28.6
		c0.3-9.8-1-19.4-2.8-29c-0.2-1.1-0.4-2.2-0.7-3.3c-7.7-34.5-25.9-64.2-56-90.7c-34-29.9-75.2-49.6-125.8-60.3
		c-35-7.5-71-9.1-106.6-4.9C177.6,36,126.4,57.4,84.6,94c-25.3,22.2-45.4,50.5-53.9,83.4C26.9,192.1,25.5,206.9,26.3,221.5
		 M386.7,253.7H386c-10.5-0.1-20.6-4.4-28-11.9c-7.4-7.5-11.5-17.6-11.5-28.2c0.1-22.1,17.8-40.1,39.5-40.1h0
		c10.9-0.1,21.3,4.2,29,11.9c7.5,7.6,11.6,17.8,11.5,28.4v0.6c-0.2,10.4-4.5,20.4-11.9,27.7C407.1,249.6,397.1,253.7,386.7,253.7
		L386.7,253.7z M386,199.6c-7.4,0-13.4,6.3-13.4,14.1v0c0,7.6,6.1,13.8,13.7,13.9h0.2c3.7,0.1,7.2-1.3,9.8-3.9
		c2.6-2.5,4.2-6,4.2-9.7v-0.3c0.1-3.7-1.3-7.3-4-10C393.7,201.1,389.9,199.5,386,199.6L386,199.6z M272,253.1c-0.1,0-0.2,0-0.3,0
		c-20-4.5-32.4-21.4-32.3-39.6v-0.1c0.3-21.6,18.3-39.8,39.4-39.8h0.1c22.8,0,40.8,17.5,40.9,39.9v0.2l0,0
		c-0.1,10.6-4.4,20.8-11.9,28.3c-7.5,7.5-17.6,11.7-28.2,11.8c-0.1,0-0.1,0-0.2,0L272,253.1z M265.4,213.6L265.4,213.6
		c0,7.7,6.3,14,14,14c7.8,0,14.1-6.3,14.2-14.1c-0.1-7.8-6.6-13.9-14.9-13.9C271.7,199.6,265.5,206.1,265.4,213.6L265.4,213.6z
		 M172.4,253.2c-10.6,0-20.8-4.2-28.3-11.7c-7.5-7.5-11.7-17.6-11.7-28.2v-0.1c0.2-21.4,18-39.6,38.9-39.6h0.1
		c11.1-0.1,21.8,4.2,29.6,12c7.6,7.7,11.7,18.1,11.5,28.9v0.3v0c-0.4,10.3-4.8,20.1-12.2,27.3C192.7,249.2,182.8,253.2,172.4,253.2
		L172.4,253.2z M158.5,213.3L158.5,213.3c0,7.7,6.3,13.8,13.9,13.9c5.6,0.1,10.6-3.2,12.8-8.3c2.2-5.1,1.1-11-2.8-15
		c-2.9-2.8-6.9-4.4-11-4.3C164.7,199.6,158.6,206.1,158.5,213.3L158.5,213.3z"/>
</g>
</svg>
