<?xml version="1.0" encoding="utf-8"?>
<!-- Generator: Adobe Illustrator 19.0.0, SVG Export Plug-In . SVG Version: 6.00 Build 0)  -->
<svg version="1.1" id="Layer_1" xmlns="http://www.w3.org/2000/svg" xmlns:xlink="http://www.w3.org/1999/xlink" x="0px" y="0px"
	 viewBox="0 0 525 525" style="enable-background:new 0 0 525 525;" xml:space="preserve">
<style type="text/css">
	.st0{clip-path:url(#SVGID_2_);}
</style>
<g>
	<defs>
		<rect id="SVGID_1_" width="525" height="525"/>
	</defs>
	<clipPath id="SVGID_2_">
		<use xlink:href="#SVGID_1_"  style="overflow:visible;"/>
	</clipPath>
	<path fill="#0084d1" class="st0" d="M481.3,0H43.8C32.1,0,21,4.6,12.8,12.8C4.6,21,0,32.1,0,43.8v437.5c0,11.6,4.6,22.7,12.8,30.9
		C21,520.4,32.1,525,43.8,525h437.5c11.6,0,22.7-4.6,30.9-12.8c8.2-8.2,12.8-19.3,12.8-30.9V43.8c0-11.6-4.6-22.7-12.8-30.9
		C504,4.6,492.9,0,481.3,0 M376.3,52.5h87.5c4.8,0,8.8,3.9,8.8,8.8s-3.9,8.8-8.8,8.8h-87.5c-4.8,0-8.8-3.9-8.8-8.8
		S371.4,52.5,376.3,52.5 M148.8,52.5c3.5,0,6.7,2.1,8.1,5.4c1.4,3.3,0.6,7-1.9,9.5c-2.5,2.5-6.3,3.3-9.5,1.9
		c-3.3-1.4-5.4-4.5-5.4-8.1C140,56.4,143.9,52.5,148.8,52.5 M105,52.5c3.5,0,6.7,2.1,8.1,5.4c1.4,3.3,0.6,7-1.9,9.5
		c-2.5,2.5-6.3,3.3-9.5,1.9c-3.3-1.4-5.4-4.5-5.4-8.1C96.3,56.4,100.2,52.5,105,52.5 M61.3,52.5c3.5,0,6.7,2.1,8.1,5.4
		c1.4,3.3,0.6,7-1.9,9.5c-2.5,2.5-6.3,3.3-9.5,1.9c-3.3-1.4-5.4-4.5-5.4-8.1C52.5,56.4,56.4,52.5,61.3,52.5 M507.5,481.3
		c0,7-2.8,13.6-7.7,18.5s-11.6,7.7-18.5,7.7H43.8c-7,0-13.6-2.8-18.5-7.7s-7.7-11.6-7.7-18.5V122.5h490V481.3z"/>
	<path fill="#0084d1" class="st0" d="M109.4,420H121l-4.6,16.9c-1.3,4.7-0.5,9.8,2.1,13.9c2.6,4.1,6.8,7,11.6,7.9c4.8,0.9,9.8-0.3,13.7-3.2L191,420
		h84.6c7,0,13.6-2.8,18.5-7.7s7.7-11.6,7.7-18.5v-52.5H334l47.3,35.4c3.9,2.9,8.9,4.1,13.7,3.2c4.8-0.9,9-3.7,11.6-7.9
		c2.6-4.1,3.4-9.2,2.1-13.9l-4.6-16.9h11.6c7,0,13.6-2.8,18.5-7.7s7.7-11.6,7.7-18.5V192.5c0-7-2.8-13.6-7.7-18.5
		s-11.6-7.7-18.5-7.7H249.4c-7,0-13.6,2.8-18.5,7.7s-7.7,11.6-7.7,18.5V245H109.4c-7,0-13.6,2.8-18.5,7.7s-7.7,11.6-7.7,18.5v122.5
		c0,7,2.8,13.6,7.7,18.5S102.4,420,109.4,420z M240.6,192.5c0-4.8,3.9-8.8,8.8-8.8h166.3c2.3,0,4.5,0.9,6.2,2.6
		c1.6,1.6,2.6,3.9,2.6,6.2V315c0,2.3-0.9,4.5-2.6,6.2c-1.6,1.6-3.9,2.6-6.2,2.6h-23.1c-2.7,0-5.3,1.3-6.9,3.4
		c-1.6,2.2-2.2,5-1.5,7.6l7.6,27.9l-49.6-37.2c-1.5-1.1-3.4-1.8-5.3-1.8h-87.5c-4.8,0-8.8-3.9-8.8-8.8V192.5z M135.6,280h61.3
		c4.8,0,8.8,3.9,8.8,8.8s-3.9,8.8-8.8,8.8h-61.3c-4.8,0-8.8-3.9-8.8-8.8S130.8,280,135.6,280 M135.6,323.8h61.3
		c4.8,0,8.8,3.9,8.8,8.8s-3.9,8.8-8.8,8.8h-61.3c-4.8,0-8.8-3.9-8.8-8.8S130.8,323.8,135.6,323.8 M135.6,367.5h113.8
		c4.8,0,8.8,3.9,8.8,8.8c0,4.8-3.9,8.8-8.8,8.8H135.6c-4.8,0-8.8-3.9-8.8-8.8C126.9,371.4,130.8,367.5,135.6,367.5"/>
	<path fill="#0084d1" class="st0" d="M310.6,218.8h78.8c4.8,0,8.8-3.9,8.8-8.8c0-4.8-3.9-8.8-8.8-8.8h-78.8c-4.8,0-8.8,3.9-8.8,8.8
		C301.9,214.8,305.8,218.8,310.6,218.8"/>
	<path fill="#0084d1" class="st0" d="M275.6,262.5h113.8c4.8,0,8.8-3.9,8.8-8.8c0-4.8-3.9-8.8-8.8-8.8H275.6c-4.8,0-8.8,3.9-8.8,8.8
		C266.9,258.6,270.8,262.5,275.6,262.5"/>
	<path fill="#0084d1" class="st0" d="M275.6,306.3h113.8c4.8,0,8.8-3.9,8.8-8.8c0-4.8-3.9-8.8-8.8-8.8H275.6c-4.8,0-8.8,3.9-8.8,8.8
		C266.9,302.3,270.8,306.3,275.6,306.3"/>
	<path fill="#0084d1" class="st0" d="M284.4,210c0,4.8-3.9,8.8-8.8,8.8c-4.8,0-8.8-3.9-8.8-8.8c0-4.8,3.9-8.8,8.8-8.8
		C280.5,201.3,284.4,205.2,284.4,210"/>
	<path fill="#0084d1" class="st0" d="M371.9,393.8h-26.3c-4.8,0-8.8,3.9-8.8,8.8s3.9,8.8,8.8,8.8h26.3c4.8,0,8.8-3.9,8.8-8.8
		S376.7,393.8,371.9,393.8"/>
	<path fill="#0084d1" class="st0" d="M319.4,420c-4.8,0-8.8,3.9-8.8,8.8V455c0,4.8,3.9,8.8,8.8,8.8c4.8,0,8.8-3.9,8.8-8.8v-26.3
		c0-2.3-0.9-4.5-2.6-6.2C323.9,420.9,321.7,420,319.4,420"/>
	<path fill="#0084d1" class="st0" d="M126.9,227.5h26.2c4.8,0,8.8-3.9,8.8-8.8c0-4.8-3.9-8.8-8.8-8.8h-26.2c-4.8,0-8.8,3.9-8.8,8.8
		C118.1,223.6,122,227.5,126.9,227.5"/>
	<path fill="#0084d1" class="st0" d="M179.4,201.3c2.3,0,4.5-0.9,6.2-2.6c1.6-1.6,2.6-3.9,2.6-6.2v-26.3c0-4.8-3.9-8.8-8.8-8.8
		c-4.8,0-8.8,3.9-8.8,8.8v26.3c0,2.3,0.9,4.5,2.6,6.2C174.8,200.3,177.1,201.3,179.4,201.3"/>
</g>
</svg>
