<?xml version="1.0" encoding="utf-8"?>
<!-- Generator: Adobe Illustrator 24.0.2, SVG Export Plug-In . SVG Version: 6.00 Build 0)  -->
<!DOCTYPE svg PUBLIC "-//W3C//DTD SVG 1.1//EN" "http://www.w3.org/Graphics/SVG/1.1/DTD/svg11.dtd" [
	<!ENTITY ns_extend "http://ns.adobe.com/Extensibility/1.0/">
	<!ENTITY ns_ai "http://ns.adobe.com/AdobeIllustrator/10.0/">
	<!ENTITY ns_graphs "http://ns.adobe.com/Graphs/1.0/">
	<!ENTITY ns_vars "http://ns.adobe.com/Variables/1.0/">
	<!ENTITY ns_imrep "http://ns.adobe.com/ImageReplacement/1.0/">
	<!ENTITY ns_sfw "http://ns.adobe.com/SaveForWeb/1.0/">
	<!ENTITY ns_custom "http://ns.adobe.com/GenericCustomNamespace/1.0/">
	<!ENTITY ns_adobe_xpath "http://ns.adobe.com/XPath/1.0/">
]>
<svg version="1.1" id="Layer_1" xmlns:x="&ns_extend;" xmlns:i="&ns_ai;" xmlns:graph="&ns_graphs;"
	 xmlns="http://www.w3.org/2000/svg" xmlns:xlink="http://www.w3.org/1999/xlink" x="0px" y="0px" viewBox="0 0 87.4 87.4"
	 style="enable-background:new 0 0 87.4 87.4;" xml:space="preserve">
<style type="text/css">
	.st0{fill:none;stroke:#81B8DC;stroke-width:3;stroke-miterlimit:10;}
	.st1{fill:#81B8DC;}
</style>
<metadata>
	<sfw  xmlns="&ns_sfw;">
		<slices></slices>
		<sliceSourceBounds  bottomLeftOrigin="true" height="87.4" width="87.4" x="0" y="0"></sliceSourceBounds>
	</sfw>
</metadata>
<title>review-comment-feedback</title>
<circle class="st0" cx="43.7" cy="43.7" r="42.2"/>
<g>
	<polygon class="st1" points="24.1,32.6 24.8,34 26.4,34.2 25.3,35.4 25.6,36.9 24.1,36.2 22.7,36.9 23,35.4 21.8,34.2 23.4,34 	"/>
</g>
<g>
	<polygon class="st1" points="29.5,32.6 30.2,34 31.8,34.2 30.7,35.4 31,36.9 29.5,36.2 28.1,36.9 28.4,35.4 27.3,34.2 28.8,34 	"/>
</g>
<g>
	<polygon class="st1" points="34.9,32.6 35.6,34 37.2,34.2 36.1,35.4 36.4,36.9 34.9,36.2 33.5,36.9 33.8,35.4 32.7,34.2 34.2,34 	
		"/>
</g>
<g>
	<polygon class="st1" points="40.3,32.6 41,34 42.6,34.2 41.5,35.4 41.8,36.9 40.3,36.2 38.9,36.9 39.2,35.4 38.1,34.2 39.6,34 	"/>
</g>
<g>
	<path class="st1" d="M45.7,33.5l0.3,0.7l0.1,0.2l0.2,0.1l0.7,0.1L46.6,35l-0.2,0.2l0.1,0.2l0.1,0.7l-0.6-0.3l-0.2-0.1l-0.2,0.1
		l-0.7,0.3l0.1-0.7l0.1-0.2L44.9,35l-0.6-0.5l0.7-0.1l0.2-0.1l0.1-0.2L45.7,33.5 M45.7,32.6L45,34.1l-1.6,0.2l1.1,1.1l-0.3,1.6
		l1.4-0.7l1.4,0.7l-0.3-1.6l1.1-1.1l-1.6-0.2L45.7,32.6L45.7,32.6z"/>
</g>
<g>
	<g>
		<path class="st1" d="M26.2,43.1c0.9,0,1.6-0.7,1.6-1.6s-0.7-1.6-1.6-1.6s-1.6,0.7-1.6,1.6C24.6,42.3,25.3,43.1,26.2,43.1"/>
	</g>
</g>
<g>
	<g>
		<path class="st1" d="M30.1,46.6V45c0-1.1-1-1.4-2.1-1.4h-3.6c-1.1,0-2.1,0.3-2.1,1.4v1.6H30.1z"/>
	</g>
</g>
<path class="st1" d="M67,36.1h-3.2v-13c0-1.5-1.3-2.8-2.8-2.8H19.8c-1.5,0-2.8,1.3-2.8,2.8v37.5c0,1.5,1.3,2.8,2.8,2.8h30.4v9.5
	c0,1.1,0.9,2.1,2.1,2.1H67c1.1,0,2.1-0.9,2.1-2.1V38.1C69.2,37,68.2,36.1,67,36.1z M24.6,23.6h36.2c0.5,0,0.8,0.3,0.8,0.8
	s-0.3,0.8-0.8,0.8H24.6c-0.5,0-0.8-0.3-0.8-0.8C23.8,23.9,24.1,23.6,24.6,23.6z M21.2,23c0.7,0,1.4,0.6,1.4,1.4
	c0,0.7-0.6,1.4-1.4,1.4c-0.7,0-1.4-0.6-1.4-1.4C19.9,23.6,20.5,23,21.2,23z M19.8,60.9c-0.2,0-0.3-0.2-0.3-0.3V28h42v8h-9.2
	c-1.1,0-2.1,0.9-2.1,2.1v2.4H33.6c-0.5,0-0.8,0.3-0.8,0.8s0.3,0.8,0.8,0.8h16.5v2.7H33.6c-0.5,0-0.8,0.3-0.8,0.8
	c0,0.5,0.3,0.8,0.8,0.8h16.5v2.7H22.7c-0.5,0-0.8,0.3-0.8,0.8s0.3,0.8,0.8,0.8h27.4v2.6H22.7c-0.5,0-0.8,0.3-0.8,0.8
	c0,0.5,0.3,0.8,0.8,0.8h27.4v6C50.1,60.9,19.8,60.9,19.8,60.9z M59.6,74c-0.7,0-1.4-0.6-1.4-1.4s0.6-1.4,1.4-1.4s1.4,0.6,1.4,1.4
	C61.1,73.3,60.4,74,59.6,74z M67.8,70c0,0.2-0.1,0.3-0.3,0.3H51.7c-0.2,0-0.3-0.1-0.3-0.3V41c0-0.2,0.1-0.3,0.3-0.3h15.8
	c0.2,0,0.3,0.1,0.3,0.3V70z"/>
<path class="st1" d="M55.6,49.7c0.6,0,1.1-0.5,1.1-1.1s-0.5-1.1-1.1-1.1s-1.1,0.5-1.1,1.1C54.4,49.2,55,49.7,55.6,49.7"/>
<path class="st1" d="M58.5,52.3v-1.1c0-0.9-0.7-1.1-1.5-1.1h-2.6c-0.9,0-1.5,0.2-1.5,1.1v1.1H58.5z"/>
<path class="st1" d="M66.4,49.9h-6.3c-0.3,0-0.6-0.2-0.6-0.5s0.3-0.5,0.6-0.5h6.3c0.3,0,0.6,0.2,0.6,0.5
	C67,49.7,66.7,49.9,66.4,49.9z"/>
<path class="st1" d="M66.4,52.1h-6.3c-0.3,0-0.6-0.2-0.6-0.5c0-0.2,0.3-0.5,0.6-0.5h6.3c0.3,0,0.6,0.2,0.6,0.5
	C67,51.9,66.7,52.1,66.4,52.1z"/>
<path class="st1" d="M66.4,54.4H53.1c-0.3,0-0.6-0.2-0.6-0.5c0-0.2,0.3-0.5,0.6-0.5h13.3c0.3,0,0.6,0.2,0.6,0.5
	C67,54.2,66.7,54.4,66.4,54.4z"/>
<path class="st1" d="M66.4,56.7H53.1c-0.3,0-0.6-0.2-0.6-0.5s0.3-0.5,0.6-0.5h13.3c0.3,0,0.6,0.2,0.6,0.5
	C67,56.5,66.7,56.7,66.4,56.7z"/>
<path class="st1" d="M66.4,59H53.1c-0.3,0-0.6-0.2-0.6-0.5s0.3-0.5,0.6-0.5h13.3c0.3,0,0.6,0.2,0.6,0.5C67,58.8,66.7,59,66.4,59z"/>
<polygon class="st1" points="53.7,44.3 54,44.9 54.7,45 54.2,45.5 54.3,46.1 53.7,45.8 53.1,46.1 53.2,45.5 52.7,45 53.4,44.9 "/>
<polygon class="st1" points="56.1,44.3 56.3,44.9 57,45 56.5,45.5 56.6,46.1 56.1,45.8 55.4,46.1 55.5,45.5 55.1,45 55.7,44.9 "/>
<polygon class="st1" points="58.3,44.3 58.6,44.9 59.3,45 58.8,45.5 58.9,46.1 58.3,45.8 57.7,46.1 57.8,45.5 57.3,45 58,44.9 "/>
<polygon class="st1" points="60.7,44.3 60.9,44.9 61.6,45 61.1,45.5 61.2,46.1 60.7,45.8 60,46.1 60.1,45.5 59.7,45 60.3,44.9 "/>
<path class="st1" d="M62.9,44.3l-0.3,0.6L62,45l0.5,0.5l-0.1,0.6l0.6-0.3l0.6,0.3l-0.1-0.6l0.5-0.5l-0.6-0.1L62.9,44.3z M62.9,44.7
	l0.2,0.3l0.1,0.1h0.1l0.3,0.1l-0.2,0.2l-0.1,0.1v0.1l0.1,0.3L63,45.7l-0.1-0.1l-0.1,0.1l-0.3,0.2l0.1-0.3v-0.1l-0.1-0.1l-0.2-0.2
	l0.3-0.1h0.1l0.1-0.1L62.9,44.7"/>
</svg>
