<?xml version="1.0" encoding="utf-8"?>
<!-- Generator: Adobe Illustrator 19.0.0, SVG Export Plug-In . SVG Version: 6.00 Build 0)  -->
<svg version="1.1" id="Layer_1" xmlns="http://www.w3.org/2000/svg" xmlns:xlink="http://www.w3.org/1999/xlink" x="0px" y="0px"
	 viewBox="0 0 530.1 531.7" style="enable-background:new 0 0 530.1 531.7;" xml:space="preserve">
<style type="text/css">
	.st0{clip-path:url(#SVGID_2_);fill:#FFFFFF;}
</style>
<g>
	<defs>
		<rect id="SVGID_1_" width="530.1" height="531.7"/>
	</defs>
	<clipPath id="SVGID_2_">
		<use xlink:href="#SVGID_1_"  style="overflow:visible;"/>
	</clipPath>
	<path class="st0" d="M84.6,456.6c-5.6,0-10.6-4.5-10.1-10.1c0-10.1,1.1-26.9,4.5-46.5l-30.2-29.7C5,421.9,0,495.3,0,521.6
		c0,5.6,4.5,10.6,10.1,10.1c26.9-0.6,100.2-5.6,151.2-49.3L131,452.7C111.4,455.5,94.6,456.6,84.6,456.6L84.6,456.6z"/>
	<path class="st0" d="M528.1,19.8C527,10.3,519.7,3,510.2,1.9c-42.6-5-165.2-7.8-289,95.2c-13.4,11.2-30.8,17.4-48.2,14
		c-26.3-5-70-6.2-105.3,29.1L23,185.1c-12.3,12.3-8.4,33,7.3,40.3l73.9,33.6l-26.9,42c-6.2,10.1-5,23.5,3.4,31.9l117,115.9
		c8.4,8.4,21.8,10.1,31.9,3.4l42-26.9l34.2,73.9c7.3,15.7,28,19.6,40.3,7.3l44.8-44.8c34.7-34.7,33.6-78.4,28.6-105.3
		c-3.4-17.4,2.8-34.7,14-48.2C536.5,184.5,533.1,61.8,528.1,19.8z M387,226.5c-23,23-60.5,23-83.4,0c-23-23-23-60.5,0-83.4
		s60.5-23,83.4,0C409.9,166,409.9,203.5,387,226.5z"/>
</g>
</svg>
