<?xml version="1.0" encoding="utf-8"?>
<!-- Generator: Adobe Illustrator 23.0.3, SVG Export Plug-In . SVG Version: 6.00 Build 0)  -->
<!DOCTYPE svg PUBLIC "-//W3C//DTD SVG 1.1//EN" "http://www.w3.org/Graphics/SVG/1.1/DTD/svg11.dtd" [
	<!ENTITY ns_extend "http://ns.adobe.com/Extensibility/1.0/">
	<!ENTITY ns_ai "http://ns.adobe.com/AdobeIllustrator/10.0/">
	<!ENTITY ns_graphs "http://ns.adobe.com/Graphs/1.0/">
	<!ENTITY ns_vars "http://ns.adobe.com/Variables/1.0/">
	<!ENTITY ns_imrep "http://ns.adobe.com/ImageReplacement/1.0/">
	<!ENTITY ns_sfw "http://ns.adobe.com/SaveForWeb/1.0/">
	<!ENTITY ns_custom "http://ns.adobe.com/GenericCustomNamespace/1.0/">
	<!ENTITY ns_adobe_xpath "http://ns.adobe.com/XPath/1.0/">
]>
<svg version="1.1"
	 id="Layer_1" xmlns:x="&ns_extend;" xmlns:i="&ns_ai;" xmlns:graph="&ns_graphs;" xmlns:cc="http://creativecommons.org/ns#" xmlns:dc="http://purl.org/dc/elements/1.1/" xmlns:inkscape="http://www.inkscape.org/namespaces/inkscape" xmlns:rdf="http://www.w3.org/1999/02/22-rdf-syntax-ns#" xmlns:sodipodi="http://sodipodi.sourceforge.net/DTD/sodipodi-0.dtd" xmlns:svg="http://www.w3.org/2000/svg"
	 xmlns="http://www.w3.org/2000/svg" xmlns:xlink="http://www.w3.org/1999/xlink" x="0px" y="0px" viewBox="0 0 66 76"
	 style="enable-background:new 0 0 66 76;" xml:space="preserve">
<style type="text/css">
	.st0{fill:#46AFDA;}
</style>
<metadata>
	<sfw  xmlns="&ns_sfw;">
		<slices></slices>
		<sliceSourceBounds  bottomLeftOrigin="true" height="76" width="66" x="17" y="37"></sliceSourceBounds>
	</sfw>
</metadata>
<g transform="translate(0,-952.36218)">
	<path class="st0" d="M54,952.4c-6.6,0-12,5.4-12,12c0,1.6,0.3,3.1,0.8,4.5L20,981.5c-2.1-1.9-4.9-3.1-8-3.1c-6.6,0-12,5.4-12,12
		c0,6.6,5.4,12,12,12c3.1,0,5.9-1.2,8.1-3.1l22.8,12.7c-0.6,1.4-0.9,2.9-0.9,4.5c0,6.6,5.4,12,12,12s12-5.4,12-12
		c0-6.6-5.4-12-12-12c-3.6,0-6.8,1.6-9,4.1L22.6,996c0.9-1.7,1.4-3.6,1.4-5.7c0-2.1-0.5-4-1.4-5.7L45,972.2c2.2,2.5,5.4,4.1,9,4.1
		c6.6,0,12-5.4,12-12C66,957.8,60.6,952.4,54,952.4z"/>
</g>
</svg>
