<?xml version="1.0" encoding="utf-8"?>
<!-- Generator: Adobe Illustrator 19.0.0, SVG Export Plug-In . SVG Version: 6.00 Build 0)  -->
<svg version="1.1" id="Layer_1" xmlns="http://www.w3.org/2000/svg" xmlns:xlink="http://www.w3.org/1999/xlink" x="0px" y="0px" viewBox="0 0 288.4 288.4" style="enable-background:new 0 0 288.4 288.4;" xml:space="preserve">
	<style type="text/css">
		.st0{clip-path:url(#SVGID_2_);}
	</style>
	<g>
		<defs>
			<rect id="SVGID_1_" width="288.4" height="288.4"/>
		</defs>
		<clipPath id="SVGID_2_">
			<use xlink:href="#SVGID_1_"  style="overflow:visible;"/>
		</clipPath>
		<path fill="#0564c6" class="st0" d="M0,144.2C0,64.7,64.7,0,144.2,0c79.5,0,144.2,64.7,144.2,144.2c0,79.5-64.7,144.2-144.2,144.2S0,223.7,0,144.2 M277.2,144.2c0-73.3-59.7-133-133-133s-133,59.7-133,133c0,73.3,59.7,133,133,133S277.2,217.5,277.2,144.2"/>
		<path fill="#0564c6" class="st0" d="M92.4,146.1c0-3.1,2.5-5.6,5.6-5.6l80.3,0c3.1,0,5.6,2.5,5.6,5.6c0,3.1-2.5,5.6-5.6,5.6l-80.3,0 C94.9,151.7,92.4,149.2,92.4,146.1"/>
		<path fill="#0564c6" class="st0" d="M145.4,109.8c0-1.6,0.7-3.2,2.1-4.3c2.4-2,5.9-1.6,7.9,0.8l29.6,36.3c1.6,2,1.7,4.9,0.1,7l-26.5,34.3 c-1.9,2.5-5.4,2.9-7.9,1c-2.4-1.9-2.9-5.4-1-7.9l23.8-30.8l-26.8-32.9C145.8,112.3,145.4,111,145.4,109.8L145.4,109.8z"/>
	</g>
</svg>
