<?xml version="1.0" encoding="utf-8"?>
<!-- Generator: Adobe Illustrator 19.0.0, SVG Export Plug-In . SVG Version: 6.00 Build 0)  -->
<svg version="1.1" id="Layer_1" xmlns="http://www.w3.org/2000/svg" xmlns:xlink="http://www.w3.org/1999/xlink" x="0px" y="0px"
	 viewBox="0 0 288.4 288.4" style="enable-background:new 0 0 288.4 288.4;" xml:space="preserve">
<style type="text/css">
	.st0{clip-path:url(#SVGID_2_);}
</style>
<g>
	<defs>
		<rect id="SVGID_1_" y="0" width="288.4" height="288.4"/>
	</defs>
	<clipPath id="SVGID_2_">
		<use xlink:href="#SVGID_1_"  style="overflow:visible;"/>
	</clipPath>
	<path class="st0" d="M288.4,144.2c0,79.5-64.7,144.2-144.2,144.2C64.7,288.4,0,223.7,0,144.2C0,64.7,64.7,0,144.2,0
		C223.7,0,288.4,64.7,288.4,144.2 M11.2,144.2c0,73.3,59.7,133,133,133s133-59.7,133-133c0-73.3-59.7-133-133-133
		S11.2,70.9,11.2,144.2"/>
	<path class="st0" d="M196,142.3c0,3.1-2.5,5.6-5.6,5.6l-80.3,0c-3.1,0-5.6-2.5-5.6-5.6c0-3.1,2.5-5.6,5.6-5.6l80.3,0
		C193.5,136.7,196,139.2,196,142.3"/>
	<path class="st0" d="M143,178.6c0,1.6-0.7,3.2-2.1,4.3c-2.4,2-5.9,1.6-7.9-0.8l-29.6-36.3c-1.6-2-1.7-4.9-0.1-7l26.5-34.3
		c1.9-2.5,5.4-2.9,7.9-1c2.4,1.9,2.9,5.4,1,7.9l-23.8,30.8l26.8,32.9C142.6,176.1,143,177.4,143,178.6L143,178.6z"/>
</g>
</svg>
