<?xml version="1.0" encoding="utf-8"?>
<!-- Generator: Adobe Illustrator 19.0.0, SVG Export Plug-In . SVG Version: 6.00 Build 0)  -->
<svg version="1.1" id="Layer_1" xmlns="http://www.w3.org/2000/svg" xmlns:xlink="http://www.w3.org/1999/xlink" x="0px" y="0px"
	 viewBox="0 0 569.8 420" style="enable-background:new 0 0 569.8 420;" xml:space="preserve">
<style type="text/css">
	.st0{clip-path:url(#SVGID_2_);fill:#0084D1;}
	.st1{clip-path:url(#SVGID_2_);fill:#FFFFFF;}
	.st2{clip-path:url(#SVGID_2_);fill:#082040;}
</style>
<g>
	<defs>
		<rect id="SVGID_1_" width="569.8" height="420"/>
	</defs>
	<clipPath id="SVGID_2_">
		<use xlink:href="#SVGID_1_"  style="overflow:visible;"/>
	</clipPath>
	<path class="st0" d="M420,0H56C25.1,0,0,25.1,0,56v196c0,30.9,25.1,56,56,56h28v98c0,3.6,1.4,7.1,4.1,9.9c5.5,5.5,14.3,5.5,19.8,0
		L224,308h101.8c0-1,0-2,0-3c0-71,57.6-128.6,128.6-128.6c7.4,0,14.6,0.6,21.7,1.8V56C476,25.1,450.9,0,420,0 M98,74h224
		c7.7,0,14,6.3,14,14c0,7.7-6.3,14-14,14H98c-7.7,0-14-6.3-14-14C84,80.3,90.3,74,98,74 M378,158H98c-7.7,0-14-6.3-14-14
		c0-7.7,6.3-14,14-14h280c7.7,0,14,6.3,14,14C392,151.8,385.7,158,378,158"/>
	<path class="st1" d="M113.5,187.4l3.9,7.9c0.6,1.2,1.7,2,3.1,2.2l8.7,1.3c3.4,0.5,4.7,4.6,2.3,7l-6.3,6.2c-1,0.9-1.4,2.3-1.2,3.6
		l1.5,8.7c0.6,3.3-2.9,5.9-5.9,4.3l-7.8-4.1c-1.2-0.6-2.6-0.6-3.8,0l-7.8,4.1c-3,1.6-6.5-1-5.9-4.3l1.5-8.7c0.2-1.3-0.2-2.7-1.2-3.6
		l-6.3-6.2c-2.4-2.4-1.1-6.5,2.3-7l8.7-1.3c1.3-0.2,2.5-1,3.1-2.2l3.9-7.9C107.7,184.4,112,184.4,113.5,187.4"/>
	<path class="st1" d="M165,187.4l3.9,7.9c0.6,1.2,1.7,2,3.1,2.2l8.7,1.3c3.4,0.5,4.7,4.6,2.3,7l-6.3,6.2c-1,0.9-1.4,2.3-1.2,3.6
		l1.5,8.7c0.6,3.3-2.9,5.9-5.9,4.3l-7.8-4.1c-1.2-0.6-2.6-0.6-3.8,0l-7.8,4.1c-3,1.6-6.5-1-5.9-4.3l1.5-8.7c0.2-1.3-0.2-2.7-1.2-3.6
		l-6.3-6.2c-2.4-2.4-1.1-6.5,2.3-7l8.7-1.3c1.3-0.2,2.5-1,3.1-2.2l3.9-7.9C159.2,184.4,163.5,184.4,165,187.4"/>
	<path class="st1" d="M216.5,187.4l3.9,7.9c0.6,1.2,1.7,2,3.1,2.2l8.7,1.3c3.4,0.5,4.7,4.6,2.3,7l-6.3,6.2c-1,0.9-1.4,2.3-1.2,3.6
		l1.5,8.7c0.6,3.3-2.9,5.9-5.9,4.3l-7.8-4.1c-1.2-0.6-2.6-0.6-3.8,0l-7.8,4.1c-3,1.6-6.5-1-5.9-4.3l1.5-8.7c0.2-1.3-0.2-2.7-1.2-3.6
		l-6.3-6.2c-2.4-2.4-1.1-6.5,2.3-7l8.7-1.3c1.3-0.2,2.5-1,3.1-2.2l3.9-7.9C210.6,184.4,215,184.4,216.5,187.4"/>
	<path class="st1" d="M267.9,187.4l3.9,7.9c0.6,1.2,1.7,2,3.1,2.2l8.7,1.3c3.4,0.5,4.7,4.6,2.3,7l-6.3,6.2c-1,0.9-1.4,2.3-1.2,3.6
		l1.5,8.7c0.6,3.3-2.9,5.9-5.9,4.3l-7.8-4.1c-1.2-0.6-2.6-0.6-3.8,0l-7.8,4.1c-3,1.6-6.5-1-5.9-4.3l1.5-8.7c0.2-1.3-0.2-2.7-1.2-3.6
		l-6.3-6.2c-2.4-2.4-1.1-6.5,2.3-7l8.7-1.3c1.3-0.2,2.5-1,3.1-2.2l3.9-7.9C262.1,184.4,266.4,184.4,267.9,187.4"/>
	<path class="st1" d="M319.4,187.4l3.9,7.9c0.6,1.2,1.7,2,3.1,2.2l8.7,1.3c3.4,0.5,4.7,4.6,2.3,7l-6.3,6.2c-1,0.9-1.4,2.3-1.2,3.6
		l1.5,8.7c0.6,3.3-2.9,5.9-5.9,4.3l-7.8-4.1c-1.2-0.6-2.6-0.6-3.8,0l-7.8,4.1c-3,1.6-6.5-1-5.9-4.3l1.5-8.7c0.2-1.3-0.2-2.7-1.2-3.6
		l-6.3-6.2c-2.4-2.4-1.1-6.5,2.3-7l8.7-1.3c1.3-0.2,2.5-1,3.1-2.2l3.9-7.9C313.6,184.4,317.9,184.4,319.4,187.4"/>
	<path class="st0" d="M480.7,383.4l-9.3-28.5l-6.1-18.7l-6.8-20.9l-2-5.5l-1-2.8l-0.5-0.8l-0.3-0.3h-0.3h-0.3l-0.3,0.3
		c0,0.3-0.3,0.5-0.3,0.5l-0.5,1l-3.5,9.6l-10.1,29.3l-9.8,26.5l-14.6,39.6c12.4,4.5,25.7,7.3,39.6,7.3c12.9,0,25.2-2,36.8-6.1
		l-3.5-10.6L480.7,383.4z"/>
	<path class="st2" d="M411.1,410.9c0,0-0.3,0-0.3-0.3C410.8,410.9,411.1,410.9,411.1,410.9"/>
	<path class="st0" d="M569.8,306c0.3-63.6-50.5-115-113.5-115.6c-63.1-0.5-114.5,50.7-115,114c-0.3,32,12.6,61.1,33.8,82.3
		c0.3,0.3,0.3,0.3,0.5,0.5l25.2-43.1l8.6-16.7l7.3-15.9l6.6-16.7l6.1-17.2l7.1-20.9l6.1-18.9l7.6-24.7l5.6-17.7l2.8,9.1l5,18.7
		l4.5,16.7l5,16.9l5,16.1l4.8,14.1l5,14.6l6.1,14.6l7.8,16.1l9.3,18.4l9.3,15.9l14.1,21.2C555.9,367.3,569.5,338.3,569.8,306"/>
</g>
</svg>
