<?xml version="1.0" encoding="utf-8"?>
<!-- Generator: Adobe Illustrator 24.3.0, SVG Export Plug-In . SVG Version: 6.00 Build 0)  -->
<!DOCTYPE svg PUBLIC "-//W3C//DTD SVG 1.1//EN" "http://www.w3.org/Graphics/SVG/1.1/DTD/svg11.dtd" [
	<!ENTITY ns_extend "http://ns.adobe.com/Extensibility/1.0/">
	<!ENTITY ns_ai "http://ns.adobe.com/AdobeIllustrator/10.0/">
	<!ENTITY ns_graphs "http://ns.adobe.com/Graphs/1.0/">
	<!ENTITY ns_vars "http://ns.adobe.com/Variables/1.0/">
	<!ENTITY ns_imrep "http://ns.adobe.com/ImageReplacement/1.0/">
	<!ENTITY ns_sfw "http://ns.adobe.com/SaveForWeb/1.0/">
	<!ENTITY ns_custom "http://ns.adobe.com/GenericCustomNamespace/1.0/">
	<!ENTITY ns_adobe_xpath "http://ns.adobe.com/XPath/1.0/">
]>
<svg version="1.1" id="Layer_1" xmlns:x="&ns_extend;" xmlns:i="&ns_ai;" xmlns:graph="&ns_graphs;"
	 xmlns="http://www.w3.org/2000/svg" xmlns:xlink="http://www.w3.org/1999/xlink" x="0px" y="0px" viewBox="0 0 81.3 84"
	 style="enable-background:new 0 0 81.3 84;" xml:space="preserve">
<style type="text/css">
	.st0{fill:#46AFDA;}
</style>
<metadata>
	<sfw  xmlns="&ns_sfw;">
		<slices></slices>
		<sliceSourceBounds  bottomLeftOrigin="true" height="84" width="81.3" x="9.2" y="31.8"></sliceSourceBounds>
	</sfw>
</metadata>
<path class="st0" d="M78.6,52.7L78.6,52.7c-1.9-0.6-4.1,0.3-4.9,2.2C66.4,70.6,49,79,32.2,74.9c-3.6-0.9-7-2.3-10.2-4.3l6.6-4.6
	c0.8-0.6,1-1.7,0.5-2.6c-0.2-0.3-0.4-0.5-0.7-0.6L5.2,52c-0.9-0.4-2,0-2.4,0.9c-0.1,0.3-0.2,0.6-0.2,0.9l2.1,25.4c0.1,1,1,1.8,2,1.7
	c0.3,0,0.6-0.1,0.9-0.3l7.4-5.1c0.1,0.1,0.2,0.2,0.4,0.3c4.5,3.2,9.6,5.5,14.9,6.8c2.1,0.5,4.3,0.9,6.4,1.2
	c18.7,1.7,36.5-8.6,44.3-25.7c0.9-2,0-4.4-2-5.3C78.8,52.8,78.7,52.7,78.6,52.7z"/>
<path class="st0" d="M7.6,29.1C15.8,11,37.1,3,55.3,11.1c0.5,0.2,1.1,0.5,1.6,0.8L50.6,17c-0.8,0.7-0.9,1.8-0.2,2.6
	c0.2,0.2,0.5,0.4,0.8,0.5l23.9,9c1,0.4,2-0.1,2.4-1.1c0.1-0.3,0.1-0.6,0.1-0.9L73.4,1.9c-0.2-1-1.1-1.7-2.1-1.5
	c-0.3,0.1-0.6,0.2-0.9,0.4l-7,5.7c-0.1-0.1-0.3-0.2-0.4-0.3C42.1-6.2,15,0.6,2.6,21.6c-0.8,1.4-1.6,2.8-2.2,4.3c-0.9,2,0,4.4,2,5.3
	c0.1,0.1,0.3,0.1,0.4,0.2l0,0C4.7,31.9,6.8,31,7.6,29.1z"/>
</svg>
