<?xml version="1.0" encoding="utf-8"?>
<!-- Generator: Adobe Illustrator 23.1.0, SVG Export Plug-In . SVG Version: 6.00 Build 0)  -->
<!DOCTYPE svg PUBLIC "-//W3C//DTD SVG 1.1//EN" "http://www.w3.org/Graphics/SVG/1.1/DTD/svg11.dtd" [
	<!ENTITY ns_extend "http://ns.adobe.com/Extensibility/1.0/">
	<!ENTITY ns_ai "http://ns.adobe.com/AdobeIllustrator/10.0/">
	<!ENTITY ns_graphs "http://ns.adobe.com/Graphs/1.0/">
	<!ENTITY ns_vars "http://ns.adobe.com/Variables/1.0/">
	<!ENTITY ns_imrep "http://ns.adobe.com/ImageReplacement/1.0/">
	<!ENTITY ns_sfw "http://ns.adobe.com/SaveForWeb/1.0/">
	<!ENTITY ns_custom "http://ns.adobe.com/GenericCustomNamespace/1.0/">
	<!ENTITY ns_adobe_xpath "http://ns.adobe.com/XPath/1.0/">
]>
<svg version="1.1" id="Layer_1" xmlns:x="&ns_extend;" xmlns:i="&ns_ai;" xmlns:graph="&ns_graphs;"
	 xmlns="http://www.w3.org/2000/svg" xmlns:xlink="http://www.w3.org/1999/xlink" x="0px" y="0px" viewBox="0 0 95 89.2"
	 style="enable-background:new 0 0 95 89.2;" xml:space="preserve">
<style type="text/css">
	.st0{fill:#0084d1;}
</style>
<metadata>
	<sfw  xmlns="&ns_sfw;">
		<slices></slices>
		<sliceSourceBounds  bottomLeftOrigin="true" height="89.2" width="95" x="2.5" y="30.3"></sliceSourceBounds>
	</sfw>
</metadata>
<g>
	<g>
		<path class="st0" d="M82.9,35c-4.5-0.3-8.7-0.1-14.1,0.4c-2.3,0.2-4.1-1.9-3.6-4.1c1.9-8.1,3.9-18.2,4.8-22.7
			c1.6-8.6-10.7-11.7-13.4-5C54.1,10,45.3,34.2,31.7,40.5c-1.6,0.7-2.5,2.3-2.5,4.1c0,7.4,0,25.6-0.1,33.3c0,2.1,1.4,3.9,3.4,4.4
			c7.7,2.1,26.7,6.9,40.2,6.9c8.7,0,13.8-0.7,15.7-8.9c1.9-8.6,4.4-21.2,6.2-30.8C96.5,39,92,35.6,82.9,35z"/>
	</g>
	<g>
		<path class="st0" d="M17.6,34.5H5c-2.7,0-5,2.2-5,5v43.6c0,2.7,2.2,5,5,5h12.6c2.7,0,5-2.2,5-5V39.5
			C22.6,36.7,20.3,34.5,17.6,34.5z M11.3,81c-2.2,0-4-1.8-4-4s1.8-4,4-4s4,1.8,4,4S13.5,81,11.3,81z"/>
	</g>
</g>
</svg>
