<?xml version="1.0" encoding="utf-8"?>
<!-- Generator: Adobe Illustrator 23.1.0, SVG Export Plug-In . SVG Version: 6.00 Build 0)  -->
<!DOCTYPE svg PUBLIC "-//W3C//DTD SVG 1.1//EN" "http://www.w3.org/Graphics/SVG/1.1/DTD/svg11.dtd" [
	<!ENTITY ns_extend "http://ns.adobe.com/Extensibility/1.0/">
	<!ENTITY ns_ai "http://ns.adobe.com/AdobeIllustrator/10.0/">
	<!ENTITY ns_graphs "http://ns.adobe.com/Graphs/1.0/">
	<!ENTITY ns_vars "http://ns.adobe.com/Variables/1.0/">
	<!ENTITY ns_imrep "http://ns.adobe.com/ImageReplacement/1.0/">
	<!ENTITY ns_sfw "http://ns.adobe.com/SaveForWeb/1.0/">
	<!ENTITY ns_custom "http://ns.adobe.com/GenericCustomNamespace/1.0/">
	<!ENTITY ns_adobe_xpath "http://ns.adobe.com/XPath/1.0/">
]>
<svg version="1.1"
	 id="Layer_1" xmlns:x="&ns_extend;" xmlns:i="&ns_ai;" xmlns:graph="&ns_graphs;" xmlns:xodm="http://www.corel.com/coreldraw/odm/2003"
	 xmlns="http://www.w3.org/2000/svg" xmlns:xlink="http://www.w3.org/1999/xlink" x="0px" y="0px" viewBox="0 0 286.7 286.7"
	 style="enable-background:new 0 0 286.7 286.7;" xml:space="preserve">
<metadata>
	<sfw  xmlns="&ns_sfw;">
		<slices></slices>
		<sliceSourceBounds  bottomLeftOrigin="true" height="286.7" width="286.7" x="16.7" y="96.7"></sliceSourceBounds>
	</sfw>
</metadata>
<g>
	<path d="M143.3,266.7c34.1,0,64.9-13.8,87.2-36.1s36.1-53.2,36.1-87.2c0-34.1-13.8-64.9-36.1-87.2C208.2,33.8,177.4,20,143.3,20
		c-34.1,0-64.9,13.8-87.2,36.1C33.8,78.4,20,109.3,20,143.3s13.8,64.9,36.1,87.2C78.4,252.9,109.3,266.7,143.3,266.7z M244.7,244.7
		c-25.9,25.9-61.8,42-101.4,42c-39.6,0-75.4-16-101.4-42C16,218.7,0,182.9,0,143.3C0,103.8,16,67.9,42,42C67.9,16,103.8,0,143.3,0
		s75.4,16,101.4,42c25.9,25.9,42,61.8,42,101.3S270.6,218.8,244.7,244.7z"/>
	<path d="M10,153.2c-5.5,0-10-4.5-10-10s4.5-10,10-10l266.7-1c5.5,0,10,4.5,10,10s-4.5,10-10,10C276.7,152.2,10,153.2,10,153.2z"/>
	<path d="M132.9,10c0-5.5,4.5-10,10-10s10,4.5,10,10l1,266.7c0,5.5-4.5,10-10,10s-10-4.5-10-10C133.9,276.7,132.9,10,132.9,10z"/>
	<path d="M143.3,266.7c14.3,0,27.9-12.8,38.2-33.5c11.4-22.8,18.4-54.5,18.4-89.8s-7.1-67.1-18.4-89.8C171.2,32.8,157.7,20,143.3,20
		c-14.3,0-27.9,12.8-38.2,33.5C93.7,76.3,86.7,108,86.7,143.3s7.1,67.1,18.4,89.8C115.4,253.9,129,266.7,143.3,266.7L143.3,266.7z
		 M199.4,242.1c-13.8,27.6-33.6,44.6-56.1,44.6s-42.3-17-56.1-44.6c-12.7-25.5-20.6-60.4-20.6-98.7c0-38.3,7.9-73.3,20.6-98.7
		C101.1,17,120.8,0,143.3,0s42.3,17,56.1,44.6C212.1,70.1,220,105,220,143.3C220,181.7,212.1,216.6,199.4,242.1z"/>
	<path d="M29,87.4c-5.5,0-10-4.4-10-9.9s4.4-10,9.9-10l228.7-1c5.5,0,10,4.4,10,9.9s-4.4,10-9.9,10L29,87.4L29,87.4z"/>
	<path d="M29,220.8c-5.5,0-10-4.4-10-9.9s4.4-10,9.9-10l228.7-1c5.5,0,10,4.4,10,9.9s-4.4,10-9.9,10L29,220.8L29,220.8z"/>
</g>
</svg>
