<?xml version="1.0" encoding="utf-8"?>
<!-- Generator: Adobe Illustrator 19.0.0, SVG Export Plug-In . SVG Version: 6.00 Build 0)  -->
<svg version="1.1" id="Layer_1" xmlns="http://www.w3.org/2000/svg" xmlns:xlink="http://www.w3.org/1999/xlink" x="0px" y="0px"
	 viewBox="0 0 148.5 149.2" style="enable-background:new 0 0 148.5 149.2;" xml:space="preserve">
<style type="text/css">
	.st0{clip-path:url(#SVGID_2_);fill:#B3B3B3;}
	.st1{clip-path:url(#SVGID_2_);fill:#FFFFFF;}
	.st2{clip-path:url(#SVGID_4_);fill:url(#SVGID_5_);}
	.st3{clip-path:url(#SVGID_7_);fill-rule:evenodd;clip-rule:evenodd;fill:#FFFFFF;}
</style>
<g>
	<defs>
		<rect id="SVGID_1_" width="148.5" height="149.2"/>
	</defs>
	<clipPath id="SVGID_2_">
		<use xlink:href="#SVGID_1_"  style="overflow:visible;"/>
	</clipPath>
	<path class="st0" d="M41.6,125.6l2.2,1.3c9.4,5.6,20.1,8.5,31.1,8.5h0c33.7,0,61.1-27.4,61.2-61.1c0-16.3-6.3-31.7-17.9-43.3
		c-11.4-11.5-27-18-43.2-17.9c-33.7,0-61.2,27.4-61.2,61.1c0,11.5,3.2,22.8,9.3,32.5l1.5,2.3l-6.2,22.6L41.6,125.6z M0.8,149.2
		l10.4-38.1C4.8,99.9,1.4,87.3,1.4,74.3c0-40.6,33-73.6,73.6-73.6c19.7,0,38.2,7.7,52,21.6s21.5,32.4,21.5,52
		c0,40.6-33,73.6-73.6,73.6h0c-12.3,0-24.4-3.1-35.2-9L0.8,149.2z"/>
	<path class="st1" d="M0,148.4l10.4-38.1C4,99.1,0.6,86.5,0.6,73.6C0.6,33,33.6,0,74.2,0c19.7,0,38.2,7.7,52,21.6s21.5,32.4,21.5,52
		c0,40.6-33,73.6-73.6,73.6h0c-12.3,0-24.4-3.1-35.2-9L0,148.4z"/>
</g>
<g>
	<defs>
		<path id="SVGID_3_" d="M74.2,12.4c-33.7,0-61.2,27.4-61.2,61.1c0,11.5,3.2,22.8,9.3,32.5l1.5,2.3L17.7,131l23.1-6.1l2.2,1.3
			c9.4,5.6,20.1,8.5,31.1,8.5h0c33.7,0,61.1-27.4,61.2-61.1c0.1-16.2-6.4-31.8-17.9-43.3C106,18.9,90.5,12.4,74.4,12.4
			C74.3,12.4,74.3,12.4,74.2,12.4"/>
	</defs>
	<clipPath id="SVGID_4_">
		<use xlink:href="#SVGID_3_"  style="overflow:visible;"/>
	</clipPath>
	
		<linearGradient id="SVGID_5_" gradientUnits="userSpaceOnUse" x1="0" y1="149.1918" x2="1" y2="149.1918" gradientTransform="matrix(0.62 104.525 -104.525 0.62 15668.168 -72.7395)">
		<stop  offset="0" style="stop-color:#57D163"/>
		<stop  offset="1" style="stop-color:#23B33A"/>
	</linearGradient>
	<polygon class="st2" points="12.3,12.4 13,135.5 136.1,134.7 135.4,11.7 	"/>
</g>
<g>
	<defs>
		<rect id="SVGID_6_" width="148.5" height="149.2"/>
	</defs>
	<clipPath id="SVGID_7_">
		<use xlink:href="#SVGID_6_"  style="overflow:visible;"/>
	</clipPath>
	<path class="st3" d="M55.8,42.8c-1.4-3.1-2.8-3.1-4.1-3.2l-3.5,0c-1.2,0-3.2,0.5-4.9,2.3c-1.7,1.8-6.4,6.3-6.4,15.3
		s6.6,17.8,7.5,19S57,96.6,75.7,104c15.5,6.1,18.7,4.9,22.1,4.6s10.9-4.4,12.4-8.7s1.5-8,1.1-8.7c-0.5-0.8-1.7-1.2-3.5-2.1
		c-1.8-0.9-10.9-5.4-12.6-6c-1.7-0.6-2.9-0.9-4.1,0.9c-1.2,1.8-4.7,6-5.8,7.2c-1.1,1.2-2.1,1.4-4,0.5c-1.8-0.9-7.8-2.9-14.8-9.1
		c-5.5-4.9-9.2-10.9-10.2-12.7c-1.1-1.8-0.1-2.8,0.8-3.8c0.8-0.8,1.8-2.1,2.8-3.2c0.9-1.1,1.2-1.8,1.8-3.1c0.6-1.2,0.3-2.3-0.2-3.2
		C61,55.5,57.4,46.4,55.8,42.8"/>
</g>
</svg>
