<?xml version="1.0" encoding="utf-8"?>
<!-- Generator: Adobe Illustrator 19.0.0, SVG Export Plug-In . SVG Version: 6.00 Build 0)  -->
<svg version="1.1" id="Layer_1" xmlns="http://www.w3.org/2000/svg" xmlns:xlink="http://www.w3.org/1999/xlink" x="0px" y="0px"
	 viewBox="0 0 536.7 536.7" style="enable-background:new 0 0 536.7 536.7;" xml:space="preserve">
<style type="text/css">
	.st0{clip-path:url(#SVGID_2_);}
</style>
<g>
	<defs>
		<rect id="SVGID_1_" width="536.7" height="536.7"/>
	</defs>
	<clipPath id="SVGID_2_">
		<use xlink:href="#SVGID_1_"  style="overflow:visible;"/>
	</clipPath>
	<path class="st0" d="M515.5,163.7c-4.3,9.2-9,18.5-14,27.8c6.8,20.6,11.2,42.4,12.2,65.1h-50.4c-5.9,9.2-11.1,17.2-15.1,23.3h65.5
		c-2,42.6-14.9,82.3-35.9,116.7h-75.7c7.4-24.4,12.4-51.2,15.2-79.6l-16.5-23.8c-0.4-0.5-2.2-3.1-4.9-7.1
		c-1.6,40-8.3,77.8-19.1,110.5H280V280h111.8c-4.1-6.1-9.2-14.1-15.1-23.3H280V140h34.1c-3.3-7.5-5.8-15.3-7.4-23.3H280V24.5
		c12.5,2.3,24.6,8.3,35.9,17.3c5.9-11.9,13.6-22.8,23.1-32.1C316.4,3.6,292.8,0,268.3,0C120.1,0,0,120.1,0,268.3
		c0,148.2,120.1,268.3,268.3,268.3c148.2,0,268.3-120.1,268.3-268.3C536.7,231.2,529.1,195.9,515.5,163.7L515.5,163.7z M193.4,34.1
		c-20.5,20.2-37.9,48.4-50.9,82.6H75.1C105.1,78.5,146.1,49.3,193.4,34.1L193.4,34.1z M58.9,140h75.6
		c-10.5,34.7-16.6,74.3-17.5,116.7H23C25,214,37.8,174.3,58.9,140z M23,280h94c1,42.3,7.1,81.9,17.6,116.7H58.9
		C37.8,362.3,25,322.6,23,280L23,280z M75.1,420h67.4c13,34.2,30.4,62.4,50.9,82.6C146.1,487.4,105.1,458.2,75.1,420L75.1,420z
		 M256.7,512.2c-35.2-6.4-66.8-41.3-88.2-92.2h88.2V512.2z M256.7,396.7h-96.8c-11.4-34.5-18.4-74.3-19.5-116.7h116.3L256.7,396.7z
		 M256.7,256.7H140.3c1.1-42.4,8.1-82.2,19.5-116.7h96.8V256.7z M256.7,116.7h-88.2c21.4-50.9,53-85.8,88.2-92.2L256.7,116.7z
		 M280,512.2V420h88.2C346.7,470.9,315.2,505.8,280,512.2 M343.2,502.6c20.5-20.2,37.9-48.4,50.9-82.6h67.5
		C431.5,458.2,390.5,487.4,343.2,502.6L343.2,502.6z"/>
	<path class="st0" d="M327.8,104.2c1.5,12.3,5.2,23.8,11,34.2C363.9,199.1,420,280,420,280s56.1-80.9,81.2-141.6
		c5.8-10.4,9.5-21.9,11-34.2c0.7-3.9,1.1-7.6,1.1-10.9C513.3,41.8,471.5,0,420,0s-93.3,41.8-93.3,93.3
		C326.7,96.6,327.1,100.3,327.8,104.2L327.8,104.2z M420,46.7c25.8,0,46.7,20.9,46.7,46.7c0,25.8-20.9,46.7-46.7,46.7
		c-25.8,0-46.7-20.9-46.7-46.7C373.3,67.6,394.2,46.7,420,46.7"/>
</g>
</svg>
