<?xml version="1.0" encoding="utf-8"?>
<!-- Generator: Adobe Illustrator 19.0.0, SVG Export Plug-In . SVG Version: 6.00 Build 0)  -->
<svg version="1.1" id="Layer_1" xmlns="http://www.w3.org/2000/svg" xmlns:xlink="http://www.w3.org/1999/xlink" x="0px" y="0px"
	 viewBox="0 0 532 351.1" style="enable-background:new 0 0 532 351.1;" xml:space="preserve">
<style type="text/css">
	.st0{clip-path:url(#SVGID_2_);}
</style>
<g>
	<defs>
		<rect id="SVGID_1_" width="532" height="351.1"/>
	</defs>
	<clipPath id="SVGID_2_">
		<use xlink:href="#SVGID_1_"  style="overflow:visible;"/>
	</clipPath>
	<path class="st0" d="M510.7,0H76.2C64.4,0,54.9,9.5,54.9,21.3v33.6H21.3C9.5,54.9,0,64.4,0,76.2v253.7c0,11.8,9.5,21.3,21.3,21.3
		h434.6c11.8,0,21.3-9.5,21.3-21.3v-33.6h33.6c11.8,0,21.3-9.5,21.3-21.3V21.3C532,9.5,522.5,0,510.7,0 M398.2,81.8
		c3.4,27.4,24.6,49.3,52.1,52.1v138.9c-27.4,3.4-49.3,24.6-52.1,52.1l-319.8,0c-3.4-27.4-24.6-49.3-52.1-52.1V133.8
		c27.4-3.4,49.3-24.6,52.1-52.1L398.2,81.8z M505.7,269.9h-28.6V76.7c0-11.8-9.5-21.3-21.3-21.3l-374.6,0V26.9h424.5V269.9z"/>
	<path class="st0" d="M238.6,306.9c57.1,0,103.6-46.5,103.6-103.6S295.7,99.7,238.6,99.7S135,146.2,135,203.3
		C135,260.4,181.4,306.9,238.6,306.9 M228.5,146.2v-14c0-1.7,1.1-2.8,2.8-2.8h14c1.7,0,2.8,1.1,2.8,2.8v14
		c14.6,1.1,25.8,11.8,27.4,26.3c0,1.7-1.1,2.8-2.8,2.8h-14c-1.1,0-2.2-0.6-2.8-2.2c-1.1-4.5-5-7.8-9.5-7.8h-12.3
		c-7.3,0-14,5-14.6,12.3c-1.1,8.4,5.6,15.7,14,15.7l10.1,0c19.6,0,35.3,16.8,33.6,37c-1.7,15.7-14,27.4-29.1,29.7v14.6
		c0,1.7-1.1,2.8-2.8,2.8h-14c-1.7,0-2.8-1.1-2.8-2.8v-14c-14.6-1.1-25.8-11.8-27.4-26.3c0-1.7,1.1-2.8,2.8-2.8h14
		c1.1,0,2.2,0.6,2.8,2.2c1.1,4.5,5,7.8,9.5,7.8h12.3c7.3,0,14-5,14.6-12.3c1.1-8.4-5.6-15.7-14-15.7h-9c-17.4,0-33-12.9-34.7-30.2
		C197.7,164.6,211.1,148.4,228.5,146.2L228.5,146.2z"/>
	<path class="st0" d="M100.2,203.3c0,10.8-8.8,19.6-19.6,19.6S61,214.1,61,203.3c0-10.8,8.8-19.6,19.6-19.6S100.2,192.5,100.2,203.3
		"/>
	<path class="st0" d="M415.5,203.3c0,10.8-8.8,19.6-19.6,19.6c-10.8,0-19.6-8.8-19.6-19.6c0-10.8,8.8-19.6,19.6-19.6
		C406.7,183.7,415.5,192.5,415.5,203.3"/>
</g>
</svg>
