<?xml version="1.0" encoding="utf-8"?>
<!-- Generator: Adobe Illustrator 26.0.2, SVG Export Plug-In . SVG Version: 6.00 Build 0)  -->
<svg version="1.1" id="Isolation_Mode" xmlns="http://www.w3.org/2000/svg" xmlns:xlink="http://www.w3.org/1999/xlink" x="0px"
	 y="0px" viewBox="0 0 560 488.6" style="enable-background:new 0 0 560 488.6;" xml:space="preserve">
<path d="M392,392.9l-12.8,16.3c12.8,11.7,28,18.7,44.3,19.8v12.8h11.7v-12.8c23.3-1.2,40.8-14,40.8-37.3c0-16.3-5.8-29.2-40.8-37.3
	v-33.8c9.3,1.2,17.5,4.7,25.7,10.5l11.7-16.3c-11.7-8.2-24.5-12.8-37.3-14l0-9.3h-11.7v9.3c-22.2,1.2-39.7,14-39.7,36.2
	c0,16.3,5.8,29.2,39.7,36.2v35C413,406.9,402.5,402.2,392,392.9L392,392.9z M435.2,376.6c10.5,3.5,18.7,7,18.7,17.5
	c0,9.3-9.3,15.2-18.7,15.2V376.6z M406,334.6c0-9.3,8.2-14,17.5-15.2v31.5C414.2,348.6,406,345.1,406,334.6z"/>
<path d="M536.7,153.7H406l-38.5,67.7h169.2v245H23.3v-245h205.3l16.3-29.2c-4.7-14,2.3-23.3,11.7-38.5H23.3
	C10.5,153.7,0,164.2,0,177.1v288.2c0,12.8,10.5,23.3,23.3,23.3h513.3c12.8,0,23.3-10.5,23.3-23.3l0-288.2
	C560,164.2,549.5,153.7,536.7,153.7L536.7,153.7z"/>
<path d="M58.3,395.2h107.3c7,0,11.7-4.7,11.7-11.7s-4.7-11.7-11.7-11.7l-107.3,0c-7,0-11.7,4.7-11.7,11.7
	C46.7,390.6,51.3,395.2,58.3,395.2L58.3,395.2z"/>
<path d="M58.3,441.9h131.8c7,0,11.7-4.7,11.7-11.7s-4.7-11.7-11.7-11.7H58.3c-7,0-11.7,4.7-11.7,11.7
	C46.7,437.2,51.3,441.9,58.3,441.9z"/>
<path d="M236.8,128.1c5.8,3.5,12.8,1.2,16.3-4.7l38.5-66.5c9.3-16.3,31.5-22.2,47.8-12.8l5.8,3.5l-77,133c-1.2,2.3,0,5.8,2.3,7
	l3.5,2.3l-39.7,68.8c-7,11.7-15.2,43.2-12.8,61.8l-9.3,16.3c-3.5,5.8-1.2,12.8,4.7,16.3c5.8,3.5,12.8,1.2,16.3-4.7l9.3-16.3
	c17.5-7,40.8-30.3,46.7-42l39.7-68.8l3.5,2.3c2.3,1.2,5.8,0,7-2.3l92.2-159.8c11.7-19.8,4.7-46.7-16.3-57.2
	C395.5-6.1,371,3.2,360.5,21.9l-2.3,4.7l-5.8-3.5c-28-16.3-64.2-7-79.3,21l-39.7,67.7C229.8,117.6,232.2,124.6,236.8,128.1
	L236.8,128.1z"/>
</svg>
