<?xml version="1.0" encoding="utf-8"?>
<!-- Generator: Adobe Illustrator 19.0.0, SVG Export Plug-In . SVG Version: 6.00 Build 0)  -->
<svg version="1.1" id="Layer_1" xmlns="http://www.w3.org/2000/svg" xmlns:xlink="http://www.w3.org/1999/xlink" x="0px" y="0px"
	 viewBox="0 0 521.3 358" style="enable-background:new 0 0 521.3 358;" xml:space="preserve">
<style type="text/css">
	.st0{clip-path:url(#SVGID_2_);fill-rule:evenodd;clip-rule:evenodd;}
	.st1{clip-path:url(#SVGID_2_);fill:none;stroke:#000000;stroke-width:8;stroke-miterlimit:10;}
</style>
<g>
	<defs>
		<rect id="SVGID_1_" width="521.3" height="358"/>
	</defs>
	<clipPath id="SVGID_2_">
		<use xlink:href="#SVGID_1_"  style="overflow:visible;"/>
	</clipPath>
	<path class="st0" d="M517.3,33.5c0-16.3-13.2-29.5-29.5-29.5H33.5C17.2,4,4,17.2,4,33.5v291C4,340.8,17.2,354,33.5,354h454.3
		c16.3,0,29.5-13.2,29.5-29.5V33.5z M505.7,126.5v198c0,9.8-8,17.9-17.9,17.9H33.5c-9.8,0-17.9-8-17.9-17.9v-198H505.7z
		 M412.3,237.3H74c-3.2,0-5.8,2.6-5.8,5.8c0,3.2,2.6,5.8,5.8,5.8h338.3c3.2,0,5.8-2.6,5.8-5.8C418.2,240,415.6,237.3,412.3,237.3
		 M207.8,167.3c0-3.2-2.6-5.8-5.8-5.8H97.3c-3.2,0-5.8,2.6-5.8,5.8v35c0,3.2,2.6,5.8,5.8,5.8H202c3.2,0,5.8-2.6,5.8-5.8V167.3z
		 M196.1,196.5h-93v-23.3h93V196.5z M505.7,56.5h-490v-23c0-9.8,8-17.9,17.9-17.9h454.3c9.8,0,17.9,8,17.9,17.9L505.7,56.5z"/>
	<path class="st1" d="M517.3,33.5c0-16.3-13.2-29.5-29.5-29.5H33.5C17.2,4,4,17.2,4,33.5v291C4,340.8,17.2,354,33.5,354h454.3
		c16.3,0,29.5-13.2,29.5-29.5V33.5z M505.7,126.5v198c0,9.8-8,17.9-17.9,17.9H33.5c-9.8,0-17.9-8-17.9-17.9v-198H505.7z
		 M412.3,237.3H74c-3.2,0-5.8,2.6-5.8,5.8c0,3.2,2.6,5.8,5.8,5.8h338.3c3.2,0,5.8-2.6,5.8-5.8C418.2,240,415.6,237.3,412.3,237.3z
		 M207.8,167.3c0-3.2-2.6-5.8-5.8-5.8H97.3c-3.2,0-5.8,2.6-5.8,5.8v35c0,3.2,2.6,5.8,5.8,5.8H202c3.2,0,5.8-2.6,5.8-5.8V167.3z
		 M196.1,196.5h-93v-23.3h93V196.5z M505.7,56.5h-490v-23c0-9.8,8-17.9,17.9-17.9h454.3c9.8,0,17.9,8,17.9,17.9L505.7,56.5z"/>
</g>
</svg>
