<?xml version="1.0" encoding="utf-8"?>
<!-- Generator: Adobe Illustrator 26.0.2, SVG Export Plug-In . SVG Version: 6.00 Build 0)  -->
<svg version="1.1" id="Isolation_Mode" xmlns="http://www.w3.org/2000/svg" xmlns:xlink="http://www.w3.org/1999/xlink" x="0px"
	 y="0px" viewBox="0 0 490 490" style="enable-background:new 0 0 490 490;" xml:space="preserve">
<path d="M250.6,383.6c-3.5,1.9-7.7,1.9-11.2,0L0,253v237h490V253L250.6,383.6z"/>
<path d="M87.5,151.1L7.7,230.5l79.8,43.6V151.1z"/>
<path d="M402.5,151.1v123l79.9-43.5L402.5,151.1z"/>
<path d="M379.2,286.8V0H110.8v286.8L245,360L379.2,286.8z M251.6,83.6c-4.1-1.4-7.7-2.4-10.7-3.2c-9.4-2.7-17.6-5-23.8-14.2
	c-4.1-6.1-5.6-13.6-4.1-20.8c1.6-7.6,6-14.2,12.5-18.5c2.4-1.6,5-2.7,7.8-3.5v-8.4h23.3v9.8h0c9.4,3.5,17.2,10.4,21.9,19.3
	l-20.8,10.7c-2.4-4.4-6.5-7.6-11.4-8.8c-2.6-0.9-5.4-0.8-8,0.3c-1.3,0.8-2.2,2.2-2.5,3.7c-0.3,1.1,0,2.3,0.6,3.3
	c1.2,1.8,2.1,2.3,10.8,4.8c3.3,0.9,7.1,2,11.6,3.5c15.5,5.1,22.5,15.4,20.8,30.4h0c-1.1,5.9-3.9,11.3-8,15.6
	c-4.1,4.3-9.3,7.4-15.1,8.9v8.7h-23.3v-9.7c-9.1-3.7-16.7-10.3-21.7-18.8l20-12h0c1.5,3.1,3.8,5.7,6.8,7.4s6.3,2.6,9.7,2.5
	c3.4-0.5,6.5-2.4,8.4-5.2C257,85.7,257,85.4,251.6,83.6L251.6,83.6z M151.7,140h186.7c6.4,0,11.7,5.2,11.7,11.7
	c0,6.4-5.2,11.7-11.7,11.7H151.7c-6.4,0-11.7-5.2-11.7-11.7C140,145.3,145.2,140,151.7,140z M151.7,192l186.7,0
	c6.4,0,11.7,5.2,11.7,11.7s-5.2,11.7-11.7,11.7H151.7c-6.4,0-11.7-5.2-11.7-11.7S145.2,192,151.7,192L151.7,192z M140,255.7
	c0-6.4,5.2-11.7,11.7-11.7h186.7c6.4,0,11.7,5.2,11.7,11.7c0,6.4-5.2,11.7-11.7,11.7H151.7C145.2,267.4,140,262.1,140,255.7z"/>
</svg>
