<?xml version="1.0" encoding="utf-8"?>
<!-- Generator: Adobe Illustrator 26.0.2, SVG Export Plug-In . SVG Version: 6.00 Build 0)  -->
<svg version="1.1" id="Isolation_Mode" xmlns="http://www.w3.org/2000/svg" xmlns:xlink="http://www.w3.org/1999/xlink" x="0px"
	 y="0px" viewBox="0 0 414.8 490" style="enable-background:new 0 0 414.8 490;" xml:space="preserve">
<path d="M120.3,288.1c-3.8,20.7-18.8,117.5-23.2,144.8c-0.3,2-1.1,2.7-3.3,2.7H13.2c-8.2,0-14.2-7.1-13.1-15L63.5,18.7
	C65.1,8.3,74.4,0.4,85.1,0.4c164.6,0,178.4-4,220.4,12.3c64.9,25.2,70.9,85.9,47.5,151.6c-23.2,67.6-78.3,96.7-151.4,97.6
	C154.8,262.7,126.6,254.4,120.3,288.1L120.3,288.1z M385.8,132.6c-2-1.4-2.7-2-3.3,1.4c-2.2,12.3-5.5,24.3-9.5,36.3
	c-43.1,123-162.6,112.3-221,112.3c-6.6,0-10.9,3.6-11.8,10.1C115.9,444.4,111,476.1,111,476.1c-1.1,7.7,3.8,13.9,11.4,13.9h68.6
	c9.3,0,17-6.8,18.8-16.1c0.8-5.8-1.2,6.6,15.6-98.6c5-23.8,15.5-21.3,31.7-21.3c76.7,0,136.6-31.1,154.4-121.3
	C418.5,195,416.5,155.5,385.8,132.6L385.8,132.6z"/>
</svg>
