<?xml version="1.0" encoding="utf-8"?>
<!-- Generator: Adobe Illustrator 19.0.0, SVG Export Plug-In . SVG Version: 6.00 Build 0)  -->
<svg version="1.1" id="Layer_1" xmlns="http://www.w3.org/2000/svg" xmlns:xlink="http://www.w3.org/1999/xlink" x="0px" y="0px"
	 viewBox="0 0 3490.3 2431.8" style="enable-background:new 0 0 3490.3 2431.8;" xml:space="preserve">
<style type="text/css">
	.st0{clip-path:url(#SVGID_2_);fill:#D0D2D3;}
	.st1{clip-path:url(#SVGID_2_);fill:#060808;}
	.st2{clip-path:url(#SVGID_2_);fill:#111215;}
	.st3{clip-path:url(#SVGID_2_);fill:#14181B;}
	.st4{clip-path:url(#SVGID_2_);fill:#38ACE5;}
	.st5{clip-path:url(#SVGID_4_);fill:url(#SVGID_5_);}
	.st6{clip-path:url(#SVGID_7_);fill:url(#SVGID_8_);}
	.st7{clip-path:url(#SVGID_10_);fill:url(#SVGID_11_);}
	.st8{clip-path:url(#SVGID_13_);fill:#EAEAEA;}
	.st9{clip-path:url(#SVGID_13_);fill:#FFFFFF;}
	.st10{clip-path:url(#SVGID_13_);fill:#E0E0E0;}
	.st11{clip-path:url(#SVGID_13_);fill:#BBE9A9;}
	.st12{clip-path:url(#SVGID_13_);fill:#9F75D8;}
	.st13{clip-path:url(#SVGID_13_);fill:#FE9A96;}
	.st14{clip-path:url(#SVGID_13_);fill:#40B4EC;}
	.st15{clip-path:url(#SVGID_13_);fill:#E27BE3;}
	.st16{clip-path:url(#SVGID_13_);fill:#FFC5C3;}
</style>
<g>
	<defs>
		<rect id="SVGID_1_" y="0" width="3490.3" height="2431.8"/>
	</defs>
	<clipPath id="SVGID_2_">
		<use xlink:href="#SVGID_1_"  style="overflow:visible;"/>
	</clipPath>
	<path class="st0" d="M3166.8,2270.8c0,59.5-48.3,107.7-108,107.7H431.5c-59.6,0-108-48.2-108-107.7V512.9
		c0-59.5,48.3-107.7,108-107.7h2627.4c59.6,0,108,48.2,108,107.7V2270.8z"/>
	<path class="st1" d="M3152.4,2271.6c0,59-47.9,106.9-106.9,106.9H444.8c-59,0-106.9-47.9-106.9-106.9V526.4
		c0-59,47.9-106.9,106.9-106.9h2600.8c59,0,106.9,47.9,106.9,106.9V2271.6z"/>
	<path class="st2" d="M3097.8,2262.7H392.5c-40.5,0-54.6-20.8-54.6-53.2v62.2c0,59,47.9,106.9,106.9,106.9h2600.8
		c59,0,106.9-47.9,106.9-106.9v-62.2C3152.4,2234.8,3138.2,2262.7,3097.8,2262.7"/>
	<path class="st3" d="M2809.8,2339.3c0,3-2.4,5.4-5.4,5.4H685.9c-3,0-5.4-2.4-5.4-5.4v-54.7c0-3,2.4-5.4,5.4-5.4h2118.6
		c3,0,5.4,2.4,5.4,5.4V2339.3z"/>
	<rect x="425.3" y="545.6" class="st4" width="2639.7" height="1643.7"/>
</g>
<g>
	<defs>
		<path id="SVGID_3_" d="M1745.1,2372.3H0c0,25.5,109.9,59.5,164.2,59.5h1580.9h1580.9c54.3,0,164.2-33.9,164.2-59.5H1745.1z"/>
	</defs>
	<clipPath id="SVGID_4_">
		<use xlink:href="#SVGID_3_"  style="overflow:visible;"/>
	</clipPath>
	
		<linearGradient id="SVGID_5_" gradientUnits="userSpaceOnUse" x1="-8.402770e-006" y1="2431.8201" x2="1" y2="2431.8201" gradientTransform="matrix(0 59.4715 59.4715 0 -142878.8438 2372.3486)">
		<stop  offset="0" style="stop-color:#8AA2A7"/>
		<stop  offset="0.2985" style="stop-color:#889FA4"/>
		<stop  offset="0.4787" style="stop-color:#80979C"/>
		<stop  offset="0.6275" style="stop-color:#73898E"/>
		<stop  offset="0.7591" style="stop-color:#617479"/>
		<stop  offset="0.8795" style="stop-color:#4A5A5F"/>
		<stop  offset="0.9901" style="stop-color:#2D3A3F"/>
		<stop  offset="1" style="stop-color:#2A373C"/>
	</linearGradient>
	<rect y="2372.3" class="st5" width="3490.3" height="59.5"/>
</g>
<g>
	<defs>
		<path id="SVGID_6_" d="M5.4,2311.2c-3,0-5.4,2.8-5.4,6.2v59.4c0,3.4,2.4,6.2,5.4,6.2h3479.4c3,0,5.4-2.8,5.4-6.2v-59.4
			c0-3.4-2.4-6.2-5.4-6.2H5.4z"/>
	</defs>
	<clipPath id="SVGID_7_">
		<use xlink:href="#SVGID_6_"  style="overflow:visible;"/>
	</clipPath>
	
		<linearGradient id="SVGID_8_" gradientUnits="userSpaceOnUse" x1="0" y1="2431.8201" x2="1" y2="2431.8201" gradientTransform="matrix(3490.2864 0 0 -3490.2864 0 8490096)">
		<stop  offset="0" style="stop-color:#5E7078"/>
		<stop  offset="2.792043e-004" style="stop-color:#6A7B82"/>
		<stop  offset="1.272798e-003" style="stop-color:#929EA3"/>
		<stop  offset="2.336069e-003" style="stop-color:#B4BCC0"/>
		<stop  offset="3.464250e-003" style="stop-color:#CFD5D7"/>
		<stop  offset="4.680621e-003" style="stop-color:#E4E7E9"/>
		<stop  offset="6.028393e-003" style="stop-color:#F3F5F5"/>
		<stop  offset="7.609806e-003" style="stop-color:#FCFDFD"/>
		<stop  offset="1.000000e-002" style="stop-color:#FFFFFF"/>
		<stop  offset="3.000000e-002" style="stop-color:#8AA0A6"/>
		<stop  offset="4.847409e-002" style="stop-color:#9DB0B5"/>
		<stop  offset="8.091174e-002" style="stop-color:#B8C6C9"/>
		<stop  offset="0.1182" style="stop-color:#CED9DA"/>
		<stop  offset="0.1618" style="stop-color:#DEE7E7"/>
		<stop  offset="0.2156" style="stop-color:#EAF1F0"/>
		<stop  offset="0.291" style="stop-color:#F1F6F6"/>
		<stop  offset="0.5" style="stop-color:#F3F8F7"/>
		<stop  offset="0.7104" style="stop-color:#F1F6F6"/>
		<stop  offset="0.7865" style="stop-color:#EAF1F0"/>
		<stop  offset="0.8408" style="stop-color:#DEE7E8"/>
		<stop  offset="0.8847" style="stop-color:#CED9DB"/>
		<stop  offset="0.9223" style="stop-color:#B8C7CA"/>
		<stop  offset="0.9551" style="stop-color:#9DB0B6"/>
		<stop  offset="0.97" style="stop-color:#8EA4AB"/>
		<stop  offset="0.99" style="stop-color:#ECF2F4"/>
		<stop  offset="0.9918" style="stop-color:#E8EFF1"/>
		<stop  offset="0.9935" style="stop-color:#DDE5E7"/>
		<stop  offset="0.9951" style="stop-color:#CBD4D7"/>
		<stop  offset="0.9967" style="stop-color:#B1BCC1"/>
		<stop  offset="0.9982" style="stop-color:#909EA3"/>
		<stop  offset="0.9997" style="stop-color:#677980"/>
		<stop  offset="1" style="stop-color:#5E7078"/>
	</linearGradient>
	<rect y="2311.2" class="st6" width="3490.3" height="71.8"/>
</g>
<g>
	<defs>
		<path id="SVGID_9_" d="M1465.6,2311.2c0,26.8,21.7,48.5,48.5,48.5h462c26.8,0,48.5-21.7,48.5-48.5H1465.6z"/>
	</defs>
	<clipPath id="SVGID_10_">
		<use xlink:href="#SVGID_9_"  style="overflow:visible;"/>
	</clipPath>
	
		<linearGradient id="SVGID_11_" gradientUnits="userSpaceOnUse" x1="-1.310051e-006" y1="2431.8201" x2="1" y2="2431.8201" gradientTransform="matrix(559.079 0 0 -559.079 1465.6038 1361915)">
		<stop  offset="0" style="stop-color:#8AA0A6"/>
		<stop  offset="6.706923e-003" style="stop-color:#90A5AA"/>
		<stop  offset="4.217550e-002" style="stop-color:#ABB9BD"/>
		<stop  offset="8.291829e-002" style="stop-color:#C1CACD"/>
		<stop  offset="0.1305" style="stop-color:#D1D7D9"/>
		<stop  offset="0.1893" style="stop-color:#DDE0E2"/>
		<stop  offset="0.2718" style="stop-color:#E4E6E7"/>
		<stop  offset="0.5" style="stop-color:#E6E7E8"/>
		<stop  offset="0.7303" style="stop-color:#E4E6E7"/>
		<stop  offset="0.8135" style="stop-color:#DDE0E2"/>
		<stop  offset="0.8728" style="stop-color:#D1D7DA"/>
		<stop  offset="0.9208" style="stop-color:#C1CBCE"/>
		<stop  offset="0.9615" style="stop-color:#ABBABF"/>
		<stop  offset="0.9973" style="stop-color:#90A6AD"/>
		<stop  offset="1" style="stop-color:#8EA4AB"/>
	</linearGradient>
	<rect x="1465.6" y="2311.2" class="st7" width="559.1" height="48.5"/>
</g>
<g>
	<defs>
		<rect id="SVGID_12_" y="0" width="3490.3" height="2431.8"/>
	</defs>
	<clipPath id="SVGID_13_">
		<use xlink:href="#SVGID_12_"  style="overflow:visible;"/>
	</clipPath>
	<path class="st8" d="M2613.6,970.8H876.7c-37.2,0-67.7-30.5-67.7-67.7V67.7C809,30.5,839.5,0,876.7,0h1736.9
		c37.2,0,67.7,30.5,67.7,67.7v835.3C2681.3,940.3,2650.8,970.8,2613.6,970.8"/>
	<path class="st9" d="M2789.4,1891.3H700.9c-42.4,0-77-34.6-77-77V920.5c0-42.3,34.6-77,77-77h2088.6c42.4,0,77,34.7,77,77v893.8
		C2866.4,1856.7,2831.8,1891.3,2789.4,1891.3"/>
	<path class="st8" d="M2816.6,2065.1H674.4c-27.6,0-50.2-22.6-50.2-50.2c0-27.6,22.6-50.2,50.2-50.2h2142.2
		c27.6,0,50.2,22.6,50.2,50.2C2866.8,2042.5,2844.2,2065.1,2816.6,2065.1"/>
	<path class="st10" d="M1539,1372.9c0,212.7-172.4,385.1-385.1,385.1c-212.7,0-385.1-172.4-385.1-385.1
		c0-212.7,172.4-385.1,385.1-385.1C1366.5,987.8,1539,1160.2,1539,1372.9"/>
	<path class="st9" d="M1488.5,1372.9c0,184.8-149.8,334.7-334.7,334.7c-184.8,0-334.7-149.8-334.7-334.7
		c0-184.8,149.8-334.7,334.7-334.7C1338.7,1038.3,1488.5,1188.1,1488.5,1372.9"/>
	<path class="st11" d="M1457.9,1372.9c0,109.6-58,205.7-145,259.2c-46.3,28.5-100.8,44.9-159.1,44.9
		c-167.9,0-304.1-136.1-304.1-304.1c0-34.5,5.7-67.6,16.3-98.5c31-90.7,103.8-162.1,195.3-191.3c13.6-4.3,27.5-7.7,41.9-10.1
		c16.5-2.8,33.4-4.2,50.6-4.2c2.3,0,4.6,0,6.9,0.1c48.5,1.1,94.3,13.5,134.6,34.8c30.2,15.9,57.3,36.7,80.4,61.4
		C1426.7,1219.4,1457.9,1292.5,1457.9,1372.9"/>
	<path class="st12" d="M1375.8,1165.1l-222,207.8v-304.1c2.3,0,4.6,0,6.9,0.1c48.5,1.1,94.3,13.5,134.6,34.8
		C1325.5,1119.6,1352.7,1140.4,1375.8,1165.1"/>
	<path class="st13" d="M1457.9,1372.9c0,109.6-58,205.7-145,259.2l-159.1-259.2l141.5-269.2c30.2,15.9,57.3,36.7,80.4,61.4
		C1426.7,1219.4,1457.9,1292.5,1457.9,1372.9"/>
	<path class="st14" d="M1153.8,1372.9l-287.8-98.5c31-90.7,103.8-162.1,195.3-191.3c13.6-4.3,27.5-7.7,41.9-10.1L1153.8,1372.9z"/>
	<path class="st15" d="M1160.7,1068.9l-6.9,304l-92.4-289.8c13.6-4.3,27.5-7.7,41.9-10.1c16.5-2.8,33.4-4.2,50.6-4.2
		C1156.1,1068.8,1158.4,1068.9,1160.7,1068.9"/>
	<rect x="1733.7" y="982.3" class="st16" width="167.4" height="775.8"/>
	<rect x="1733.7" y="1420.3" class="st14" width="167.4" height="337.7"/>
	<rect x="1733.7" y="1636" class="st11" width="167.4" height="122.1"/>
	<rect x="1938.8" y="982.3" class="st16" width="167.4" height="775.8"/>
	<rect x="1938.8" y="1457.9" class="st14" width="167.4" height="300.2"/>
	<rect x="1938.8" y="1513.1" class="st11" width="167.4" height="244.9"/>
	<rect x="2144" y="982.3" class="st16" width="167.4" height="775.8"/>
	<rect x="2144" y="1157.6" class="st14" width="167.4" height="600.4"/>
	<rect x="2144" y="1590.7" class="st11" width="167.4" height="167.4"/>
	<rect x="2349.1" y="982.3" class="st16" width="167.4" height="775.8"/>
	<rect x="2349.1" y="1268.2" class="st14" width="167.4" height="489.9"/>
	<rect x="2349.1" y="1370.2" class="st11" width="167.4" height="387.9"/>
	<rect x="2554.2" y="982.3" class="st16" width="167.4" height="775.8"/>
	<rect x="2554.2" y="1493.9" class="st14" width="167.4" height="264.2"/>
	<rect x="2554.2" y="1578.1" class="st11" width="167.4" height="180"/>
	<path class="st10" d="M975.4,277.1c91.1-152.5,288.5-202.3,440.9-111.2s202.3,288.5,111.2,440.9s-288.5,202.3-440.9,111.2
		C934.1,627,884.3,429.6,975.4,277.1"/>
	<path class="st9" d="M1011.6,298.7c79.1-132.5,250.7-175.7,383.1-96.6c132.5,79.1,175.7,250.7,96.6,383.1
		c-79.1,132.5-250.7,175.7-383.1,96.6C975.7,602.8,932.5,431.2,1011.6,298.7"/>
	<path class="st14" d="M1033.5,311.8c46.9-78.6,129.6-122.6,214.8-123.7c45.4-0.6,91.5,11,133.3,35.9
		c120.4,71.9,159.7,227.8,87.8,348.1c-14.8,24.7-33.1,46-53.9,63.6c-61.1,51.7-143.8,71.8-221.9,53.5c-11.6-2.7-23-6.3-34.3-10.7
		c-13-5.1-25.7-11.3-38.1-18.7c-1.7-1-3.3-2-4.9-3c-34.3-21.5-61.8-50.1-81.6-82.6c-14.8-24.3-25.4-50.9-31.4-78.4
		C990.1,435.2,999.1,369.4,1033.5,311.8"/>
	<path class="st11" d="M1003.4,496l248.1-54l-130.2,218c-1.6-1-3.3-2-4.9-3c-34.3-21.6-61.8-50.1-81.6-82.6
		C1020,550.1,1009.4,523.5,1003.4,496"/>
	<path class="st12" d="M1033.5,311.8c46.9-78.6,129.6-122.6,214.8-123.7l3.1,253.9l-216.7,132.4c-14.8-24.3-25.4-50.9-31.4-78.4
		C990.1,435.2,999.1,369.4,1033.5,311.8"/>
	<path class="st13" d="M1251.5,442l164.1,193.8c-61.1,51.7-143.8,71.8-221.9,53.5c-11.6-2.7-23-6.3-34.3-10.7L1251.5,442z"/>
	<path class="st15" d="M1116.4,657l135.1-215l-57.8,247.3c-11.6-2.7-23-6.3-34.3-10.7c-13-5.1-25.7-11.3-38.1-18.7
		C1119.6,659,1118,658,1116.4,657"/>
	<rect x="1735.6" y="115.9" class="st14" width="139.7" height="647.7"/>
	<rect x="1735.6" y="481.6" class="st12" width="139.7" height="282"/>
	<rect x="1735.6" y="661.6" class="st13" width="139.7" height="101.9"/>
	<rect x="1906.9" y="115.9" class="st14" width="139.7" height="647.7"/>
	<rect x="1906.9" y="512.9" class="st12" width="139.7" height="250.6"/>
	<rect x="1906.9" y="559.1" class="st13" width="139.7" height="204.5"/>
	<rect x="2078.1" y="115.9" class="st14" width="139.7" height="647.7"/>
	<rect x="2078.1" y="262.3" class="st12" width="139.7" height="501.3"/>
	<rect x="2078.1" y="623.8" class="st13" width="139.7" height="139.7"/>
	<rect x="2249.4" y="115.9" class="st14" width="139.7" height="647.7"/>
	<rect x="2249.4" y="354.6" class="st12" width="139.7" height="409"/>
	<rect x="2249.4" y="439.7" class="st13" width="139.7" height="323.8"/>
	<rect x="2420.6" y="115.9" class="st14" width="139.7" height="647.7"/>
	<rect x="2420.6" y="543" class="st12" width="139.7" height="220.6"/>
	<rect x="2420.6" y="613.3" class="st13" width="139.7" height="150.2"/>
</g>
</svg>
