<?xml version="1.0" encoding="utf-8"?>
<!-- Generator: Adobe Illustrator 23.0.3, SVG Export Plug-In . SVG Version: 6.00 Build 0)  -->
<!DOCTYPE svg PUBLIC "-//W3C//DTD SVG 1.1//EN" "http://www.w3.org/Graphics/SVG/1.1/DTD/svg11.dtd" [
	<!ENTITY ns_extend "http://ns.adobe.com/Extensibility/1.0/">
	<!ENTITY ns_ai "http://ns.adobe.com/AdobeIllustrator/10.0/">
	<!ENTITY ns_graphs "http://ns.adobe.com/Graphs/1.0/">
	<!ENTITY ns_vars "http://ns.adobe.com/Variables/1.0/">
	<!ENTITY ns_imrep "http://ns.adobe.com/ImageReplacement/1.0/">
	<!ENTITY ns_sfw "http://ns.adobe.com/SaveForWeb/1.0/">
	<!ENTITY ns_custom "http://ns.adobe.com/GenericCustomNamespace/1.0/">
	<!ENTITY ns_adobe_xpath "http://ns.adobe.com/XPath/1.0/">
]>
<svg version="1.1" id="Isolation_Mode" xmlns:x="&ns_extend;" xmlns:i="&ns_ai;" xmlns:graph="&ns_graphs;"
	 xmlns="http://www.w3.org/2000/svg" xmlns:xlink="http://www.w3.org/1999/xlink" x="0px" y="0px" viewBox="0 0 90 90"
	 style="enable-background:new 0 0 90 90;" xml:space="preserve">
<style type="text/css">
	.st0{fill:#FFFFFF;}
</style>
<metadata>
	<sfw  xmlns="&ns_sfw;">
		<slices></slices>
		<sliceSourceBounds  bottomLeftOrigin="true" height="90" width="90" x="-111" y="134"></sliceSourceBounds>
	</sfw>
</metadata>
<g>
	<path class="st0" d="M15.4,13.6c0.1-0.1,0.1-0.1,0.2-0.2c1-1,2.2-1.9,3.3-2.8C17.3,10.9,16,12.1,15.4,13.6z M36.7,13.8l-16.5,0.4
		l-1.1,1c0,0-0.1,0.2-0.1,0.3l-0.4,0.2L18.4,29c0,0.7,0.5,1.2,1.2,1.2h5c0.6,0,1.1,0.4,1.4,0.9l2.3,4.5l2.2-4.5
		c0.2-0.6,0.8-0.9,1.4-0.9h4.8c0.7,0,1.2-0.5,1.2-1.2V15C37.9,14.3,37.4,13.8,36.7,13.8z M33,20.8l-4.8,4.8
		c-0.3,0.3-0.7,0.5-1.1,0.5c-0.4,0-0.8-0.2-1.1-0.5l-3-2.8c-0.6-0.6-0.6-1.7,0-2.3c0.6-0.6,1.7-0.6,2.3,0l1.7,1.7l3.7-3.7
		c0.6-0.6,1.7-0.6,2.3,0C33.6,19.1,33.6,20.2,33,20.8z M36.6,10.6H24.4c-0.7,0.4-1.3,0.8-1.9,1.2c-0.3,0.2-0.5,0.4-0.8,0.5L20,13.8
		l-1.6,1.3l-1.8,1.5c-0.1,0.1-0.2,0.2-0.3,0.3c-0.4,0.4-0.7,0.8-1.1,1.1V29c0,2.4,2,4.4,4.4,4.4h3.8l1.8,3.6
		c0.5,1.1,1.6,1.8,2.8,1.8c1.2,0,2.3-0.7,2.8-1.8l1.8-3.6h4c2.4,0,4.4-2,4.4-4.4V15C41,12.6,39,10.6,36.6,10.6z M23,20.5
		c0.6-0.6,1.7-0.6,2.3,0l1.7,1.7l3.7-3.7c0.6-0.6,1.7-0.6,2.3,0c0.6,0.6,0.6,1.7,0,2.3l-4.8,4.8c-0.3,0.3-0.7,0.5-1.1,0.5
		c-0.4,0-0.8-0.2-1.1-0.5l-3-2.8C22.4,22.2,22.4,21.1,23,20.5z"/>
	<path class="st0" d="M38.6,14.1l-2.9-2.2l-14.1,0.5L20,13.8l-1.6,1.3l-1.8,1.5c0.4,2.7,1,7.3,0.7,7.5c-0.3,0.3-1,6-1,6l3.4,1.7h4.7
		l2.9,4.4l2.8-0.6l2.4-4.3c0,0,2.2-0.3,3.4-0.1c1.2,0.2,2.7-0.6,2.7-0.6l1-7.3L38.6,14.1z M33,20.8l-4.8,4.8
		c-0.3,0.3-0.7,0.5-1.1,0.5c-0.4,0-0.8-0.2-1.1-0.5l-3-2.8c-0.6-0.6-0.6-1.7,0-2.3c0.6-0.6,1.7-0.6,2.3,0l1.7,1.7l3.7-3.7
		c0.6-0.6,1.7-0.6,2.3,0C33.6,19.1,33.6,20.2,33,20.8z"/>
	<path class="st0" d="M42.2,74.5l-0.8-7c-0.6-3.9-3.2-7.1-6.7-8.4c1.9-1.8,3.2-4.3,3.2-7.1c0-5.4-4.4-9.7-9.7-9.7s-9.8,4.3-9.8,9.7
		c0,2.8,1.2,5.4,3.2,7.1c-3.5,1.3-6.1,4.5-6.6,8.4l-0.4,3.3c0.3,0.3,0.6,0.7,0.9,1c0.6,0.7,1.3,1.3,1.9,2l0.7-5.8
		c0.4-3.5,3.4-6.2,6.9-6.2h6c3.5,0,6.5,2.6,6.9,6.2l0.7,7.2c-6,1.3-12.8,1.6-19.3,0.2c1,0.9,2.1,1.7,3.2,2.4
		c0.8,0.5,1.6,1.1,2.5,1.5c1.1,0.1,2.2,0.1,3.3,0.1c3.9,0,7.7-0.4,11.4-1.2C41.3,77.8,42.5,76.2,42.2,74.5z M28.1,58.5
		c-3.6,0-6.5-2.9-6.5-6.5s3-6.5,6.5-6.5c3.6,0,6.5,2.9,6.5,6.5S31.7,58.5,28.1,58.5z"/>
	<path class="st0" d="M75,67.5c-0.7-3.9-3.3-7.1-6.8-8.4c1.9-1.8,3.2-4.3,3.2-7.1c0-5.4-4.4-9.7-9.7-9.7c-5.4,0-9.7,4.4-9.7,9.7
		c0,2.8,1.2,5.4,3.2,7.1c-3.5,1.3-6.1,4.5-6.6,8.4l-0.8,7c-0.2,1.7,1,3.4,2.6,3.7c3.6,0.8,7.5,1.2,11.4,1.2c1.2,0,2.4,0,3.7-0.1
		c0.8-0.5,1.7-1,2.5-1.6c1.1-0.8,2.2-1.6,3.2-2.4c-6.5,1.2-13.6,1.3-20.4-0.4l0.8-7c0.4-3.5,3.4-6.2,6.9-6.2h6
		c3.5,0,6.5,2.6,6.9,6.2l0.6,6.6c0.9-0.8,1.7-1.6,2.5-2.4c0.3-0.3,0.6-0.6,0.9-0.9L75,67.5z M61.6,58.5c-3.6,0-6.5-2.9-6.5-6.5
		s2.9-6.5,6.5-6.5c3.6,0,6.5,2.9,6.5,6.5S65.2,58.5,61.6,58.5z"/>
	<path class="st0" d="M73.4,16.3c-1.7-1.6-3.5-3.1-5.4-4.4c-0.6-0.4-1.3-0.9-2-1.2H53c-2.4,0-4.4,2-4.4,4.4v14
		c0.1,2.4,2.1,4.4,4.5,4.4h3.8l1.8,3.6c0.5,1.1,1.6,1.8,2.9,1.8c1.2,0,2.3-0.7,2.8-1.8l1.8-3.6H70c2.4,0,4.4-2,4.4-4.4V17.3
		C74,16.9,73.7,16.6,73.4,16.3z M71.3,29c0,0.7-0.5,1.2-1.2,1.2h-4.8c-0.6,0-1.2,0.3-1.4,0.9l-2.3,4.5l-2.3-4.5
		c-0.3-0.5-0.8-0.9-1.4-0.9h-4.8c-0.7,0-1.2-0.5-1.2-1.2V15c0-0.7,0.5-1.2,1.2-1.2h17c0.7,0,1.2,0.5,1.2,1.2V29z M72,11.1
		c0.5,0.4,0.9,0.8,1.4,1.1C73,11.8,72.5,11.4,72,11.1z"/>
	<path class="st0" d="M56.9,26.7c0.3,0.3,0.7,0.5,1.1,0.5c0.4,0,0.8-0.2,1.1-0.5l2.4-2.4l2.4,2.4c0.3,0.3,0.7,0.5,1.1,0.5
		c0.4,0,0.8-0.2,1.1-0.5c0.6-0.6,0.6-1.7,0-2.3L63.9,22l2.4-2.4c0.6-0.6,0.6-1.7,0-2.3s-1.7-0.6-2.3,0l-2.4,2.4l-2.4-2.4
		c-0.6-0.6-1.7-0.6-2.3,0c-0.6,0.6-0.6,1.7,0,2.3l2.4,2.4l-2.4,2.4C56.3,25,56.3,26,56.9,26.7z"/>
</g>
<g>
	<path class="st0" d="M45,0C20.2,0,0,20.1,0,45s20.2,45,45,45s45-20.1,45-45S69.8,0,45,0z M75.8,74.9c-1.2,1.2-2.5,2.4-3.8,3.5
		c-7.4,6-16.8,9.6-27,9.6c-10.2,0-19.6-3.6-27-9.5c-1.3-1.1-2.6-2.3-3.8-3.5C6.6,67.2,2,56.6,2,45c0-12.2,5.1-23.3,13.3-31.1
		c1.2-1.2,2.5-2.3,3.9-3.3C26.4,5.2,35.3,2,45,2c9.7,0,18.7,3.2,25.9,8.7c1.1,0.8,2.1,1.7,3.1,2.6c8.6,7.9,14,19.2,14,31.7
		C88,56.6,83.4,67.2,75.8,74.9z"/>
</g>
</svg>
