<?xml version="1.0" encoding="utf-8"?>
<!-- Generator: Adobe Illustrator 19.0.0, SVG Export Plug-In . SVG Version: 6.00 Build 0)  -->
<svg version="1.1" id="Layer_1" xmlns="http://www.w3.org/2000/svg" xmlns:xlink="http://www.w3.org/1999/xlink" x="0px" y="0px"
	 viewBox="0 0 87.6 90.5" style="enable-background:new 0 0 87.6 90.5;" xml:space="preserve">
<style type="text/css">
	.st0{clip-path:url(#SVGID_2_);fill:#ff0046;}
</style>
<g>
	<defs>
		<rect id="SVGID_1_" y="0" width="87.6" height="90.5"/>
	</defs>
	<clipPath id="SVGID_2_">
		<use xlink:href="#SVGID_1_"  style="overflow:visible;"/>
	</clipPath>
	<path class="st0" d="M33.4,70.8c-5.4,0-9.8,4.4-9.8,9.8c0,5.4,4.4,9.8,9.8,9.8s9.8-4.4,9.8-9.8C43.3,75.2,38.9,70.8,33.4,70.8"/>
	<path class="st0" d="M74.6,70.8c-5.4,0-9.8,4.4-9.8,9.8c0,5.4,4.4,9.8,9.8,9.8c5.4,0,9.8-4.4,9.8-9.8C84.4,75.2,80,70.8,74.6,70.8"
		/>
	<path class="st0" d="M84.6,61.5H26.3l-0.6-5.4l45.8-4.8C77.4,50.6,82.2,46,83,40L86,18c0.2-1.6-0.9-3.2-2.6-3.4c-0.1,0-0.3,0-0.4,0
		H20.9L19.5,2.7C19.3,1.1,18,0,16.5,0H3C1.3,0,0,1.3,0,3c0,1.7,1.3,3,3,3h10.8l6.8,58.8c0.2,1.5,1.5,2.7,3,2.7h61.1c1.7,0,3-1.3,3-3
		C87.6,62.8,86.3,61.5,84.6,61.5"/>
</g>
</svg>
