<svg id="ade4bbde-ec75-4038-9009-999a506bb618" data-name="Layer 1" xmlns="http://www.w3.org/2000/svg" viewBox="0 0 24 24"><defs><style>.a4ed261d-c937-4926-8b31-5bd4d17b4ac9{fill:#fff;fill-rule:evenodd;}</style></defs><path class="a4ed261d-c937-4926-8b31-5bd4d17b4ac9" d="M12,24A12,12,0,1,1,24,12h0A12,12,0,0,1,12,24ZM12,2A10,10,0,1,0,22,12,10,10,0,0,0,12,2Zm4,15a1,1,0,0,1-1-1h0V11a1,1,0,0,1,2,0h0v5a1,1,0,0,1-1,1Zm-4,0a1,1,0,0,1-1-1V8a1,1,0,0,1,2,0v8A1,1,0,0,1,12,17ZM8,17a1,1,0,0,1-1-1H7V13a1,1,0,0,1,2,0H9v3a1,1,0,0,1-1,1Z"/></svg>