<?xml version="1.0" encoding="utf-8"?>
<!-- Generator: Adobe Illustrator 23.0.3, SVG Export Plug-In . SVG Version: 6.00 Build 0)  -->
<!DOCTYPE svg PUBLIC "-//W3C//DTD SVG 1.1//EN" "http://www.w3.org/Graphics/SVG/1.1/DTD/svg11.dtd" [
	<!ENTITY ns_extend "http://ns.adobe.com/Extensibility/1.0/">
	<!ENTITY ns_ai "http://ns.adobe.com/AdobeIllustrator/10.0/">
	<!ENTITY ns_graphs "http://ns.adobe.com/Graphs/1.0/">
	<!ENTITY ns_vars "http://ns.adobe.com/Variables/1.0/">
	<!ENTITY ns_imrep "http://ns.adobe.com/ImageReplacement/1.0/">
	<!ENTITY ns_sfw "http://ns.adobe.com/SaveForWeb/1.0/">
	<!ENTITY ns_custom "http://ns.adobe.com/GenericCustomNamespace/1.0/">
	<!ENTITY ns_adobe_xpath "http://ns.adobe.com/XPath/1.0/">
]>
<svg version="1.1" id="Layer_1" xmlns:x="&ns_extend;" xmlns:i="&ns_ai;" xmlns:graph="&ns_graphs;"
	 xmlns="http://www.w3.org/2000/svg" xmlns:xlink="http://www.w3.org/1999/xlink" x="0px" y="0px" viewBox="0 0 90 90"
	 style="enable-background:new 0 0 90 90;" xml:space="preserve">
<style type="text/css">
	.st0{fill:#FFFFFF;}
</style>
<metadata>
	<sfw  xmlns="&ns_sfw;">
		<slices></slices>
		<sliceSourceBounds  bottomLeftOrigin="true" height="90" width="90" x="5" y="30"></sliceSourceBounds>
	</sfw>
</metadata>
<g>
	<path class="st0" d="M45,2c23.7,0,43,19.3,43,43S68.7,88,45,88S2,68.7,2,45S21.3,2,45,2 M45,0C20.2,0,0,20.1,0,45s20.2,45,45,45
		s45-20.1,45-45S69.8,0,45,0L45,0z"/>
</g>
<path class="st0" d="M81.3,28.4v33.3c0.8-1.7,1.5-3.4,2-5.2V33.7C82.7,31.9,82.1,30.1,81.3,28.4z"/>
<path class="st0" d="M77.4,21.8L58.6,48.3c-0.7-0.4-1.5-0.6-2.4-0.6c-1.8,0-3.4,1-4.3,2.4L33.8,38.2c0.1-0.5,0.2-0.9,0.2-1.5
	c0-2.7-2.2-5-5-5c-2.7,0-5,2.2-5,5c0,1.1,0.4,2.1,1,2.9L9.7,63.1c0.4,0.8,0.9,1.6,1.4,2.5l2.4-3.7v7.2c0.6,0.7,1.2,1.4,1.8,2.2V59.1
	l3.4-5.2v20.7c0.6,0.5,1.2,1.1,1.8,1.6v-25l3.4-5.2v32.7c0.6,0.4,1.2,0.7,1.8,1.1V43.2l1.3-1.9c0.6,0.3,1.3,0.5,2,0.5c0,0,0,0,0.1,0
	v39.8c0.6,0.3,1.2,0.5,1.9,0.7V41.4c0.6-0.2,1.1-0.6,1.5-1l1.8,1.2v41.9c0.6,0.2,1.2,0.2,1.9,0.4v-41l3.4,2.2v39.5
	c0.6,0.1,1.2,0.1,1.8,0.1V46.2l3.4,2.2v36.5c0.1,0,0.2,0,0.4,0c0.5,0,1-0.1,1.5-0.1V49.6l3.4,2.2v32.8c0.6-0.1,1.2-0.2,1.8-0.3V55.1
	c0.7,1.3,2,2.2,3.5,2.4v26c0.5-0.1,1.1-0.3,1.7-0.4V57.5c1.5-0.2,2.7-1.1,3.4-2.3v26.7c0.7-0.3,1.3-0.6,1.9-0.9V47.2l3.3-4.6v36.6
	c0.7-0.4,1.3-0.8,1.9-1.2V39.9l3.3-4.6v40.2c0.7-0.6,1.3-1.2,2-1.8V32.5l3.2-4.6v42.2c0.7-0.9,1.4-1.8,2-2.7V25.1l0.8-1.1
	C78.4,23.2,77.9,22.5,77.4,21.8z M60.4,50.1C60.4,50.1,60.4,50,60.4,50.1L60.4,50.1L60.4,50.1z"/>
</svg>
