<?xml version="1.0" encoding="utf-8"?>
<!-- Generator: Adobe Illustrator 23.0.3, SVG Export Plug-In . SVG Version: 6.00 Build 0)  -->
<!DOCTYPE svg PUBLIC "-//W3C//DTD SVG 1.1//EN" "http://www.w3.org/Graphics/SVG/1.1/DTD/svg11.dtd" [
	<!ENTITY ns_extend "http://ns.adobe.com/Extensibility/1.0/">
	<!ENTITY ns_ai "http://ns.adobe.com/AdobeIllustrator/10.0/">
	<!ENTITY ns_graphs "http://ns.adobe.com/Graphs/1.0/">
	<!ENTITY ns_vars "http://ns.adobe.com/Variables/1.0/">
	<!ENTITY ns_imrep "http://ns.adobe.com/ImageReplacement/1.0/">
	<!ENTITY ns_sfw "http://ns.adobe.com/SaveForWeb/1.0/">
	<!ENTITY ns_custom "http://ns.adobe.com/GenericCustomNamespace/1.0/">
	<!ENTITY ns_adobe_xpath "http://ns.adobe.com/XPath/1.0/">
]>
<svg version="1.1" id="Layer_1" xmlns:x="&ns_extend;" xmlns:i="&ns_ai;" xmlns:graph="&ns_graphs;"
	 xmlns="http://www.w3.org/2000/svg" xmlns:xlink="http://www.w3.org/1999/xlink" x="0px" y="0px" viewBox="0 0 80 97.5"
	 style="enable-background:new 0 0 80 97.5;" xml:space="preserve">
<metadata>
	<sfw  xmlns="&ns_sfw;">
		<slices></slices>
		<sliceSourceBounds  bottomLeftOrigin="true" height="97.5" width="80" x="10" y="26.2"></sliceSourceBounds>
	</sfw>
</metadata>
<path d="M32.4,0c-3.2,0-5.7,2.6-5.7,5.7v5c0,1.1,0.9,1.9,1.9,1.9h3.8v5.7c-5.5,1.1-10.7,3.3-15.2,6.4l-4.4-4.4
	c-2.2-2.2-5.9-2.2-8.1,0c-2.2,2.2-2.2,5.9,0,8.1l4.1,4.1C3.1,39.6,0,48.4,0,57.5c0,22.1,17.9,40,40,40s40-17.9,40-40
	c0-9.1-3.1-17.9-8.8-25l4.1-4.1c2.2-2.2,2.2-5.9,0-8.1c-2.2-2.2-5.9-2.2-8.1,0l-4.4,4.4c-4.6-3.2-9.8-5.4-15.2-6.4v-5.7h3.8
	c1.1,0,1.9-0.9,1.9-1.9v-5c0-3.2-2.6-5.7-5.7-5.7L32.4,0z M32.4,3.8h15.2c1.1,0,1.9,0.9,1.9,1.9v3h-19v-3
	C30.5,4.7,31.3,3.8,32.4,3.8z M36.2,12.6h7.6v5.1c-2.5-0.2-5.1-0.2-7.6,0V12.6z M40,21.3c1.8,0,3.6,0.1,5.4,0.4
	c6,0.9,11.7,3.3,16.5,7c1.9,1.5,3.7,3.1,5.3,4.9c5.8,6.6,9,15.1,9,23.9c0,20-16.2,36.2-36.2,36.2S3.8,77.5,3.8,57.5
	c0-8.8,3.2-17.3,9-23.9c1.6-1.8,3.4-3.5,5.3-4.9c4.8-3.7,10.5-6.1,16.5-7C36.4,21.5,38.2,21.3,40,21.3z M8.7,22.5
	c0.5,0,1,0.2,1.3,0.6l4,4c-1,0.8-1.9,1.7-2.8,2.6l-3.9-3.9c-0.7-0.7-0.7-2,0-2.7C7.8,22.6,8.2,22.5,8.7,22.5z M71.3,22.5
	c0.5,0,1,0.2,1.3,0.6c0.7,0.7,0.7,2,0,2.7l-3.9,3.9c-0.9-0.9-1.8-1.8-2.8-2.6l4-4C70.3,22.6,70.8,22.5,71.3,22.5z M40,29
	c-1.1,0-1.9,0.9-1.9,1.9c0,1.1,0.9,1.9,1.9,1.9s1.9-0.9,1.9-1.9C41.9,29.8,41.1,29,40,29z M47.5,30c-0.8,0-1.6,0.5-1.8,1.4
	c-0.3,1,0.3,2.1,1.3,2.4c3.3,1,6.4,2.7,9.1,5L54.8,40c-0.7,0.7-0.7,2,0,2.7c0.4,0.4,0.9,0.6,1.3,0.6c0.5,0,1-0.2,1.3-0.6l1.3-1.3
	c3.4,4,5.5,8.9,5.9,14.2h-1.8c-1.1,0-1.9,0.9-1.9,1.9c0,1.1,0.9,1.9,1.9,1.9h1.8c-0.4,5.3-2.4,10.2-5.9,14.2l-1.3-1.3
	c-0.7-0.7-2-0.7-2.7,0c-0.7,0.7-0.7,2,0,2.7l1.3,1.3c-4,3.4-8.9,5.5-14.2,5.9v-1.8c0-1.1-0.9-1.9-1.9-1.9c-1.1,0-1.9,0.9-1.9,1.9
	v1.8c-5.3-0.4-10.2-2.4-14.2-5.9l1.3-1.3c0.7-0.7,0.7-2,0-2.7c-0.7-0.7-2-0.7-2.7,0l-1.3,1.3c-3.4-4-5.5-8.9-5.9-14.2h1.8
	c1.1,0,1.9-0.9,1.9-1.9c0-1.1-0.9-1.9-1.9-1.9h-1.8c0.4-5.3,2.4-10.2,5.9-14.2l1.3,1.3c0.4,0.4,0.9,0.6,1.3,0.6c0.5,0,1-0.2,1.3-0.6
	c0.7-0.7,0.7-2,0-2.7l-1.3-1.3c2.7-2.3,5.8-4,9.1-5c1-0.3,1.6-1.4,1.3-2.4c-0.3-1-1.4-1.6-2.4-1.3c-4.5,1.3-8.6,3.8-12,7.1
	c0,0-0.1,0.1-0.1,0.1c0,0-0.1,0.1-0.1,0.1c-5.3,5.4-8.3,12.5-8.3,20.1c0,7.6,2.9,14.7,8.3,20.1c0,0,0.1,0.1,0.1,0.1
	c0,0,0.1,0.1,0.1,0.1c5.4,5.3,12.5,8.3,20.1,8.3c7.6,0,14.7-2.9,20.1-8.3c0,0,0.1-0.1,0.1-0.1c0,0,0.1-0.1,0.1-0.1
	c5.3-5.4,8.3-12.5,8.3-20.1c0-7.6-2.9-14.7-8.3-20.1c0,0-0.1-0.1-0.1-0.1c0,0-0.1-0.1-0.1-0.1c-3.4-3.3-7.5-5.8-12-7.1
	C47.9,30.1,47.7,30,47.5,30z M40,36.6c-1.1,0-1.9,0.9-1.9,1.9v13.7c-2.2,0.8-3.8,2.9-3.8,5.4c0,3.2,2.6,5.7,5.7,5.7s5.7-2.6,5.7-5.7
	c0-2.5-1.6-4.6-3.8-5.4V38.5C41.9,37.4,41.1,36.6,40,36.6z M40,55.6c1.1,0,1.9,0.9,1.9,1.9s-0.9,1.9-1.9,1.9s-1.9-0.9-1.9-1.9
	S38.9,55.6,40,55.6z"/>
</svg>
