<?xml version="1.0" encoding="utf-8"?>
<!-- Generator: Adobe Illustrator 23.0.3, SVG Export Plug-In . SVG Version: 6.00 Build 0)  -->
<!DOCTYPE svg PUBLIC "-//W3C//DTD SVG 1.1//EN" "http://www.w3.org/Graphics/SVG/1.1/DTD/svg11.dtd" [
	<!ENTITY ns_extend "http://ns.adobe.com/Extensibility/1.0/">
	<!ENTITY ns_ai "http://ns.adobe.com/AdobeIllustrator/10.0/">
	<!ENTITY ns_graphs "http://ns.adobe.com/Graphs/1.0/">
	<!ENTITY ns_vars "http://ns.adobe.com/Variables/1.0/">
	<!ENTITY ns_imrep "http://ns.adobe.com/ImageReplacement/1.0/">
	<!ENTITY ns_sfw "http://ns.adobe.com/SaveForWeb/1.0/">
	<!ENTITY ns_custom "http://ns.adobe.com/GenericCustomNamespace/1.0/">
	<!ENTITY ns_adobe_xpath "http://ns.adobe.com/XPath/1.0/">
]>
<svg version="1.1" id="Layer_1" xmlns:x="&ns_extend;" xmlns:i="&ns_ai;" xmlns:graph="&ns_graphs;"
	 xmlns="http://www.w3.org/2000/svg" xmlns:xlink="http://www.w3.org/1999/xlink" x="0px" y="0px" viewBox="0 0 20 24"
	 style="enable-background:new 0 0 20 24;" xml:space="preserve">
<style type="text/css">
	.st0{fill-rule:evenodd;clip-rule:evenodd;fill:#FFFFFF;}
</style>
<metadata>
	<sfw  xmlns="&ns_sfw;">
		<slices></slices>
		<sliceSourceBounds  bottomLeftOrigin="true" height="24" width="20" x="2" y="6"></sliceSourceBounds>
	</sfw>
</metadata>
<title>money_042-coins-business-cash-finance</title>
<desc>Created with Sketch.</desc>
<g>
	<g transform="translate(-93.000000, -236.000000)">
		<g transform="translate(95.000000, 236.000000)">
			<path class="st0" d="M18,3c0-1.8-2.9-3-6.5-3S5,1.2,5,3s2.9,3,6.5,3S18,4.8,18,3z M6,3c0-1,2.4-2,5.5-2S17,2,17,3s-2.4,2-5.5,2
				S6,4,6,3z"/>
			<path class="st0" d="M5,6c0,1.8,2.9,3,6.5,3S18,7.8,18,6V3h-1v3c0,1-2.4,2-5.5,2S6,7,6,6V3H5V6z"/>
			<path class="st0" d="M5,9C5,9,5,9,5,9l0-3h1v3c0,0,0,0.1,0,0.1C5.7,9,5.3,9,5,9z M10,11.9c0.5,0,1,0.1,1.5,0.1
				c3.6,0,6.5-1.2,6.5-3V6h-1v3c0,1-2.4,2-5.5,2c-0.5,0-1,0-1.5-0.1c0,0,0,0.1,0,0.1C10,11.1,10,11.4,10,11.9z"/>
			<path class="st0" d="M10.1,14.9c0.5,0,0.9,0.1,1.4,0.1c3.6,0,6.5-1.2,6.5-3V9h-1v3c0,1-2.4,2-5.5,2c-0.5,0-1,0-1.4-0.1
				C10.1,14.2,10.1,14.6,10.1,14.9z M6,9.1L6,9.1L5,9v0C5.3,9,5.7,9,6,9.1z"/>
			<path class="st0" d="M11,12c0-1.8-2.9-3-6.5-3S-2,10.2-2,12s2.9,3,6.5,3S11,13.8,11,12z M-1,12c0-1,2.4-2,5.5-2s5.5,1,5.5,2
				s-2.4,2-5.5,2S-1,13-1,12z"/>
			<path class="st0" d="M-2,15c0,1.8,2.9,3,6.5,3s6.5-1.2,6.5-3v-3h-1v3c0,1-2.4,2-5.5,2S-1,16-1,15v-3h-1V15z"/>
			<path class="st0" d="M-2,18c0,1.8,2.9,3,6.5,3s6.5-1.2,6.5-3v-3h-1v3c0,1-2.4,2-5.5,2S-1,19-1,18v-3h-1V18z"/>
			<path class="st0" d="M-2,21c0,1.8,2.9,3,6.5,3s6.5-1.2,6.5-3v-3h-1v3c0,1-2.4,2-5.5,2S-1,22-1,21v-3h-1V21z"/>
			<path class="st0" d="M10.2,17.9c0.4,0,0.9,0.1,1.3,0.1c3.6,0,6.5-1.2,6.5-3v-3h-1v3c0,1-2.4,2-5.5,2c-0.5,0-0.9,0-1.4-0.1
				C10.2,17.3,10.2,17.6,10.2,17.9z"/>
			<path class="st0" d="M10.3,20.9c0.4,0,0.8,0.1,1.2,0.1c3.6,0,6.5-1.2,6.5-3v-3h-1v3c0,1-2.4,2-5.5,2c-0.4,0-0.9,0-1.3-0.1
				C10.2,20.5,10.3,20.8,10.3,20.9L10.3,20.9z"/>
		</g>
	</g>
</g>
</svg>
