<?xml version="1.0" encoding="utf-8"?>
<!-- Generator: Adobe Illustrator 23.0.3, SVG Export Plug-In . SVG Version: 6.00 Build 0)  -->
<!DOCTYPE svg PUBLIC "-//W3C//DTD SVG 1.1//EN" "http://www.w3.org/Graphics/SVG/1.1/DTD/svg11.dtd" [
	<!ENTITY ns_extend "http://ns.adobe.com/Extensibility/1.0/">
	<!ENTITY ns_ai "http://ns.adobe.com/AdobeIllustrator/10.0/">
	<!ENTITY ns_graphs "http://ns.adobe.com/Graphs/1.0/">
	<!ENTITY ns_vars "http://ns.adobe.com/Variables/1.0/">
	<!ENTITY ns_imrep "http://ns.adobe.com/ImageReplacement/1.0/">
	<!ENTITY ns_sfw "http://ns.adobe.com/SaveForWeb/1.0/">
	<!ENTITY ns_custom "http://ns.adobe.com/GenericCustomNamespace/1.0/">
	<!ENTITY ns_adobe_xpath "http://ns.adobe.com/XPath/1.0/">
]>
<svg version="1.1" id="base" xmlns:x="&ns_extend;" xmlns:i="&ns_ai;" xmlns:graph="&ns_graphs;"
	 xmlns="http://www.w3.org/2000/svg" xmlns:xlink="http://www.w3.org/1999/xlink" x="0px" y="0px" viewBox="0 0 173.6 173.6"
	 style="enable-background:new 0 0 173.6 173.6;" xml:space="preserve">
<style type="text/css">
	.st0{fill:none;stroke:#000000;stroke-miterlimit:10;}
	.st1{stroke:#000000;stroke-miterlimit:10;}
	.st2{opacity:0.2;fill:none;stroke:#000000;stroke-miterlimit:10;}
</style>
<metadata>
	<sfw  xmlns="&ns_sfw;">
		<slices></slices>
		<sliceSourceBounds  bottomLeftOrigin="true" height="173.6" width="173.6" x="1755" y="-436.9"></sliceSourceBounds>
	</sfw>
</metadata>
<g>
	<g>
		<path class="st0" d="M1.7,101.3c-8-47,23.6-91.6,70.6-99.6c47-8,91.6,23.6,99.6,70.6c8,47-23.6,91.6-70.6,99.6
			C54.3,179.9,9.7,148.3,1.7,101.3z"/>
		<path class="st1" d="M75.1,18c37.9-6.5,74,19.1,80.5,57.1c6.5,37.9-19.1,74-57.1,80.5c-37.9,6.5-74-19.1-80.5-57.1
			C11.6,60.6,37.2,24.5,75.1,18z M96.7,144.7c31.9-5.4,53.5-35.8,48.1-67.8C139.3,45,108.9,23.5,77,28.9
			C45,34.3,23.5,64.7,28.9,96.7C34.3,128.6,64.7,150.2,96.7,144.7z"/>
		<path class="st2" d="M28.9,96.7C23.4,64.7,45,34.3,77,28.9c32-5.4,62.3,16.1,67.8,48.1c5.4,32-16.1,62.3-48.1,67.8
			C64.7,150.2,34.3,128.7,28.9,96.7z"/>
	</g>
</g>
<path d="M67,96.7L58,112c0,0,3.6,5,14.1,9l5.2-14l3.4-9.4l3.6-10.4c0,0,1.2-3.4,1.2-3.4l0.2-0.4c0,0,0.1-0.1,0.1-0.2l0.1-0.1l0,0
	c0,0,0.1,0,0.1,0l0.1,0l0.1,0.1l0.2,0.3l0.3,1l0.7,2l2.4,7.5l2.1,6.6l3.3,10.1l2.6,7.1l1.3,3.9c0,0,8.2-2.3,15.1-9.2l-5-7.5
	l-3.3-5.6l-3.3-6.5L100,87l-2.2-5.2L96,76.7l-1.7-5L92.5,66l-1.8-6L89.1,54l-1.8-6.6l-1-3.3l-1.9,6.3l-2.7,8.8l-2.1,6.7l-2.5,7.4
	L75,79.4l-2.4,5.8L70,90.8L67,96.7z"/>
</svg>
