<?xml version="1.0" encoding="utf-8"?>
<!-- Generator: Adobe Illustrator 23.1.0, SVG Export Plug-In . SVG Version: 6.00 Build 0)  -->
<!DOCTYPE svg PUBLIC "-//W3C//DTD SVG 1.1//EN" "http://www.w3.org/Graphics/SVG/1.1/DTD/svg11.dtd" [
	<!ENTITY ns_extend "http://ns.adobe.com/Extensibility/1.0/">
	<!ENTITY ns_ai "http://ns.adobe.com/AdobeIllustrator/10.0/">
	<!ENTITY ns_graphs "http://ns.adobe.com/Graphs/1.0/">
	<!ENTITY ns_vars "http://ns.adobe.com/Variables/1.0/">
	<!ENTITY ns_imrep "http://ns.adobe.com/ImageReplacement/1.0/">
	<!ENTITY ns_sfw "http://ns.adobe.com/SaveForWeb/1.0/">
	<!ENTITY ns_custom "http://ns.adobe.com/GenericCustomNamespace/1.0/">
	<!ENTITY ns_adobe_xpath "http://ns.adobe.com/XPath/1.0/">
]>
<svg version="1.1" id="Layer_1" xmlns:x="&ns_extend;" xmlns:i="&ns_ai;" xmlns:graph="&ns_graphs;"
	 xmlns="http://www.w3.org/2000/svg" xmlns:xlink="http://www.w3.org/1999/xlink" x="0px" y="0px" viewBox="0 0 99 97.7"
	 style="enable-background:new 0 0 99 97.7;" xml:space="preserve">
<style type="text/css">
	.st0{fill:#679DCA;}
</style>
<metadata>
	<sfw  xmlns="&ns_sfw;">
		<slices></slices>
		<sliceSourceBounds  bottomLeftOrigin="true" height="97.7" width="99" x="0.5" y="25.4"></sliceSourceBounds>
	</sfw>
</metadata>
<path class="st0" d="M49.5,97.7C22.2,97.7,0,75.5,0,48.2C0,29.3,11.1,11.7,28.2,3.5c1.2-0.6,2.6-0.6,3.8,0c1.2,0.6,2.1,1.7,2.3,3.1
	c0.4,2.1,2.1,7.1,8.6,7.1c4.5,0,6.7-2.5,7.7-4.5c0.9-1.8,3-2.8,5-2.3c2,0.5,3.4,2.3,3.3,4.4c-0.1,3.3,0.8,6.3,2.5,8
	c2.2,2.2,5.9,2.4,11,0.6c1.8-0.7,3.9,0,5,1.6c1.1,1.6,1.1,3.7-0.1,5.3c-1.9,2.4-2.1,6-0.5,9.3c1.9,3.9,5.8,6.3,10.3,6.3
	c2,0,3.7-0.4,5.3-1.3c1.3-0.7,2.9-0.7,4.2,0c1.3,0.7,2.1,2,2.3,3.5l0,0.5c0.1,1,0.1,2,0.1,3C99,75.5,76.8,97.7,49.5,97.7z
	 M27.7,13.8c-11.7,7.4-19,20.5-19,34.4C8.7,70.7,27,89,49.5,89c21.6,0,39.3-16.9,40.7-38.1c-1,0.1-2,0.2-3.1,0.2
	c-7.8,0-14.8-4.3-18.2-11.2c-1.6-3.3-2.2-6.7-1.9-10c-0.2,0-0.5,0-0.7,0h0c-4.5,0-8.3-1.5-11.2-4.4c-1.4-1.4-2.5-3.2-3.3-5.1
	c-2.6,1.5-5.6,2.2-8.9,2.2C36.2,22.5,30.7,19.2,27.7,13.8z"/>
<path class="st0" d="M95.4,8.1c0,2-1.6,3.6-3.6,3.6c-2,0-3.6-1.6-3.6-3.6c0-2,1.6-3.6,3.6-3.6C93.8,4.5,95.4,6.1,95.4,8.1z"/>
<circle class="st0" cx="28.2" cy="37.5" r="6.2"/>
<circle class="st0" cx="32.6" cy="61.8" r="6.2"/>
<circle class="st0" cx="55.3" cy="69.5" r="6.2"/>
<circle class="st0" cx="52.6" cy="44.8" r="6.2"/>
<path class="st0" d="M77.8,5.7c0,3.1-2.6,5.7-5.7,5.7c-3.1,0-5.7-2.6-5.7-5.7c0-3.2,2.6-5.7,5.7-5.7C75.2,0,77.8,2.6,77.8,5.7z"/>
<circle class="st0" cx="92.5" cy="27.4" r="4"/>
</svg>
