<svg id="fad9eb4d-3d9c-4dfc-909b-b2e9a8922f57" data-name="Isolation Mode" xmlns="http://www.w3.org/2000/svg" viewBox="0 0 1575.1 1334.75"><defs><style>.f93c6116-d57e-4943-bb54-5ef5bacf9671{fill:#aed3ff;}.a0d7959c-d7ed-46a7-be82-1e543a2892fa{fill:#3daee6;}.fd39714b-f9d0-43f6-ba5a-ec42c4eaad88{fill:#f3f9ff;}.f59dfd8d-44fb-48fb-9562-c51d8f5da796{fill:#fb7369;}.aee52ddb-a6fd-42f7-94cc-8f628a65fe2f{fill:#a6c7f9;}.e4cf6e51-b6b6-4ce8-86ae-bef35d84df34{fill:#a1e3e4;}.acfaa088-f5c7-411d-9124-4111e1628077{fill:#3a4ace;}.b9d2e488-dd1f-4f50-aa19-56473ed14780{fill:#cc7be1;}.a995d99e-d2b4-4da9-a4e2-27286e910f29{fill:#74b8f1;}.be69c1f9-8e2d-4107-8bea-a0fcd2e43813{fill:#fc9490;}.b22575e8-e448-405e-b310-657efbffae68{fill:#1c468a;}.bf5584d2-7340-4ac8-ab69-9120a162a9df{fill:#163560;}.a7a66f0e-5449-41e9-9577-8565b410e872{fill:#db0045;}.a6ef1f1c-79c1-4128-b2f8-029f0a8c32fb{fill:#ff8585;}.bf2ab84c-d59a-4bbc-8632-b1300ae1f9f2{fill:#4a75cb;}</style></defs><rect class="f93c6116-d57e-4943-bb54-5ef5bacf9671" x="876.72" y="147.04" width="559.71" height="940.39" transform="translate(2313.14 1234.47) rotate(180)"/><rect class="a0d7959c-d7ed-46a7-be82-1e543a2892fa" x="859.17" y="147.04" width="559.71" height="940.39"/><rect class="fd39714b-f9d0-43f6-ba5a-ec42c4eaad88" x="897.29" y="199.57" width="484.8" height="327.55"/><rect class="fd39714b-f9d0-43f6-ba5a-ec42c4eaad88" x="1113.54" y="834.51" width="260.19" height="174.89"/><path class="f59dfd8d-44fb-48fb-9562-c51d8f5da796" d="M917.28,366.75s82.77-10.31,133.35,36.29,144.81,4.13,182.75,0c66-7.18,117.68,14.4,133,38.12v71.17H917.28Z"/><rect class="aee52ddb-a6fd-42f7-94cc-8f628a65fe2f" x="981.44" y="252.22" width="3.47" height="111.13"/><rect class="aee52ddb-a6fd-42f7-94cc-8f628a65fe2f" x="1117.56" y="299.91" width="3.47" height="111.13"/><rect class="aee52ddb-a6fd-42f7-94cc-8f628a65fe2f" x="1258.02" y="274.76" width="3.47" height="111.13"/><path class="aee52ddb-a6fd-42f7-94cc-8f628a65fe2f" d="M1023.63,269.27H997a2.9,2.9,0,0,1-2.89-2.89h0a2.9,2.9,0,0,1,2.89-2.89h26.59a2.9,2.9,0,0,1,2.89,2.89h0A2.9,2.9,0,0,1,1023.63,269.27Z"/><path class="aee52ddb-a6fd-42f7-94cc-8f628a65fe2f" d="M1023.63,279.68H997a2.9,2.9,0,0,1-2.89-2.89h0A2.9,2.9,0,0,1,997,273.9h26.59a2.9,2.9,0,0,1,2.89,2.89h0A2.9,2.9,0,0,1,1023.63,279.68Z"/><path class="aee52ddb-a6fd-42f7-94cc-8f628a65fe2f" d="M1157.73,325.92h-26.59a2.9,2.9,0,0,1-2.89-2.89h0a2.9,2.9,0,0,1,2.89-2.89h26.59a2.9,2.9,0,0,1,2.89,2.89h0A2.9,2.9,0,0,1,1157.73,325.92Z"/><path class="aee52ddb-a6fd-42f7-94cc-8f628a65fe2f" d="M1157.73,336.11h-26.59a2.9,2.9,0,0,1-2.89-2.89h0a2.9,2.9,0,0,1,2.89-2.89h26.59a2.9,2.9,0,0,1,2.89,2.89h0A2.9,2.9,0,0,1,1157.73,336.11Z"/><path class="aee52ddb-a6fd-42f7-94cc-8f628a65fe2f" d="M1300.5,284h-26.59a2.9,2.9,0,0,1-2.89-2.89h0a2.9,2.9,0,0,1,2.89-2.89h26.59a2.9,2.9,0,0,1,2.89,2.89h0A2.9,2.9,0,0,1,1300.5,284Z"/><path class="aee52ddb-a6fd-42f7-94cc-8f628a65fe2f" d="M1300.5,294.2h-26.59a2.9,2.9,0,0,1-2.89-2.89h0a2.9,2.9,0,0,1,2.89-2.89h26.59a2.9,2.9,0,0,1,2.89,2.89h0A2.9,2.9,0,0,1,1300.5,294.2Z"/><circle class="fd39714b-f9d0-43f6-ba5a-ec42c4eaad88" cx="1334.22" cy="610.91" r="47.87" transform="translate(517.48 1830.05) rotate(-80.78)"/><path class="e4cf6e51-b6b6-4ce8-86ae-bef35d84df34" d="M1378,610.91a43.81,43.81,0,0,1-73.42,32.29l29.61-32.29V567.1A43.81,43.81,0,0,1,1378,610.91Z"/><path class="aee52ddb-a6fd-42f7-94cc-8f628a65fe2f" d="M1317.53,603.19H1301.8a1.32,1.32,0,0,1-1.32-1.31h0a1.33,1.33,0,0,1,1.32-1.32h15.73a1.32,1.32,0,0,1,1.32,1.32h0A1.32,1.32,0,0,1,1317.53,603.19Z"/><path class="fd39714b-f9d0-43f6-ba5a-ec42c4eaad88" d="M1167.5,610.91a47.87,47.87,0,1,1,47.87,47.87A47.88,47.88,0,0,1,1167.5,610.91Z"/><path class="acfaa088-f5c7-411d-9124-4111e1628077" d="M1215.37,610.91l26.92,34.57A43.81,43.81,0,1,1,1259,606.91Z"/><path class="aee52ddb-a6fd-42f7-94cc-8f628a65fe2f" d="M1249.11,621.75h-10.95a1.33,1.33,0,0,1-1.32-1.32h0a1.33,1.33,0,0,1,1.32-1.32h10.95a1.33,1.33,0,0,1,1.32,1.32h0A1.33,1.33,0,0,1,1249.11,621.75Z"/><path class="fd39714b-f9d0-43f6-ba5a-ec42c4eaad88" d="M1286.35,742.75a47.87,47.87,0,1,1,47.87,47.87A47.87,47.87,0,0,1,1286.35,742.75Z"/><path class="b9d2e488-dd1f-4f50-aa19-56473ed14780" d="M1378,742.75A43.81,43.81,0,0,1,1304.61,775l29.61-32.29V698.94A43.81,43.81,0,0,1,1378,742.75Z"/><path class="aee52ddb-a6fd-42f7-94cc-8f628a65fe2f" d="M1317.53,735H1301.8a1.33,1.33,0,0,1-1.32-1.32h0a1.33,1.33,0,0,1,1.32-1.32h15.73a1.32,1.32,0,0,1,1.32,1.32h0A1.33,1.33,0,0,1,1317.53,735Z"/><path class="fd39714b-f9d0-43f6-ba5a-ec42c4eaad88" d="M1167.5,742.75a47.87,47.87,0,1,1,47.87,47.87A47.87,47.87,0,0,1,1167.5,742.75Z"/><path class="a995d99e-d2b4-4da9-a4e2-27286e910f29" d="M1259,738.75a43.8,43.8,0,1,0-16.71,38.57l-26.92-34.57Z"/><path class="aee52ddb-a6fd-42f7-94cc-8f628a65fe2f" d="M1249.11,753.59h-10.95a1.33,1.33,0,0,1-1.32-1.32h0a1.33,1.33,0,0,1,1.32-1.32h10.95a1.33,1.33,0,0,1,1.32,1.32h0A1.33,1.33,0,0,1,1249.11,753.59Z"/><polygon class="aee52ddb-a6fd-42f7-94cc-8f628a65fe2f" points="1362.51 997.17 1123.69 997.17 1123.69 856.06 1126.66 856.06 1126.66 994.21 1362.51 994.21 1362.51 997.17"/><path class="aee52ddb-a6fd-42f7-94cc-8f628a65fe2f" d="M1198.35,946.14c-29.24-23.27-60.33,0-60.33,0v39.79h218.57V883.09C1297.19,884.59,1227.58,969.42,1198.35,946.14Z"/><path class="aee52ddb-a6fd-42f7-94cc-8f628a65fe2f" d="M1140.52,866.82h101.85a2.5,2.5,0,0,0,0-5H1140.52a2.5,2.5,0,0,0,0,5Z"/><path class="aee52ddb-a6fd-42f7-94cc-8f628a65fe2f" d="M1140.52,879.05h101.85a2.51,2.51,0,0,0,0-5H1140.52a2.51,2.51,0,0,0,0,5Z"/><rect class="aee52ddb-a6fd-42f7-94cc-8f628a65fe2f" x="1138.02" y="885.59" width="71.53" height="5" rx="2.05"/><rect class="a0d7959c-d7ed-46a7-be82-1e543a2892fa" width="765.82" height="1154.94"/><rect class="fd39714b-f9d0-43f6-ba5a-ec42c4eaad88" x="74" y="64.6" width="616.58" height="687.25"/><path class="fd39714b-f9d0-43f6-ba5a-ec42c4eaad88" d="M87.1,971.42A110.89,110.89,0,1,1,198,1082.31,110.89,110.89,0,0,1,87.1,971.42Z"/><path class="b9d2e488-dd1f-4f50-aa19-56473ed14780" d="M291.72,971.42A93.73,93.73,0,1,0,254.84,1046L198,971.42l87.59,33.43A93.6,93.6,0,0,0,291.72,971.42Z"/><path class="fd39714b-f9d0-43f6-ba5a-ec42c4eaad88" d="M464.91,971.42A110.89,110.89,0,1,1,575.8,1082.31,110.89,110.89,0,0,1,464.91,971.42Z"/><path class="e4cf6e51-b6b6-4ce8-86ae-bef35d84df34" d="M575.8,877.68A93.73,93.73,0,0,0,509,1037.17l66.8-65.75,87.59,33.43A93.79,93.79,0,0,0,575.8,877.68Z"/><path class="fd39714b-f9d0-43f6-ba5a-ec42c4eaad88" d="M562.1,923.83H522.2a2.86,2.86,0,0,0-2.85,2.85h0a2.86,2.86,0,0,0,2.85,2.85h39.9a2.86,2.86,0,0,0,2.85-2.85h0A2.86,2.86,0,0,0,562.1,923.83Z"/><path class="fd39714b-f9d0-43f6-ba5a-ec42c4eaad88" d="M562.1,932.86H522.2a2.85,2.85,0,0,0,0,5.7h39.9a2.85,2.85,0,0,0,0-5.7Z"/><path class="fd39714b-f9d0-43f6-ba5a-ec42c4eaad88" d="M538.68,941.88H522.2a2.85,2.85,0,0,0,0,5.7h16.48a2.85,2.85,0,1,0,0-5.7Z"/><path class="fd39714b-f9d0-43f6-ba5a-ec42c4eaad88" d="M183.52,923.83h-39.9a2.87,2.87,0,0,0-2.85,2.85h0a2.86,2.86,0,0,0,2.85,2.85h39.9a2.86,2.86,0,0,0,2.85-2.85h0A2.86,2.86,0,0,0,183.52,923.83Z"/><path class="fd39714b-f9d0-43f6-ba5a-ec42c4eaad88" d="M183.52,932.86h-39.9a2.85,2.85,0,0,0,0,5.7h39.9a2.85,2.85,0,1,0,0-5.7Z"/><path class="fd39714b-f9d0-43f6-ba5a-ec42c4eaad88" d="M160.1,941.88H143.62a2.85,2.85,0,1,0,0,5.7H160.1a2.85,2.85,0,0,0,0-5.7Z"/><rect class="aee52ddb-a6fd-42f7-94cc-8f628a65fe2f" x="128.9" y="310.21" width="65.06" height="405.3"/><rect class="aee52ddb-a6fd-42f7-94cc-8f628a65fe2f" x="235.49" y="197.24" width="65.06" height="518.28"/><rect class="aee52ddb-a6fd-42f7-94cc-8f628a65fe2f" x="351.8" y="408.23" width="65.06" height="307.29"/><rect class="aee52ddb-a6fd-42f7-94cc-8f628a65fe2f" x="464.97" y="266.43" width="65.06" height="449.09"/><rect class="aee52ddb-a6fd-42f7-94cc-8f628a65fe2f" x="578.74" y="468.37" width="65.06" height="247.14"/><path class="aee52ddb-a6fd-42f7-94cc-8f628a65fe2f" d="M527,208h-55.1a5.7,5.7,0,0,0,0,11.4H527a5.7,5.7,0,0,0,0-11.4Z"/><path class="aee52ddb-a6fd-42f7-94cc-8f628a65fe2f" d="M484.4,228.74H471.85a5.7,5.7,0,0,0,0,11.4H484.4a5.7,5.7,0,1,0,0-11.4Z"/><path class="aee52ddb-a6fd-42f7-94cc-8f628a65fe2f" d="M299.9,119.73H244.8a5.7,5.7,0,0,0,0,11.4h55.1a5.7,5.7,0,1,0,0-11.4Z"/><path class="aee52ddb-a6fd-42f7-94cc-8f628a65fe2f" d="M257.35,140.47H244.8a5.72,5.72,0,0,0-5.7,5.7h0a5.71,5.71,0,0,0,5.7,5.7h12.55a5.72,5.72,0,0,0,5.7-5.7h0A5.72,5.72,0,0,0,257.35,140.47Z"/><path class="aee52ddb-a6fd-42f7-94cc-8f628a65fe2f" d="M411.88,347.73h-55.1a5.7,5.7,0,1,0,0,11.4h55.1a5.7,5.7,0,1,0,0-11.4Z"/><path class="aee52ddb-a6fd-42f7-94cc-8f628a65fe2f" d="M369.33,368.47H356.78a5.72,5.72,0,0,0-5.7,5.7h0a5.72,5.72,0,0,0,5.7,5.7h12.55a5.72,5.72,0,0,0,5.7-5.7h0A5.72,5.72,0,0,0,369.33,368.47Z"/><path class="aee52ddb-a6fd-42f7-94cc-8f628a65fe2f" d="M638.82,408.23h-55.1a5.7,5.7,0,0,0,0,11.4h55.1a5.7,5.7,0,0,0,0-11.4Z"/><path class="aee52ddb-a6fd-42f7-94cc-8f628a65fe2f" d="M596.27,429H583.72a5.7,5.7,0,0,0,0,11.4h12.55a5.7,5.7,0,1,0,0-11.4Z"/><path class="be69c1f9-8e2d-4107-8bea-a0fcd2e43813" d="M1297.07,880.19s-19,4.89-31.15,1.25-32.93,2.34-36.29,6.75-2.12,6.17,3.87,7.69,27.19,10.57,41.13,5.34,32.12-5.43,32.12-5.43Z"/><path class="b22575e8-e448-405e-b310-657efbffae68" d="M1461.62,714.8s-21.39,152-56.81,165.63c-17.47,6.72-94.71,22-117.55,23.48,0,0-5.6-4.54-4.24-23,0,0,80.92-29.71,92.42-45.86,17.1-24-10.62-98.23,10.84-120.81S1443.91,681.93,1461.62,714.8Z"/><path class="acfaa088-f5c7-411d-9124-4111e1628077" d="M1458.89,1300.54v-33.15h52.18a2.56,2.56,0,0,0,2.56-2.56v-5.31a2.56,2.56,0,0,0-2.56-2.56h-52.18V1068.29a9.66,9.66,0,0,0-9.63-9.63h-10.33a9.65,9.65,0,0,0-9.62,9.63V1257h-52.18a2.56,2.56,0,0,0-2.56,2.56v5.31a2.56,2.56,0,0,0,2.56,2.56h52.18v33.15c-37.76,2.85-68,16.44-76.49,34h182.56C1526.89,1317,1496.64,1303.39,1458.89,1300.54Z"/><path class="bf5584d2-7340-4ac8-ab69-9120a162a9df" d="M1454.41,1035.07a266.88,266.88,0,0,1-20.89,29.89c-23,29-48,53-52.38,75.57a101.19,101.19,0,0,1-4,14.48c-1.82,5.18-4.07,10.63-6.67,16.26-9.75,21.19-24.34,44.93-38.9,66.52-25.18,37.3-48.86,68.44-48.86,68.44l-43.42-1.85c1.74-4.35,20.68-55.87,46-118.83,10.29-25.55,21.23-52.74,31.78-79,1.41-3.5,2.81-7,4.21-10.44,3.22-8,6.4-15.93,9.5-23.62l42.73-106.18s95.08-36,105-12.68C1486.57,972.92,1479.94,991.77,1454.41,1035.07Z"/><path class="bf5584d2-7340-4ac8-ab69-9120a162a9df" d="M1281.31,1298.33s-2.22,35.83-9.15,36.35c-.92.07-35.16.07-35.16.07l-43.7-.26s.28-10.53,13.06-12.76,34.16-11.2,41.89-28.08C1256.4,1275.88,1281.31,1298.33,1281.31,1298.33Z"/><path class="bf5584d2-7340-4ac8-ab69-9120a162a9df" d="M1381.86,1196s30.2,19.41,27.27,25.71c-.39.84-17.08,30.73-17.08,30.73l-21.53,38s-9-5.38-4.77-17.62,6.87-35.29-4.1-50.28C1350.11,1206.78,1381.86,1196,1381.86,1196Z"/><path class="b22575e8-e448-405e-b310-657efbffae68" d="M1341,949.26s-119.33,74.34-132.66,124.3,158.75,156.52,158.75,156.52,18.88-16.65,22.21-28.86c0,0-77.78-93.18-94.65-114.07-10.37-12.83,153.2-44.41,173.18-75.49s12.83-57.24,12.83-57.24Z"/><rect class="a7a66f0e-5449-41e9-9577-8565b410e872" x="1313.09" y="1044.72" width="262.01" height="66.61" rx="8.88"/><path class="be69c1f9-8e2d-4107-8bea-a0fcd2e43813" d="M1396.18,688.74A67.35,67.35,0,0,0,1378,705.22c28.59,7.39,76-19.1,76-19.1s-18.4-12.37-25.22-39.54c-.34-1.37-.66-2.77-.93-4.21a85.28,85.28,0,0,1-1.55-14.88l-13.13,11.77-21.84,19.56a187,187,0,0,0,3.22,22.09C1395,683.34,1395.55,686,1396.18,688.74Z"/><path class="acfaa088-f5c7-411d-9124-4111e1628077" d="M1484.12,823.62c-4.09,55.08,2.79,138.81-1.85,153.32-4,12.52-51.19,5.11-69.43.93-6.75-1.55-14.92-3.76-23.36-6.37-23.56-7.29-49.22-17.7-52-25.43a5.45,5.45,0,0,1-.25-.89,7.08,7.08,0,0,1,0-3.24c.92-3.94,4.46-8.21,4.88-18,.46-10.9.39-23.72.8-37.52,0-1.55,0-3.25.21-4.79v-.57c0-.29,0-.58,0-.88.4-15.38,1.2-31.55,2.13-47.59.6-10.08,1.28-20,2.07-29.61,2.06-24.68,4.82-46.62,8.49-60.49,6-22.61,19.18-37.36,31.2-48.17l8.69-7.45c9.7,2.12,21.17.71,31.54-4.2,11.22-5.33,15.1-9.15,17.05-7.71C1470.31,695,1489,756.28,1484.12,823.62Z"/><path class="b22575e8-e448-405e-b310-657efbffae68" d="M1389.61,971.61c-23.55-7.29-49.21-17.7-52-25.43a8.61,8.61,0,0,1-.25-.89c0-1.08,0-2.16,0-3.24.92-3.94,4.45-8.21,4.87-18,.47-10.9.4-23.72.81-37.52,0-1.55,0-3.24.21-4.79v-.57l0-.88,89-40.34S1437.44,911.68,1389.61,971.61Z"/><path class="a6ef1f1c-79c1-4128-b2f8-029f0a8c32fb" d="M1391.31,658.82a187,187,0,0,0,3.22,22.09c21.33-6.89,31-26.16,34.23-34.33.92-2.3,1.32-3.73,1.32-3.73l-2.25-.48-14.68-3.11Z"/><path class="be69c1f9-8e2d-4107-8bea-a0fcd2e43813" d="M1382.67,658.61s46.85,5.28,49.7-23.94,10.8-48.23-19-52.84-36.7,6-40,15.5S1370.56,656.48,1382.67,658.61Z"/><path class="acfaa088-f5c7-411d-9124-4111e1628077" d="M1432.16,636.68s-3-38.79-45.61-42.81c-29.21-2.75-12.93-27.9-9.81-31.91,0,0,22.38,3.07,45.32,6.86C1470.21,576.78,1436.89,630.64,1432.16,636.68Z"/><rect class="bf2ab84c-d59a-4bbc-8632-b1300ae1f9f2" x="1183.73" y="808.81" width="4.31" height="112.91" transform="translate(-209.3 408.7) rotate(-18)"/><rect class="bf2ab84c-d59a-4bbc-8632-b1300ae1f9f2" x="1201.19" y="911.27" width="118.49" height="7.09" transform="translate(-19.25 27.13) rotate(-1.22)"/><path class="be69c1f9-8e2d-4107-8bea-a0fcd2e43813" d="M1306.86,903.57s-18.38,6.95-30.81,4.66-32.48,6-35.33,10.72-1.43,6.36,4.69,7.22,28.2,7.5,41.47.76S1318.2,918,1318.2,918Z"/><path class="acfaa088-f5c7-411d-9124-4111e1628077" d="M1452.18,721s-4.5,153.45-38.2,170.88c-16.63,8.61-91.71,32.26-114.25,36.3,0,0-6.06-3.9-6.74-22.41,0,0,77.14-38.45,86.79-55.78,14.35-25.78-21.39-96.45-2.54-121.26S1431,690.32,1452.18,721Z"/></svg>