<?xml version="1.0" encoding="utf-8"?>
<!-- Generator: Adobe Illustrator 19.0.0, SVG Export Plug-In . SVG Version: 6.00 Build 0)  -->
<svg version="1.1" id="Layer_1" xmlns="http://www.w3.org/2000/svg" xmlns:xlink="http://www.w3.org/1999/xlink" x="0px" y="0px"
	 viewBox="0 0 89 89" style="enable-background:new 0 0 89 89;" xml:space="preserve">
<style type="text/css">
	.st0{clip-path:url(#SVGID_2_);}
</style>
<g>
	<defs>
		<rect id="SVGID_1_" y="0" width="89" height="89"/>
	</defs>
	<clipPath id="SVGID_2_">
		<use xlink:href="#SVGID_1_"  style="overflow:visible;"/>
	</clipPath>
	<path class="st0" d="M44.5,0C19.9,0,0,19.9,0,44.5S19.9,89,44.5,89S89,69.1,89,44.5C89,19.9,69.1,0,44.5,0 M44.5,86
		C21.6,86,3,67.4,3,44.5S21.6,3,44.5,3C67.4,3,86,21.6,86,44.5C85.9,67.4,67.4,85.9,44.5,86L44.5,86z"/>
	<polygon class="st0" points="27.2,44.7 38,44.7 38,41.7 27.2,41.7 27.2,34.1 39.3,34.1 39.3,31 23.6,31 23.6,56.7 40.2,56.7 
		40.2,53.6 27.2,53.6 	"/>
	<path class="st0" d="M61.8,50c-0.8-1.3-1.8-2.8-2.9-4.5c-1.1-1.7-2.4-3.4-3.7-5.1c-1.3-1.7-2.6-3.4-3.9-5.1
		c-1.3-1.6-2.6-3.1-3.7-4.3h-2.8v25.7h3.5v-20c0.7,0.8,1.4,1.7,2.3,2.7c0.8,1,1.7,2.1,2.5,3.3c0.9,1.2,1.7,2.4,2.6,3.6
		c0.9,1.3,1.7,2.5,2.5,3.7c0.8,1.2,1.6,2.4,2.3,3.5c0.7,1.1,1.3,2.2,1.9,3.1h3V31h-3.5V50z"/>
</g>
</svg>
