<?xml version="1.0" encoding="utf-8"?>
<!-- Generator: Adobe Illustrator 23.1.0, SVG Export Plug-In . SVG Version: 6.00 Build 0)  -->
<!DOCTYPE svg PUBLIC "-//W3C//DTD SVG 1.1//EN" "http://www.w3.org/Graphics/SVG/1.1/DTD/svg11.dtd" [
	<!ENTITY ns_extend "http://ns.adobe.com/Extensibility/1.0/">
	<!ENTITY ns_ai "http://ns.adobe.com/AdobeIllustrator/10.0/">
	<!ENTITY ns_graphs "http://ns.adobe.com/Graphs/1.0/">
	<!ENTITY ns_vars "http://ns.adobe.com/Variables/1.0/">
	<!ENTITY ns_imrep "http://ns.adobe.com/ImageReplacement/1.0/">
	<!ENTITY ns_sfw "http://ns.adobe.com/SaveForWeb/1.0/">
	<!ENTITY ns_custom "http://ns.adobe.com/GenericCustomNamespace/1.0/">
	<!ENTITY ns_adobe_xpath "http://ns.adobe.com/XPath/1.0/">
]>
<svg version="1.1" id="Layer_1" xmlns:x="&ns_extend;" xmlns:i="&ns_ai;" xmlns:graph="&ns_graphs;"
	 xmlns="http://www.w3.org/2000/svg" xmlns:xlink="http://www.w3.org/1999/xlink" x="0px" y="0px" viewBox="0 0 73.8 73.8"
	 style="enable-background:new 0 0 73.8 73.8;" xml:space="preserve">
<style type="text/css">
	.st0{fill:#98CA43;}
	.st1{fill:#FFFFFF;}
</style>
<metadata>
	<sfw  xmlns="&ns_sfw;">
		<slices></slices>
		<sliceSourceBounds  bottomLeftOrigin="true" height="73.8" width="73.8" x="74.5" y="-157.6"></sliceSourceBounds>
	</sfw>
</metadata>
<g>
	<g>
		<g>
			
				<ellipse transform="matrix(0.7071 -0.7071 0.7071 0.7071 -15.2874 36.9071)" class="st0" cx="36.9" cy="36.9" rx="36.9" ry="36.9"/>
			<g>
				<circle class="st1" cx="21.4" cy="28.2" r="5.4"/>
				<circle class="st1" cx="52.5" cy="28.2" r="5.4"/>
			</g>
		</g>
		<path class="st1" d="M51.7,42.6c-1,0-1.9,0.6-2.3,1.6c-2,4.9-6.8,8.4-12.5,8.4c-5.7,0-10.5-3.5-12.5-8.4c-0.4-0.9-1.3-1.6-2.3-1.6
			c-1.8,0-3,1.8-2.3,3.4c2.7,6.8,9.4,11.6,17.1,11.6c7.7,0,14.4-4.8,17.1-11.6C54.7,44.4,53.5,42.6,51.7,42.6z"/>
	</g>
</g>
</svg>
