<?xml version="1.0" encoding="utf-8"?>
<!-- Generator: Adobe Illustrator 23.0.3, SVG Export Plug-In . SVG Version: 6.00 Build 0)  -->
<!DOCTYPE svg PUBLIC "-//W3C//DTD SVG 1.1//EN" "http://www.w3.org/Graphics/SVG/1.1/DTD/svg11.dtd" [
	<!ENTITY ns_extend "http://ns.adobe.com/Extensibility/1.0/">
	<!ENTITY ns_ai "http://ns.adobe.com/AdobeIllustrator/10.0/">
	<!ENTITY ns_graphs "http://ns.adobe.com/Graphs/1.0/">
	<!ENTITY ns_vars "http://ns.adobe.com/Variables/1.0/">
	<!ENTITY ns_imrep "http://ns.adobe.com/ImageReplacement/1.0/">
	<!ENTITY ns_sfw "http://ns.adobe.com/SaveForWeb/1.0/">
	<!ENTITY ns_custom "http://ns.adobe.com/GenericCustomNamespace/1.0/">
	<!ENTITY ns_adobe_xpath "http://ns.adobe.com/XPath/1.0/">
]>
<svg version="1.1" id="Isolation_Mode" xmlns:x="&ns_extend;" xmlns:i="&ns_ai;" xmlns:graph="&ns_graphs;"
	 xmlns="http://www.w3.org/2000/svg" xmlns:xlink="http://www.w3.org/1999/xlink" x="0px" y="0px" viewBox="0 0 90 90"
	 style="enable-background:new 0 0 90 90;" xml:space="preserve">
<style type="text/css">
	.st0{fill:#51B4E8;}
</style>
<metadata>
	<sfw  xmlns="&ns_sfw;">
		<slices></slices>
		<sliceSourceBounds  bottomLeftOrigin="true" height="90" width="90" x="41.2" y="23.4"></sliceSourceBounds>
	</sfw>
</metadata>
<path class="st0" d="M90,2.6v84.8c0,1.4-1.2,2.6-2.6,2.6H68.6c-1.5,0-2.6-1-2.6-2.5s1.2-2.5,2.6-2.5H85V5H68.6c-1.5,0-2.6-1-2.6-2.5
	S67.2,0,68.6,0h18.7C88.8,0,90,1.2,90,2.6z M58,51L37.6,71.5c-1,1-1.3,2.7-0.3,3.7c1,1,2.7,1,3.7,0l25.1-24.9c1-1,1-3.7,0-4.7
	L41.1,20.8c-1-1-2.7-1-3.7,0c-1,1-0.8,2.7,0.3,3.7L58,45L2.6,45C1.2,45,0,46.6,0,48s1.2,3,2.6,3L58,51z"/>
</svg>
