<?xml version="1.0" encoding="utf-8"?>
<!-- Generator: Adobe Illustrator 23.1.0, SVG Export Plug-In . SVG Version: 6.00 Build 0)  -->
<!DOCTYPE svg PUBLIC "-//W3C//DTD SVG 1.1//EN" "http://www.w3.org/Graphics/SVG/1.1/DTD/svg11.dtd" [
	<!ENTITY ns_extend "http://ns.adobe.com/Extensibility/1.0/">
	<!ENTITY ns_ai "http://ns.adobe.com/AdobeIllustrator/10.0/">
	<!ENTITY ns_graphs "http://ns.adobe.com/Graphs/1.0/">
	<!ENTITY ns_vars "http://ns.adobe.com/Variables/1.0/">
	<!ENTITY ns_imrep "http://ns.adobe.com/ImageReplacement/1.0/">
	<!ENTITY ns_sfw "http://ns.adobe.com/SaveForWeb/1.0/">
	<!ENTITY ns_custom "http://ns.adobe.com/GenericCustomNamespace/1.0/">
	<!ENTITY ns_adobe_xpath "http://ns.adobe.com/XPath/1.0/">
]>
<svg version="1.1" id="Layer_1" xmlns:x="&ns_extend;" xmlns:i="&ns_ai;" xmlns:graph="&ns_graphs;"
	 xmlns="http://www.w3.org/2000/svg" xmlns:xlink="http://www.w3.org/1999/xlink" x="0px" y="0px" viewBox="0 0 1633.5 2222.2"
	 style="enable-background:new 0 0 1633.5 2222.2;" xml:space="preserve">
<style type="text/css">
	.st0{fill:#383432;}
</style>
<metadata>
	<sfw  xmlns="&ns_sfw;">
		<slices></slices>
		<sliceSourceBounds  bottomLeftOrigin="true" height="2222.2" width="1633.5" x="99.3" y="0"></sliceSourceBounds>
	</sfw>
</metadata>
<path class="st0" d="M247.4,368.8c-37.8,34.9-12.2,104.1,34,126.5c46.3,22.4,101,12.9,151.4,2.8c105.7-21,211.4-42.1,317.1-63.1
	c39.1-7.8,79.2-15.6,118.6-9.5c39.4,6.1,78.6,29,92.9,66.3c12,31.2,4.8,66,4.6,99.5c-0.6,96.2,56.9,181.8,87.3,273.1
	c51.3,154.1,20,334.7-85.8,457.9S683.2,1503.3,527,1458.9c-48.8-13.9-94.9-36.8-144.5-46.9c-37.8-7.7-79.9-7.2-115,10.4
	c-38.2,19.2-43,54.3-68.1,84.7c-13.1,15.9-27,31-37.5,49.7c-14.8,26.3-15.9,45.6,1.8,68.3c11.9,15.2,13.5,30.9,5.9,48.8
	c-4.7,11.2-13.6,21.2-20.7,30.8c-11.8,15.8-14.2,39-22.9,56.7c-10.2,21-18.9,46.1-22.4,69.3c-2.6,17.1,3.4,26,7.5,41.2
	c10.1,37.4,0.2,78.5,11.2,116.7c44.7,155.1,221.5,243.3,382.6,232.7c126.1-8.3,242.8-64.3,346.5-133.3
	c34.7-23.1,87.1-45.7,114.1-76.9c34.6-40,33.8-99.5,75-137.9c28.1-26.2,64.6-57.1,98.4-77.2c32.3-19.2,77.7-24.4,99.4-59.5
	c50.2-81.2-7.5-179.2-36.2-257.1c-33.7-91.6-19.6-176.6-32-271.3c-10.1-77-12.7-160.8,29.5-225.9c42.2-65.1,145.2-94.3,198.7-38
	c37.2,39.2,36.2,99.6,38.3,153.7s15.9,117.1,65.4,138.9c99.2-127.5,143.2-294.6,129.1-455.5s-84.3-315-189.5-437.7
	c-50.1-58.5-110.2-116.3-178.5-152.5c-46.6-24.7-105.7-68.1-157.1-80.6c-49.5-12-108.6,4-159.5,3.9c-82.1-0.2-136.7-4.1-208.1-34.2
	c-30.6-12.9-61.3-9.2-91-21.5c-28.6-11.8-39.6-39-69.6-51.8c-48.2-20.5-36,10.5-70.5,27.9c-50.9,25.6-48.6-18.7-87.4-21.9
	c-83.8-7.1-134.8,187-151.5,246.5c-20.9,74.5-24.3,152.6-27.6,230"/>
<path class="st0" d="M227.4,1366.7c-7.5,0.1-14.9,2.7-22.2,9.9c-22.6,22.3-18.9,60.9-34.4,87.4c-33.6,57.5-107.5,28.9-134.6-18.7
	c-10.5-18.4-20.1-67.4,7.6-75.9c-37.8,7.6-44.3,63-43.7,95.2c0.7,42.7,19.3,85.7,52.9,112.1c22.2,17.4,50.9,26.7,79.1,25.4
	c35.9-1.7,48.6-18.7,73.4-40.6c41.5-36.5,81.6-63.7,136.3-74.5c21.5-4.2,70.5-1.8,63.7-35.6c-1.6-7.9-6.4-14.6-8.3-22.4
	c-1.4-5.8-1.6-11-4-16.5c-10-23.4-30.2-66.8-61.4-63.7c-13.7,1.3-23.5,10.4-32.5,20.2C276.8,1393.2,252,1366.4,227.4,1366.7z"/>
<path class="st0" d="M348.7,1363.9c5.2,1.3,10.1,3.4,14.3,6.1c21.9,14,38.7,37.1,54.3,57.4c25.4,33.1,47,62.9,88.9,75.1
	c40.2,11.8,86.1,10.3,122.2-13c24.3-15.7,47.4-38.6,44-69.3c-2.3-20.9-12.5-36.9-26.6-51.9c10.3,7.8,27.3,9.6,39.2,17.6
	c14.6,9.8,23.4,22.9,30.5,38.8c18.9,41.7,29.5,87-7.9,121.2c-42.9,39.2-116,60.6-172.7,67.7c-41.3,5.2-70.1-5.3-106.5-21.5
	c-25.5-11.3-53.2-23.2-72-44.5c-19-21.6-31.4-48.1-43.6-74.1c-9.9-21.3-37.7-58.8-29-82.4C292.8,1366.6,324.3,1357.6,348.7,1363.9z"
	/>
<path class="st0" d="M441,980.5c-21.8-11.3-26.3-43.3-13.8-64.5c12.5-21.2,36.9-32.7,61.1-37.4c55.7-10.9,112.4,7.7,166.1,26.1
	c48.8,16.7,97.6,33.4,146.4,50.1c7.3,2.5,15.8,6.5,16.5,14.2c0.8,9.1-9.9,14.4-18.8,16.2c-48.3,9.9-97.7-4.9-145.3-17.5
	c-47.6-12.7-99.2-23.2-145.1-5.4c-16.8,6.5-32.6,16.7-50.6,18c-17.9,1.3-38.8-11.5-37.1-29.4"/>
<path class="st0" d="M213.2,992.7c15.1,4.6,30.6,8,46.2,10c35.3,4.6,83.9,0.3,99-38.6c9.4-24.2-3.9-42-26.8-50.2
	c-26.1-9.4-57.2-4.9-81.8,6.5C229.1,930.1,163.8,977.6,213.2,992.7z"/>
<path class="st0" d="M478.3,1012.4c-10.2,13.3-12.3,33.4-2,46.6c11.9,15.4,34.3,16.7,53.7,16.6c40.9-0.1,81.9-0.2,122.8-0.3
	c13.5,0,29.7-1.7,35.7-13.7c4.7-9.3,0.4-21.1-7.1-28.2c-7.6-7.1-17.7-10.7-27.6-14.1C606.7,1003.1,519.4,959.3,478.3,1012.4z"/>
<path class="st0" d="M327.8,1033.5c4.8,10,5.8,25.1,1,35.1c-5.7,11.6-16.3,12.6-25.6,12.5c-19.5-0.1-39-0.2-58.5-0.3
	c-6.4,0-14.1-1.3-17-10.3c-2.2-7-0.2-15.9,3.4-21.3c3.6-5.4,8.4-8.1,13.1-10.6C266.7,1026.5,308.2,993.5,327.8,1033.5z"/>
</svg>
