<svg id="aadcdd19-7f80-4ee3-8f97-e0252302b162" data-name="Слой 2" xmlns="http://www.w3.org/2000/svg" viewBox="0 0 2492.47 1334.2"><defs><style>.b253e5e2-f764-474a-b60b-afe50ec0af93{fill:#3daee6;}.bcd9a2a0-e6f0-4322-b2d5-ac8b2f40d09b{fill:#f3f9ff;}.b8b7681d-7f03-49de-a1ac-cc44b80ef35b{fill:#9c7be1;}.a8ad7693-fa82-4d6a-8980-3475ce2371df{fill:#71c8b6;}.a274e712-1b90-4566-8260-7e3596a08205{fill:#a6c7f9;}.b91a6298-7be0-4e4e-8bd1-a4c829ed5333{fill:#aed3ff;}.b4be220c-1279-43c4-ba31-03b0a2da3b94{fill:#3a4ace;}.f6c40d91-7658-4b18-ad3b-075efa879101{fill:#6d89d0;}.fcdc0d50-fc72-4935-80a8-23b094b0249a{fill:#cc7be1;}.b30a10e9-108e-4c8d-9e63-4a4843ec855d{fill:#e06e69;}.aa295cb8-854e-4a7e-b384-33c77639d128{fill:#c40050;}.afb46853-9ecd-4481-be91-5fd96a4e7bed{fill:#163560;}.a6a56736-b8a8-44fb-9821-517e65e3078e{fill:#1c468a;}.f2d91f86-ec1d-4547-b8b3-2a0fc5fd99d0{fill:#fc9490;}.f64a6608-bbc8-407f-bc99-1da946667272{fill:#db0045;}.b3d7290f-e31b-4400-80e5-db9134073b9e{fill:#fca56b;}.b03bafbd-1d73-4a49-a9ed-c9bfd10d2b51{fill:#e37970;}.e731798d-87db-4e16-a319-0326a8b8b276{fill:#ff8585;}.ef8d8db5-0076-4ae8-9028-779427c04365{fill:#e7f1fd;}.aea1be19-fb05-4577-a815-eec1334136ba{fill:#f2564b;}.e2dbd738-5b2b-4457-ad33-93006d450822{fill:#fb7369;}.a14d2dd3-fd34-406f-a663-21d9e5afca85{fill:#a1e3e4;}.a9bb6b06-1334-470f-a414-408e37fc411c{fill:#74b8f1;}.b6627bd8-dfed-47e7-a72f-846d45a5632a{fill:#4a75cb;}</style></defs><rect class="b253e5e2-f764-474a-b60b-afe50ec0af93" x="939.82" width="765.82" height="1154.94"/><rect class="bcd9a2a0-e6f0-4322-b2d5-ac8b2f40d09b" x="1013.82" y="64.6" width="616.58" height="687.25"/><path class="bcd9a2a0-e6f0-4322-b2d5-ac8b2f40d09b" d="M1026.92,971.42a110.89,110.89,0,1,1,110.89,110.89A110.89,110.89,0,0,1,1026.92,971.42Z"/><path class="b8b7681d-7f03-49de-a1ac-cc44b80ef35b" d="M1231.54,971.42a93.73,93.73,0,1,0-36.88,74.53l-56.85-74.53,87.6,33.43A93.6,93.6,0,0,0,1231.54,971.42Z"/><path class="bcd9a2a0-e6f0-4322-b2d5-ac8b2f40d09b" d="M1404.73,971.42a110.89,110.89,0,1,1,110.89,110.89A110.89,110.89,0,0,1,1404.73,971.42Z"/><path class="a8ad7693-fa82-4d6a-8980-3475ce2371df" d="M1515.62,877.68a93.74,93.74,0,0,0-66.8,159.49l66.8-65.75,87.59,33.43a93.79,93.79,0,0,0-87.59-127.17Z"/><path class="bcd9a2a0-e6f0-4322-b2d5-ac8b2f40d09b" d="M1501.92,923.83H1462a2.87,2.87,0,0,0-2.85,2.85h0a2.86,2.86,0,0,0,2.85,2.85h39.9a2.86,2.86,0,0,0,2.85-2.85h0A2.86,2.86,0,0,0,1501.92,923.83Z"/><path class="bcd9a2a0-e6f0-4322-b2d5-ac8b2f40d09b" d="M1501.92,932.86H1462a2.85,2.85,0,1,0,0,5.7h39.9a2.85,2.85,0,0,0,0-5.7Z"/><path class="bcd9a2a0-e6f0-4322-b2d5-ac8b2f40d09b" d="M1478.5,941.88H1462a2.85,2.85,0,1,0,0,5.7h16.48a2.85,2.85,0,0,0,0-5.7Z"/><path class="bcd9a2a0-e6f0-4322-b2d5-ac8b2f40d09b" d="M1123.35,923.83h-39.9a2.86,2.86,0,0,0-2.85,2.85h0a2.86,2.86,0,0,0,2.85,2.85h39.9a2.86,2.86,0,0,0,2.85-2.85h0A2.87,2.87,0,0,0,1123.35,923.83Z"/><path class="bcd9a2a0-e6f0-4322-b2d5-ac8b2f40d09b" d="M1123.35,932.86h-39.9a2.85,2.85,0,0,0,0,5.7h39.9a2.85,2.85,0,1,0,0-5.7Z"/><path class="bcd9a2a0-e6f0-4322-b2d5-ac8b2f40d09b" d="M1099.92,941.88h-16.47a2.85,2.85,0,0,0,0,5.7h16.47a2.85,2.85,0,0,0,0-5.7Z"/><rect class="a274e712-1b90-4566-8260-7e3596a08205" x="1068.72" y="310.21" width="65.06" height="405.3"/><rect class="a274e712-1b90-4566-8260-7e3596a08205" x="1175.31" y="197.24" width="65.06" height="518.28"/><rect class="a274e712-1b90-4566-8260-7e3596a08205" x="1291.62" y="408.23" width="65.06" height="307.29"/><rect class="a274e712-1b90-4566-8260-7e3596a08205" x="1404.8" y="266.43" width="65.06" height="449.09"/><rect class="a274e712-1b90-4566-8260-7e3596a08205" x="1518.56" y="468.37" width="65.06" height="247.14"/><path class="a274e712-1b90-4566-8260-7e3596a08205" d="M1466.77,208h-55.1a5.7,5.7,0,0,0,0,11.4h55.1a5.7,5.7,0,1,0,0-11.4Z"/><path class="a274e712-1b90-4566-8260-7e3596a08205" d="M1424.22,228.74h-12.55a5.7,5.7,0,0,0,0,11.4h12.55a5.7,5.7,0,1,0,0-11.4Z"/><path class="a274e712-1b90-4566-8260-7e3596a08205" d="M1239.72,119.73h-55.1a5.7,5.7,0,1,0,0,11.4h55.1a5.7,5.7,0,1,0,0-11.4Z"/><path class="a274e712-1b90-4566-8260-7e3596a08205" d="M1197.17,140.47h-12.55a5.72,5.72,0,0,0-5.7,5.7h0a5.72,5.72,0,0,0,5.7,5.7h12.55a5.71,5.71,0,0,0,5.7-5.7h0A5.72,5.72,0,0,0,1197.17,140.47Z"/><path class="a274e712-1b90-4566-8260-7e3596a08205" d="M1351.7,347.73h-55.1a5.7,5.7,0,1,0,0,11.4h55.1a5.7,5.7,0,1,0,0-11.4Z"/><path class="a274e712-1b90-4566-8260-7e3596a08205" d="M1309.15,368.47H1296.6a5.72,5.72,0,0,0-5.7,5.7h0a5.72,5.72,0,0,0,5.7,5.7h12.55a5.71,5.71,0,0,0,5.7-5.7h0A5.72,5.72,0,0,0,1309.15,368.47Z"/><path class="a274e712-1b90-4566-8260-7e3596a08205" d="M1578.64,408.23h-55.1a5.7,5.7,0,0,0,0,11.4h55.1a5.7,5.7,0,0,0,0-11.4Z"/><path class="a274e712-1b90-4566-8260-7e3596a08205" d="M1536.09,429h-12.55a5.7,5.7,0,0,0,0,11.4h12.55a5.7,5.7,0,1,0,0-11.4Z"/><rect class="b91a6298-7be0-4e4e-8bd1-a4c829ed5333" x="276.77" y="437.79" width="559.71" height="315.1"/><rect class="b253e5e2-f764-474a-b60b-afe50ec0af93" x="294.97" y="437.79" width="559.71" height="315.1"/><circle class="bcd9a2a0-e6f0-4322-b2d5-ac8b2f40d09b" cx="448.05" cy="588.22" r="101.2" transform="translate(-284.7 489.1) rotate(-45)"/><path class="bcd9a2a0-e6f0-4322-b2d5-ac8b2f40d09b" d="M791.76,531.69H624.11a11.08,11.08,0,0,0-11.05,11h0a11.08,11.08,0,0,0,11.05,11H791.76a11.08,11.08,0,0,0,11-11h0A11.08,11.08,0,0,0,791.76,531.69Z"/><path class="bcd9a2a0-e6f0-4322-b2d5-ac8b2f40d09b" d="M791.76,577.17H624.11a11.08,11.08,0,0,0-11.05,11.05h0a11.09,11.09,0,0,0,11.05,11H791.76a11.09,11.09,0,0,0,11-11h0A11.08,11.08,0,0,0,791.76,577.17Z"/><path class="bcd9a2a0-e6f0-4322-b2d5-ac8b2f40d09b" d="M791.76,622.66H624.11a11,11,0,1,0,0,22.09H791.76a11,11,0,1,0,0-22.09Z"/><path class="b4be220c-1279-43c4-ba31-03b0a2da3b94" d="M355.39,586.75h92.66V494.09A92.67,92.67,0,0,0,355.39,586.75Z"/><path class="b4be220c-1279-43c4-ba31-03b0a2da3b94" d="M540.71,589.73H355.39a92.67,92.67,0,0,0,92.66,92.66h0A92.67,92.67,0,0,0,540.71,589.73Z"/><path class="f6c40d91-7658-4b18-ad3b-075efa879101" d="M432,539.11H381.76a5.21,5.21,0,0,0,0,10.41H432a5.21,5.21,0,1,0,0-10.41Z"/><path class="f6c40d91-7658-4b18-ad3b-075efa879101" d="M393.21,558H381.76a5.21,5.21,0,0,0,0,10.41h11.45a5.21,5.21,0,0,0,0-10.41Z"/><path class="a274e712-1b90-4566-8260-7e3596a08205" d="M506.7,612.38H456.42a5.21,5.21,0,1,0,0,10.41H506.7a5.21,5.21,0,0,0,0-10.41Z"/><path class="a274e712-1b90-4566-8260-7e3596a08205" d="M467.87,631.31H456.42a5.22,5.22,0,0,0-5.21,5.2h0a5.22,5.22,0,0,0,5.21,5.21h11.45a5.22,5.22,0,0,0,5.2-5.21h0A5.22,5.22,0,0,0,467.87,631.31Z"/><path class="b91a6298-7be0-4e4e-8bd1-a4c829ed5333" d="M237.35,809.31v322.25H797.06V809.31Z"/><path class="b253e5e2-f764-474a-b60b-afe50ec0af93" d="M255.55,809.31v322.25H815.26V809.31Z"/><circle class="bcd9a2a0-e6f0-4322-b2d5-ac8b2f40d09b" cx="408.62" cy="960.49" r="101.2" transform="translate(-633.47 900.94) rotate(-63.68)"/><path class="bcd9a2a0-e6f0-4322-b2d5-ac8b2f40d09b" d="M584.68,926.05H752.33a11,11,0,0,0,0-22.1H584.68a11.05,11.05,0,0,0,0,22.1Z"/><path class="bcd9a2a0-e6f0-4322-b2d5-ac8b2f40d09b" d="M752.33,949.44H584.68a11,11,0,0,0,0,22.09H752.33a11,11,0,1,0,0-22.09Z"/><path class="bcd9a2a0-e6f0-4322-b2d5-ac8b2f40d09b" d="M752.33,994.93H584.68a11.08,11.08,0,0,0-11,11h0a11.08,11.08,0,0,0,11,11H752.33a11.08,11.08,0,0,0,11-11h0A11.08,11.08,0,0,0,752.33,994.93Z"/><path class="fcdc0d50-fc72-4935-80a8-23b094b0249a" d="M408.62,962.13,316,961c0,.39,0,.79,0,1.18a92.67,92.67,0,0,0,142.38,78.2Z"/><rect class="bcd9a2a0-e6f0-4322-b2d5-ac8b2f40d09b" x="356.54" y="991.31" width="60.69" height="10.4" rx="5.2"/><path class="bcd9a2a0-e6f0-4322-b2d5-ac8b2f40d09b" d="M373.2,1010.24H361.75a5.2,5.2,0,1,0,0,10.4H373.2a5.2,5.2,0,0,0,0-10.4Z"/><rect class="b91a6298-7be0-4e4e-8bd1-a4c829ed5333" x="237.35" y="94.14" width="559.71" height="292.01"/><rect class="b253e5e2-f764-474a-b60b-afe50ec0af93" x="255.55" y="94.14" width="559.71" height="292.01"/><circle class="bcd9a2a0-e6f0-4322-b2d5-ac8b2f40d09b" cx="408.62" cy="244.44" r="101.2" transform="translate(-55.1 136.36) rotate(-17.77)"/><path class="b30a10e9-108e-4c8d-9e63-4a4843ec855d" d="M408.62,151.79a92.66,92.66,0,0,0-44.47,174c14.85-27.5,44.47-81.3,44.47-81.3l43.87,81.62a92.66,92.66,0,0,0-43.87-174.27Z"/><rect class="bcd9a2a0-e6f0-4322-b2d5-ac8b2f40d09b" x="573.64" y="187.9" width="189.74" height="22.09" rx="11.05"/><path class="bcd9a2a0-e6f0-4322-b2d5-ac8b2f40d09b" d="M752.33,233.39H584.68a11,11,0,0,0,0,22.09H752.33a11,11,0,1,0,0-22.09Z"/><path class="bcd9a2a0-e6f0-4322-b2d5-ac8b2f40d09b" d="M752.33,278.88H584.68a11,11,0,0,0,0,22.09H752.33a11,11,0,1,0,0-22.09Z"/><path class="bcd9a2a0-e6f0-4322-b2d5-ac8b2f40d09b" d="M412,200.18H361.75a5.21,5.21,0,0,0,0,10.41H412a5.21,5.21,0,0,0,0-10.41Z"/><path class="bcd9a2a0-e6f0-4322-b2d5-ac8b2f40d09b" d="M373.2,219.11H361.75a5.22,5.22,0,0,0-5.2,5.21h0a5.22,5.22,0,0,0,5.2,5.2H373.2a5.22,5.22,0,0,0,5.2-5.2h0A5.22,5.22,0,0,0,373.2,219.11Z"/><path class="aa295cb8-854e-4a7e-b384-33c77639d128" d="M945.08,598.44s65.29,67.4,68.42,92.81-31.06,65.18-31.06,65.18Z"/><path class="afb46853-9ecd-4481-be91-5fd96a4e7bed" d="M917.17,1297.62S915,1333.45,908,1334c-.92.07-35.16.07-35.16.07l-43.7-.26s.29-10.53,13.06-12.75,34.16-11.21,41.9-28.09C892.25,1275.17,917.17,1297.62,917.17,1297.62Z"/><path class="afb46853-9ecd-4481-be91-5fd96a4e7bed" d="M1014.51,1297.62s-2.22,35.83-9.15,36.35c-.92.07-35.16.07-35.16.07l-43.84-.16s.42-10.63,13.2-12.85,34.15-11.21,41.89-28.09C989.6,1275.17,1014.51,1297.62,1014.51,1297.62Z"/><path class="afb46853-9ecd-4481-be91-5fd96a4e7bed" d="M868.76,913.39s11.43,73.11,54.08,202.89,48.45,186,48.45,186a188,188,0,0,0,23.72,1.67c7.7,0,22-3,22-3s.39-141.83-19.26-207.09-4.24-235.27-4.24-235.27Z"/><path class="a6a56736-b8a8-44fb-9821-517e65e3078e" d="M846.5,862.62S844.89,972.78,864,1108.05s12.6,192.68,12.6,192.68,15.69,2.81,21.2,3c5.9.19,24.45-1.48,24.45-1.48s27.28-135.32,19.46-203S979,866.91,979,866.91Z"/><path class="f2d91f86-ec1d-4547-b8b3-2a0fc5fd99d0" d="M934.88,604.81l-21.53,16-31.12-6.55c.43-2.84,2.48-14.6,4.36-25.26l.33-1.87c1.6-9.06,3-16.85,3-16.85L919,555.75l10.83-5.4c0,.19-.84,10.06-.95,11.5C926.82,587.43,934.88,604.81,934.88,604.81Z"/><path class="aa295cb8-854e-4a7e-b384-33c77639d128" d="M884.41,596.76c.68-.28,42.33-12.57,46.85-11.08s7.21,10.25,7.21,10.25l-68.13,15.4S875.7,600.43,884.41,596.76Z"/><path class="f64a6608-bbc8-407f-bc99-1da946667272" d="M996.56,876.22c-7.06,32.2-124.55,36-154.84,6.79-3.44-3.33-3.61-18.84-2.31-39.74,2.54-40.84,10.7-102.27,11-133.66a247.59,247.59,0,0,1,5-44.74,363.15,363.15,0,0,1,14.9-53.54s57.39-18.56,68.13-15.4C990.2,611.13,1003.62,844,996.56,876.22Z"/><path class="aa295cb8-854e-4a7e-b384-33c77639d128" d="M839.41,843.27c2.54-40.84,10.7-102.27,11-133.66a247.59,247.59,0,0,1,5-44.74L890,658.78S923.71,796.64,839.41,843.27Z"/><path class="f2d91f86-ec1d-4547-b8b3-2a0fc5fd99d0" d="M858.1,786.34s2.35,5.63-2.59,9.4-8.15,9.9-7,14.37,12,11.77,15.73,10.59,11.4-7.07,10.58-9.42,5.14-20.7-4-27.76S858.1,786.34,858.1,786.34Z"/><path class="f64a6608-bbc8-407f-bc99-1da946667272" d="M896.7,603.06s-33.67,6.3-60.49,45.84-44.48,68.92-39.54,83.17,50,63.67,57.76,63.67,20.29-5.65,21-18.36c0,0-31.71-47.53-25.47-54.65,2.67-3,41.18-34.3,46.67-20.18C905.73,725.91,896.7,603.06,896.7,603.06Z"/><path class="b3d7290f-e31b-4400-80e5-db9134073b9e" d="M926.67,562.3c-6.38,12.21-30.17,22.77-40.08,26.65l.33-1.87c1.6-9.06,3-16.85,3-16.85L919,555.75C925.39,555.65,929.3,557.27,926.67,562.3Z"/><path class="f2d91f86-ec1d-4547-b8b3-2a0fc5fd99d0" d="M880.54,570.89s43,13.43,51-13.5,18.85-43.32-8.29-53-35.52-1-40.36,7.33S869.55,566.71,880.54,570.89Z"/><path class="afb46853-9ecd-4481-be91-5fd96a4e7bed" d="M884.55,509.09s2.74,31.33,9.22,30,12.36-2.37,11.41,7.08-9.94,20.35,10,22,48.67-49.82,43.19-59.57C942.57,480.45,861.67,474.78,884.55,509.09Z"/><polygon class="f2d91f86-ec1d-4547-b8b3-2a0fc5fd99d0" points="109.92 1237.1 123.02 1292.27 142.64 1292.16 143.36 1237.1 109.92 1237.1"/><polygon class="f2d91f86-ec1d-4547-b8b3-2a0fc5fd99d0" points="274.96 1239.45 312.23 1292.27 326.75 1273.62 304.32 1232.19 274.96 1239.45"/><path class="afb46853-9ecd-4481-be91-5fd96a4e7bed" d="M178.06,512.16c-6.77-3.85-14.89-4.27-20.56-3.93a9.59,9.59,0,0,1,4.33-2.06c-3.52-.52-11.38,3-11.38,3-49-18.87-56.66,53.23-55.63,70s-16.46,22.22-41.94,35.42C4.27,639.73,0,673.45,0,673.45c.38.22.77.48,1.19.77,2.42-4.09,7.38-11.76,11.57-12.92-.16.37-4.95,10.57-6.74,16.41,14.34,10.91,41.17,35.08,59.87,52.22-.08-3.35,0-8.11,1.27-10.62l2.31,13.91c10,9.2,16.91,15.67,16.91,15.67-1.24-13.54,61.22-85,93.81-106.37,7.93-11.68,10.75-32.31,11-33.93-1.37,16.35-4.17,25.53-6.67,30.7C212.08,613.89,196,522.36,178.06,512.16Z"/><path class="f2d91f86-ec1d-4547-b8b3-2a0fc5fd99d0" d="M178.26,643.58c.17.08-15.73,8.33-27.69,5.06C139.32,645.57,132,631,132.13,631c4.76-1,6.14-7.49,6-35.62l2.16.42,36.2,7.17s-.82,11.4-.84,22.13C175.65,634.07,176.2,642.62,178.26,643.58Z"/><path class="b03bafbd-1d73-4a49-a9ed-c9bfd10d2b51" d="M137.32,524s17.86-19,40.28-1C177.6,523,164.55,520.74,137.32,524Z"/><path class="e731798d-87db-4e16-a319-0326a8b8b276" d="M176.52,602.93s-.82,11.4-.84,22.13c-20.26-.57-31-19-35.36-29.3Z"/><path class="afb46853-9ecd-4481-be91-5fd96a4e7bed" d="M136.58,591.82S126,575,123.41,560.7c-1.82-10.24,3.4-48.21,41.55-42.74a51.74,51.74,0,0,1,21.49,8.13c8.29,5.59,20.24,17.67,6.87,50.8l-3.47,11.19Z"/><path class="f64a6608-bbc8-407f-bc99-1da946667272" d="M320.84,1259.14l-19.19.59-20.78.63s-48-53.42-74.9-139.07q-.94-3-2-6c-14.73-43-45.27-96.87-61.36-145.67-2.57-7.77-4.87-15.09-6.93-22q-1-3.31-1.92-6.54c-11.86-41.2-15.29-68.26-18.45-97.17l116.2.93S250.28,1042.17,320.84,1259.14Z"/><path class="ef8d8db5-0076-4ae8-9028-779427c04365" d="M215.25,778c-.29,55.3,8.12,79,8.12,79s-49.76,25.28-108.89,6.67c-.7-.22-49-11.23-49-11.23,1-2.24,9.79-39.51,10.76-41.56,12.48-26.81,22-38.57,23.44-46.81,2.75-15.39,2.81-31.31,1.44-46.33A371.9,371.9,0,0,0,86.81,645c16.11-3.66,31.62-9.93,48.39-16.22,3.86,4.8,15.23,9.66,25.46,9.43,11.78-.26,15.46-5.24,15-10.86,12.55,7,22.53,13.63,22.53,13.63,10.67,18.53,32.3,36.53,33.87,65C232.48,712.94,215.26,776.46,215.25,778Z"/><path class="aea1be19-fb05-4577-a815-eec1334136ba" d="M115.31,784.17c-5.08,7.19-14.81,50.89-39,56.38,12.48-31.14,22-44.8,23.44-54.37,2.75-17.88,2.81-36.37,1.44-53.82,8.11-14.21,14.16-24,14.16-24,.64-2.3,12.89-40.19,16.82-6.32S121,776.13,115.31,784.17Z"/><path class="f2d91f86-ec1d-4547-b8b3-2a0fc5fd99d0" d="M183.29,613.1s-47.94.79-48-29.07-6.24-49.87,24.36-51.64,36.57,9.62,39,19.58S195.76,612.12,183.29,613.1Z"/><path class="afb46853-9ecd-4481-be91-5fd96a4e7bed" d="M197.26,535.37c-7.4-9-13-7-16.13-4.32C170.77,515.57,138,538,138,538a57,57,0,0,1-18.66,33.7s8.74,5.4,28.88.22c15.85-4.08,27.36-26.64,31.54-36.07,2.85,2.54,8.86,8.39,10.67,14.13,2.39,7.6,3.46,23.26,8,22.72C198.48,572.65,208.37,548.84,197.26,535.37Z"/><path class="f2d91f86-ec1d-4547-b8b3-2a0fc5fd99d0" d="M122.36,1289.19a53.11,53.11,0,0,1-2.5,22.61s-3.21,14.63,11.2,14.91,17.95-1.09,16.32-10.06-4.74-24.49-4.74-24.49Z"/><path class="f64a6608-bbc8-407f-bc99-1da946667272" d="M148.74,1333.89s0,0-.05,0H118.87l0,0c-1.63-7.66,1-22.07,1-22.07,16.32,15.6,26.53-.39,26.53-.39C149,1318.1,148.74,1333.89,148.74,1333.89Z"/><path class="f2d91f86-ec1d-4547-b8b3-2a0fc5fd99d0" d="M361.48,1318.79s-26.57-30.17-34.73-45.17L307,1283.74l44.16,41.47,10.33-1.36Z"/><path class="f64a6608-bbc8-407f-bc99-1da946667272" d="M377.77,1333.83H340.91c-3.24-2.92-6.34-8.81-10.13-16.54-2.17-4.43-7-6.87-12-8.21v24.75h-7.63l-7.06-26.31c-4.71-8.82-1.17-16.91,2.13-23.88,3.85,0,15,2.78,34.64,25.32,6.45,7.41,13.57,10,20.65,9.83a1.64,1.64,0,0,0,.29.16C372.94,1324.08,376.59,1330.38,377.77,1333.83Z"/><path class="f64a6608-bbc8-407f-bc99-1da946667272" d="M376,662.65s-31.46,17.6-42.7,22.67c-4,1.8-11.24,5.17-18.64,8.63-4.47,2.08-9,4.21-12.9,6a16.23,16.23,0,0,1-19.22-4.15c-17-19.89-61.14-63-106.67-68.42l-.16-.07,0,0h-.06l.25.49c2.56,6.36,27.53,68.74,28.3,81.89.82,13.87,3.26,226.76,3.26,226.76s-1.63,9.78,17.13,5.71,23.66-8.16,23.66-8.16-17.95-131.32-13.05-177c1-9,.09-19-1.91-29.44,27.73,16.8,60.43,24.27,60.43,24.27s12.19-5.32,31.15-17.06c7.95-4.94,17.18-12.81,26.26-21.13,11-10.06,29.86-34.36,29.86-34.36Z"/><path class="aa295cb8-854e-4a7e-b384-33c77639d128" d="M301.65,1259.73l-20.78.63s-48-53.42-74.9-139.07q-.94-3-2-6c-14.73-43-45.27-96.87-61.36-145.67-2.57-7.77-4.87-15.09-6.93-22q-1-3.31-1.92-6.54l17.12-13s51.38,83.2,67.28,161.49C232,1157.54,287.32,1239.38,301.65,1259.73Z"/><path class="f64a6608-bbc8-407f-bc99-1da946667272" d="M152.67,1096.82c.3,38.08-1.63,125.62-6.59,161.86h-18.4c-10.17,0-15.24-.15-15.24-.15-12.44-63-21.29-115.15-27.74-160.08-5.28-36.86-10-68.47-13.59-95.68-3.64-27.38-6.17-50.31-7.08-69.68-.13-3.05-.24-6-.3-8.9s-.07-5.71,0-8.44L164.09,906C162.83,972.67,152.51,1074.69,152.67,1096.82Z"/><path class="aa295cb8-854e-4a7e-b384-33c77639d128" d="M127.68,1258.68c-10.17,0-15.24-.15-15.24-.15-12.44-63-21.29-115.15-27.74-160.08-5.28-36.86-10-68.47-13.59-95.68-3.64-27.38-6.17-50.31-7.08-69.68l36.85,21.67s-23.52,8.29-14.55,71.1S115.19,1249.78,127.68,1258.68Z"/><path class="f64a6608-bbc8-407f-bc99-1da946667272" d="M132.42,932.47s-7.07,25.55-31.54,22.29-59.27-17.94-59.27-17.94,10.46-33.05,23.46-76.46c15.75-52.55,35.23-120.3,44.42-163a265.77,265.77,0,0,0,5-29.14l20.72-39.4s29.85,68,31.48,85.08S132.42,932.47,132.42,932.47Z"/><path class="f2d91f86-ec1d-4547-b8b3-2a0fc5fd99d0" d="M219.81,733c-11.77,1.55-16.29,7.81-17.74,16.25a35.83,35.83,0,0,1-5.13,12.24c-11.73.63-39.67,2.15-63.14,3.64l-1.94,30.78a351.78,351.78,0,0,0,70.25-16.62c2.09-.36,4.71-1.66,8-4.35,16.9-13.84,26.49-37,26.52-40.33S231.59,731.44,219.81,733Z"/><path class="aa295cb8-854e-4a7e-b384-33c77639d128" d="M131.34,749.76c-1.1,27.73-7.62,81.57-65.8,110.38a5,5,0,0,1-.47.22c15.75-52.55,35.23-120.3,44.42-163C120.17,713.3,131.93,734.49,131.34,749.76Z"/><path class="f64a6608-bbc8-407f-bc99-1da946667272" d="M135.2,628.79S85.43,632.32,73.47,659,57.7,774.24,72.93,800.34c0,0,21,6,58-1l1.37-.26s11.83-29,1.23-34.67c0,0-31.27,1.63-28-8.7S135.2,628.79,135.2,628.79Z"/><path class="f2d91f86-ec1d-4547-b8b3-2a0fc5fd99d0" d="M409.72,641.74c-26.77-3.44-33.53,20.91-33.53,20.91l5,16.73c8.25,1.14,15.47-1,22.13-10.53s8.49-5.87,12.72-13C421.77,646.28,412.8,642.7,409.72,641.74Z"/><path class="f2d91f86-ec1d-4547-b8b3-2a0fc5fd99d0" d="M333.28,685.32c-4,1.8-11.24,5.17-18.64,8.63,4,7,8.91,19.81,10.23,40.92a171.08,171.08,0,0,0,27-21.79C366,699.24,381,679.38,381,679.38l-5-16.73S344.52,680.25,333.28,685.32Z"/><rect class="b91a6298-7be0-4e4e-8bd1-a4c829ed5333" x="1794.09" y="145.76" width="559.71" height="940.39" transform="translate(4147.88 1231.91) rotate(180)"/><rect class="b253e5e2-f764-474a-b60b-afe50ec0af93" x="1776.55" y="145.76" width="559.7" height="940.39"/><rect class="bcd9a2a0-e6f0-4322-b2d5-ac8b2f40d09b" x="1814.66" y="198.29" width="484.8" height="327.55"/><rect class="bcd9a2a0-e6f0-4322-b2d5-ac8b2f40d09b" x="1880.98" y="782.83" width="356.46" height="239.6"/><path class="e2dbd738-5b2b-4457-ad33-93006d450822" d="M1834.65,365.47s82.78-10.31,133.36,36.29,144.81,4.13,182.74,0c66-7.18,117.68,14.4,133,38.12v71.17H1834.65Z"/><rect class="a274e712-1b90-4566-8260-7e3596a08205" x="1898.81" y="250.94" width="3.47" height="111.13"/><rect class="a274e712-1b90-4566-8260-7e3596a08205" x="2034.93" y="298.63" width="3.47" height="111.13"/><rect class="a274e712-1b90-4566-8260-7e3596a08205" x="2175.39" y="273.49" width="3.47" height="111.13"/><path class="a274e712-1b90-4566-8260-7e3596a08205" d="M1941,268h-26.59a2.91,2.91,0,0,1-2.89-2.9h0a2.9,2.9,0,0,1,2.89-2.89H1941a2.9,2.9,0,0,1,2.89,2.89h0A2.91,2.91,0,0,1,1941,268Z"/><path class="a274e712-1b90-4566-8260-7e3596a08205" d="M1941,278.4h-26.59a2.9,2.9,0,0,1-2.89-2.89h0a2.9,2.9,0,0,1,2.89-2.89H1941a2.9,2.9,0,0,1,2.89,2.89h0A2.9,2.9,0,0,1,1941,278.4Z"/><path class="a274e712-1b90-4566-8260-7e3596a08205" d="M2075.11,324.64h-26.59a2.9,2.9,0,0,1-2.89-2.89h0a2.9,2.9,0,0,1,2.89-2.89h26.59a2.9,2.9,0,0,1,2.89,2.89h0A2.9,2.9,0,0,1,2075.11,324.64Z"/><path class="a274e712-1b90-4566-8260-7e3596a08205" d="M2075.11,334.83h-26.59a2.9,2.9,0,0,1-2.89-2.89h0a2.9,2.9,0,0,1,2.89-2.89h26.59a2.9,2.9,0,0,1,2.89,2.89h0A2.9,2.9,0,0,1,2075.11,334.83Z"/><path class="a274e712-1b90-4566-8260-7e3596a08205" d="M2217.87,282.73h-26.58a2.9,2.9,0,0,1-2.89-2.89h0a2.9,2.9,0,0,1,2.89-2.89h26.58a2.9,2.9,0,0,1,2.89,2.89h0A2.9,2.9,0,0,1,2217.87,282.73Z"/><path class="a274e712-1b90-4566-8260-7e3596a08205" d="M2217.87,292.92h-26.58a2.9,2.9,0,0,1-2.89-2.89h0a2.9,2.9,0,0,1,2.89-2.89h26.58a2.9,2.9,0,0,1,2.89,2.89h0A2.9,2.9,0,0,1,2217.87,292.92Z"/><circle class="bcd9a2a0-e6f0-4322-b2d5-ac8b2f40d09b" cx="1899.44" cy="665.73" r="64.78" transform="translate(938.05 2434) rotate(-80.78)"/><path class="a14d2dd3-fd34-406f-a663-21d9e5afca85" d="M1958.73,665.73a59.29,59.29,0,0,1-99.37,43.69l40.08-43.69v-59.3A59.3,59.3,0,0,1,1958.73,665.73Z"/><path class="a274e712-1b90-4566-8260-7e3596a08205" d="M1876.85,655.28h-21.29a1.78,1.78,0,0,1-1.78-1.78h0a1.79,1.79,0,0,1,1.78-1.79h21.29a1.79,1.79,0,0,1,1.79,1.79h0A1.79,1.79,0,0,1,1876.85,655.28Z"/><path class="bcd9a2a0-e6f0-4322-b2d5-ac8b2f40d09b" d="M2164.18,665.73A64.79,64.79,0,1,1,2229,730.51,64.79,64.79,0,0,1,2164.18,665.73Z"/><path class="fcdc0d50-fc72-4935-80a8-23b094b0249a" d="M2288.26,665.72a59.29,59.29,0,0,1-99.37,43.7l40.08-43.7V606.43A59.29,59.29,0,0,1,2288.26,665.72Z"/><path class="a274e712-1b90-4566-8260-7e3596a08205" d="M2206.39,655.28H2185.1a1.79,1.79,0,0,1-1.79-1.78h0a1.79,1.79,0,0,1,1.79-1.79h21.29a1.79,1.79,0,0,1,1.78,1.79h0A1.78,1.78,0,0,1,2206.39,655.28Z"/><path class="bcd9a2a0-e6f0-4322-b2d5-ac8b2f40d09b" d="M2003.34,665.73a64.79,64.79,0,1,1,64.78,64.78A64.78,64.78,0,0,1,2003.34,665.73Z"/><path class="a9bb6b06-1334-470f-a414-408e37fc411c" d="M2127.17,660.31a59.28,59.28,0,1,0-22.61,52.2l-36.44-46.79Z"/><path class="a274e712-1b90-4566-8260-7e3596a08205" d="M2113.78,680.39H2099a1.79,1.79,0,0,1-1.78-1.79h0a1.78,1.78,0,0,1,1.78-1.78h14.82a1.78,1.78,0,0,1,1.78,1.78h0A1.79,1.79,0,0,1,2113.78,680.39Z"/><polygon class="a274e712-1b90-4566-8260-7e3596a08205" points="2222.07 1005.69 1894.88 1005.69 1894.88 812.36 1898.95 812.36 1898.95 1001.62 2222.07 1001.62 2222.07 1005.69"/><path class="a274e712-1b90-4566-8260-7e3596a08205" d="M1997.17,935.78c-40.05-31.89-82.65,0-82.65,0v54.5H2214V849.39C2132.58,851.45,2037.22,967.66,1997.17,935.78Z"/><path class="a274e712-1b90-4566-8260-7e3596a08205" d="M1918,827.11h139.53a3.43,3.43,0,0,0,0-6.86H1918a3.43,3.43,0,0,0,0,6.86Z"/><path class="a274e712-1b90-4566-8260-7e3596a08205" d="M1918,843.86h139.53a3.43,3.43,0,0,0,0-6.86H1918a3.43,3.43,0,0,0,0,6.86Z"/><path class="a274e712-1b90-4566-8260-7e3596a08205" d="M1917.33,852.82h92.39a2.8,2.8,0,0,1,2.8,2.8v1.25a2.81,2.81,0,0,1-2.81,2.81h-92.38a2.81,2.81,0,0,1-2.81-2.81v-1.25A2.8,2.8,0,0,1,1917.33,852.82Z"/><path class="f2d91f86-ec1d-4547-b8b3-2a0fc5fd99d0" d="M2214.44,879.65s-19,4.89-31.14,1.24-32.94,2.34-36.29,6.76-2.13,6.16,3.86,7.69,27.19,10.57,41.13,5.33,32.12-5.42,32.12-5.42Z"/><path class="a6a56736-b8a8-44fb-9821-517e65e3078e" d="M2379,714.25s-21.39,152-56.8,165.64c-17.48,6.72-94.71,22-117.56,23.48,0,0-5.59-4.55-4.23-23,0,0,80.92-29.7,92.41-45.86,17.11-24-10.62-98.22,10.85-120.81S2361.28,681.39,2379,714.25Z"/><path class="b4be220c-1279-43c4-ba31-03b0a2da3b94" d="M2376.26,1300v-33.14h52.18a2.57,2.57,0,0,0,2.56-2.56V1259a2.56,2.56,0,0,0-2.56-2.56h-52.18V1067.74a9.66,9.66,0,0,0-9.63-9.63h-10.32a9.66,9.66,0,0,0-9.63,9.63v188.68H2294.5a2.56,2.56,0,0,0-2.56,2.56v5.31a2.57,2.57,0,0,0,2.56,2.56h52.18V1300c-37.75,2.85-68,16.45-76.49,34h182.56C2444.26,1316.44,2414,1302.84,2376.26,1300Z"/><path class="afb46853-9ecd-4481-be91-5fd96a4e7bed" d="M2371.78,1034.53a266.48,266.48,0,0,1-20.89,29.89c-23,29-48,52.95-52.37,75.57a102.78,102.78,0,0,1-4,14.47c-1.82,5.18-4.07,10.63-6.67,16.26-9.76,21.19-24.34,44.94-38.91,66.52-25.18,37.31-48.86,68.44-48.86,68.44l-43.42-1.85c1.74-4.35,20.68-55.87,46-118.82l31.79-79c1.4-3.5,2.81-7,4.2-10.44,3.23-8,6.4-15.92,9.5-23.61,23.79-59.12,42.74-106.19,42.74-106.19s95.07-36,104.95-12.68C2404,972.38,2397.32,991.23,2371.78,1034.53Z"/><path class="afb46853-9ecd-4481-be91-5fd96a4e7bed" d="M2198.69,1297.79s-2.22,35.83-9.16,36.34c-.92.07-35.15.07-35.15.07l-43.71-.25s.29-10.53,13.06-12.76,34.16-11.21,41.9-28.09C2173.77,1275.34,2198.69,1297.79,2198.69,1297.79Z"/><path class="afb46853-9ecd-4481-be91-5fd96a4e7bed" d="M2299.23,1195.43s30.2,19.4,27.27,25.71c-.39.83-17.08,30.73-17.08,30.73l-21.52,38s-9.06-5.38-4.78-17.62S2290,1237,2279,1222C2267.48,1206.24,2299.23,1195.43,2299.23,1195.43Z"/><path class="a6a56736-b8a8-44fb-9821-517e65e3078e" d="M2258.37,948.72S2139,1023.05,2125.71,1073s158.75,156.53,158.75,156.53,18.87-16.65,22.2-28.86c0,0-77.78-93.19-94.65-114.08-10.36-12.82,153.21-44.41,173.19-75.49S2398,953.87,2398,953.87Z"/><rect class="f64a6608-bbc8-407f-bc99-1da946667272" x="2230.47" y="1044.17" width="262.01" height="66.61" rx="8.88"/><path class="f2d91f86-ec1d-4547-b8b3-2a0fc5fd99d0" d="M2313.55,688.2a67.42,67.42,0,0,0-18.18,16.47c28.59,7.4,76-19.1,76-19.1S2353,673.21,2346.14,646c-.35-1.37-.66-2.78-.94-4.22a86.14,86.14,0,0,1-1.55-14.87l-13.13,11.76-21.84,19.57a188.47,188.47,0,0,0,3.23,22.08Q2312.62,684,2313.55,688.2Z"/><path class="b4be220c-1279-43c4-ba31-03b0a2da3b94" d="M2401.5,823.07c-4.1,55.08,2.79,138.82-1.86,153.32-4,12.52-51.19,5.11-69.42.93-6.75-1.54-14.93-3.75-23.37-6.36-23.55-7.3-49.21-17.71-52-25.44a8,8,0,0,1-.25-.89,7.08,7.08,0,0,1,0-3.24c.92-3.94,4.45-8.2,4.87-18,.47-10.89.4-23.72.81-37.51,0-1.56,0-3.25.21-4.8v-.56c0-.3,0-.59,0-.88.4-15.39,1.2-31.56,2.14-47.6.59-10.07,1.27-20.05,2.06-29.61,2.06-24.67,4.83-46.61,8.49-60.48,6-22.62,19.19-37.36,31.2-48.17l8.7-7.46c9.69,2.12,21.16.72,31.53-4.2,11.22-5.33,15.1-9.15,17.06-7.71C2387.69,694.45,2406.33,755.74,2401.5,823.07Z"/><path class="a6a56736-b8a8-44fb-9821-517e65e3078e" d="M2307,971.07c-23.55-7.3-49.21-17.71-52-25.44a6.35,6.35,0,0,1-.26-.89c0-1.08,0-2.16,0-3.24.92-3.94,4.46-8.2,4.87-18,.47-10.89.4-23.72.81-37.51,0-1.56,0-3.25.21-4.8v-.56c0-.3,0-.59,0-.88l89-40.35S2354.81,911.14,2307,971.07Z"/><path class="e731798d-87db-4e16-a319-0326a8b8b276" d="M2308.68,658.28a188.47,188.47,0,0,0,3.23,22.08c21.32-6.89,31-26.15,34.23-34.32.92-2.31,1.32-3.74,1.32-3.74l-2.26-.48-14.68-3.11Z"/><path class="f2d91f86-ec1d-4547-b8b3-2a0fc5fd99d0" d="M2300.05,658.06s46.85,5.29,49.69-23.94,10.8-48.23-19-52.84-36.7,6-40,15.5S2287.93,655.93,2300.05,658.06Z"/><path class="b4be220c-1279-43c4-ba31-03b0a2da3b94" d="M2349.54,636.14s-3-38.8-45.62-42.82c-29.21-2.75-12.92-27.89-9.81-31.9,0,0,22.38,3.07,45.32,6.86C2387.58,576.23,2354.27,630.1,2349.54,636.14Z"/><rect class="b6627bd8-dfed-47e7-a72f-846d45a5632a" x="2101.1" y="808.26" width="4.31" height="112.91" transform="translate(-164.26 692.08) rotate(-18)"/><rect class="b6627bd8-dfed-47e7-a72f-846d45a5632a" x="2118.57" y="910.72" width="118.49" height="7.09" transform="translate(-19.03 46.72) rotate(-1.22)"/><path class="f2d91f86-ec1d-4547-b8b3-2a0fc5fd99d0" d="M2224.24,903s-18.39,7-30.82,4.67-32.47,6-35.32,10.71-1.43,6.37,4.69,7.22,28.19,7.51,41.46.77,31.33-8.94,31.33-8.94Z"/><path class="b4be220c-1279-43c4-ba31-03b0a2da3b94" d="M2369.55,720.49s-4.5,153.45-38.2,170.89c-16.62,8.6-91.71,32.25-114.24,36.29,0,0-6.07-3.89-6.75-22.41,0,0,77.15-38.45,86.79-55.77,14.35-25.78-21.38-96.46-2.54-121.27S2348.33,689.78,2369.55,720.49Z"/></svg>