<?xml version="1.0" encoding="utf-8"?>
<!-- Generator: Adobe Illustrator 23.0.3, SVG Export Plug-In . SVG Version: 6.00 Build 0)  -->
<!DOCTYPE svg PUBLIC "-//W3C//DTD SVG 1.1//EN" "http://www.w3.org/Graphics/SVG/1.1/DTD/svg11.dtd" [
	<!ENTITY ns_extend "http://ns.adobe.com/Extensibility/1.0/">
	<!ENTITY ns_ai "http://ns.adobe.com/AdobeIllustrator/10.0/">
	<!ENTITY ns_graphs "http://ns.adobe.com/Graphs/1.0/">
	<!ENTITY ns_vars "http://ns.adobe.com/Variables/1.0/">
	<!ENTITY ns_imrep "http://ns.adobe.com/ImageReplacement/1.0/">
	<!ENTITY ns_sfw "http://ns.adobe.com/SaveForWeb/1.0/">
	<!ENTITY ns_custom "http://ns.adobe.com/GenericCustomNamespace/1.0/">
	<!ENTITY ns_adobe_xpath "http://ns.adobe.com/XPath/1.0/">
]>
<svg version="1.1" id="Layer_1" xmlns:x="&ns_extend;" xmlns:i="&ns_ai;" xmlns:graph="&ns_graphs;"
	 xmlns="http://www.w3.org/2000/svg" xmlns:xlink="http://www.w3.org/1999/xlink" x="0px" y="0px" viewBox="0 0 85.5 27.8"
	 style="enable-background:new 0 0 85.5 27.8;" xml:space="preserve">
<style type="text/css">
	.st0{fill:#FFFFFF;}
</style>
<metadata>
	<sfw  xmlns="&ns_sfw;">
		<slices></slices>
		<sliceSourceBounds  bottomLeftOrigin="true" height="27.8" width="85.5" x="7.4" y="60.8"></sliceSourceBounds>
	</sfw>
</metadata>
<g>
	<path class="st0" d="M0,11.4c0.2,0,0.3,0,0.5,0c20.6,0,41.3,0,61.9,0c0.1,0,0.3,0,0.5,0c-0.1-0.2-0.2-0.3-0.2-0.4
		c-1.3-1.9-2.5-3.8-3.4-5.9c-0.7-1.6-1-3.2-1.1-4.9c0-0.1,0-0.1,0-0.2c0.1,0,0.1,0.1,0.1,0.1c3.7,3.6,8,6.3,12.7,8.4
		c4.4,2,9,3.6,13.6,5c0.3,0.1,0.6,0.2,1,0.3c-0.2,0.1-0.3,0.1-0.4,0.1c-4.9,1.5-9.7,3.1-14.3,5.4c-4.5,2.2-8.7,4.9-12.4,8.2
		c-0.1,0-0.1,0.1-0.2,0.2c0.2-2.2,0.7-4.3,1.7-6.2c1-1.9,2.1-3.7,3.1-5.6c-0.1,0-0.2,0-0.4,0c-7.8,0-15.7,0-23.5,0
		c-12.9,0-25.7,0-38.6,0c-0.2,0-0.3,0-0.5,0C0,14.5,0,13,0,11.4z"/>
</g>
</svg>
