<?xml version="1.0" encoding="utf-8"?>
<!-- Generator: Adobe Illustrator 19.0.0, SVG Export Plug-In . SVG Version: 6.00 Build 0)  -->
<svg version="1.1" id="Layer_1" xmlns="http://www.w3.org/2000/svg" xmlns:xlink="http://www.w3.org/1999/xlink" x="0px" y="0px"
	 viewBox="0 0 82.8 78" style="enable-background:new 0 0 82.8 78;" xml:space="preserve">
<style type="text/css">
	.st0{clip-path:url(#SVGID_2_);fill:none;stroke:#000000;stroke-width:2;stroke-miterlimit:10;}
	.st1{clip-path:url(#SVGID_2_);}
</style>
<g>
	<defs>
		<rect id="SVGID_1_" y="0" width="82.8" height="78"/>
	</defs>
	<clipPath id="SVGID_2_">
		<use xlink:href="#SVGID_1_"  style="overflow:visible;"/>
	</clipPath>
	<path class="st0" d="M71.4,6.4h6.1c2.4,0,4.3,1.9,4.3,4.3v56.6c0,2.4-1.9,4.3-4.3,4.3h-6.1"/>
	<path class="st0" d="M13,71.6H5.3c-2.4,0-4.3-1.9-4.3-4.3V10.7c0-2.3,1.9-4.3,4.3-4.3H13"/>
	<path class="st0" d="M66.4,77H18c-2.8,0-5-2.3-5-5V6c0-2.8,2.3-5,5-5h48.4c2.8,0,5,2.3,5,5v66C71.4,74.8,69.1,77,66.4,77z"/>
	<path class="st1" d="M27.2,20.9h13c1.1,0,2-0.9,2-2c0-1.1-0.9-2-2-2h-13c-1.1,0-2,0.9-2,2C25.2,20,26.1,20.9,27.2,20.9"/>
	<path class="st1" d="M27.2,31.9h30c1.1,0,2-0.9,2-2c0-1.1-0.9-2-2-2h-30c-1.1,0-2,0.9-2,2C25.2,31,26.1,31.9,27.2,31.9"/>
	<path class="st1" d="M27.2,42.9h30c1.1,0,2-0.9,2-2c0-1.1-0.9-2-2-2h-30c-1.1,0-2,0.9-2,2C25.2,42,26.1,42.9,27.2,42.9"/>
	<path class="st1" d="M27.2,53.9h30c1.1,0,2-0.9,2-2c0-1.1-0.9-2-2-2h-30c-1.1,0-2,0.9-2,2C25.2,53,26.1,53.9,27.2,53.9"/>
	<path class="st1" d="M27.2,64.9h30c1.1,0,2-0.9,2-2c0-1.1-0.9-2-2-2h-30c-1.1,0-2,0.9-2,2C25.2,64,26.1,64.9,27.2,64.9"/>
</g>
</svg>
