<?xml version="1.0" encoding="utf-8"?>
<!-- Generator: Adobe Illustrator 19.0.0, SVG Export Plug-In . SVG Version: 6.00 Build 0)  -->
<svg version="1.1" id="Layer_1" xmlns="http://www.w3.org/2000/svg" xmlns:xlink="http://www.w3.org/1999/xlink" x="0px" y="0px"
	 viewBox="0 0 85.4 89.2" style="enable-background:new 0 0 85.4 89.2;" xml:space="preserve">
<style type="text/css">
	.st0{clip-path:url(#SVGID_2_);}
	.st1{font-family:'Nunito-Black';}
	.st2{font-size:18.2724px;}
</style>
<g>
	<defs>
		<rect id="SVGID_1_" y="0" width="85.4" height="89.2"/>
	</defs>
	<clipPath id="SVGID_2_">
		<use xlink:href="#SVGID_1_"  style="overflow:visible;"/>
	</clipPath>
	<path class="st0" d="M84.8,70.4h-5.5V54c0-0.5-0.2-0.9-0.5-0.9h-5.4c-0.3,0-0.5,0.4-0.5,0.9v16.4h-5.5c-0.2,0-0.4,0.2-0.5,0.4
		c-0.1,0.3-0.1,0.6,0,0.9l8.8,17c0.1,0.3,0.3,0.4,0.5,0.4c0.2,0,0.4-0.2,0.5-0.4l8.8-17c0.1-0.3,0.1-0.6,0-0.9
		C85.2,70.6,85,70.4,84.8,70.4"/>
	<rect x="75" y="14.8" class="st0" width="2.1" height="33.3"/>
	<polygon class="st0" points="75.6,14.2 77.1,12.7 65.7,0 64.2,1.5 	"/>
	<path class="st0" d="M69.9,14.8h7.2v-2.1h-7.2c-2.4,0-4.3-1.9-4.3-4.3V0h-2.1v8.4C63.5,11.9,66.4,14.8,69.9,14.8"/>
	<path class="st0" d="M23,86.7c-2.4,0-4.3-1.9-4.3-4.3V55.1h-2.1v27.4c0,3.5,2.9,6.4,6.4,6.4h43.7v-2.1H23z"/>
	<path class="st0" d="M18.7,6.4c0-2.3,1.9-4.3,4.3-4.3h40.5V0H23c-3.5,0-6.4,2.9-6.4,6.4v21.1h2.1V6.4z"/>
	<path class="st0" d="M55.8,29.5c1.3,0,2.4,1.1,2.4,2.4v18.7c0,1.3-1.1,2.4-2.4,2.4H18.7v2h37.1c2.4,0,4.4-2,4.4-4.4V32
		c0-2.4-2-4.4-4.4-4.4H18.7v2H55.8z"/>
	<path class="st0" d="M4.4,53.1C3.1,53.1,2,52,2,50.7V32c0-1.3,1.1-2.4,2.4-2.4h12.1v-2H4.4C2,27.5,0,29.5,0,32v18.7
		c0,2.4,2,4.4,4.4,4.4h12.1v-2H4.4z"/>
	<rect x="16.6" y="27.5" class="st0" width="2.1" height="2"/>
	<rect x="16.6" y="53.1" class="st0" width="2.1" height="2"/>
</g>
<text transform="matrix(1 0 0 1 11.4033 48.1531)" class="st1 st2">PDF</text>
</svg>
