<?xml version="1.0" encoding="utf-8"?>
<!-- Generator: Adobe Illustrator 23.0.3, SVG Export Plug-In . SVG Version: 6.00 Build 0)  -->
<!DOCTYPE svg PUBLIC "-//W3C//DTD SVG 1.1//EN" "http://www.w3.org/Graphics/SVG/1.1/DTD/svg11.dtd" [
	<!ENTITY ns_extend "http://ns.adobe.com/Extensibility/1.0/">
	<!ENTITY ns_ai "http://ns.adobe.com/AdobeIllustrator/10.0/">
	<!ENTITY ns_graphs "http://ns.adobe.com/Graphs/1.0/">
	<!ENTITY ns_vars "http://ns.adobe.com/Variables/1.0/">
	<!ENTITY ns_imrep "http://ns.adobe.com/ImageReplacement/1.0/">
	<!ENTITY ns_sfw "http://ns.adobe.com/SaveForWeb/1.0/">
	<!ENTITY ns_custom "http://ns.adobe.com/GenericCustomNamespace/1.0/">
	<!ENTITY ns_adobe_xpath "http://ns.adobe.com/XPath/1.0/">
]>
<svg version="1.1" id="Layer_1" xmlns:x="&ns_extend;" xmlns:i="&ns_ai;" xmlns:graph="&ns_graphs;"
	 xmlns="http://www.w3.org/2000/svg" xmlns:xlink="http://www.w3.org/1999/xlink" x="0px" y="0px" viewBox="0 0 86 88"
	 style="enable-background:new 0 0 86 88;" xml:space="preserve">
<style type="text/css">
	.st0{fill:#3DAEE6;}
</style>
<metadata>
	<sfw  xmlns="&ns_sfw;">
		<slices></slices>
		<sliceSourceBounds  bottomLeftOrigin="true" height="88" width="86" x="7" y="31"></sliceSourceBounds>
	</sfw>
</metadata>
<path class="st0" d="M78,6H65V2c0-1.1-0.9-2-2-2s-2,0.9-2,2v4H25V2c0-1.1-0.9-2-2-2s-2,0.9-2,2v4H8c-4.4,0-8,3.6-8,8v66
	c0,4.4,3.6,8,8,8h70c4.4,0,8-3.6,8-8V14C86,9.6,82.4,6,78,6z M8,10h13v4c0,1.1,0.9,2,2,2s2-0.9,2-2v-4h36v4c0,1.1,0.9,2,2,2
	s2-0.9,2-2v-4h13c2.2,0,4,1.8,4,4v8H4v-8C4,11.8,5.8,10,8,10z M78,84H8c-2.2,0-4-1.8-4-4V26h78v54C82,82.2,80.2,84,78,84z M26,60H12
	c-1.1,0-2,0.9-2,2v14c0,1.1,0.9,2,2,2h14c1.1,0,2-0.9,2-2V62C28,60.9,27.1,60,26,60z M24,74H14V64h10V74z M50,60H36
	c-1.1,0-2,0.9-2,2v14c0,1.1,0.9,2,2,2h14c1.1,0,2-0.9,2-2V62C52,60.9,51.1,60,50,60z M48,74H38V64h10V74z M74,60H60
	c-1.1,0-2,0.9-2,2v14c0,1.1,0.9,2,2,2h14c1.1,0,2-0.9,2-2V62C76,60.9,75.1,60,74,60z M72,74H62V64h10V74z M26,36H12
	c-1.1,0-2,0.9-2,2v14c0,1.1,0.9,2,2,2h14c1.1,0,2-0.9,2-2V38C28,36.9,27.1,36,26,36z M24,50H14V40h10V50z M50,36H36
	c-1.1,0-2,0.9-2,2v14c0,1.1,0.9,2,2,2h14c1.1,0,2-0.9,2-2V38C52,36.9,51.1,36,50,36z M48,50H38V40h10V50z M74,36H60
	c-1.1,0-2,0.9-2,2v14c0,1.1,0.9,2,2,2h14c1.1,0,2-0.9,2-2V38C76,36.9,75.1,36,74,36z M72,50H62V40h10V50z"/>
</svg>
