<?xml version="1.0" encoding="utf-8"?>
<!-- Generator: Adobe Illustrator 24.1.2, SVG Export Plug-In . SVG Version: 6.00 Build 0)  -->
<!DOCTYPE svg PUBLIC "-//W3C//DTD SVG 1.1//EN" "http://www.w3.org/Graphics/SVG/1.1/DTD/svg11.dtd" [
	<!ENTITY ns_extend "http://ns.adobe.com/Extensibility/1.0/">
	<!ENTITY ns_ai "http://ns.adobe.com/AdobeIllustrator/10.0/">
	<!ENTITY ns_graphs "http://ns.adobe.com/Graphs/1.0/">
	<!ENTITY ns_vars "http://ns.adobe.com/Variables/1.0/">
	<!ENTITY ns_imrep "http://ns.adobe.com/ImageReplacement/1.0/">
	<!ENTITY ns_sfw "http://ns.adobe.com/SaveForWeb/1.0/">
	<!ENTITY ns_custom "http://ns.adobe.com/GenericCustomNamespace/1.0/">
	<!ENTITY ns_adobe_xpath "http://ns.adobe.com/XPath/1.0/">
]>
<svg version="1.1" id="Layer_1" xmlns:x="&ns_extend;" xmlns:i="&ns_ai;" xmlns:graph="&ns_graphs;"
	 xmlns="http://www.w3.org/2000/svg" xmlns:xlink="http://www.w3.org/1999/xlink" x="0px" y="0px" viewBox="0 0 28.7 28.6"
	 style="enable-background:new 0 0 28.7 28.6;" xml:space="preserve">
<style type="text/css">
	.st0{fill:#FFFFFF;stroke:#37A8FF;stroke-width:1.4626;stroke-miterlimit:10;}
	.st1{fill:#FF0046;}
</style>
<metadata>
	<sfw  xmlns="&ns_sfw;">
		<slices></slices>
		<sliceSourceBounds  bottomLeftOrigin="true" height="28.6" width="28.7" x="-156.4" y="19.3"></sliceSourceBounds>
	</sfw>
</metadata>
<path class="st0" d="M18.3,27.9H0.7V10.5c0-5.4,4.4-9.8,9.8-9.8H28v17.4C28,23.5,23.6,27.9,18.3,27.9z"/>
<g>
	<g>
		<path class="st1" d="M12.5,16.5l-1.8-1.8c-0.3-0.3-0.9-0.3-1.2,0c-0.3,0.3-0.3,0.9,0,1.2l2.5,2.5c0.2,0.2,0.4,0.3,0.6,0.3
			s0.4-0.1,0.6-0.3l6.1-6.1c0.3-0.3,0.3-0.9,0-1.2c-0.3-0.3-0.9-0.3-1.2,0L12.5,16.5z M14.4,24.7C8.6,24.7,4,20.1,4,14.3
			S8.6,3.9,14.4,3.9s10.4,4.7,10.4,10.4S20.1,24.7,14.4,24.7z"/>
	</g>
</g>
</svg>
