<?xml version="1.0" encoding="utf-8"?>
<!-- Generator: Adobe Illustrator 23.1.0, SVG Export Plug-In . SVG Version: 6.00 Build 0)  -->
<!DOCTYPE svg PUBLIC "-//W3C//DTD SVG 1.1//EN" "http://www.w3.org/Graphics/SVG/1.1/DTD/svg11.dtd" [
	<!ENTITY ns_extend "http://ns.adobe.com/Extensibility/1.0/">
	<!ENTITY ns_ai "http://ns.adobe.com/AdobeIllustrator/10.0/">
	<!ENTITY ns_graphs "http://ns.adobe.com/Graphs/1.0/">
	<!ENTITY ns_vars "http://ns.adobe.com/Variables/1.0/">
	<!ENTITY ns_imrep "http://ns.adobe.com/ImageReplacement/1.0/">
	<!ENTITY ns_sfw "http://ns.adobe.com/SaveForWeb/1.0/">
	<!ENTITY ns_custom "http://ns.adobe.com/GenericCustomNamespace/1.0/">
	<!ENTITY ns_adobe_xpath "http://ns.adobe.com/XPath/1.0/">
]>
<svg version="1.1" id="Layer_1" xmlns:x="&ns_extend;" xmlns:i="&ns_ai;" xmlns:graph="&ns_graphs;"
	 xmlns="http://www.w3.org/2000/svg" xmlns:xlink="http://www.w3.org/1999/xlink" x="0px" y="0px" viewBox="0 0 65.3 62.4"
	 style="enable-background:new 0 0 65.3 62.4;" xml:space="preserve">
<style type="text/css">
	.st0{fill:#FFFFFF;}
	.st1{fill:#00BEFF;}
</style>
<metadata>
	<sfw  xmlns="&ns_sfw;">
		<slices></slices>
		<sliceSourceBounds  bottomLeftOrigin="true" height="61.6" width="64.5" x="0.3" y="0.4"></sliceSourceBounds>
	</sfw>
</metadata>
<path class="st0" d="M34.6,1.6l8.3,16.8c0.3,0.6,0.9,1.1,1.6,1.2L63,22.3c1.8,0.3,2.5,2.4,1.2,3.7L50.8,39.1
	c-0.5,0.5-0.7,1.2-0.6,1.9l3.2,18.5c0.3,1.8-1.6,3.1-3.1,2.3L33.7,53c-0.6-0.3-1.4-0.3-2,0l-16.6,8.7c-1.6,0.8-3.4-0.5-3.1-2.3
	L15.1,41c0.1-0.7-0.1-1.4-0.6-1.9L1,26c-1.3-1.3-0.6-3.4,1.2-3.7l18.5-2.7c0.7-0.1,1.3-0.5,1.6-1.2l8.3-16.8C31.5,0,33.8,0,34.6,1.6
	z"/>
<path class="st1" d="M34.2,7.3l6.7,13.6c0.3,0.5,0.7,0.9,1.3,1l15,2.2c1.4,0.2,2,2,1,3L47.3,37.5c-0.4,0.4-0.6,1-0.5,1.5l2.6,15
	c0.2,1.4-1.3,2.5-2.5,1.8l-13.4-7c-0.5-0.3-1.1-0.3-1.6,0l-13.4,7c-1.3,0.7-2.8-0.4-2.5-1.8l2.6-14.9c0.1-0.6-0.1-1.1-0.5-1.5
	L7.1,27c-1-1-0.5-2.8,1-3l15-2.2c0.6-0.1,1.1-0.4,1.3-1l6.7-13.6C31.7,6,33.6,6,34.2,7.3z"/>
</svg>
