<?xml version="1.0" encoding="utf-8"?>
<!-- Generator: Adobe Illustrator 23.1.0, SVG Export Plug-In . SVG Version: 6.00 Build 0)  -->
<!DOCTYPE svg PUBLIC "-//W3C//DTD SVG 1.1//EN" "http://www.w3.org/Graphics/SVG/1.1/DTD/svg11.dtd" [
	<!ENTITY ns_extend "http://ns.adobe.com/Extensibility/1.0/">
	<!ENTITY ns_ai "http://ns.adobe.com/AdobeIllustrator/10.0/">
	<!ENTITY ns_graphs "http://ns.adobe.com/Graphs/1.0/">
	<!ENTITY ns_vars "http://ns.adobe.com/Variables/1.0/">
	<!ENTITY ns_imrep "http://ns.adobe.com/ImageReplacement/1.0/">
	<!ENTITY ns_sfw "http://ns.adobe.com/SaveForWeb/1.0/">
	<!ENTITY ns_custom "http://ns.adobe.com/GenericCustomNamespace/1.0/">
	<!ENTITY ns_adobe_xpath "http://ns.adobe.com/XPath/1.0/">
]>
<svg version="1.1" id="Layer_1" xmlns:x="&ns_extend;" xmlns:i="&ns_ai;" xmlns:graph="&ns_graphs;"
	 xmlns="http://www.w3.org/2000/svg" xmlns:xlink="http://www.w3.org/1999/xlink" x="0px" y="0px" viewBox="0 0 90.6 67.4"
	 style="enable-background:new 0 0 90.6 67.4;" xml:space="preserve">
<style type="text/css">
	.st0{fill:#FFFFFF;}
</style>
<metadata>
	<sfw  xmlns="&ns_sfw;">
		<slices></slices>
		<sliceSourceBounds  bottomLeftOrigin="true" height="67.4" width="90.6" x="5.4" y="42.4"></sliceSourceBounds>
	</sfw>
</metadata>
<g>
	<path class="st0" d="M30.3,11.8h58.5c1,0,1.8-0.8,1.8-1.8s-0.8-1.8-1.8-1.8H30.3c-1,0-1.8,0.8-1.8,1.8S29.3,11.8,30.3,11.8z"/>
	<path class="st0" d="M88.7,32.1H30.3c-1,0-1.8,0.8-1.8,1.8s0.8,1.8,1.8,1.8h58.5c1,0,1.8-0.8,1.8-1.8S89.7,32.1,88.7,32.1z"/>
	<path class="st0" d="M88.7,55.7H30.3c-1,0-1.8,0.8-1.8,1.8s0.8,1.8,1.8,1.8h58.5c1,0,1.8-0.8,1.8-1.8S89.7,55.7,88.7,55.7z"/>
	<path class="st0" d="M10,47.4c-5.5,0-10,4.5-10,10s4.5,10,10,10s10-4.5,10-10S15.5,47.4,10,47.4z"/>
	<path class="st0" d="M10,23.9c-5.5,0-10,4.5-10,10s4.5,10,10,10s10-4.5,10-10S15.5,23.9,10,23.9z"/>
	<path class="st0" d="M10,0C4.5,0,0,4.5,0,10s4.5,10,10,10s10-4.5,10-10S15.5,0,10,0z"/>
</g>
</svg>
