<?xml version="1.0" encoding="utf-8"?>
<!-- Generator: Adobe Illustrator 23.0.3, SVG Export Plug-In . SVG Version: 6.00 Build 0)  -->
<!DOCTYPE svg PUBLIC "-//W3C//DTD SVG 1.1//EN" "http://www.w3.org/Graphics/SVG/1.1/DTD/svg11.dtd" [
	<!ENTITY ns_extend "http://ns.adobe.com/Extensibility/1.0/">
	<!ENTITY ns_ai "http://ns.adobe.com/AdobeIllustrator/10.0/">
	<!ENTITY ns_graphs "http://ns.adobe.com/Graphs/1.0/">
	<!ENTITY ns_vars "http://ns.adobe.com/Variables/1.0/">
	<!ENTITY ns_imrep "http://ns.adobe.com/ImageReplacement/1.0/">
	<!ENTITY ns_sfw "http://ns.adobe.com/SaveForWeb/1.0/">
	<!ENTITY ns_custom "http://ns.adobe.com/GenericCustomNamespace/1.0/">
	<!ENTITY ns_adobe_xpath "http://ns.adobe.com/XPath/1.0/">
]>
<svg version="1.1" id="Layer_1" xmlns:x="&ns_extend;" xmlns:i="&ns_ai;" xmlns:graph="&ns_graphs;"
	 xmlns="http://www.w3.org/2000/svg" xmlns:xlink="http://www.w3.org/1999/xlink" x="0px" y="0px" viewBox="0 0 90 90"
	 style="enable-background:new 0 0 90 90;" xml:space="preserve">
<style type="text/css">
	.st0{fill:#FFFFFF;}
</style>
<metadata>
	<sfw  xmlns="&ns_sfw;">
		<slices></slices>
		<sliceSourceBounds  bottomLeftOrigin="true" height="90" width="90" x="147.1" y="48"></sliceSourceBounds>
	</sfw>
</metadata>
<path class="st0" d="M71.3,48.3c-0.8,0.5-1.7,0.9-2.7,1.2c-0.9,0.2-1.7,0.4-2.6,0.4v-6.5c0-0.7-0.5-1.1-1.1-1.1
	c-0.6,0-1.1,0.5-1.1,1.1V50c-1-0.1-2-0.2-2.8-0.3c-1.6-0.3-2.6-0.6-2.6-0.6l-1.3-3.7L56.9,36l3.6-2.2c0,0,7.6-0.5,7.8-0.5
	s2.8,2,2.8,2l0.2,3.5C71.3,38.8,74,44.9,71.3,48.3z"/>
<g>
	<path class="st0" d="M46.3,14.1H19.4c-2.5,2.1-4.7,4.4-6.6,7v1c0,3,2.4,5.4,5.4,5.4h28.1c3,0,5.4-2.4,5.4-5.4v-2.7
		C51.6,16.5,49.2,14.1,46.3,14.1z M49,22.2c0,1.5-1.2,2.7-2.7,2.7H18.1c-1.5,0-2.7-1.2-2.7-2.7v-2.7c0-1.5,1.2-2.7,2.7-2.7h28.1
		c1.5,0,2.7,1.2,2.7,2.7V22.2z"/>
	<path class="st0" d="M72.9,16.2c-0.6-2.2-2.5-3.9-4.9-4c-0.1,0-0.2,0-0.3,0H61c-3,0-5.4,2.4-5.4,5.4v6.7c0,3,2.4,5.4,5.4,5.4h6.7
		c3,0,5.4-2.4,5.4-5.4v-6.7C73.1,17,73,16.6,72.9,16.2z M70.4,24.2c0,1.5-1.2,2.7-2.7,2.7H61c-1.5,0-2.7-1.2-2.7-2.7v-6.7
		c0-1.5,1.2-2.7,2.7-2.7h6.7c1.5,0,2.7,1.2,2.7,2.7V24.2z"/>
	<path class="st0" d="M23.5,22.2h6.1c0.7,0,1.3-0.6,1.3-1.3s-0.6-1.3-1.3-1.3h-6.1c-0.7,0-1.3,0.6-1.3,1.3S22.8,22.2,23.5,22.2z"/>
	<path class="st0" d="M34.8,22.2h6.1c0.7,0,1.3-0.6,1.3-1.3s-0.6-1.3-1.3-1.3h-6.1c-0.7,0-1.3,0.6-1.3,1.3S34.1,22.2,34.8,22.2z"/>
	<path class="st0" d="M46.3,34.2H18.1c-3,0-5.4,2.4-5.4,5.4v2.7c0,2.9,2.4,5.4,5.4,5.4h28.1c3,0,5.4-2.4,5.4-5.4v-2.7
		C51.6,36.7,49.2,34.2,46.3,34.2z M49,42.3c0,1.5-1.2,2.7-2.7,2.7H18.1c-1.5,0-2.7-1.2-2.7-2.7v-2.7c0-1.5,1.2-2.7,2.7-2.7h28.1
		c1.5,0,2.7,1.2,2.7,2.7V42.3z"/>
	<path class="st0" d="M23.5,42.3h6.1c0.7,0,1.3-0.6,1.3-1.3s-0.6-1.3-1.3-1.3h-6.1c-0.7,0-1.3,0.6-1.3,1.3S22.8,42.3,23.5,42.3z"/>
	<path class="st0" d="M34.8,42.3h6.1c0.7,0,1.3-0.6,1.3-1.3s-0.6-1.3-1.3-1.3h-6.1c-0.7,0-1.3,0.6-1.3,1.3S34.1,42.3,34.8,42.3z"/>
	<path class="st0" d="M46.3,54.2H18.1c-3,0-5.4,2.4-5.4,5.4v2.7c0,3,2.4,5.4,5.4,5.4h28.1c3,0,5.4-2.4,5.4-5.4v-2.7
		C51.6,56.6,49.2,54.2,46.3,54.2z M49,62.2c0,1.5-1.2,2.7-2.7,2.7H18.1c-1.5,0-2.7-1.2-2.7-2.7v-2.7c0-1.5,1.2-2.7,2.7-2.7h28.1
		c1.5,0,2.7,1.2,2.7,2.7V62.2z"/>
	<path class="st0" d="M23.5,62.2h6.1c0.7,0,1.3-0.6,1.3-1.3s-0.6-1.3-1.3-1.3h-6.1c-0.7,0-1.3,0.6-1.3,1.3S22.8,62.2,23.5,62.2z"/>
	<path class="st0" d="M34.8,62.2h6.1c0.7,0,1.3-0.6,1.3-1.3s-0.6-1.3-1.3-1.3h-6.1c-0.7,0-1.3,0.6-1.3,1.3S34.1,62.2,34.8,62.2z"/>
	<path class="st0" d="M58.4,49v-4.2c-0.1-0.2-0.1-0.3-0.1-0.5v-6.7c0-1.5,1.2-2.7,2.7-2.7h6.7c1.5,0,2.7,1.2,2.7,2.7v2.5
		c0.5,0.9,0.9,2.1,0.9,3.3v4.9c1.1-1,1.8-2.4,1.8-4v-6.8c0-2.9-2.4-5.4-5.4-5.4H61c-2.9,0-5.4,2.4-5.4,5.4v6.7
		C55.7,46.3,56.8,48,58.4,49z"/>
	<path class="st0" d="M75.3,55.2h-0.5c-0.8-0.9-2-1.5-3.3-1.4c-0.6-0.9-1.7-1.5-2.9-1.7v-8.7c0-2.1-1.7-3.8-3.8-3.8
		c-2.1,0-3.8,1.7-3.8,3.8v10.9c-0.7-0.8-1.8-1.3-2.9-1.3c-0.9,0-1.8,0.3-2.5,0.9c-2.5,2.1-0.6,5.5,0.6,7.8c0.3,0.7,0.7,1.3,0.8,1.7
		c0.3,0.9,0.7,1.9,1.1,2.9c0.9,2.5,1.9,4,2.7,5.2c0.9,1.5,1.5,2.4,1.5,4.5c0,1,0.8,1.9,1.9,1.9H68c1.2-0.8,2.4-1.8,3.5-2.8H65
		c-0.1-2.3-1-3.6-1.9-5.1c-0.7-1.1-1.6-2.5-2.4-4.8l-0.1-0.1c-0.3-0.8-0.7-1.8-1.1-2.8c-0.2-0.6-0.6-1.3-0.9-1.9
		c-0.7-1.5-2-3.8-1.2-4.5c0.5-0.4,1.3-0.3,1.7,0.1c0.7,0.8,1.5,1.9,2.2,3.2l2.5,4.4V43.4c0-0.7,0.5-1.1,1.1-1.1
		c0.7,0,1.1,0.5,1.1,1.1v12.1l1.8-0.7c0.7-0.3,1.5,0.1,1.6,0.7l0.3,1.6l1.5-0.7c0.6-0.3,1.3,0,1.6,0.5l0.5,1.5l1.4-0.7
		c0.1-0.1,0.3-0.1,0.5-0.1c0.7,0,1.1,0.5,1.1,1v8.5c0,1.4-0.5,2.7-1.1,4c1.4-1.6,2.7-3.3,3.8-5.1v-2.5c0-0.1,0-0.1,0-0.1v-4.6
		C79.1,56.8,77.4,55.2,75.3,55.2z"/>
</g>
<g>
	<path class="st0" d="M68.1,12.1c1.7,1.2,3.3,2.6,4.9,4C72.4,14,70.4,12.3,68.1,12.1z"/>
</g>
<g>
	<path class="st0" d="M45,2c23.7,0,43,19.3,43,43S68.7,88,45,88S2,68.7,2,45S21.3,2,45,2 M45,0C20.2,0,0,20.1,0,45s20.2,45,45,45
		s45-20.1,45-45S69.8,0,45,0L45,0z"/>
</g>
</svg>
