<?xml version="1.0" encoding="utf-8"?>
<!-- Generator: Adobe Illustrator 24.2.0, SVG Export Plug-In . SVG Version: 6.00 Build 0)  -->
<!DOCTYPE svg PUBLIC "-//W3C//DTD SVG 1.1//EN" "http://www.w3.org/Graphics/SVG/1.1/DTD/svg11.dtd" [
	<!ENTITY ns_extend "http://ns.adobe.com/Extensibility/1.0/">
	<!ENTITY ns_ai "http://ns.adobe.com/AdobeIllustrator/10.0/">
	<!ENTITY ns_graphs "http://ns.adobe.com/Graphs/1.0/">
	<!ENTITY ns_vars "http://ns.adobe.com/Variables/1.0/">
	<!ENTITY ns_imrep "http://ns.adobe.com/ImageReplacement/1.0/">
	<!ENTITY ns_sfw "http://ns.adobe.com/SaveForWeb/1.0/">
	<!ENTITY ns_custom "http://ns.adobe.com/GenericCustomNamespace/1.0/">
	<!ENTITY ns_adobe_xpath "http://ns.adobe.com/XPath/1.0/">
]>
<svg version="1.1" id="Layer_1" xmlns:x="&ns_extend;" xmlns:i="&ns_ai;" xmlns:graph="&ns_graphs;"
	 xmlns="http://www.w3.org/2000/svg" xmlns:xlink="http://www.w3.org/1999/xlink" x="0px" y="0px" viewBox="0 0 177.1 177.1"
	 style="enable-background:new 0 0 177.1 177.1;" xml:space="preserve">
<style type="text/css">
	.st0{fill:#FFFFFF;}
	.st1{fill:#198DC6;}
</style>
<metadata>
	<sfw  xmlns="&ns_sfw;">
		<slices></slices>
		<sliceSourceBounds  bottomLeftOrigin="true" height="177.1" width="177.1" x="-257.4" y="12.9"></sliceSourceBounds>
	</sfw>
</metadata>
<circle class="st0" cx="88.5" cy="88.5" r="88.5"/>
<g>
	<path class="st1" d="M103.9,25.3L90.4,44.5l11.4,10.3c2.3,2.2,2.5,5.6,0.4,8L89.5,77.1l4.2,13.6c0.4,1.6-0.4,3.3-2,3.9
		c-1.3,0.4-2.7-0.1-3.5-1.3L78.1,78.1c-1.2-1.7-1-4.2,0.4-5.6l0.4-0.6l11.1-12.4l-10.8-9.8c-1.6-1.4-2.2-3.5-1.6-5.5L78,43l5.9-23.3
		C61,25.3,40.5,70.4,40.5,102.4c0,34.1,21.6,54.7,48,54.7s48-20.5,48-54.7C136.4,75.6,121.9,39.6,103.9,25.3z"/>
</g>
</svg>
