<?xml version="1.0" encoding="utf-8"?>
<!-- Generator: Adobe Illustrator 24.2.0, SVG Export Plug-In . SVG Version: 6.00 Build 0)  -->
<!DOCTYPE svg PUBLIC "-//W3C//DTD SVG 1.1//EN" "http://www.w3.org/Graphics/SVG/1.1/DTD/svg11.dtd" [
	<!ENTITY ns_extend "http://ns.adobe.com/Extensibility/1.0/">
	<!ENTITY ns_ai "http://ns.adobe.com/AdobeIllustrator/10.0/">
	<!ENTITY ns_graphs "http://ns.adobe.com/Graphs/1.0/">
	<!ENTITY ns_vars "http://ns.adobe.com/Variables/1.0/">
	<!ENTITY ns_imrep "http://ns.adobe.com/ImageReplacement/1.0/">
	<!ENTITY ns_sfw "http://ns.adobe.com/SaveForWeb/1.0/">
	<!ENTITY ns_custom "http://ns.adobe.com/GenericCustomNamespace/1.0/">
	<!ENTITY ns_adobe_xpath "http://ns.adobe.com/XPath/1.0/">
]>
<svg version="1.1" id="Layer_1" xmlns:x="&ns_extend;" xmlns:i="&ns_ai;" xmlns:graph="&ns_graphs;"
	 xmlns="http://www.w3.org/2000/svg" xmlns:xlink="http://www.w3.org/1999/xlink" x="0px" y="0px" viewBox="0 0 177.1 177.1"
	 style="enable-background:new 0 0 177.1 177.1;" xml:space="preserve">
<style type="text/css">
	.st0{fill:#FFFFFF;}
	.st1{fill:#198DC6;}
</style>
<metadata>
	<sfw  xmlns="&ns_sfw;">
		<slices></slices>
		<sliceSourceBounds  bottomLeftOrigin="true" height="177.1" width="177.1" x="-257.4" y="12.9"></sliceSourceBounds>
	</sfw>
</metadata>
<circle class="st0" cx="88.5" cy="88.5" r="88.5"/>
<g>
	<defs>
		<circle id="SVGID_1_" cx="88.5" cy="88.5" r="88.5"/>
	</defs>
	<clipPath id="SVGID_2_">
		<use xlink:href="#SVGID_1_"  style="overflow:visible;"/>
	</clipPath>
</g>
<path class="st1" d="M79.7,89.4l-0.1-0.2l-8.2,3.1l0.6,1.6l1.5-0.6l6.8-2.6L79.7,89.4z M79.7,89.4l-0.1-0.2l-8.2,3.1l0.6,1.6
	l1.5-0.6l6.8-2.6L79.7,89.4z M79.7,89.4l-0.1-0.2l-8.2,3.1l0.6,1.6l1.5-0.6l6.8-2.6L79.7,89.4z M79.7,89.4l-0.1-0.2l-8.2,3.1
	l0.6,1.6l1.5-0.6l6.8-2.6L79.7,89.4z M155,69.5c-0.3-1.1-1.4-2.3-4.4-2.3l-40.7,0.1c-2.2,0-4.7-1.8-5.3-3.9L92.1,24.7
	c-0.9-2.9-2.5-3.5-3.6-3.5c-1.1,0-2.6,0.6-3.6,3.5L72.5,63.4c-0.7,2-3.1,3.8-5.3,3.8l-40.7-0.1c-3,0-4.1,1.2-4.4,2.3
	c-0.3,1.1-0.2,2.7,2.2,4.5l33,23.9c1.7,1.3,2.7,4.2,2,6.3l-12.7,38.7c-0.6,1.8-0.5,3.3,0.2,4.3c0.5,0.7,1.4,1.2,2.3,1.2
	c1,0,2-0.4,3.2-1.3l32.9-24c0.8-0.6,2-1,3.3-1c1.2,0,2.4,0.4,3.3,1l32.8,24c1.2,0.9,2.2,1.3,3.2,1.3c0.9,0,1.8-0.4,2.3-1.1
	c0.7-1,0.8-2.5,0.2-4.3l-12.6-38.7c-0.7-2.1,0.3-5,2-6.2l33-23.8C155.2,72.2,155.3,70.6,155,69.5z M112.5,80.1l0.4,1.1l0.4,1l-5,1.9
	l-0.4-1l-0.4-1.1L112.5,80.1z M106.1,71.1l0.8,0.8l0.8,0.8l-3.7,3.9l-0.8-0.8l-0.8-0.8L106.1,71.1z M84.2,102.5
	c0.4,1.1,0.3,2.3-0.4,3.3l-0.6,0.8l2.7,5.1c0.2,0.3,0.2,0.6,0.1,0.9c-0.1,0.3-0.4,0.5-0.7,0.7l-4.5,1.7c-0.1,0.1-0.3,0.1-0.4,0.1
	c-0.4,0-0.8-0.2-1-0.6l-5.2-10.3l-0.5,0.2c-0.3,0.1-0.5,0.2-0.8,0.2c-0.9,0-1.8-0.5-2.1-1.4l-1.9,0.7c-0.2,0.1-0.5,0.1-0.7,0.1
	c-0.3,0-0.5,0-0.8-0.2c-0.5-0.2-0.9-0.6-1-1.1l-2.4-6.3c-0.4-1,0.1-2.2,1.1-2.5l1.9-0.7l-0.1-0.3c-0.2-0.6-0.2-1.2,0-1.8
	c0.3-0.6,0.7-1,1.3-1.2l13.8-5.2l5.5,14.5l-3.9,1.5L84.2,102.5z M108.5,101.8c-0.3,0.3-0.7,0.5-1.1,0.5c-0.1,0-0.2,0-0.3,0
	l-17.8-3.6l-5.7-14.9l10.9-14.5c0.3-0.4,0.8-0.6,1.3-0.5c0.5,0.1,0.9,0.4,1.1,0.9l11.7,30.9C108.9,100.9,108.8,101.4,108.5,101.8z
	 M114.4,93.1l-5.3-0.4l0.2-2.2l5.3,0.4L114.4,93.1z M79.6,89.2l-8.2,3.1l0.6,1.6l1.5-0.6l6.8-2.6l-0.5-1.4L79.6,89.2z M79.7,89.4
	l-0.1-0.2l-8.2,3.1l0.6,1.6l1.5-0.6l6.8-2.6L79.7,89.4z M79.7,89.4l-0.1-0.2l-8.2,3.1l0.6,1.6l1.5-0.6l6.8-2.6L79.7,89.4z
	 M79.7,89.4l-0.1-0.2l-8.2,3.1l0.6,1.6l1.5-0.6l6.8-2.6L79.7,89.4z M79.7,89.4l-0.1-0.2l-8.2,3.1l0.6,1.6l1.5-0.6l6.8-2.6L79.7,89.4
	z M79.7,89.4l-0.1-0.2l-8.2,3.1l0.6,1.6l1.5-0.6l6.8-2.6L79.7,89.4z M79.7,89.4l-0.1-0.2l-8.2,3.1l0.6,1.6l1.5-0.6l6.8-2.6
	L79.7,89.4z M79.7,89.4l-0.1-0.2l-8.2,3.1l0.6,1.6l1.5-0.6l6.8-2.6L79.7,89.4z M79.7,89.4l-0.1-0.2l-8.2,3.1l0.6,1.6l1.5-0.6
	l6.8-2.6L79.7,89.4z M155,69.5c-0.3-1.1-1.4-2.3-4.4-2.3l-40.7,0.1c-2.2,0-4.7-1.8-5.3-3.9L92.1,24.7c-0.9-2.9-2.5-3.5-3.6-3.5
	c-1.1,0-2.6,0.6-3.6,3.5L72.5,63.4c-0.7,2-3.1,3.8-5.3,3.8l-40.7-0.1c-3,0-4.1,1.2-4.4,2.3c-0.3,1.1-0.2,2.7,2.2,4.5l33,23.9
	c1.7,1.3,2.7,4.2,2,6.3l-12.7,38.7c-0.6,1.8-0.5,3.3,0.2,4.3c0.5,0.7,1.4,1.2,2.3,1.2c1,0,2-0.4,3.2-1.3l32.9-24c0.8-0.6,2-1,3.3-1
	c1.2,0,2.4,0.4,3.3,1l32.8,24c1.2,0.9,2.2,1.3,3.2,1.3c0.9,0,1.8-0.4,2.3-1.1c0.7-1,0.8-2.5,0.2-4.3l-12.6-38.7
	c-0.7-2.1,0.3-5,2-6.2l33-23.8C155.2,72.2,155.3,70.6,155,69.5z M112.5,80.1l0.4,1.1l0.4,1l-5,1.9l-0.4-1l-0.4-1.1L112.5,80.1z
	 M106.1,71.1l0.8,0.8l0.8,0.8l-3.7,3.9l-0.8-0.8l-0.8-0.8L106.1,71.1z M84.2,102.5c0.4,1.1,0.3,2.3-0.4,3.3l-0.6,0.8l2.7,5.1
	c0.2,0.3,0.2,0.6,0.1,0.9c-0.1,0.3-0.4,0.5-0.7,0.7l-4.5,1.7c-0.1,0.1-0.3,0.1-0.4,0.1c-0.4,0-0.8-0.2-1-0.6l-5.2-10.3l-0.5,0.2
	c-0.3,0.1-0.5,0.2-0.8,0.2c-0.9,0-1.8-0.5-2.1-1.4l-1.9,0.7c-0.2,0.1-0.5,0.1-0.7,0.1c-0.3,0-0.5,0-0.8-0.2c-0.5-0.2-0.9-0.6-1-1.1
	l-2.4-6.3c-0.4-1,0.1-2.2,1.1-2.5l1.9-0.7l-0.1-0.3c-0.2-0.6-0.2-1.2,0-1.8c0.3-0.6,0.7-1,1.3-1.2l13.8-5.2l5.5,14.5l-3.9,1.5
	L84.2,102.5z M108.5,101.8c-0.3,0.3-0.7,0.5-1.1,0.5c-0.1,0-0.2,0-0.3,0l-17.8-3.6l-5.7-14.9l10.9-14.5c0.3-0.4,0.8-0.6,1.3-0.5
	c0.5,0.1,0.9,0.4,1.1,0.9l11.7,30.9C108.9,100.9,108.8,101.4,108.5,101.8z M114.4,93.1l-5.3-0.4l0.2-2.2l5.3,0.4L114.4,93.1z
	 M79.6,89.2l-8.2,3.1l0.6,1.6l1.5-0.6l6.8-2.6l-0.5-1.4L79.6,89.2z M79.7,89.4l-0.1-0.2l-8.2,3.1l0.6,1.6l1.5-0.6l6.8-2.6L79.7,89.4
	z M79.7,89.4l-0.1-0.2l-8.2,3.1l0.6,1.6l1.5-0.6l6.8-2.6L79.7,89.4z M79.7,89.4l-0.1-0.2l-8.2,3.1l0.6,1.6l1.5-0.6l6.8-2.6
	L79.7,89.4z M79.7,89.4l-0.1-0.2l-8.2,3.1l0.6,1.6l1.5-0.6l6.8-2.6L79.7,89.4z M155,69.5c-0.3-1.1-1.4-2.3-4.4-2.3l-40.7,0.1
	c-2.2,0-4.7-1.8-5.3-3.9L92.1,24.7c-0.9-2.9-2.5-3.5-3.6-3.5c-1.1,0-2.6,0.6-3.6,3.5L72.5,63.4c-0.7,2-3.1,3.8-5.3,3.8l-40.7-0.1
	c-3,0-4.1,1.2-4.4,2.3c-0.3,1.1-0.2,2.7,2.2,4.5l33,23.9c1.7,1.3,2.7,4.2,2,6.3l-12.7,38.7c-0.6,1.8-0.5,3.3,0.2,4.3
	c0.5,0.7,1.4,1.2,2.3,1.2c1,0,2-0.4,3.2-1.3l32.9-24c0.8-0.6,2-1,3.3-1c1.2,0,2.4,0.4,3.3,1l32.8,24c1.2,0.9,2.2,1.3,3.2,1.3
	c0.9,0,1.8-0.4,2.3-1.1c0.7-1,0.8-2.5,0.2-4.3l-12.6-38.7c-0.7-2.1,0.3-5,2-6.2l33-23.8C155.2,72.2,155.3,70.6,155,69.5z
	 M112.5,80.1l0.4,1.1l0.4,1l-5,1.9l-0.4-1l-0.4-1.1L112.5,80.1z M106.1,71.1l0.8,0.8l0.8,0.8l-3.7,3.9l-0.8-0.8l-0.8-0.8L106.1,71.1
	z M84.2,102.5c0.4,1.1,0.3,2.3-0.4,3.3l-0.6,0.8l2.7,5.1c0.2,0.3,0.2,0.6,0.1,0.9c-0.1,0.3-0.4,0.5-0.7,0.7l-4.5,1.7
	c-0.1,0.1-0.3,0.1-0.4,0.1c-0.4,0-0.8-0.2-1-0.6l-5.2-10.3l-0.5,0.2c-0.3,0.1-0.5,0.2-0.8,0.2c-0.9,0-1.8-0.5-2.1-1.4l-1.9,0.7
	c-0.2,0.1-0.5,0.1-0.7,0.1c-0.3,0-0.5,0-0.8-0.2c-0.5-0.2-0.9-0.6-1-1.1l-2.4-6.3c-0.4-1,0.1-2.2,1.1-2.5l1.9-0.7l-0.1-0.3
	c-0.2-0.6-0.2-1.2,0-1.8c0.3-0.6,0.7-1,1.3-1.2l13.8-5.2l5.5,14.5l-3.9,1.5L84.2,102.5z M108.5,101.8c-0.3,0.3-0.7,0.5-1.1,0.5
	c-0.1,0-0.2,0-0.3,0l-17.8-3.6l-5.7-14.9l10.9-14.5c0.3-0.4,0.8-0.6,1.3-0.5c0.5,0.1,0.9,0.4,1.1,0.9l11.7,30.9
	C108.9,100.9,108.8,101.4,108.5,101.8z M114.4,93.1l-5.3-0.4l0.2-2.2l5.3,0.4L114.4,93.1z M79.6,89.2l-8.2,3.1l0.6,1.6l1.5-0.6
	l6.8-2.6l-0.5-1.4L79.6,89.2z M79.7,89.4l-0.1-0.2l-8.2,3.1l0.6,1.6l1.5-0.6l6.8-2.6L79.7,89.4z M79.7,89.4l-0.1-0.2l-8.2,3.1
	l0.6,1.6l1.5-0.6l6.8-2.6L79.7,89.4z M79.7,89.4l-0.1-0.2l-8.2,3.1l0.6,1.6l1.5-0.6l6.8-2.6L79.7,89.4z M79.7,89.4l-0.1-0.2
	l-8.2,3.1l0.6,1.6l1.5-0.6l6.8-2.6L79.7,89.4z M155,69.5c-0.3-1.1-1.4-2.3-4.4-2.3l-40.7,0.1c-2.2,0-4.7-1.8-5.3-3.9L92.1,24.7
	c-0.9-2.9-2.5-3.5-3.6-3.5c-1.1,0-2.6,0.6-3.6,3.5L72.5,63.4c-0.7,2-3.1,3.8-5.3,3.8l-40.7-0.1c-3,0-4.1,1.2-4.4,2.3
	c-0.3,1.1-0.2,2.7,2.2,4.5l33,23.9c1.7,1.3,2.7,4.2,2,6.3l-12.7,38.7c-0.6,1.8-0.5,3.3,0.2,4.3c0.5,0.7,1.4,1.2,2.3,1.2
	c1,0,2-0.4,3.2-1.3l32.9-24c0.8-0.6,2-1,3.3-1c1.2,0,2.4,0.4,3.3,1l32.8,24c1.2,0.9,2.2,1.3,3.2,1.3c0.9,0,1.8-0.4,2.3-1.1
	c0.7-1,0.8-2.5,0.2-4.3l-12.6-38.7c-0.7-2.1,0.3-5,2-6.2l33-23.8C155.2,72.2,155.3,70.6,155,69.5z M112.5,80.1l0.4,1.1l0.4,1l-5,1.9
	l-0.4-1l-0.4-1.1L112.5,80.1z M106.1,71.1l0.8,0.8l0.8,0.8l-3.7,3.9l-0.8-0.8l-0.8-0.8L106.1,71.1z M84.2,102.5
	c0.4,1.1,0.3,2.3-0.4,3.3l-0.6,0.8l2.7,5.1c0.2,0.3,0.2,0.6,0.1,0.9c-0.1,0.3-0.4,0.5-0.7,0.7l-4.5,1.7c-0.1,0.1-0.3,0.1-0.4,0.1
	c-0.4,0-0.8-0.2-1-0.6l-5.2-10.3l-0.5,0.2c-0.3,0.1-0.5,0.2-0.8,0.2c-0.9,0-1.8-0.5-2.1-1.4l-1.9,0.7c-0.2,0.1-0.5,0.1-0.7,0.1
	c-0.3,0-0.5,0-0.8-0.2c-0.5-0.2-0.9-0.6-1-1.1l-2.4-6.3c-0.4-1,0.1-2.2,1.1-2.5l1.9-0.7l-0.1-0.3c-0.2-0.6-0.2-1.2,0-1.8
	c0.3-0.6,0.7-1,1.3-1.2l13.8-5.2l5.5,14.5l-3.9,1.5L84.2,102.5z M108.5,101.8c-0.3,0.3-0.7,0.5-1.1,0.5c-0.1,0-0.2,0-0.3,0
	l-17.8-3.6l-5.7-14.9l10.9-14.5c0.3-0.4,0.8-0.6,1.3-0.5c0.5,0.1,0.9,0.4,1.1,0.9l11.7,30.9C108.9,100.9,108.8,101.4,108.5,101.8z
	 M114.4,93.1l-5.3-0.4l0.2-2.2l5.3,0.4L114.4,93.1z M79.6,89.2l-8.2,3.1l0.6,1.6l1.5-0.6l6.8-2.6l-0.5-1.4L79.6,89.2z M155,69.5
	c-0.3-1.1-1.4-2.3-4.4-2.3l-40.7,0.1c-2.2,0-4.7-1.8-5.3-3.9L92.1,24.7c-0.9-2.9-2.5-3.5-3.6-3.5c-1.1,0-2.6,0.6-3.6,3.5L72.5,63.4
	c-0.7,2-3.1,3.8-5.3,3.8l-40.7-0.1c-3,0-4.1,1.2-4.4,2.3c-0.3,1.1-0.2,2.7,2.2,4.5l33,23.9c1.7,1.3,2.7,4.2,2,6.3l-12.7,38.7
	c-0.6,1.8-0.5,3.3,0.2,4.3c0.5,0.7,1.4,1.2,2.3,1.2c1,0,2-0.4,3.2-1.3l32.9-24c0.8-0.6,2-1,3.3-1c1.2,0,2.4,0.4,3.3,1l32.8,24
	c1.2,0.9,2.2,1.3,3.2,1.3c0.9,0,1.8-0.4,2.3-1.1c0.7-1,0.8-2.5,0.2-4.3l-12.6-38.7c-0.7-2.1,0.3-5,2-6.2l33-23.8
	C155.2,72.2,155.3,70.6,155,69.5z M112.5,80.1l0.4,1.1l0.4,1l-5,1.9l-0.4-1l-0.4-1.1L112.5,80.1z M106.1,71.1l0.8,0.8l0.8,0.8
	l-3.7,3.9l-0.8-0.8l-0.8-0.8L106.1,71.1z M84.2,102.5c0.4,1.1,0.3,2.3-0.4,3.3l-0.6,0.8l2.7,5.1c0.2,0.3,0.2,0.6,0.1,0.9
	c-0.1,0.3-0.4,0.5-0.7,0.7l-4.5,1.7c-0.1,0.1-0.3,0.1-0.4,0.1c-0.4,0-0.8-0.2-1-0.6l-5.2-10.3l-0.5,0.2c-0.3,0.1-0.5,0.2-0.8,0.2
	c-0.9,0-1.8-0.5-2.1-1.4l-1.9,0.7c-0.2,0.1-0.5,0.1-0.7,0.1c-0.3,0-0.5,0-0.8-0.2c-0.5-0.2-0.9-0.6-1-1.1l-2.4-6.3
	c-0.4-1,0.1-2.2,1.1-2.5l1.9-0.7l-0.1-0.3c-0.2-0.6-0.2-1.2,0-1.8c0.3-0.6,0.7-1,1.3-1.2l13.8-5.2l5.5,14.5l-3.9,1.5L84.2,102.5z
	 M108.5,101.8c-0.3,0.3-0.7,0.5-1.1,0.5c-0.1,0-0.2,0-0.3,0l-17.8-3.6l-5.7-14.9l10.9-14.5c0.3-0.4,0.8-0.6,1.3-0.5
	c0.5,0.1,0.9,0.4,1.1,0.9l11.7,30.9C108.9,100.9,108.8,101.4,108.5,101.8z M114.4,93.1l-5.3-0.4l0.2-2.2l5.3,0.4L114.4,93.1z
	 M79.6,89.2l-8.2,3.1l0.6,1.6l1.5-0.6l6.8-2.6l-0.5-1.4L79.6,89.2z M158.9,68.3c-0.4-1.6-2.8-5.2-8.3-5.1l-40.7,0.1
	c0,0-0.5-0.1-0.8-0.4c-0.3-0.3-0.6-0.6-0.6-0.7L96,23.5c-1.5-5-5.4-6.5-7.4-6.3c-2.1-0.1-6,1.3-7.5,6.3L68.6,62.2
	c0,0-0.2,0.4-0.6,0.7c-0.3,0.3-0.8,0.4-0.8,0.4l-40.7-0.1c-5.5-0.1-8,3.5-8.3,5.1c-0.2,0.6-0.3,1.3-0.3,2.2c0,2.1,1.1,4.8,4.1,6.9
	l33,23.9c0.1,0,0.6,1,0.5,1.5c0,0.1,0,0.2,0,0.2l-12.7,38.6c-0.4,1.2-0.6,2.4-0.6,3.6c0,1.6,0.5,3.2,1.4,4.4
	c1.3,1.8,3.4,2.9,5.7,2.8c2,0,3.9-0.8,5.6-2.1l32.9-24c0,0,0.4-0.2,0.9-0.2c0.2,0,0.5,0,0.6,0.1c0.1,0,0.3,0.1,0.3,0.1l32.8,24
	c1.8,1.3,3.7,2.1,5.7,2.1c0,0,0,0,0,0c2.2,0,4.3-1.1,5.6-2.9c0.9-1.3,1.4-2.8,1.4-4.4c0-1.2-0.2-2.3-0.6-3.6l-12.6-38.7
	c0,0,0-0.1,0-0.2c0-0.3,0.1-0.6,0.2-0.9c0.1-0.3,0.3-0.5,0.3-0.5l33-23.8c3-2.1,4.1-4.8,4.1-6.9C159.2,69.6,159.1,68.9,158.9,68.3z
	 M153.9,75.6l-33,23.8c-1.1,0.8-1.7,2.8-1.3,4.1l12.6,38.7c0.8,2.5,0.6,4.5-0.5,6.1c-0.9,1.2-2.3,2-3.9,2c-1.4,0-2.8-0.6-4.4-1.7
	l-32.8-24c-0.5-0.4-1.3-0.6-2.1-0.6c-0.8,0-1.6,0.2-2.1,0.6l-32.9,24c-1.5,1.1-3,1.7-4.4,1.7c-1.6,0-3-0.7-3.9-2
	c-1.1-1.6-1.3-3.6-0.5-6.1l12.7-38.7c0.4-1.3-0.2-3.3-1.3-4.1l-33-23.9c-3.6-2.6-3.4-5.3-3-6.7c0.4-1.1,1.7-3.6,6.3-3.6l40.7,0.1
	c1.3,0,3-1.2,3.4-2.5l12.5-38.7c0.7-2.1,1.7-3.3,2.7-4c1-0.7,2-0.8,2.7-0.8c1.4,0,4.1,0.6,5.4,4.9l12.5,38.7
	c0.4,1.3,2.1,2.5,3.4,2.5l40.7-0.1c4.6,0,5.9,2.5,6.3,3.6C157.3,70.3,157.5,73,153.9,75.6z M150.6,67.3l-40.7,0.1
	c-2.2,0-4.7-1.8-5.3-3.9L92.1,24.7c-0.9-2.9-2.5-3.5-3.6-3.5c-1.1,0-2.6,0.6-3.6,3.5L72.5,63.4c-0.7,2-3.1,3.8-5.3,3.8l-40.7-0.1
	c-3,0-4.1,1.2-4.4,2.3c-0.3,1.1-0.2,2.7,2.2,4.5l33,23.9c1.7,1.3,2.7,4.2,2,6.3l-12.7,38.7c-0.6,1.8-0.5,3.3,0.2,4.3
	c0.5,0.7,1.4,1.2,2.3,1.2c1,0,2-0.4,3.2-1.3l32.9-24c0.8-0.6,2-1,3.3-1c1.2,0,2.4,0.4,3.3,1l32.8,24c1.2,0.9,2.2,1.3,3.2,1.3
	c0.9,0,1.8-0.4,2.3-1.1c0.7-1,0.8-2.5,0.2-4.3l-12.6-38.7c-0.7-2.1,0.3-5,2-6.2l33-23.8c2.5-1.8,2.6-3.4,2.2-4.5
	C154.7,68.5,153.6,67.3,150.6,67.3z M112.5,80.1l0.4,1.1l0.4,1l-5,1.9l-0.4-1l-0.4-1.1L112.5,80.1z M106.1,71.1l0.8,0.8l0.8,0.8
	l-3.7,3.9l-0.8-0.8l-0.8-0.8L106.1,71.1z M84.2,102.5c0.4,1.1,0.3,2.3-0.4,3.3l-0.6,0.8l2.7,5.1c0.2,0.3,0.2,0.6,0.1,0.9
	c-0.1,0.3-0.4,0.5-0.7,0.7l-4.5,1.7c-0.1,0.1-0.3,0.1-0.4,0.1c-0.4,0-0.8-0.2-1-0.6l-5.2-10.3l-0.5,0.2c-0.3,0.1-0.5,0.2-0.8,0.2
	c-0.9,0-1.8-0.5-2.1-1.4l-1.9,0.7c-0.2,0.1-0.5,0.1-0.7,0.1c-0.3,0-0.5,0-0.8-0.2c-0.5-0.2-0.9-0.6-1-1.1l-2.4-6.3
	c-0.4-1,0.1-2.2,1.1-2.5l1.9-0.7l-0.1-0.3c-0.2-0.6-0.2-1.2,0-1.8c0.3-0.6,0.7-1,1.3-1.2l13.8-5.2l5.5,14.5l-3.9,1.5L84.2,102.5z
	 M108.5,101.8c-0.3,0.3-0.7,0.5-1.1,0.5c-0.1,0-0.2,0-0.3,0l-17.8-3.6l-5.7-14.9l10.9-14.5c0.3-0.4,0.8-0.6,1.3-0.5
	c0.5,0.1,0.9,0.4,1.1,0.9l11.7,30.9C108.9,100.9,108.8,101.4,108.5,101.8z M114.4,93.1l-5.3-0.4l0.2-2.2l5.3,0.4L114.4,93.1z
	 M79.6,89.2l-8.2,3.1l0.6,1.6l1.5-0.6l6.8-2.6l-0.5-1.4L79.6,89.2z M79.7,89.4l-0.1-0.2l-8.2,3.1l0.6,1.6l1.5-0.6l6.8-2.6L79.7,89.4
	z M79.7,89.4l-0.1-0.2l-8.2,3.1l0.6,1.6l1.5-0.6l6.8-2.6L79.7,89.4z M155,69.5c-0.3-1.1-1.4-2.3-4.4-2.3l-40.7,0.1
	c-2.2,0-4.7-1.8-5.3-3.9L92.1,24.7c-0.9-2.9-2.5-3.5-3.6-3.5c-1.1,0-2.6,0.6-3.6,3.5L72.5,63.4c-0.7,2-3.1,3.8-5.3,3.8l-40.7-0.1
	c-3,0-4.1,1.2-4.4,2.3c-0.3,1.1-0.2,2.7,2.2,4.5l33,23.9c1.7,1.3,2.7,4.2,2,6.3l-12.7,38.7c-0.6,1.8-0.5,3.3,0.2,4.3
	c0.5,0.7,1.4,1.2,2.3,1.2c1,0,2-0.4,3.2-1.3l32.9-24c0.8-0.6,2-1,3.3-1c1.2,0,2.4,0.4,3.3,1l32.8,24c1.2,0.9,2.2,1.3,3.2,1.3
	c0.9,0,1.8-0.4,2.3-1.1c0.7-1,0.8-2.5,0.2-4.3l-12.6-38.7c-0.7-2.1,0.3-5,2-6.2l33-23.8C155.2,72.2,155.3,70.6,155,69.5z
	 M112.5,80.1l0.4,1.1l0.4,1l-5,1.9l-0.4-1l-0.4-1.1L112.5,80.1z M106.1,71.1l0.8,0.8l0.8,0.8l-3.7,3.9l-0.8-0.8l-0.8-0.8L106.1,71.1
	z M84.2,102.5c0.4,1.1,0.3,2.3-0.4,3.3l-0.6,0.8l2.7,5.1c0.2,0.3,0.2,0.6,0.1,0.9c-0.1,0.3-0.4,0.5-0.7,0.7l-4.5,1.7
	c-0.1,0.1-0.3,0.1-0.4,0.1c-0.4,0-0.8-0.2-1-0.6l-5.2-10.3l-0.5,0.2c-0.3,0.1-0.5,0.2-0.8,0.2c-0.9,0-1.8-0.5-2.1-1.4l-1.9,0.7
	c-0.2,0.1-0.5,0.1-0.7,0.1c-0.3,0-0.5,0-0.8-0.2c-0.5-0.2-0.9-0.6-1-1.1l-2.4-6.3c-0.4-1,0.1-2.2,1.1-2.5l1.9-0.7l-0.1-0.3
	c-0.2-0.6-0.2-1.2,0-1.8c0.3-0.6,0.7-1,1.3-1.2l13.8-5.2l5.5,14.5l-3.9,1.5L84.2,102.5z M108.5,101.8c-0.3,0.3-0.7,0.5-1.1,0.5
	c-0.1,0-0.2,0-0.3,0l-17.8-3.6l-5.7-14.9l10.9-14.5c0.3-0.4,0.8-0.6,1.3-0.5c0.5,0.1,0.9,0.4,1.1,0.9l11.7,30.9
	C108.9,100.9,108.8,101.4,108.5,101.8z M114.4,93.1l-5.3-0.4l0.2-2.2l5.3,0.4L114.4,93.1z M79.6,89.2l-8.2,3.1l0.6,1.6l1.5-0.6
	l6.8-2.6l-0.5-1.4L79.6,89.2z M79.7,89.4l-0.1-0.2l-8.2,3.1l0.6,1.6l1.5-0.6l6.8-2.6L79.7,89.4z M79.7,89.4l-0.1-0.2l-8.2,3.1
	l0.6,1.6l1.5-0.6l6.8-2.6L79.7,89.4z M155,69.5c-0.3-1.1-1.4-2.3-4.4-2.3l-40.7,0.1c-2.2,0-4.7-1.8-5.3-3.9L92.1,24.7
	c-0.9-2.9-2.5-3.5-3.6-3.5c-1.1,0-2.6,0.6-3.6,3.5L72.5,63.4c-0.7,2-3.1,3.8-5.3,3.8l-40.7-0.1c-3,0-4.1,1.2-4.4,2.3
	c-0.3,1.1-0.2,2.7,2.2,4.5l33,23.9c1.7,1.3,2.7,4.2,2,6.3l-12.7,38.7c-0.6,1.8-0.5,3.3,0.2,4.3c0.5,0.7,1.4,1.2,2.3,1.2
	c1,0,2-0.4,3.2-1.3l32.9-24c0.8-0.6,2-1,3.3-1c1.2,0,2.4,0.4,3.3,1l32.8,24c1.2,0.9,2.2,1.3,3.2,1.3c0.9,0,1.8-0.4,2.3-1.1
	c0.7-1,0.8-2.5,0.2-4.3l-12.6-38.7c-0.7-2.1,0.3-5,2-6.2l33-23.8C155.2,72.2,155.3,70.6,155,69.5z M112.5,80.1l0.4,1.1l0.4,1l-5,1.9
	l-0.4-1l-0.4-1.1L112.5,80.1z M106.1,71.1l0.8,0.8l0.8,0.8l-3.7,3.9l-0.8-0.8l-0.8-0.8L106.1,71.1z M84.2,102.5
	c0.4,1.1,0.3,2.3-0.4,3.3l-0.6,0.8l2.7,5.1c0.2,0.3,0.2,0.6,0.1,0.9c-0.1,0.3-0.4,0.5-0.7,0.7l-4.5,1.7c-0.1,0.1-0.3,0.1-0.4,0.1
	c-0.4,0-0.8-0.2-1-0.6l-5.2-10.3l-0.5,0.2c-0.3,0.1-0.5,0.2-0.8,0.2c-0.9,0-1.8-0.5-2.1-1.4l-1.9,0.7c-0.2,0.1-0.5,0.1-0.7,0.1
	c-0.3,0-0.5,0-0.8-0.2c-0.5-0.2-0.9-0.6-1-1.1l-2.4-6.3c-0.4-1,0.1-2.2,1.1-2.5l1.9-0.7l-0.1-0.3c-0.2-0.6-0.2-1.2,0-1.8
	c0.3-0.6,0.7-1,1.3-1.2l13.8-5.2l5.5,14.5l-3.9,1.5L84.2,102.5z M108.5,101.8c-0.3,0.3-0.7,0.5-1.1,0.5c-0.1,0-0.2,0-0.3,0
	l-17.8-3.6l-5.7-14.9l10.9-14.5c0.3-0.4,0.8-0.6,1.3-0.5c0.5,0.1,0.9,0.4,1.1,0.9l11.7,30.9C108.9,100.9,108.8,101.4,108.5,101.8z
	 M114.4,93.1l-5.3-0.4l0.2-2.2l5.3,0.4L114.4,93.1z M79.6,89.2l-8.2,3.1l0.6,1.6l1.5-0.6l6.8-2.6l-0.5-1.4L79.6,89.2z M79.7,89.4
	l-0.1-0.2l-8.2,3.1l0.6,1.6l1.5-0.6l6.8-2.6L79.7,89.4z M79.7,89.4l-0.1-0.2l-8.2,3.1l0.6,1.6l1.5-0.6l6.8-2.6L79.7,89.4z
	 M79.7,89.4l-0.1-0.2l-8.2,3.1l0.6,1.6l1.5-0.6l6.8-2.6L79.7,89.4z M79.7,89.4l-0.1-0.2l-8.2,3.1l0.6,1.6l1.5-0.6l6.8-2.6L79.7,89.4
	z M79.7,89.4l-0.1-0.2l-8.2,3.1l0.6,1.6l1.5-0.6l6.8-2.6L79.7,89.4z M79.7,89.4l-0.1-0.2l-8.2,3.1l0.6,1.6l1.5-0.6l6.8-2.6
	L79.7,89.4z M155,69.5c-0.3-1.1-1.4-2.3-4.4-2.3l-40.7,0.1c-2.2,0-4.7-1.8-5.3-3.9L92.1,24.7c-0.9-2.9-2.5-3.5-3.6-3.5
	c-1.1,0-2.6,0.6-3.6,3.5L72.5,63.4c-0.7,2-3.1,3.8-5.3,3.8l-40.7-0.1c-3,0-4.1,1.2-4.4,2.3c-0.3,1.1-0.2,2.7,2.2,4.5l33,23.9
	c1.7,1.3,2.7,4.2,2,6.3l-12.7,38.7c-0.6,1.8-0.5,3.3,0.2,4.3c0.5,0.7,1.4,1.2,2.3,1.2c1,0,2-0.4,3.2-1.3l32.9-24c0.8-0.6,2-1,3.3-1
	c1.2,0,2.4,0.4,3.3,1l32.8,24c1.2,0.9,2.2,1.3,3.2,1.3c0.9,0,1.8-0.4,2.3-1.1c0.7-1,0.8-2.5,0.2-4.3l-12.6-38.7
	c-0.7-2.1,0.3-5,2-6.2l33-23.8C155.2,72.2,155.3,70.6,155,69.5z M112.5,80.1l0.4,1.1l0.4,1l-5,1.9l-0.4-1l-0.4-1.1L112.5,80.1z
	 M106.1,71.1l0.8,0.8l0.8,0.8l-3.7,3.9l-0.8-0.8l-0.8-0.8L106.1,71.1z M84.2,102.5c0.4,1.1,0.3,2.3-0.4,3.3l-0.6,0.8l2.7,5.1
	c0.2,0.3,0.2,0.6,0.1,0.9c-0.1,0.3-0.4,0.5-0.7,0.7l-4.5,1.7c-0.1,0.1-0.3,0.1-0.4,0.1c-0.4,0-0.8-0.2-1-0.6l-5.2-10.3l-0.5,0.2
	c-0.3,0.1-0.5,0.2-0.8,0.2c-0.9,0-1.8-0.5-2.1-1.4l-1.9,0.7c-0.2,0.1-0.5,0.1-0.7,0.1c-0.3,0-0.5,0-0.8-0.2c-0.5-0.2-0.9-0.6-1-1.1
	l-2.4-6.3c-0.4-1,0.1-2.2,1.1-2.5l1.9-0.7l-0.1-0.3c-0.2-0.6-0.2-1.2,0-1.8c0.3-0.6,0.7-1,1.3-1.2l13.8-5.2l5.5,14.5l-3.9,1.5
	L84.2,102.5z M108.5,101.8c-0.3,0.3-0.7,0.5-1.1,0.5c-0.1,0-0.2,0-0.3,0l-17.8-3.6l-5.7-14.9l10.9-14.5c0.3-0.4,0.8-0.6,1.3-0.5
	c0.5,0.1,0.9,0.4,1.1,0.9l11.7,30.9C108.9,100.9,108.8,101.4,108.5,101.8z M114.4,93.1l-5.3-0.4l0.2-2.2l5.3,0.4L114.4,93.1z
	 M79.6,89.2l-8.2,3.1l0.6,1.6l1.5-0.6l6.8-2.6l-0.5-1.4L79.6,89.2z M79.7,89.4l-0.1-0.2l-8.2,3.1l0.6,1.6l1.5-0.6l6.8-2.6L79.7,89.4
	z M79.7,89.4l-0.1-0.2l-8.2,3.1l0.6,1.6l1.5-0.6l6.8-2.6L79.7,89.4z M79.7,89.4l-0.1-0.2l-8.2,3.1l0.6,1.6l1.5-0.6l6.8-2.6
	L79.7,89.4z M79.7,89.4l-0.1-0.2l-8.2,3.1l0.6,1.6l1.5-0.6l6.8-2.6L79.7,89.4z M79.7,89.4l-0.1-0.2l-8.2,3.1l0.6,1.6l1.5-0.6
	l6.8-2.6L79.7,89.4z M79.7,89.4l-0.1-0.2l-8.2,3.1l0.6,1.6l1.5-0.6l6.8-2.6L79.7,89.4z M155,69.5c-0.3-1.1-1.4-2.3-4.4-2.3
	l-40.7,0.1c-2.2,0-4.7-1.8-5.3-3.9L92.1,24.7c-0.9-2.9-2.5-3.5-3.6-3.5c-1.1,0-2.6,0.6-3.6,3.5L72.5,63.4c-0.7,2-3.1,3.8-5.3,3.8
	l-40.7-0.1c-3,0-4.1,1.2-4.4,2.3c-0.3,1.1-0.2,2.7,2.2,4.5l33,23.9c1.7,1.3,2.7,4.2,2,6.3l-12.7,38.7c-0.6,1.8-0.5,3.3,0.2,4.3
	c0.5,0.7,1.4,1.2,2.3,1.2c1,0,2-0.4,3.2-1.3l32.9-24c0.8-0.6,2-1,3.3-1c1.2,0,2.4,0.4,3.3,1l32.8,24c1.2,0.9,2.2,1.3,3.2,1.3
	c0.9,0,1.8-0.4,2.3-1.1c0.7-1,0.8-2.5,0.2-4.3l-12.6-38.7c-0.7-2.1,0.3-5,2-6.2l33-23.8C155.2,72.2,155.3,70.6,155,69.5z
	 M112.5,80.1l0.4,1.1l0.4,1l-5,1.9l-0.4-1l-0.4-1.1L112.5,80.1z M106.1,71.1l0.8,0.8l0.8,0.8l-3.7,3.9l-0.8-0.8l-0.8-0.8L106.1,71.1
	z M84.2,102.5c0.4,1.1,0.3,2.3-0.4,3.3l-0.6,0.8l2.7,5.1c0.2,0.3,0.2,0.6,0.1,0.9c-0.1,0.3-0.4,0.5-0.7,0.7l-4.5,1.7
	c-0.1,0.1-0.3,0.1-0.4,0.1c-0.4,0-0.8-0.2-1-0.6l-5.2-10.3l-0.5,0.2c-0.3,0.1-0.5,0.2-0.8,0.2c-0.9,0-1.8-0.5-2.1-1.4l-1.9,0.7
	c-0.2,0.1-0.5,0.1-0.7,0.1c-0.3,0-0.5,0-0.8-0.2c-0.5-0.2-0.9-0.6-1-1.1l-2.4-6.3c-0.4-1,0.1-2.2,1.1-2.5l1.9-0.7l-0.1-0.3
	c-0.2-0.6-0.2-1.2,0-1.8c0.3-0.6,0.7-1,1.3-1.2l13.8-5.2l5.5,14.5l-3.9,1.5L84.2,102.5z M108.5,101.8c-0.3,0.3-0.7,0.5-1.1,0.5
	c-0.1,0-0.2,0-0.3,0l-17.8-3.6l-5.7-14.9l10.9-14.5c0.3-0.4,0.8-0.6,1.3-0.5c0.5,0.1,0.9,0.4,1.1,0.9l11.7,30.9
	C108.9,100.9,108.8,101.4,108.5,101.8z M114.4,93.1l-5.3-0.4l0.2-2.2l5.3,0.4L114.4,93.1z M79.6,89.2l-8.2,3.1l0.6,1.6l1.5-0.6
	l6.8-2.6l-0.5-1.4L79.6,89.2z M79.7,89.4l-0.1-0.2l-8.2,3.1l0.6,1.6l1.5-0.6l6.8-2.6L79.7,89.4z M79.7,89.4l-0.1-0.2l-8.2,3.1
	l0.6,1.6l1.5-0.6l6.8-2.6L79.7,89.4z M79.7,89.4l-0.1-0.2l-8.2,3.1l0.6,1.6l1.5-0.6l6.8-2.6L79.7,89.4z M79.7,89.4l-0.1-0.2
	l-8.2,3.1l0.6,1.6l1.5-0.6l6.8-2.6L79.7,89.4z"/>
</svg>
