<?xml version="1.0" encoding="utf-8"?>
<!-- Generator: Adobe Illustrator 24.2.0, SVG Export Plug-In . SVG Version: 6.00 Build 0)  -->
<!DOCTYPE svg PUBLIC "-//W3C//DTD SVG 1.1//EN" "http://www.w3.org/Graphics/SVG/1.1/DTD/svg11.dtd" [
	<!ENTITY ns_extend "http://ns.adobe.com/Extensibility/1.0/">
	<!ENTITY ns_ai "http://ns.adobe.com/AdobeIllustrator/10.0/">
	<!ENTITY ns_graphs "http://ns.adobe.com/Graphs/1.0/">
	<!ENTITY ns_vars "http://ns.adobe.com/Variables/1.0/">
	<!ENTITY ns_imrep "http://ns.adobe.com/ImageReplacement/1.0/">
	<!ENTITY ns_sfw "http://ns.adobe.com/SaveForWeb/1.0/">
	<!ENTITY ns_custom "http://ns.adobe.com/GenericCustomNamespace/1.0/">
	<!ENTITY ns_adobe_xpath "http://ns.adobe.com/XPath/1.0/">
]>
<svg version="1.1" id="Layer_1" xmlns:x="&ns_extend;" xmlns:i="&ns_ai;" xmlns:graph="&ns_graphs;"
	 xmlns="http://www.w3.org/2000/svg" xmlns:xlink="http://www.w3.org/1999/xlink" x="0px" y="0px" viewBox="0 0 177.1 177.1"
	 style="enable-background:new 0 0 177.1 177.1;" xml:space="preserve">
<style type="text/css">
	.st0{fill:#FFFFFF;}
	.st1{clip-path:url(#SVGID_2_);}
	.st2{fill:#198DC6;}
</style>
<metadata>
	<sfw  xmlns="&ns_sfw;">
		<slices></slices>
		<sliceSourceBounds  bottomLeftOrigin="true" height="181.6" width="177.1" x="-257.4" y="8.3"></sliceSourceBounds>
	</sfw>
</metadata>
<circle class="st0" cx="88.5" cy="88.5" r="88.5"/>
<g>
	<defs>
		<circle id="SVGID_1_" cx="88.5" cy="88.5" r="88.5"/>
	</defs>
	<clipPath id="SVGID_2_">
		<use xlink:href="#SVGID_1_"  style="overflow:visible;"/>
	</clipPath>
	<g class="st1">
		<g>
			<g>
				<path class="st2" d="M131.1,82.9v11.6h-84V82.9c-0.2-4.5,12.5-12.3,24.1-18.3c1.5,1.5,3.2,2.8,5.2,3.9c0,0,11.9,5.5,25-0.2
					c1.9-1.1,3.7-2.4,5.4-3.9C118.4,70.6,130.9,78.2,131.1,82.9z"/>
			</g>
			<g>
				<g>
					<path class="st2" d="M126.8,122.9l-3.2,55c-0.2,2-1.1,3.6-2.2,3.6H56.2c-1.1,0-1.9-1.6-2.2-3.6l-3.2-55H126.8z"/>
				</g>
			</g>
			<g>
				<g>
					<path class="st2" d="M149.4,101.4l-5.6,15.9c-0.4,0.9-1.1,1.3-2.2,1.3H36.2c-0.9,0-1.7-0.6-1.9-1.5l-5.8-15.7
						c-0.2-0.6-0.2-1.3,0.2-1.9c0.4-0.6,1.1-0.9,1.7-0.9H147c0.6,0,1.3,0.4,1.7,0.9C149.4,100.1,149.6,100.8,149.4,101.4z"/>
				</g>
			</g>
			<g>
				<g>
					<path class="st2" d="M90.6,71.5c-1.1,0-2.4,0-3.4,0H90.6z"/>
				</g>
			</g>
			<g>
				<g>
					<path class="st2" d="M156.7,85.3c-2.2,2.2-5.4,2.2-7.5,0l-1.5-1.3l-7.5,10.3h-5.4l9.7-13.3l-3.7-3.4c-1.9,0.4-4.1,0-5.6-1.5
						l-6-6c-2.4-2.4-2.4-6,0-8.4l3.2-3.2c2.4-2.4,6-2.4,8.4,0l6,6c1.5,1.5,2.2,3.9,1.5,5.8l8,8C158.6,79.9,158.6,83.3,156.7,85.3z"
						/>
				</g>
			</g>
			<g>
				<g>
					<path class="st2" d="M36.6,77.5L32.9,81l9.7,13.3h-5.2L29.9,84l-1.3,1.5c-2.2,2.2-5.4,1.9-7.5,0s-2.2-5.4,0-7.5l8-8
						c-0.2-0.4-0.2-1.1-0.2-1.5c0-1.5,0.6-3,1.7-4.3l6-5.8c2.2-2.2,6.2-2.2,8.4,0l3.2,3.2c2.4,2.4,2.4,6,0,8.4l-6,6
						c-1.1,1.1-2.8,1.7-4.3,1.7C37.7,77.5,37,77.5,36.6,77.5z"/>
				</g>
			</g>
		</g>
		<ellipse class="st2" cx="88.8" cy="40.8" rx="20.8" ry="23.1"/>
	</g>
</g>
</svg>
