<?xml version="1.0" encoding="utf-8"?>
<!-- Generator: Adobe Illustrator 24.2.0, SVG Export Plug-In . SVG Version: 6.00 Build 0)  -->
<!DOCTYPE svg PUBLIC "-//W3C//DTD SVG 1.1//EN" "http://www.w3.org/Graphics/SVG/1.1/DTD/svg11.dtd" [
	<!ENTITY ns_extend "http://ns.adobe.com/Extensibility/1.0/">
	<!ENTITY ns_ai "http://ns.adobe.com/AdobeIllustrator/10.0/">
	<!ENTITY ns_graphs "http://ns.adobe.com/Graphs/1.0/">
	<!ENTITY ns_vars "http://ns.adobe.com/Variables/1.0/">
	<!ENTITY ns_imrep "http://ns.adobe.com/ImageReplacement/1.0/">
	<!ENTITY ns_sfw "http://ns.adobe.com/SaveForWeb/1.0/">
	<!ENTITY ns_custom "http://ns.adobe.com/GenericCustomNamespace/1.0/">
	<!ENTITY ns_adobe_xpath "http://ns.adobe.com/XPath/1.0/">
]>
<svg version="1.1" id="Layer_1" xmlns:x="&ns_extend;" xmlns:i="&ns_ai;" xmlns:graph="&ns_graphs;"
	 xmlns="http://www.w3.org/2000/svg" xmlns:xlink="http://www.w3.org/1999/xlink" x="0px" y="0px" viewBox="0 0 177.1 177.1"
	 style="enable-background:new 0 0 177.1 177.1;" xml:space="preserve">
<style type="text/css">
	.st0{fill:#FFFFFF;}
	.st1{clip-path:url(#SVGID_4_);fill:#198DC6;}
</style>
<metadata>
	<sfw  xmlns="&ns_sfw;">
		<slices></slices>
		<sliceSourceBounds  bottomLeftOrigin="true" height="182.4" width="177.1" x="-257.4" y="7.5"></sliceSourceBounds>
	</sfw>
</metadata>
<circle class="st0" cx="88.5" cy="88.5" r="88.5"/>
<g>
	<defs>
		<circle id="SVGID_1_" cx="88.5" cy="88.5" r="88.5"/>
	</defs>
	<clipPath id="SVGID_2_">
		<use xlink:href="#SVGID_1_"  style="overflow:visible;"/>
	</clipPath>
</g>
<g>
	<defs>
		<circle id="SVGID_3_" cx="88.5" cy="88.5" r="88.5"/>
	</defs>
	<clipPath id="SVGID_4_">
		<use xlink:href="#SVGID_3_"  style="overflow:visible;"/>
	</clipPath>
	<path class="st1" d="M89.7,53.8c9,0.6,16.8-6.3,17.4-15.3S100.8,21.6,91.8,21c-9-0.6-16.8,6.3-17.4,15.3
		C73.8,45.4,80.6,53.2,89.7,53.8C89.6,53.8,89.7,53.8,89.7,53.8z"/>
	<path class="st1" d="M64.6,104.6c-1.2-9.9-2.5-20-4-30c-0.3-0.3-0.6-0.7-0.8-1.1l0,0L31.5,148c0,0,12.3,2.3,28.7,4.6l4.2-46.8
		C64.5,105.4,64.5,105,64.6,104.6z"/>
	<path class="st1" d="M108.4,104.6c1.2-9.9,3.5-17.4,5-27.4c0.3-0.3,0.6-0.7,0.8-1.1l0,0L139,150c0,0-9.8,0.3-26.2,2.6l-4.2-46.8
		C108.6,105.4,108.5,105,108.4,104.6z"/>
	<path class="st1" d="M114.9,81.5c-2.3,8.1-4.4,16.2-6.5,24.3l0.2,1.4l5.2,50.5c11.4,0.3,21.1-0.4,26.4-2.7l-21.7-64.9L114.9,81.5z"
		/>
	<path class="st1" d="M129.5,24.8c-1.8-2.9-5.6-3.8-8.5-2.1c-3,1.8-3.9,5.6-2.1,8.5c4.8,8,6.1,13.5,5.9,16.6
		c-0.1,1.2-0.3,2.1-0.6,2.9c-1.6-0.6-3.5-0.8-5.5-0.2c-3.5,1-5.9,3.8-5.8,6.7c-0.3,0-0.6,0.1-1,0.1c-4.2,0.6-8.1,0.6-9.3,0.5h-0.3
		c-0.1,0-0.1,0-0.1,0c-0.3,0-0.6,0-0.9,0c0,0,0,0-0.1,0l-25.1-1.2h-0.1c-0.3,0-0.6-0.1-0.9-0.1c0,0,0,0,0,0c-0.1,0-0.2,0-0.3,0
		c-1.3,0-5.7-0.4-10.1-1.6c0.4-2.8-1.7-5.8-5.1-7.1c-1.9-0.7-3.8-0.8-5.5-0.3c-0.3-0.8-0.4-1.7-0.4-3c0.1-3.1,1.9-8.5,7.5-16
		c2.1-2.7,1.5-6.6-1.2-8.7c-2.8-2-6.6-1.5-8.7,1.3c-6.4,8.6-9.6,15.9-9.9,22.8c-0.3,5.6,1.7,10.7,4.9,14.2c4.7,5.3,10.9,7.6,16.3,9
		c0.6,0.1,1.2,0.3,1.7,0.4c0.6,5.2,1.8,12.1,3.6,17.6c-0.2,2.9,0,5.8,0.1,8.7c0.1,3.4,1.8,7.9,0.9,11.2c-0.1,0.4-0.2,0.9-0.3,1.4
		l-5.8,64.5c-0.4,5.2,3.4,9.8,8.6,10.2l0.1-0.1c5.1,0.4,9.5-3.4,10-8.6l5-53.5l5.7,55.2c0.4,4.6,4,8.1,8.6,8.6c0.5,0,1.1,0,1.6,0
		c5.2-0.5,9-5.1,8.5-10.3V172l-6.7-64.3c-0.1-0.6-0.2-1.2-0.4-1.8c-0.3-0.8,0.7-3,1-3.8c0.2-1.1,0.1-2,0.2-3.1
		c0.1-2.9,0-5.9,0.3-8.8c3.1-5.4,5.5-14.2,6.9-20.4c2.3-0.3,4.7-0.7,7.2-1.5c3.8-1.1,7.9-2.9,11.4-6.1c3.5-3.2,6-8,6.2-13.7
		C137.5,41.6,135,34,129.5,24.8z M95.6,82.4l1.5,10.4l-9.2-5.4L78.4,92L80.5,82l-7.4-7.5l10.5-1.3l4.9-9.4l4.5,9.6l9.9,1.8
		L95.6,82.4z"/>
</g>
</svg>
