<?xml version="1.0" encoding="utf-8"?>
<!-- Generator: Adobe Illustrator 24.2.0, SVG Export Plug-In . SVG Version: 6.00 Build 0)  -->
<!DOCTYPE svg PUBLIC "-//W3C//DTD SVG 1.1//EN" "http://www.w3.org/Graphics/SVG/1.1/DTD/svg11.dtd" [
	<!ENTITY ns_extend "http://ns.adobe.com/Extensibility/1.0/">
	<!ENTITY ns_ai "http://ns.adobe.com/AdobeIllustrator/10.0/">
	<!ENTITY ns_graphs "http://ns.adobe.com/Graphs/1.0/">
	<!ENTITY ns_vars "http://ns.adobe.com/Variables/1.0/">
	<!ENTITY ns_imrep "http://ns.adobe.com/ImageReplacement/1.0/">
	<!ENTITY ns_sfw "http://ns.adobe.com/SaveForWeb/1.0/">
	<!ENTITY ns_custom "http://ns.adobe.com/GenericCustomNamespace/1.0/">
	<!ENTITY ns_adobe_xpath "http://ns.adobe.com/XPath/1.0/">
]>
<svg version="1.1" id="Layer_1" xmlns:x="&ns_extend;" xmlns:i="&ns_ai;" xmlns:graph="&ns_graphs;"
	 xmlns="http://www.w3.org/2000/svg" xmlns:xlink="http://www.w3.org/1999/xlink" x="0px" y="0px" viewBox="0 0 177.1 177.1"
	 style="enable-background:new 0 0 177.1 177.1;" xml:space="preserve">
<style type="text/css">
	.st0{fill:#FFFFFF;}
	.st1{fill:#198DC6;}
</style>
<metadata>
	<sfw  xmlns="&ns_sfw;">
		<slices></slices>
		<sliceSourceBounds  bottomLeftOrigin="true" height="177.1" width="177.1" x="-257.4" y="12.9"></sliceSourceBounds>
	</sfw>
</metadata>
<circle class="st0" cx="88.5" cy="88.5" r="88.5"/>
<g>
	<path class="st1" d="M71.1,132l12.9-8.9c-0.1,0-0.1,0-0.2-0.1l-19.6-9l-11.6,10.9c-3.5,3.3-3.8,8.8-0.5,12.4l17.2,19.1
		c1.8,2,4.2,2.9,6.6,2.9c2.1,0,4.2-0.8,5.9-2.3c3.7-3.3,3.9-8.9,0.7-12.6L71.1,132z"/>
	<g>
		<path class="st1" d="M112.8,114l-19.6,9c-0.1,0-0.1,0-0.2,0.1l12.9,8.9l-11.3,12.6c-3.3,3.6-3,9.3,0.7,12.6
			c1.7,1.5,3.8,2.3,5.9,2.3c2.4,0,4.9-1,6.6-2.9l17.2-19.1c3.2-3.6,3-9.1-0.5-12.4L112.8,114z"/>
		<path class="st1" d="M140.5,64.7c-1.1-3.4-4.8-5.3-8.3-4.1l-32,10.7H76.8l-32-10.7c-3.4-1.1-7.1,0.7-8.3,4.1
			c-1.1,3.4,0.7,7.1,4.1,8.3l25,11.7v18.8h45.7V84.6l25-11.7C139.8,71.8,141.7,68.1,140.5,64.7z"/>
		<circle class="st1" cx="88.5" cy="41.3" r="23.6"/>
	</g>
</g>
</svg>
