<?xml version="1.0" encoding="utf-8"?>
<!-- Generator: Adobe Illustrator 23.1.0, SVG Export Plug-In . SVG Version: 6.00 Build 0)  -->
<!DOCTYPE svg PUBLIC "-//W3C//DTD SVG 1.1//EN" "http://www.w3.org/Graphics/SVG/1.1/DTD/svg11.dtd" [
	<!ENTITY ns_extend "http://ns.adobe.com/Extensibility/1.0/">
	<!ENTITY ns_ai "http://ns.adobe.com/AdobeIllustrator/10.0/">
	<!ENTITY ns_graphs "http://ns.adobe.com/Graphs/1.0/">
	<!ENTITY ns_vars "http://ns.adobe.com/Variables/1.0/">
	<!ENTITY ns_imrep "http://ns.adobe.com/ImageReplacement/1.0/">
	<!ENTITY ns_sfw "http://ns.adobe.com/SaveForWeb/1.0/">
	<!ENTITY ns_custom "http://ns.adobe.com/GenericCustomNamespace/1.0/">
	<!ENTITY ns_adobe_xpath "http://ns.adobe.com/XPath/1.0/">
]>
<svg version="1.1" id="Layer_1" xmlns:x="&ns_extend;" xmlns:i="&ns_ai;" xmlns:graph="&ns_graphs;"
	 xmlns="http://www.w3.org/2000/svg" xmlns:xlink="http://www.w3.org/1999/xlink" x="0px" y="0px" viewBox="0 0 1200.3 1459.1"
	 style="enable-background:new 0 0 1200.3 1459.1;" xml:space="preserve">
<style type="text/css">
	.st0{fill:#383432;}
</style>
<metadata>
	<sfw  xmlns="&ns_sfw;">
		<slices></slices>
		<sliceSourceBounds  bottomLeftOrigin="true" height="1459.1" width="1200.3" x="-1142.4" y="533.3"></sliceSourceBounds>
	</sfw>
</metadata>
<path class="st0" d="M551.8,987.2c4.2,14.4,17.9,25.8,33.6,32s33.3,7.8,50.6,8.1c22.8,0.4,46.9-1.6,65.4-12.9
	c13.4-8.2,21.9-21.8,22-36c0.1-14.5-14-29.4-26-36.1c-11.3-6.2-24.8-8.1-37.4-5.3c-8.4,1.9-16.5,5.9-25.1,6.3
	c-7.8,0.3-15.3-2.4-23-3.5C586.5,936,542.8,956.1,551.8,987.2z"/>
<path class="st0" d="M852.5,705.1c11.6,10.9,20.7,29.4,8.7,43.3c-5.9,6.9-15,10.5-24,11.5c-13,1.6-26.9-0.2-40-0.2
	c-14.9,0-29.8-0.1-44.7-0.2c-8.8,0-17.8-0.1-26.2-2.7c-14.1-4.3-21.3-18.3-20.8-32.3c0.8-19.3,18.1-22.5,33.1-23.7
	c23.4-1.9,46.9-3.8,70.3-5.7c8.9-0.7,18-1.4,26.8,0.5C841.6,696.9,847.5,700.4,852.5,705.1z"/>
<path class="st0" d="M400.6,749.9c-11.6-10.9-20.7-29.4-8.7-43.3c5.9-6.9,15-10.5,24-11.5c13-1.6,26.9,0.2,40,0.2
	c14.9,0,29.8,0.1,44.7,0.2c8.8,0,17.8,0.1,26.2,2.7c14.1,4.3,21.3,18.3,20.8,32.3c-0.8,19.3-18.1,22.5-33.1,23.7
	c-23.4,1.9-46.9,3.8-70.3,5.7c-8.9,0.7-18,1.4-26.8-0.5C411.5,758.1,405.6,754.6,400.6,749.9z"/>
<path class="st0" d="M298.4,657c43.5-44.6,119-62.6,169.9-40.6c18.1,7.8,79.9,39,75.3-5.7c-1-9.7-6.9-18.5-14.4-24.6
	s-16.6-9.9-25.7-12.8c-85.6-27.5-175,15.9-210.8,96.5"/>
<path class="st0" d="M951,657c-43.5-44.6-119-62.6-169.9-40.6c-18.1,7.8-79.9,39-75.3-5.7c1-9.7,6.9-18.5,14.4-24.6
	s16.6-9.9,25.7-12.8c85.6-27.5,175,15.9,210.8,96.5"/>
<path class="st0" d="M697,65.5c-8.3-3.4-18.6,4.8-18,14.3c-20.7-61-90.9-88.6-150.2-77.3c-59.4,11.3-110,51.7-157.3,92
	c-153.2,130.3-268.4,312.5-328,504C13.6,694.7,6.3,790.6,0.8,889.9c-9.9,178.7,75.6,351.4,219.9,457.1
	c59,43.2,126.8,73.9,197.9,90.8c45.5,10.8,175.8,39.1,211.8,4.7c-89.4-21.2-164.2-121.7-222.4-213.9
	c-86-136.1-130.7-326.2-72.1-481.3C371.5,653.1,422.2,561,480.6,479c88.1-123.9,76,32.7,128.1,89.7c58.8,64.4,135.2,61.3,212.1,57.4
	c65.7-3.3,87.4,49.7,109.2,106.2c34.5,89.4,64.5,187,74.2,283.6c4.3,43.1,2.4,87.7-11.3,128.5c-24.8,73.5-87.6,117.7-159.7,119.3
	c-57.9,1.2-114.8-25.3-157.8-67.1c27.4,82.7,92.9,149.6,171,174.6c118.1,37.8,251.5-18.6,299.4-141.8c30.3-78,57-181.2,54.3-265.8
	c-9.2-285.1-81.2-545.7-215.4-791.6C957,121.4,895.5,63.4,843.4,45.8c-69.4-23.5-140.8,23.3-200.6,68"/>
</svg>
