<?xml version="1.0" encoding="utf-8"?>
<!-- Generator: Adobe Illustrator 24.1.2, SVG Export Plug-In . SVG Version: 6.00 Build 0)  -->
<!DOCTYPE svg PUBLIC "-//W3C//DTD SVG 1.1//EN" "http://www.w3.org/Graphics/SVG/1.1/DTD/svg11.dtd" [
	<!ENTITY ns_extend "http://ns.adobe.com/Extensibility/1.0/">
	<!ENTITY ns_ai "http://ns.adobe.com/AdobeIllustrator/10.0/">
	<!ENTITY ns_graphs "http://ns.adobe.com/Graphs/1.0/">
	<!ENTITY ns_vars "http://ns.adobe.com/Variables/1.0/">
	<!ENTITY ns_imrep "http://ns.adobe.com/ImageReplacement/1.0/">
	<!ENTITY ns_sfw "http://ns.adobe.com/SaveForWeb/1.0/">
	<!ENTITY ns_custom "http://ns.adobe.com/GenericCustomNamespace/1.0/">
	<!ENTITY ns_adobe_xpath "http://ns.adobe.com/XPath/1.0/">
]>
<svg version="1.1" id="Layer_1" xmlns:x="&ns_extend;" xmlns:i="&ns_ai;" xmlns:graph="&ns_graphs;"
	 xmlns="http://www.w3.org/2000/svg" xmlns:xlink="http://www.w3.org/1999/xlink" x="0px" y="0px" viewBox="0 0 28.7 28.6"
	 style="enable-background:new 0 0 28.7 28.6;" xml:space="preserve">
<style type="text/css">
	.st0{fill:#FFFFFF;stroke:#37A8FF;stroke-width:1.4626;stroke-miterlimit:10;}
</style>
<metadata>
	<sfw  xmlns="&ns_sfw;">
		<slices></slices>
		<sliceSourceBounds  bottomLeftOrigin="true" height="28.6" width="28.7" x="-156.4" y="19.3"></sliceSourceBounds>
	</sfw>
</metadata>
<path class="st0" d="M18.3,27.9H0.7V10.5c0-5.4,4.4-9.8,9.8-9.8H28v17.4C28,23.5,23.6,27.9,18.3,27.9z"/>
<path d="M11.6,18.9c1.8,0,3.4-0.6,4.8-1.8l6.4,6.5c0.1,0.1,0.3,0.2,0.4,0.2c0.2,0,0.3-0.1,0.4-0.2c0.2-0.2,0.2-0.6,0-0.9l-6.4-6.5
	c2.4-2.9,2.3-7.1-0.4-9.9c-1.4-1.4-3.2-2.1-5.2-2.1S7.8,5,6.4,6.4c-2.9,2.9-2.9,7.5,0,10.4C7.8,18.2,9.6,18.9,11.6,18.9z M7.2,7.3
	c1.2-1.2,2.7-1.8,4.3-1.8s3.2,0.6,4.3,1.8c2.4,2.4,2.4,6.3,0,8.7c-1.2,1.2-2.7,1.8-4.3,1.8c-1.6,0-3.2-0.6-4.3-1.8
	C4.8,13.6,4.8,9.7,7.2,7.3z"/>
<path d="M8.8,12.2h2.3v2.3c0,0.4,0.2,0.6,0.6,0.6c0.4,0,0.6-0.2,0.6-0.6v-2.3h2.3c0.4,0,0.6-0.2,0.6-0.6c0-0.4-0.2-0.6-0.6-0.6h-2.3
	V8.7c0-0.4-0.2-0.6-0.6-0.6c-0.4,0-0.6,0.2-0.6,0.6V11H8.8c-0.4,0-0.6,0.2-0.6,0.6C8.2,11.9,8.4,12.2,8.8,12.2z"/>
</svg>
